%TF.GenerationSoftware,KiCad,Pcbnew,7.0.9*%
%TF.CreationDate,2023-12-13T08:08:03+01:00*%
%TF.ProjectId,Gas_Sensor,4761735f-5365-46e7-936f-722e6b696361,rev?*%
%TF.SameCoordinates,Original*%
%TF.FileFunction,Drillmap*%
%TF.FilePolarity,Positive*%
%FSLAX45Y45*%
G04 Gerber Fmt 4.5, Leading zero omitted, Abs format (unit mm)*
G04 Created by KiCad (PCBNEW 7.0.9) date 2023-12-13 08:08:03*
%MOMM*%
%LPD*%
G01*
G04 APERTURE LIST*
%ADD10C,0.100000*%
%ADD11C,0.200000*%
%ADD12C,0.101600*%
%ADD13C,0.110000*%
%ADD14C,0.168000*%
G04 APERTURE END LIST*
D10*
X9271000Y-1651000D02*
X9461500Y-1841500D01*
X9461500Y-1841500D02*
X9461500Y-2921000D01*
X3810000Y-1651000D02*
X3810000Y-6985000D01*
X3810000Y-7112000D02*
X3810000Y-6985000D01*
X9461500Y-7112000D02*
X3810000Y-7112000D01*
X3937000Y-1651000D02*
X3810000Y-1651000D01*
X9715500Y-3175000D02*
X9715500Y-6604000D01*
X9461500Y-2921000D02*
X9715500Y-3175000D01*
X9715500Y-6604000D02*
X9461500Y-7112000D01*
X3937000Y-1651000D02*
X9271000Y-1651000D01*
D11*
D10*
X6595000Y-5108500D02*
X6665000Y-5178500D01*
X6665000Y-5108500D02*
X6595000Y-5178500D01*
X6650767Y-4936867D02*
X6720767Y-5006867D01*
X6720767Y-4936867D02*
X6650767Y-5006867D01*
X6650767Y-5280133D02*
X6720767Y-5350133D01*
X6720767Y-5280133D02*
X6650767Y-5350133D01*
X6796767Y-4830792D02*
X6866767Y-4900792D01*
X6866767Y-4830792D02*
X6796767Y-4900792D01*
X6796767Y-5386209D02*
X6866767Y-5456209D01*
X6866767Y-5386209D02*
X6796767Y-5456209D01*
X6977233Y-4830792D02*
X7047233Y-4900792D01*
X7047233Y-4830792D02*
X6977233Y-4900792D01*
X6977233Y-5386209D02*
X7047233Y-5456209D01*
X7047233Y-5386209D02*
X6977233Y-5456209D01*
X7123233Y-4936867D02*
X7193233Y-5006867D01*
X7193233Y-4936867D02*
X7123233Y-5006867D01*
X7123233Y-5280133D02*
X7193233Y-5350133D01*
X7193233Y-5280133D02*
X7123233Y-5350133D01*
X7179000Y-5108500D02*
X7249000Y-5178500D01*
X7249000Y-5108500D02*
X7179000Y-5178500D01*
X7152000Y-6223000D02*
G75*
G03*
X7152000Y-6223000I-40000J0D01*
G01*
X7797920Y-6212080D02*
G75*
G03*
X7797920Y-6212080I-40000J0D01*
G01*
X8499550Y-2667000D02*
G75*
G03*
X8499550Y-2667000I-40000J0D01*
G01*
X9247500Y-2730500D02*
G75*
G03*
X9247500Y-2730500I-40000J0D01*
G01*
X4445000Y-4024000D02*
X4445000Y-4104000D01*
X4405000Y-4064000D02*
X4485000Y-4064000D01*
X4445000Y-4468500D02*
X4445000Y-4548500D01*
X4405000Y-4508500D02*
X4485000Y-4508500D01*
X4449000Y-3516000D02*
X4449000Y-3596000D01*
X4409000Y-3556000D02*
X4489000Y-3556000D01*
X4573000Y-2308500D02*
X4573000Y-2388500D01*
X4533000Y-2348500D02*
X4613000Y-2348500D01*
X4573000Y-3070500D02*
X4573000Y-3150500D01*
X4533000Y-3110500D02*
X4613000Y-3110500D01*
X4827000Y-2308500D02*
X4827000Y-2388500D01*
X4787000Y-2348500D02*
X4867000Y-2348500D01*
X4827000Y-3070500D02*
X4827000Y-3150500D01*
X4787000Y-3110500D02*
X4867000Y-3110500D01*
X4830000Y-6183000D02*
X4830000Y-6263000D01*
X4790000Y-6223000D02*
X4870000Y-6223000D01*
X4949000Y-3516000D02*
X4949000Y-3596000D01*
X4909000Y-3556000D02*
X4989000Y-3556000D01*
X5081000Y-2308500D02*
X5081000Y-2388500D01*
X5041000Y-2348500D02*
X5121000Y-2348500D01*
X5081000Y-3070500D02*
X5081000Y-3150500D01*
X5041000Y-3110500D02*
X5121000Y-3110500D01*
X5081000Y-4977500D02*
X5081000Y-5057500D01*
X5041000Y-5017500D02*
X5121000Y-5017500D01*
X5081000Y-5231500D02*
X5081000Y-5311500D01*
X5041000Y-5271500D02*
X5121000Y-5271500D01*
X5081000Y-5485500D02*
X5081000Y-5565500D01*
X5041000Y-5525500D02*
X5121000Y-5525500D01*
X5081000Y-5739500D02*
X5081000Y-5819500D01*
X5041000Y-5779500D02*
X5121000Y-5779500D01*
X5330000Y-6183000D02*
X5330000Y-6263000D01*
X5290000Y-6223000D02*
X5370000Y-6223000D01*
X5335000Y-2308500D02*
X5335000Y-2388500D01*
X5295000Y-2348500D02*
X5375000Y-2348500D01*
X5335000Y-3070500D02*
X5335000Y-3150500D01*
X5295000Y-3110500D02*
X5375000Y-3110500D01*
X5461000Y-4024000D02*
X5461000Y-4104000D01*
X5421000Y-4064000D02*
X5501000Y-4064000D01*
X5461000Y-4468500D02*
X5461000Y-4548500D01*
X5421000Y-4508500D02*
X5501000Y-4508500D01*
X5842000Y-3516000D02*
X5842000Y-3596000D01*
X5802000Y-3556000D02*
X5882000Y-3556000D01*
X5842000Y-4532000D02*
X5842000Y-4612000D01*
X5802000Y-4572000D02*
X5882000Y-4572000D01*
X5843000Y-4977500D02*
X5843000Y-5057500D01*
X5803000Y-5017500D02*
X5883000Y-5017500D01*
X5843000Y-5231500D02*
X5843000Y-5311500D01*
X5803000Y-5271500D02*
X5883000Y-5271500D01*
X5843000Y-5485500D02*
X5843000Y-5565500D01*
X5803000Y-5525500D02*
X5883000Y-5525500D01*
X5843000Y-5739500D02*
X5843000Y-5819500D01*
X5803000Y-5779500D02*
X5883000Y-5779500D01*
X5909500Y-6183000D02*
X5909500Y-6263000D01*
X5869500Y-6223000D02*
X5949500Y-6223000D01*
X6409500Y-6183000D02*
X6409500Y-6263000D01*
X6369500Y-6223000D02*
X6449500Y-6223000D01*
X6413500Y-5802000D02*
X6413500Y-5882000D01*
X6373500Y-5842000D02*
X6453500Y-5842000D01*
X7429500Y-5802000D02*
X7429500Y-5882000D01*
X7389500Y-5842000D02*
X7469500Y-5842000D01*
X7747000Y-5802000D02*
X7747000Y-5882000D01*
X7707000Y-5842000D02*
X7787000Y-5842000D01*
X7810500Y-4341500D02*
X7810500Y-4421500D01*
X7770500Y-4381500D02*
X7850500Y-4381500D01*
X7810500Y-5357500D02*
X7810500Y-5437500D01*
X7770500Y-5397500D02*
X7850500Y-5397500D01*
X8064500Y-3008000D02*
X8064500Y-3088000D01*
X8024500Y-3048000D02*
X8104500Y-3048000D01*
X8064500Y-4024000D02*
X8064500Y-4104000D01*
X8024500Y-4064000D02*
X8104500Y-4064000D01*
X8636000Y-3520000D02*
X8636000Y-3600000D01*
X8596000Y-3560000D02*
X8676000Y-3560000D01*
X8636000Y-4020000D02*
X8636000Y-4100000D01*
X8596000Y-4060000D02*
X8676000Y-4060000D01*
X8763000Y-5802000D02*
X8763000Y-5882000D01*
X8723000Y-5842000D02*
X8803000Y-5842000D01*
X6702856Y-2448356D02*
X6702856Y-2377644D01*
X6632144Y-2377644D01*
X6632144Y-2448356D01*
X6702856Y-2448356D01*
X6956856Y-2448356D02*
X6956856Y-2377644D01*
X6886144Y-2377644D01*
X6886144Y-2448356D01*
X6956856Y-2448356D01*
X7210856Y-2448356D02*
X7210856Y-2377644D01*
X7140144Y-2377644D01*
X7140144Y-2448356D01*
X7210856Y-2448356D01*
X7464856Y-2448356D02*
X7464856Y-2377644D01*
X7394144Y-2377644D01*
X7394144Y-2448356D01*
X7464856Y-2448356D01*
X7718856Y-2448356D02*
X7718856Y-2377644D01*
X7648144Y-2377644D01*
X7648144Y-2448356D01*
X7718856Y-2448356D01*
X7972856Y-2448356D02*
X7972856Y-2377644D01*
X7902144Y-2377644D01*
X7902144Y-2448356D01*
X7972856Y-2448356D01*
X8226856Y-2448356D02*
X8226856Y-2377644D01*
X8156144Y-2377644D01*
X8156144Y-2448356D01*
X8226856Y-2448356D01*
D12*
X4737100Y-1955800D02*
X4787900Y-1905000D01*
X4737100Y-1854200D01*
X4686300Y-1905000D01*
X4737100Y-1955800D01*
X4991100Y-1955800D02*
X5041900Y-1905000D01*
X4991100Y-1854200D01*
X4940300Y-1905000D01*
X4991100Y-1955800D01*
X5245100Y-1955800D02*
X5295900Y-1905000D01*
X5245100Y-1854200D01*
X5194300Y-1905000D01*
X5245100Y-1955800D01*
X5499100Y-1955800D02*
X5549900Y-1905000D01*
X5499100Y-1854200D01*
X5448300Y-1905000D01*
X5499100Y-1955800D01*
X5651500Y-6781800D02*
X5702300Y-6731000D01*
X5651500Y-6680200D01*
X5600700Y-6731000D01*
X5651500Y-6781800D01*
X5753100Y-1955800D02*
X5803900Y-1905000D01*
X5753100Y-1854200D01*
X5702300Y-1905000D01*
X5753100Y-1955800D01*
X5905500Y-6781800D02*
X5956300Y-6731000D01*
X5905500Y-6680200D01*
X5854700Y-6731000D01*
X5905500Y-6781800D01*
X6007100Y-1955800D02*
X6057900Y-1905000D01*
X6007100Y-1854200D01*
X5956300Y-1905000D01*
X6007100Y-1955800D01*
X6159500Y-6781800D02*
X6210300Y-6731000D01*
X6159500Y-6680200D01*
X6108700Y-6731000D01*
X6159500Y-6781800D01*
X6261100Y-1955800D02*
X6311900Y-1905000D01*
X6261100Y-1854200D01*
X6210300Y-1905000D01*
X6261100Y-1955800D01*
X6413500Y-6781800D02*
X6464300Y-6731000D01*
X6413500Y-6680200D01*
X6362700Y-6731000D01*
X6413500Y-6781800D01*
X6515100Y-1955800D02*
X6565900Y-1905000D01*
X6515100Y-1854200D01*
X6464300Y-1905000D01*
X6515100Y-1955800D01*
X6667500Y-6781800D02*
X6718300Y-6731000D01*
X6667500Y-6680200D01*
X6616700Y-6731000D01*
X6667500Y-6781800D01*
X6769100Y-1955800D02*
X6819900Y-1905000D01*
X6769100Y-1854200D01*
X6718300Y-1905000D01*
X6769100Y-1955800D01*
X6921500Y-6781800D02*
X6972300Y-6731000D01*
X6921500Y-6680200D01*
X6870700Y-6731000D01*
X6921500Y-6781800D01*
X7023100Y-1955800D02*
X7073900Y-1905000D01*
X7023100Y-1854200D01*
X6972300Y-1905000D01*
X7023100Y-1955800D01*
X7175500Y-6781800D02*
X7226300Y-6731000D01*
X7175500Y-6680200D01*
X7124700Y-6731000D01*
X7175500Y-6781800D01*
X7429500Y-1955800D02*
X7480300Y-1905000D01*
X7429500Y-1854200D01*
X7378700Y-1905000D01*
X7429500Y-1955800D01*
X7429500Y-6781800D02*
X7480300Y-6731000D01*
X7429500Y-6680200D01*
X7378700Y-6731000D01*
X7429500Y-6781800D01*
X7683500Y-1955800D02*
X7734300Y-1905000D01*
X7683500Y-1854200D01*
X7632700Y-1905000D01*
X7683500Y-1955800D01*
X7937500Y-1955800D02*
X7988300Y-1905000D01*
X7937500Y-1854200D01*
X7886700Y-1905000D01*
X7937500Y-1955800D01*
X7937500Y-6781800D02*
X7988300Y-6731000D01*
X7937500Y-6680200D01*
X7886700Y-6731000D01*
X7937500Y-6781800D01*
X8191500Y-1955800D02*
X8242300Y-1905000D01*
X8191500Y-1854200D01*
X8140700Y-1905000D01*
X8191500Y-1955800D01*
X8191500Y-6781800D02*
X8242300Y-6731000D01*
X8191500Y-6680200D01*
X8140700Y-6731000D01*
X8191500Y-6781800D01*
X8445500Y-1955800D02*
X8496300Y-1905000D01*
X8445500Y-1854200D01*
X8394700Y-1905000D01*
X8445500Y-1955800D01*
X8445500Y-6781800D02*
X8496300Y-6731000D01*
X8445500Y-6680200D01*
X8394700Y-6731000D01*
X8445500Y-6781800D01*
X8699500Y-1955800D02*
X8750300Y-1905000D01*
X8699500Y-1854200D01*
X8648700Y-1905000D01*
X8699500Y-1955800D01*
X8699500Y-6781800D02*
X8750300Y-6731000D01*
X8699500Y-6680200D01*
X8648700Y-6731000D01*
X8699500Y-6781800D01*
X8953500Y-1955800D02*
X9004300Y-1905000D01*
X8953500Y-1854200D01*
X8902700Y-1905000D01*
X8953500Y-1955800D01*
X8953500Y-6781800D02*
X9004300Y-6731000D01*
X8953500Y-6680200D01*
X8902700Y-6731000D01*
X8953500Y-6781800D01*
X9207500Y-1955800D02*
X9258300Y-1905000D01*
X9207500Y-1854200D01*
X9156700Y-1905000D01*
X9207500Y-1955800D01*
X9207500Y-6781800D02*
X9258300Y-6731000D01*
X9207500Y-6680200D01*
X9156700Y-6731000D01*
X9207500Y-6781800D01*
D13*
X8454000Y-5310000D02*
X8564000Y-5420000D01*
X8564000Y-5310000D02*
X8454000Y-5420000D01*
X8564000Y-5365000D02*
G75*
G03*
X8564000Y-5365000I-55000J0D01*
G01*
X8708000Y-5310000D02*
X8818000Y-5420000D01*
X8818000Y-5310000D02*
X8708000Y-5420000D01*
X8818000Y-5365000D02*
G75*
G03*
X8818000Y-5365000I-55000J0D01*
G01*
X8962000Y-5310000D02*
X9072000Y-5420000D01*
X9072000Y-5310000D02*
X8962000Y-5420000D01*
X9072000Y-5365000D02*
G75*
G03*
X9072000Y-5365000I-55000J0D01*
G01*
D14*
X6367500Y-3472000D02*
X6535500Y-3640000D01*
X6535500Y-3472000D02*
X6367500Y-3640000D01*
X6451500Y-3472000D02*
X6451500Y-3640000D01*
X6367500Y-3556000D02*
X6535500Y-3556000D01*
X6837500Y-3472000D02*
X7005500Y-3640000D01*
X7005500Y-3472000D02*
X6837500Y-3640000D01*
X6921500Y-3472000D02*
X6921500Y-3640000D01*
X6837500Y-3556000D02*
X7005500Y-3556000D01*
X7307500Y-3472000D02*
X7475500Y-3640000D01*
X7475500Y-3472000D02*
X7307500Y-3640000D01*
X7391500Y-3472000D02*
X7391500Y-3640000D01*
X7307500Y-3556000D02*
X7475500Y-3556000D01*
D11*
X4065777Y-7428484D02*
X4065777Y-7228484D01*
X4065777Y-7228484D02*
X4113396Y-7228484D01*
X4113396Y-7228484D02*
X4141967Y-7238008D01*
X4141967Y-7238008D02*
X4161015Y-7257055D01*
X4161015Y-7257055D02*
X4170539Y-7276103D01*
X4170539Y-7276103D02*
X4180062Y-7314198D01*
X4180062Y-7314198D02*
X4180062Y-7342769D01*
X4180062Y-7342769D02*
X4170539Y-7380865D01*
X4170539Y-7380865D02*
X4161015Y-7399912D01*
X4161015Y-7399912D02*
X4141967Y-7418960D01*
X4141967Y-7418960D02*
X4113396Y-7428484D01*
X4113396Y-7428484D02*
X4065777Y-7428484D01*
X4265777Y-7428484D02*
X4265777Y-7295150D01*
X4265777Y-7333246D02*
X4275301Y-7314198D01*
X4275301Y-7314198D02*
X4284824Y-7304674D01*
X4284824Y-7304674D02*
X4303872Y-7295150D01*
X4303872Y-7295150D02*
X4322920Y-7295150D01*
X4389586Y-7428484D02*
X4389586Y-7295150D01*
X4389586Y-7228484D02*
X4380063Y-7238008D01*
X4380063Y-7238008D02*
X4389586Y-7247531D01*
X4389586Y-7247531D02*
X4399110Y-7238008D01*
X4399110Y-7238008D02*
X4389586Y-7228484D01*
X4389586Y-7228484D02*
X4389586Y-7247531D01*
X4513396Y-7428484D02*
X4494348Y-7418960D01*
X4494348Y-7418960D02*
X4484824Y-7399912D01*
X4484824Y-7399912D02*
X4484824Y-7228484D01*
X4618158Y-7428484D02*
X4599110Y-7418960D01*
X4599110Y-7418960D02*
X4589586Y-7399912D01*
X4589586Y-7399912D02*
X4589586Y-7228484D01*
X4846729Y-7428484D02*
X4846729Y-7228484D01*
X4846729Y-7228484D02*
X4913396Y-7371341D01*
X4913396Y-7371341D02*
X4980063Y-7228484D01*
X4980063Y-7228484D02*
X4980063Y-7428484D01*
X5161015Y-7428484D02*
X5161015Y-7323722D01*
X5161015Y-7323722D02*
X5151491Y-7304674D01*
X5151491Y-7304674D02*
X5132444Y-7295150D01*
X5132444Y-7295150D02*
X5094348Y-7295150D01*
X5094348Y-7295150D02*
X5075301Y-7304674D01*
X5161015Y-7418960D02*
X5141967Y-7428484D01*
X5141967Y-7428484D02*
X5094348Y-7428484D01*
X5094348Y-7428484D02*
X5075301Y-7418960D01*
X5075301Y-7418960D02*
X5065777Y-7399912D01*
X5065777Y-7399912D02*
X5065777Y-7380865D01*
X5065777Y-7380865D02*
X5075301Y-7361817D01*
X5075301Y-7361817D02*
X5094348Y-7352293D01*
X5094348Y-7352293D02*
X5141967Y-7352293D01*
X5141967Y-7352293D02*
X5161015Y-7342769D01*
X5256253Y-7295150D02*
X5256253Y-7495150D01*
X5256253Y-7304674D02*
X5275301Y-7295150D01*
X5275301Y-7295150D02*
X5313396Y-7295150D01*
X5313396Y-7295150D02*
X5332444Y-7304674D01*
X5332444Y-7304674D02*
X5341967Y-7314198D01*
X5341967Y-7314198D02*
X5351491Y-7333246D01*
X5351491Y-7333246D02*
X5351491Y-7390388D01*
X5351491Y-7390388D02*
X5341967Y-7409436D01*
X5341967Y-7409436D02*
X5332444Y-7418960D01*
X5332444Y-7418960D02*
X5313396Y-7428484D01*
X5313396Y-7428484D02*
X5275301Y-7428484D01*
X5275301Y-7428484D02*
X5256253Y-7418960D01*
X5437205Y-7409436D02*
X5446729Y-7418960D01*
X5446729Y-7418960D02*
X5437205Y-7428484D01*
X5437205Y-7428484D02*
X5427682Y-7418960D01*
X5427682Y-7418960D02*
X5437205Y-7409436D01*
X5437205Y-7409436D02*
X5437205Y-7428484D01*
X5437205Y-7304674D02*
X5446729Y-7314198D01*
X5446729Y-7314198D02*
X5437205Y-7323722D01*
X5437205Y-7323722D02*
X5427682Y-7314198D01*
X5427682Y-7314198D02*
X5437205Y-7304674D01*
X5437205Y-7304674D02*
X5437205Y-7323722D01*
D10*
X3735000Y-7722000D02*
X3805000Y-7792000D01*
X3805000Y-7722000D02*
X3735000Y-7792000D01*
D11*
X4103872Y-7648484D02*
X4122920Y-7648484D01*
X4122920Y-7648484D02*
X4141967Y-7658008D01*
X4141967Y-7658008D02*
X4151491Y-7667531D01*
X4151491Y-7667531D02*
X4161015Y-7686579D01*
X4161015Y-7686579D02*
X4170539Y-7724674D01*
X4170539Y-7724674D02*
X4170539Y-7772293D01*
X4170539Y-7772293D02*
X4161015Y-7810388D01*
X4161015Y-7810388D02*
X4151491Y-7829436D01*
X4151491Y-7829436D02*
X4141967Y-7838960D01*
X4141967Y-7838960D02*
X4122920Y-7848484D01*
X4122920Y-7848484D02*
X4103872Y-7848484D01*
X4103872Y-7848484D02*
X4084824Y-7838960D01*
X4084824Y-7838960D02*
X4075301Y-7829436D01*
X4075301Y-7829436D02*
X4065777Y-7810388D01*
X4065777Y-7810388D02*
X4056253Y-7772293D01*
X4056253Y-7772293D02*
X4056253Y-7724674D01*
X4056253Y-7724674D02*
X4065777Y-7686579D01*
X4065777Y-7686579D02*
X4075301Y-7667531D01*
X4075301Y-7667531D02*
X4084824Y-7658008D01*
X4084824Y-7658008D02*
X4103872Y-7648484D01*
X4256253Y-7829436D02*
X4265777Y-7838960D01*
X4265777Y-7838960D02*
X4256253Y-7848484D01*
X4256253Y-7848484D02*
X4246729Y-7838960D01*
X4246729Y-7838960D02*
X4256253Y-7829436D01*
X4256253Y-7829436D02*
X4256253Y-7848484D01*
X4332444Y-7648484D02*
X4465777Y-7648484D01*
X4465777Y-7648484D02*
X4380063Y-7848484D01*
X4580063Y-7648484D02*
X4599110Y-7648484D01*
X4599110Y-7648484D02*
X4618158Y-7658008D01*
X4618158Y-7658008D02*
X4627682Y-7667531D01*
X4627682Y-7667531D02*
X4637205Y-7686579D01*
X4637205Y-7686579D02*
X4646729Y-7724674D01*
X4646729Y-7724674D02*
X4646729Y-7772293D01*
X4646729Y-7772293D02*
X4637205Y-7810388D01*
X4637205Y-7810388D02*
X4627682Y-7829436D01*
X4627682Y-7829436D02*
X4618158Y-7838960D01*
X4618158Y-7838960D02*
X4599110Y-7848484D01*
X4599110Y-7848484D02*
X4580063Y-7848484D01*
X4580063Y-7848484D02*
X4561015Y-7838960D01*
X4561015Y-7838960D02*
X4551491Y-7829436D01*
X4551491Y-7829436D02*
X4541967Y-7810388D01*
X4541967Y-7810388D02*
X4532444Y-7772293D01*
X4532444Y-7772293D02*
X4532444Y-7724674D01*
X4532444Y-7724674D02*
X4541967Y-7686579D01*
X4541967Y-7686579D02*
X4551491Y-7667531D01*
X4551491Y-7667531D02*
X4561015Y-7658008D01*
X4561015Y-7658008D02*
X4580063Y-7648484D01*
X4770539Y-7648484D02*
X4789586Y-7648484D01*
X4789586Y-7648484D02*
X4808634Y-7658008D01*
X4808634Y-7658008D02*
X4818158Y-7667531D01*
X4818158Y-7667531D02*
X4827682Y-7686579D01*
X4827682Y-7686579D02*
X4837205Y-7724674D01*
X4837205Y-7724674D02*
X4837205Y-7772293D01*
X4837205Y-7772293D02*
X4827682Y-7810388D01*
X4827682Y-7810388D02*
X4818158Y-7829436D01*
X4818158Y-7829436D02*
X4808634Y-7838960D01*
X4808634Y-7838960D02*
X4789586Y-7848484D01*
X4789586Y-7848484D02*
X4770539Y-7848484D01*
X4770539Y-7848484D02*
X4751491Y-7838960D01*
X4751491Y-7838960D02*
X4741967Y-7829436D01*
X4741967Y-7829436D02*
X4732444Y-7810388D01*
X4732444Y-7810388D02*
X4722920Y-7772293D01*
X4722920Y-7772293D02*
X4722920Y-7724674D01*
X4722920Y-7724674D02*
X4732444Y-7686579D01*
X4732444Y-7686579D02*
X4741967Y-7667531D01*
X4741967Y-7667531D02*
X4751491Y-7658008D01*
X4751491Y-7658008D02*
X4770539Y-7648484D01*
X4922920Y-7848484D02*
X4922920Y-7715150D01*
X4922920Y-7734198D02*
X4932444Y-7724674D01*
X4932444Y-7724674D02*
X4951491Y-7715150D01*
X4951491Y-7715150D02*
X4980063Y-7715150D01*
X4980063Y-7715150D02*
X4999110Y-7724674D01*
X4999110Y-7724674D02*
X5008634Y-7743722D01*
X5008634Y-7743722D02*
X5008634Y-7848484D01*
X5008634Y-7743722D02*
X5018158Y-7724674D01*
X5018158Y-7724674D02*
X5037205Y-7715150D01*
X5037205Y-7715150D02*
X5065777Y-7715150D01*
X5065777Y-7715150D02*
X5084825Y-7724674D01*
X5084825Y-7724674D02*
X5094348Y-7743722D01*
X5094348Y-7743722D02*
X5094348Y-7848484D01*
X5189586Y-7848484D02*
X5189586Y-7715150D01*
X5189586Y-7734198D02*
X5199110Y-7724674D01*
X5199110Y-7724674D02*
X5218158Y-7715150D01*
X5218158Y-7715150D02*
X5246729Y-7715150D01*
X5246729Y-7715150D02*
X5265777Y-7724674D01*
X5265777Y-7724674D02*
X5275301Y-7743722D01*
X5275301Y-7743722D02*
X5275301Y-7848484D01*
X5275301Y-7743722D02*
X5284825Y-7724674D01*
X5284825Y-7724674D02*
X5303872Y-7715150D01*
X5303872Y-7715150D02*
X5332444Y-7715150D01*
X5332444Y-7715150D02*
X5351491Y-7724674D01*
X5351491Y-7724674D02*
X5361015Y-7743722D01*
X5361015Y-7743722D02*
X5361015Y-7848484D01*
X5751491Y-7638960D02*
X5580063Y-7896103D01*
X6008634Y-7648484D02*
X6027682Y-7648484D01*
X6027682Y-7648484D02*
X6046729Y-7658008D01*
X6046729Y-7658008D02*
X6056253Y-7667531D01*
X6056253Y-7667531D02*
X6065777Y-7686579D01*
X6065777Y-7686579D02*
X6075301Y-7724674D01*
X6075301Y-7724674D02*
X6075301Y-7772293D01*
X6075301Y-7772293D02*
X6065777Y-7810388D01*
X6065777Y-7810388D02*
X6056253Y-7829436D01*
X6056253Y-7829436D02*
X6046729Y-7838960D01*
X6046729Y-7838960D02*
X6027682Y-7848484D01*
X6027682Y-7848484D02*
X6008634Y-7848484D01*
X6008634Y-7848484D02*
X5989586Y-7838960D01*
X5989586Y-7838960D02*
X5980063Y-7829436D01*
X5980063Y-7829436D02*
X5970539Y-7810388D01*
X5970539Y-7810388D02*
X5961015Y-7772293D01*
X5961015Y-7772293D02*
X5961015Y-7724674D01*
X5961015Y-7724674D02*
X5970539Y-7686579D01*
X5970539Y-7686579D02*
X5980063Y-7667531D01*
X5980063Y-7667531D02*
X5989586Y-7658008D01*
X5989586Y-7658008D02*
X6008634Y-7648484D01*
X6161015Y-7829436D02*
X6170539Y-7838960D01*
X6170539Y-7838960D02*
X6161015Y-7848484D01*
X6161015Y-7848484D02*
X6151491Y-7838960D01*
X6151491Y-7838960D02*
X6161015Y-7829436D01*
X6161015Y-7829436D02*
X6161015Y-7848484D01*
X6294348Y-7648484D02*
X6313396Y-7648484D01*
X6313396Y-7648484D02*
X6332444Y-7658008D01*
X6332444Y-7658008D02*
X6341967Y-7667531D01*
X6341967Y-7667531D02*
X6351491Y-7686579D01*
X6351491Y-7686579D02*
X6361015Y-7724674D01*
X6361015Y-7724674D02*
X6361015Y-7772293D01*
X6361015Y-7772293D02*
X6351491Y-7810388D01*
X6351491Y-7810388D02*
X6341967Y-7829436D01*
X6341967Y-7829436D02*
X6332444Y-7838960D01*
X6332444Y-7838960D02*
X6313396Y-7848484D01*
X6313396Y-7848484D02*
X6294348Y-7848484D01*
X6294348Y-7848484D02*
X6275301Y-7838960D01*
X6275301Y-7838960D02*
X6265777Y-7829436D01*
X6265777Y-7829436D02*
X6256253Y-7810388D01*
X6256253Y-7810388D02*
X6246729Y-7772293D01*
X6246729Y-7772293D02*
X6246729Y-7724674D01*
X6246729Y-7724674D02*
X6256253Y-7686579D01*
X6256253Y-7686579D02*
X6265777Y-7667531D01*
X6265777Y-7667531D02*
X6275301Y-7658008D01*
X6275301Y-7658008D02*
X6294348Y-7648484D01*
X6437206Y-7667531D02*
X6446729Y-7658008D01*
X6446729Y-7658008D02*
X6465777Y-7648484D01*
X6465777Y-7648484D02*
X6513396Y-7648484D01*
X6513396Y-7648484D02*
X6532444Y-7658008D01*
X6532444Y-7658008D02*
X6541967Y-7667531D01*
X6541967Y-7667531D02*
X6551491Y-7686579D01*
X6551491Y-7686579D02*
X6551491Y-7705627D01*
X6551491Y-7705627D02*
X6541967Y-7734198D01*
X6541967Y-7734198D02*
X6427682Y-7848484D01*
X6427682Y-7848484D02*
X6551491Y-7848484D01*
X6618158Y-7648484D02*
X6751491Y-7648484D01*
X6751491Y-7648484D02*
X6665777Y-7848484D01*
X6913396Y-7648484D02*
X6875301Y-7648484D01*
X6875301Y-7648484D02*
X6856253Y-7658008D01*
X6856253Y-7658008D02*
X6846729Y-7667531D01*
X6846729Y-7667531D02*
X6827682Y-7696103D01*
X6827682Y-7696103D02*
X6818158Y-7734198D01*
X6818158Y-7734198D02*
X6818158Y-7810388D01*
X6818158Y-7810388D02*
X6827682Y-7829436D01*
X6827682Y-7829436D02*
X6837206Y-7838960D01*
X6837206Y-7838960D02*
X6856253Y-7848484D01*
X6856253Y-7848484D02*
X6894348Y-7848484D01*
X6894348Y-7848484D02*
X6913396Y-7838960D01*
X6913396Y-7838960D02*
X6922920Y-7829436D01*
X6922920Y-7829436D02*
X6932444Y-7810388D01*
X6932444Y-7810388D02*
X6932444Y-7762769D01*
X6932444Y-7762769D02*
X6922920Y-7743722D01*
X6922920Y-7743722D02*
X6913396Y-7734198D01*
X6913396Y-7734198D02*
X6894348Y-7724674D01*
X6894348Y-7724674D02*
X6856253Y-7724674D01*
X6856253Y-7724674D02*
X6837206Y-7734198D01*
X6837206Y-7734198D02*
X6827682Y-7743722D01*
X6827682Y-7743722D02*
X6818158Y-7762769D01*
X7008634Y-7648484D02*
X7008634Y-7686579D01*
X7084825Y-7648484D02*
X7084825Y-7686579D01*
X7380063Y-7924674D02*
X7370539Y-7915150D01*
X7370539Y-7915150D02*
X7351491Y-7886579D01*
X7351491Y-7886579D02*
X7341968Y-7867531D01*
X7341968Y-7867531D02*
X7332444Y-7838960D01*
X7332444Y-7838960D02*
X7322920Y-7791341D01*
X7322920Y-7791341D02*
X7322920Y-7753246D01*
X7322920Y-7753246D02*
X7332444Y-7705627D01*
X7332444Y-7705627D02*
X7341968Y-7677055D01*
X7341968Y-7677055D02*
X7351491Y-7658008D01*
X7351491Y-7658008D02*
X7370539Y-7629436D01*
X7370539Y-7629436D02*
X7380063Y-7619912D01*
X7561015Y-7848484D02*
X7446729Y-7848484D01*
X7503872Y-7848484D02*
X7503872Y-7648484D01*
X7503872Y-7648484D02*
X7484825Y-7677055D01*
X7484825Y-7677055D02*
X7465777Y-7696103D01*
X7465777Y-7696103D02*
X7446729Y-7705627D01*
X7684825Y-7648484D02*
X7703872Y-7648484D01*
X7703872Y-7648484D02*
X7722920Y-7658008D01*
X7722920Y-7658008D02*
X7732444Y-7667531D01*
X7732444Y-7667531D02*
X7741968Y-7686579D01*
X7741968Y-7686579D02*
X7751491Y-7724674D01*
X7751491Y-7724674D02*
X7751491Y-7772293D01*
X7751491Y-7772293D02*
X7741968Y-7810388D01*
X7741968Y-7810388D02*
X7732444Y-7829436D01*
X7732444Y-7829436D02*
X7722920Y-7838960D01*
X7722920Y-7838960D02*
X7703872Y-7848484D01*
X7703872Y-7848484D02*
X7684825Y-7848484D01*
X7684825Y-7848484D02*
X7665777Y-7838960D01*
X7665777Y-7838960D02*
X7656253Y-7829436D01*
X7656253Y-7829436D02*
X7646729Y-7810388D01*
X7646729Y-7810388D02*
X7637206Y-7772293D01*
X7637206Y-7772293D02*
X7637206Y-7724674D01*
X7637206Y-7724674D02*
X7646729Y-7686579D01*
X7646729Y-7686579D02*
X7656253Y-7667531D01*
X7656253Y-7667531D02*
X7665777Y-7658008D01*
X7665777Y-7658008D02*
X7684825Y-7648484D01*
X7989587Y-7848484D02*
X7989587Y-7648484D01*
X8075301Y-7848484D02*
X8075301Y-7743722D01*
X8075301Y-7743722D02*
X8065777Y-7724674D01*
X8065777Y-7724674D02*
X8046730Y-7715150D01*
X8046730Y-7715150D02*
X8018158Y-7715150D01*
X8018158Y-7715150D02*
X7999110Y-7724674D01*
X7999110Y-7724674D02*
X7989587Y-7734198D01*
X8199110Y-7848484D02*
X8180063Y-7838960D01*
X8180063Y-7838960D02*
X8170539Y-7829436D01*
X8170539Y-7829436D02*
X8161015Y-7810388D01*
X8161015Y-7810388D02*
X8161015Y-7753246D01*
X8161015Y-7753246D02*
X8170539Y-7734198D01*
X8170539Y-7734198D02*
X8180063Y-7724674D01*
X8180063Y-7724674D02*
X8199110Y-7715150D01*
X8199110Y-7715150D02*
X8227682Y-7715150D01*
X8227682Y-7715150D02*
X8246730Y-7724674D01*
X8246730Y-7724674D02*
X8256253Y-7734198D01*
X8256253Y-7734198D02*
X8265777Y-7753246D01*
X8265777Y-7753246D02*
X8265777Y-7810388D01*
X8265777Y-7810388D02*
X8256253Y-7829436D01*
X8256253Y-7829436D02*
X8246730Y-7838960D01*
X8246730Y-7838960D02*
X8227682Y-7848484D01*
X8227682Y-7848484D02*
X8199110Y-7848484D01*
X8380063Y-7848484D02*
X8361015Y-7838960D01*
X8361015Y-7838960D02*
X8351491Y-7819912D01*
X8351491Y-7819912D02*
X8351491Y-7648484D01*
X8532444Y-7838960D02*
X8513396Y-7848484D01*
X8513396Y-7848484D02*
X8475301Y-7848484D01*
X8475301Y-7848484D02*
X8456253Y-7838960D01*
X8456253Y-7838960D02*
X8446730Y-7819912D01*
X8446730Y-7819912D02*
X8446730Y-7743722D01*
X8446730Y-7743722D02*
X8456253Y-7724674D01*
X8456253Y-7724674D02*
X8475301Y-7715150D01*
X8475301Y-7715150D02*
X8513396Y-7715150D01*
X8513396Y-7715150D02*
X8532444Y-7724674D01*
X8532444Y-7724674D02*
X8541968Y-7743722D01*
X8541968Y-7743722D02*
X8541968Y-7762769D01*
X8541968Y-7762769D02*
X8446730Y-7781817D01*
X8618158Y-7838960D02*
X8637206Y-7848484D01*
X8637206Y-7848484D02*
X8675301Y-7848484D01*
X8675301Y-7848484D02*
X8694349Y-7838960D01*
X8694349Y-7838960D02*
X8703873Y-7819912D01*
X8703873Y-7819912D02*
X8703873Y-7810388D01*
X8703873Y-7810388D02*
X8694349Y-7791341D01*
X8694349Y-7791341D02*
X8675301Y-7781817D01*
X8675301Y-7781817D02*
X8646730Y-7781817D01*
X8646730Y-7781817D02*
X8627682Y-7772293D01*
X8627682Y-7772293D02*
X8618158Y-7753246D01*
X8618158Y-7753246D02*
X8618158Y-7743722D01*
X8618158Y-7743722D02*
X8627682Y-7724674D01*
X8627682Y-7724674D02*
X8646730Y-7715150D01*
X8646730Y-7715150D02*
X8675301Y-7715150D01*
X8675301Y-7715150D02*
X8694349Y-7724674D01*
X8770539Y-7924674D02*
X8780063Y-7915150D01*
X8780063Y-7915150D02*
X8799111Y-7886579D01*
X8799111Y-7886579D02*
X8808634Y-7867531D01*
X8808634Y-7867531D02*
X8818158Y-7838960D01*
X8818158Y-7838960D02*
X8827682Y-7791341D01*
X8827682Y-7791341D02*
X8827682Y-7753246D01*
X8827682Y-7753246D02*
X8818158Y-7705627D01*
X8818158Y-7705627D02*
X8808634Y-7677055D01*
X8808634Y-7677055D02*
X8799111Y-7658008D01*
X8799111Y-7658008D02*
X8780063Y-7629436D01*
X8780063Y-7629436D02*
X8770539Y-7619912D01*
D10*
X3805000Y-8021000D02*
G75*
G03*
X3805000Y-8021000I-40000J0D01*
G01*
D11*
X4103872Y-7912484D02*
X4122920Y-7912484D01*
X4122920Y-7912484D02*
X4141967Y-7922008D01*
X4141967Y-7922008D02*
X4151491Y-7931531D01*
X4151491Y-7931531D02*
X4161015Y-7950579D01*
X4161015Y-7950579D02*
X4170539Y-7988674D01*
X4170539Y-7988674D02*
X4170539Y-8036293D01*
X4170539Y-8036293D02*
X4161015Y-8074388D01*
X4161015Y-8074388D02*
X4151491Y-8093436D01*
X4151491Y-8093436D02*
X4141967Y-8102960D01*
X4141967Y-8102960D02*
X4122920Y-8112484D01*
X4122920Y-8112484D02*
X4103872Y-8112484D01*
X4103872Y-8112484D02*
X4084824Y-8102960D01*
X4084824Y-8102960D02*
X4075301Y-8093436D01*
X4075301Y-8093436D02*
X4065777Y-8074388D01*
X4065777Y-8074388D02*
X4056253Y-8036293D01*
X4056253Y-8036293D02*
X4056253Y-7988674D01*
X4056253Y-7988674D02*
X4065777Y-7950579D01*
X4065777Y-7950579D02*
X4075301Y-7931531D01*
X4075301Y-7931531D02*
X4084824Y-7922008D01*
X4084824Y-7922008D02*
X4103872Y-7912484D01*
X4256253Y-8093436D02*
X4265777Y-8102960D01*
X4265777Y-8102960D02*
X4256253Y-8112484D01*
X4256253Y-8112484D02*
X4246729Y-8102960D01*
X4246729Y-8102960D02*
X4256253Y-8093436D01*
X4256253Y-8093436D02*
X4256253Y-8112484D01*
X4380063Y-7998198D02*
X4361015Y-7988674D01*
X4361015Y-7988674D02*
X4351491Y-7979150D01*
X4351491Y-7979150D02*
X4341967Y-7960103D01*
X4341967Y-7960103D02*
X4341967Y-7950579D01*
X4341967Y-7950579D02*
X4351491Y-7931531D01*
X4351491Y-7931531D02*
X4361015Y-7922008D01*
X4361015Y-7922008D02*
X4380063Y-7912484D01*
X4380063Y-7912484D02*
X4418158Y-7912484D01*
X4418158Y-7912484D02*
X4437205Y-7922008D01*
X4437205Y-7922008D02*
X4446729Y-7931531D01*
X4446729Y-7931531D02*
X4456253Y-7950579D01*
X4456253Y-7950579D02*
X4456253Y-7960103D01*
X4456253Y-7960103D02*
X4446729Y-7979150D01*
X4446729Y-7979150D02*
X4437205Y-7988674D01*
X4437205Y-7988674D02*
X4418158Y-7998198D01*
X4418158Y-7998198D02*
X4380063Y-7998198D01*
X4380063Y-7998198D02*
X4361015Y-8007722D01*
X4361015Y-8007722D02*
X4351491Y-8017246D01*
X4351491Y-8017246D02*
X4341967Y-8036293D01*
X4341967Y-8036293D02*
X4341967Y-8074388D01*
X4341967Y-8074388D02*
X4351491Y-8093436D01*
X4351491Y-8093436D02*
X4361015Y-8102960D01*
X4361015Y-8102960D02*
X4380063Y-8112484D01*
X4380063Y-8112484D02*
X4418158Y-8112484D01*
X4418158Y-8112484D02*
X4437205Y-8102960D01*
X4437205Y-8102960D02*
X4446729Y-8093436D01*
X4446729Y-8093436D02*
X4456253Y-8074388D01*
X4456253Y-8074388D02*
X4456253Y-8036293D01*
X4456253Y-8036293D02*
X4446729Y-8017246D01*
X4446729Y-8017246D02*
X4437205Y-8007722D01*
X4437205Y-8007722D02*
X4418158Y-7998198D01*
X4580063Y-7912484D02*
X4599110Y-7912484D01*
X4599110Y-7912484D02*
X4618158Y-7922008D01*
X4618158Y-7922008D02*
X4627682Y-7931531D01*
X4627682Y-7931531D02*
X4637205Y-7950579D01*
X4637205Y-7950579D02*
X4646729Y-7988674D01*
X4646729Y-7988674D02*
X4646729Y-8036293D01*
X4646729Y-8036293D02*
X4637205Y-8074388D01*
X4637205Y-8074388D02*
X4627682Y-8093436D01*
X4627682Y-8093436D02*
X4618158Y-8102960D01*
X4618158Y-8102960D02*
X4599110Y-8112484D01*
X4599110Y-8112484D02*
X4580063Y-8112484D01*
X4580063Y-8112484D02*
X4561015Y-8102960D01*
X4561015Y-8102960D02*
X4551491Y-8093436D01*
X4551491Y-8093436D02*
X4541967Y-8074388D01*
X4541967Y-8074388D02*
X4532444Y-8036293D01*
X4532444Y-8036293D02*
X4532444Y-7988674D01*
X4532444Y-7988674D02*
X4541967Y-7950579D01*
X4541967Y-7950579D02*
X4551491Y-7931531D01*
X4551491Y-7931531D02*
X4561015Y-7922008D01*
X4561015Y-7922008D02*
X4580063Y-7912484D01*
X4770539Y-7912484D02*
X4789586Y-7912484D01*
X4789586Y-7912484D02*
X4808634Y-7922008D01*
X4808634Y-7922008D02*
X4818158Y-7931531D01*
X4818158Y-7931531D02*
X4827682Y-7950579D01*
X4827682Y-7950579D02*
X4837205Y-7988674D01*
X4837205Y-7988674D02*
X4837205Y-8036293D01*
X4837205Y-8036293D02*
X4827682Y-8074388D01*
X4827682Y-8074388D02*
X4818158Y-8093436D01*
X4818158Y-8093436D02*
X4808634Y-8102960D01*
X4808634Y-8102960D02*
X4789586Y-8112484D01*
X4789586Y-8112484D02*
X4770539Y-8112484D01*
X4770539Y-8112484D02*
X4751491Y-8102960D01*
X4751491Y-8102960D02*
X4741967Y-8093436D01*
X4741967Y-8093436D02*
X4732444Y-8074388D01*
X4732444Y-8074388D02*
X4722920Y-8036293D01*
X4722920Y-8036293D02*
X4722920Y-7988674D01*
X4722920Y-7988674D02*
X4732444Y-7950579D01*
X4732444Y-7950579D02*
X4741967Y-7931531D01*
X4741967Y-7931531D02*
X4751491Y-7922008D01*
X4751491Y-7922008D02*
X4770539Y-7912484D01*
X4922920Y-8112484D02*
X4922920Y-7979150D01*
X4922920Y-7998198D02*
X4932444Y-7988674D01*
X4932444Y-7988674D02*
X4951491Y-7979150D01*
X4951491Y-7979150D02*
X4980063Y-7979150D01*
X4980063Y-7979150D02*
X4999110Y-7988674D01*
X4999110Y-7988674D02*
X5008634Y-8007722D01*
X5008634Y-8007722D02*
X5008634Y-8112484D01*
X5008634Y-8007722D02*
X5018158Y-7988674D01*
X5018158Y-7988674D02*
X5037205Y-7979150D01*
X5037205Y-7979150D02*
X5065777Y-7979150D01*
X5065777Y-7979150D02*
X5084825Y-7988674D01*
X5084825Y-7988674D02*
X5094348Y-8007722D01*
X5094348Y-8007722D02*
X5094348Y-8112484D01*
X5189586Y-8112484D02*
X5189586Y-7979150D01*
X5189586Y-7998198D02*
X5199110Y-7988674D01*
X5199110Y-7988674D02*
X5218158Y-7979150D01*
X5218158Y-7979150D02*
X5246729Y-7979150D01*
X5246729Y-7979150D02*
X5265777Y-7988674D01*
X5265777Y-7988674D02*
X5275301Y-8007722D01*
X5275301Y-8007722D02*
X5275301Y-8112484D01*
X5275301Y-8007722D02*
X5284825Y-7988674D01*
X5284825Y-7988674D02*
X5303872Y-7979150D01*
X5303872Y-7979150D02*
X5332444Y-7979150D01*
X5332444Y-7979150D02*
X5351491Y-7988674D01*
X5351491Y-7988674D02*
X5361015Y-8007722D01*
X5361015Y-8007722D02*
X5361015Y-8112484D01*
X5751491Y-7902960D02*
X5580063Y-8160103D01*
X6008634Y-7912484D02*
X6027682Y-7912484D01*
X6027682Y-7912484D02*
X6046729Y-7922008D01*
X6046729Y-7922008D02*
X6056253Y-7931531D01*
X6056253Y-7931531D02*
X6065777Y-7950579D01*
X6065777Y-7950579D02*
X6075301Y-7988674D01*
X6075301Y-7988674D02*
X6075301Y-8036293D01*
X6075301Y-8036293D02*
X6065777Y-8074388D01*
X6065777Y-8074388D02*
X6056253Y-8093436D01*
X6056253Y-8093436D02*
X6046729Y-8102960D01*
X6046729Y-8102960D02*
X6027682Y-8112484D01*
X6027682Y-8112484D02*
X6008634Y-8112484D01*
X6008634Y-8112484D02*
X5989586Y-8102960D01*
X5989586Y-8102960D02*
X5980063Y-8093436D01*
X5980063Y-8093436D02*
X5970539Y-8074388D01*
X5970539Y-8074388D02*
X5961015Y-8036293D01*
X5961015Y-8036293D02*
X5961015Y-7988674D01*
X5961015Y-7988674D02*
X5970539Y-7950579D01*
X5970539Y-7950579D02*
X5980063Y-7931531D01*
X5980063Y-7931531D02*
X5989586Y-7922008D01*
X5989586Y-7922008D02*
X6008634Y-7912484D01*
X6161015Y-8093436D02*
X6170539Y-8102960D01*
X6170539Y-8102960D02*
X6161015Y-8112484D01*
X6161015Y-8112484D02*
X6151491Y-8102960D01*
X6151491Y-8102960D02*
X6161015Y-8093436D01*
X6161015Y-8093436D02*
X6161015Y-8112484D01*
X6294348Y-7912484D02*
X6313396Y-7912484D01*
X6313396Y-7912484D02*
X6332444Y-7922008D01*
X6332444Y-7922008D02*
X6341967Y-7931531D01*
X6341967Y-7931531D02*
X6351491Y-7950579D01*
X6351491Y-7950579D02*
X6361015Y-7988674D01*
X6361015Y-7988674D02*
X6361015Y-8036293D01*
X6361015Y-8036293D02*
X6351491Y-8074388D01*
X6351491Y-8074388D02*
X6341967Y-8093436D01*
X6341967Y-8093436D02*
X6332444Y-8102960D01*
X6332444Y-8102960D02*
X6313396Y-8112484D01*
X6313396Y-8112484D02*
X6294348Y-8112484D01*
X6294348Y-8112484D02*
X6275301Y-8102960D01*
X6275301Y-8102960D02*
X6265777Y-8093436D01*
X6265777Y-8093436D02*
X6256253Y-8074388D01*
X6256253Y-8074388D02*
X6246729Y-8036293D01*
X6246729Y-8036293D02*
X6246729Y-7988674D01*
X6246729Y-7988674D02*
X6256253Y-7950579D01*
X6256253Y-7950579D02*
X6265777Y-7931531D01*
X6265777Y-7931531D02*
X6275301Y-7922008D01*
X6275301Y-7922008D02*
X6294348Y-7912484D01*
X6427682Y-7912484D02*
X6551491Y-7912484D01*
X6551491Y-7912484D02*
X6484825Y-7988674D01*
X6484825Y-7988674D02*
X6513396Y-7988674D01*
X6513396Y-7988674D02*
X6532444Y-7998198D01*
X6532444Y-7998198D02*
X6541967Y-8007722D01*
X6541967Y-8007722D02*
X6551491Y-8026769D01*
X6551491Y-8026769D02*
X6551491Y-8074388D01*
X6551491Y-8074388D02*
X6541967Y-8093436D01*
X6541967Y-8093436D02*
X6532444Y-8102960D01*
X6532444Y-8102960D02*
X6513396Y-8112484D01*
X6513396Y-8112484D02*
X6456253Y-8112484D01*
X6456253Y-8112484D02*
X6437206Y-8102960D01*
X6437206Y-8102960D02*
X6427682Y-8093436D01*
X6741967Y-8112484D02*
X6627682Y-8112484D01*
X6684825Y-8112484D02*
X6684825Y-7912484D01*
X6684825Y-7912484D02*
X6665777Y-7941055D01*
X6665777Y-7941055D02*
X6646729Y-7960103D01*
X6646729Y-7960103D02*
X6627682Y-7969627D01*
X6922920Y-7912484D02*
X6827682Y-7912484D01*
X6827682Y-7912484D02*
X6818158Y-8007722D01*
X6818158Y-8007722D02*
X6827682Y-7998198D01*
X6827682Y-7998198D02*
X6846729Y-7988674D01*
X6846729Y-7988674D02*
X6894348Y-7988674D01*
X6894348Y-7988674D02*
X6913396Y-7998198D01*
X6913396Y-7998198D02*
X6922920Y-8007722D01*
X6922920Y-8007722D02*
X6932444Y-8026769D01*
X6932444Y-8026769D02*
X6932444Y-8074388D01*
X6932444Y-8074388D02*
X6922920Y-8093436D01*
X6922920Y-8093436D02*
X6913396Y-8102960D01*
X6913396Y-8102960D02*
X6894348Y-8112484D01*
X6894348Y-8112484D02*
X6846729Y-8112484D01*
X6846729Y-8112484D02*
X6827682Y-8102960D01*
X6827682Y-8102960D02*
X6818158Y-8093436D01*
X7008634Y-7912484D02*
X7008634Y-7950579D01*
X7084825Y-7912484D02*
X7084825Y-7950579D01*
X7380063Y-8188674D02*
X7370539Y-8179150D01*
X7370539Y-8179150D02*
X7351491Y-8150579D01*
X7351491Y-8150579D02*
X7341968Y-8131531D01*
X7341968Y-8131531D02*
X7332444Y-8102960D01*
X7332444Y-8102960D02*
X7322920Y-8055341D01*
X7322920Y-8055341D02*
X7322920Y-8017246D01*
X7322920Y-8017246D02*
X7332444Y-7969627D01*
X7332444Y-7969627D02*
X7341968Y-7941055D01*
X7341968Y-7941055D02*
X7351491Y-7922008D01*
X7351491Y-7922008D02*
X7370539Y-7893436D01*
X7370539Y-7893436D02*
X7380063Y-7883912D01*
X7541968Y-7979150D02*
X7541968Y-8112484D01*
X7494348Y-7902960D02*
X7446729Y-8045817D01*
X7446729Y-8045817D02*
X7570539Y-8045817D01*
X7799110Y-8112484D02*
X7799110Y-7912484D01*
X7884825Y-8112484D02*
X7884825Y-8007722D01*
X7884825Y-8007722D02*
X7875301Y-7988674D01*
X7875301Y-7988674D02*
X7856253Y-7979150D01*
X7856253Y-7979150D02*
X7827682Y-7979150D01*
X7827682Y-7979150D02*
X7808634Y-7988674D01*
X7808634Y-7988674D02*
X7799110Y-7998198D01*
X8008634Y-8112484D02*
X7989587Y-8102960D01*
X7989587Y-8102960D02*
X7980063Y-8093436D01*
X7980063Y-8093436D02*
X7970539Y-8074388D01*
X7970539Y-8074388D02*
X7970539Y-8017246D01*
X7970539Y-8017246D02*
X7980063Y-7998198D01*
X7980063Y-7998198D02*
X7989587Y-7988674D01*
X7989587Y-7988674D02*
X8008634Y-7979150D01*
X8008634Y-7979150D02*
X8037206Y-7979150D01*
X8037206Y-7979150D02*
X8056253Y-7988674D01*
X8056253Y-7988674D02*
X8065777Y-7998198D01*
X8065777Y-7998198D02*
X8075301Y-8017246D01*
X8075301Y-8017246D02*
X8075301Y-8074388D01*
X8075301Y-8074388D02*
X8065777Y-8093436D01*
X8065777Y-8093436D02*
X8056253Y-8102960D01*
X8056253Y-8102960D02*
X8037206Y-8112484D01*
X8037206Y-8112484D02*
X8008634Y-8112484D01*
X8189587Y-8112484D02*
X8170539Y-8102960D01*
X8170539Y-8102960D02*
X8161015Y-8083912D01*
X8161015Y-8083912D02*
X8161015Y-7912484D01*
X8341968Y-8102960D02*
X8322920Y-8112484D01*
X8322920Y-8112484D02*
X8284825Y-8112484D01*
X8284825Y-8112484D02*
X8265777Y-8102960D01*
X8265777Y-8102960D02*
X8256253Y-8083912D01*
X8256253Y-8083912D02*
X8256253Y-8007722D01*
X8256253Y-8007722D02*
X8265777Y-7988674D01*
X8265777Y-7988674D02*
X8284825Y-7979150D01*
X8284825Y-7979150D02*
X8322920Y-7979150D01*
X8322920Y-7979150D02*
X8341968Y-7988674D01*
X8341968Y-7988674D02*
X8351491Y-8007722D01*
X8351491Y-8007722D02*
X8351491Y-8026769D01*
X8351491Y-8026769D02*
X8256253Y-8045817D01*
X8427682Y-8102960D02*
X8446730Y-8112484D01*
X8446730Y-8112484D02*
X8484825Y-8112484D01*
X8484825Y-8112484D02*
X8503873Y-8102960D01*
X8503873Y-8102960D02*
X8513396Y-8083912D01*
X8513396Y-8083912D02*
X8513396Y-8074388D01*
X8513396Y-8074388D02*
X8503873Y-8055341D01*
X8503873Y-8055341D02*
X8484825Y-8045817D01*
X8484825Y-8045817D02*
X8456253Y-8045817D01*
X8456253Y-8045817D02*
X8437206Y-8036293D01*
X8437206Y-8036293D02*
X8427682Y-8017246D01*
X8427682Y-8017246D02*
X8427682Y-8007722D01*
X8427682Y-8007722D02*
X8437206Y-7988674D01*
X8437206Y-7988674D02*
X8456253Y-7979150D01*
X8456253Y-7979150D02*
X8484825Y-7979150D01*
X8484825Y-7979150D02*
X8503873Y-7988674D01*
X8580063Y-8188674D02*
X8589587Y-8179150D01*
X8589587Y-8179150D02*
X8608634Y-8150579D01*
X8608634Y-8150579D02*
X8618158Y-8131531D01*
X8618158Y-8131531D02*
X8627682Y-8102960D01*
X8627682Y-8102960D02*
X8637206Y-8055341D01*
X8637206Y-8055341D02*
X8637206Y-8017246D01*
X8637206Y-8017246D02*
X8627682Y-7969627D01*
X8627682Y-7969627D02*
X8618158Y-7941055D01*
X8618158Y-7941055D02*
X8608634Y-7922008D01*
X8608634Y-7922008D02*
X8589587Y-7893436D01*
X8589587Y-7893436D02*
X8580063Y-7883912D01*
D10*
X3765000Y-8245000D02*
X3765000Y-8325000D01*
X3725000Y-8285000D02*
X3805000Y-8285000D01*
D11*
X4103872Y-8176484D02*
X4122920Y-8176484D01*
X4122920Y-8176484D02*
X4141967Y-8186008D01*
X4141967Y-8186008D02*
X4151491Y-8195531D01*
X4151491Y-8195531D02*
X4161015Y-8214579D01*
X4161015Y-8214579D02*
X4170539Y-8252674D01*
X4170539Y-8252674D02*
X4170539Y-8300293D01*
X4170539Y-8300293D02*
X4161015Y-8338388D01*
X4161015Y-8338388D02*
X4151491Y-8357436D01*
X4151491Y-8357436D02*
X4141967Y-8366960D01*
X4141967Y-8366960D02*
X4122920Y-8376484D01*
X4122920Y-8376484D02*
X4103872Y-8376484D01*
X4103872Y-8376484D02*
X4084824Y-8366960D01*
X4084824Y-8366960D02*
X4075301Y-8357436D01*
X4075301Y-8357436D02*
X4065777Y-8338388D01*
X4065777Y-8338388D02*
X4056253Y-8300293D01*
X4056253Y-8300293D02*
X4056253Y-8252674D01*
X4056253Y-8252674D02*
X4065777Y-8214579D01*
X4065777Y-8214579D02*
X4075301Y-8195531D01*
X4075301Y-8195531D02*
X4084824Y-8186008D01*
X4084824Y-8186008D02*
X4103872Y-8176484D01*
X4256253Y-8357436D02*
X4265777Y-8366960D01*
X4265777Y-8366960D02*
X4256253Y-8376484D01*
X4256253Y-8376484D02*
X4246729Y-8366960D01*
X4246729Y-8366960D02*
X4256253Y-8357436D01*
X4256253Y-8357436D02*
X4256253Y-8376484D01*
X4380063Y-8262198D02*
X4361015Y-8252674D01*
X4361015Y-8252674D02*
X4351491Y-8243150D01*
X4351491Y-8243150D02*
X4341967Y-8224103D01*
X4341967Y-8224103D02*
X4341967Y-8214579D01*
X4341967Y-8214579D02*
X4351491Y-8195531D01*
X4351491Y-8195531D02*
X4361015Y-8186008D01*
X4361015Y-8186008D02*
X4380063Y-8176484D01*
X4380063Y-8176484D02*
X4418158Y-8176484D01*
X4418158Y-8176484D02*
X4437205Y-8186008D01*
X4437205Y-8186008D02*
X4446729Y-8195531D01*
X4446729Y-8195531D02*
X4456253Y-8214579D01*
X4456253Y-8214579D02*
X4456253Y-8224103D01*
X4456253Y-8224103D02*
X4446729Y-8243150D01*
X4446729Y-8243150D02*
X4437205Y-8252674D01*
X4437205Y-8252674D02*
X4418158Y-8262198D01*
X4418158Y-8262198D02*
X4380063Y-8262198D01*
X4380063Y-8262198D02*
X4361015Y-8271722D01*
X4361015Y-8271722D02*
X4351491Y-8281246D01*
X4351491Y-8281246D02*
X4341967Y-8300293D01*
X4341967Y-8300293D02*
X4341967Y-8338388D01*
X4341967Y-8338388D02*
X4351491Y-8357436D01*
X4351491Y-8357436D02*
X4361015Y-8366960D01*
X4361015Y-8366960D02*
X4380063Y-8376484D01*
X4380063Y-8376484D02*
X4418158Y-8376484D01*
X4418158Y-8376484D02*
X4437205Y-8366960D01*
X4437205Y-8366960D02*
X4446729Y-8357436D01*
X4446729Y-8357436D02*
X4456253Y-8338388D01*
X4456253Y-8338388D02*
X4456253Y-8300293D01*
X4456253Y-8300293D02*
X4446729Y-8281246D01*
X4446729Y-8281246D02*
X4437205Y-8271722D01*
X4437205Y-8271722D02*
X4418158Y-8262198D01*
X4580063Y-8176484D02*
X4599110Y-8176484D01*
X4599110Y-8176484D02*
X4618158Y-8186008D01*
X4618158Y-8186008D02*
X4627682Y-8195531D01*
X4627682Y-8195531D02*
X4637205Y-8214579D01*
X4637205Y-8214579D02*
X4646729Y-8252674D01*
X4646729Y-8252674D02*
X4646729Y-8300293D01*
X4646729Y-8300293D02*
X4637205Y-8338388D01*
X4637205Y-8338388D02*
X4627682Y-8357436D01*
X4627682Y-8357436D02*
X4618158Y-8366960D01*
X4618158Y-8366960D02*
X4599110Y-8376484D01*
X4599110Y-8376484D02*
X4580063Y-8376484D01*
X4580063Y-8376484D02*
X4561015Y-8366960D01*
X4561015Y-8366960D02*
X4551491Y-8357436D01*
X4551491Y-8357436D02*
X4541967Y-8338388D01*
X4541967Y-8338388D02*
X4532444Y-8300293D01*
X4532444Y-8300293D02*
X4532444Y-8252674D01*
X4532444Y-8252674D02*
X4541967Y-8214579D01*
X4541967Y-8214579D02*
X4551491Y-8195531D01*
X4551491Y-8195531D02*
X4561015Y-8186008D01*
X4561015Y-8186008D02*
X4580063Y-8176484D01*
X4770539Y-8176484D02*
X4789586Y-8176484D01*
X4789586Y-8176484D02*
X4808634Y-8186008D01*
X4808634Y-8186008D02*
X4818158Y-8195531D01*
X4818158Y-8195531D02*
X4827682Y-8214579D01*
X4827682Y-8214579D02*
X4837205Y-8252674D01*
X4837205Y-8252674D02*
X4837205Y-8300293D01*
X4837205Y-8300293D02*
X4827682Y-8338388D01*
X4827682Y-8338388D02*
X4818158Y-8357436D01*
X4818158Y-8357436D02*
X4808634Y-8366960D01*
X4808634Y-8366960D02*
X4789586Y-8376484D01*
X4789586Y-8376484D02*
X4770539Y-8376484D01*
X4770539Y-8376484D02*
X4751491Y-8366960D01*
X4751491Y-8366960D02*
X4741967Y-8357436D01*
X4741967Y-8357436D02*
X4732444Y-8338388D01*
X4732444Y-8338388D02*
X4722920Y-8300293D01*
X4722920Y-8300293D02*
X4722920Y-8252674D01*
X4722920Y-8252674D02*
X4732444Y-8214579D01*
X4732444Y-8214579D02*
X4741967Y-8195531D01*
X4741967Y-8195531D02*
X4751491Y-8186008D01*
X4751491Y-8186008D02*
X4770539Y-8176484D01*
X4922920Y-8376484D02*
X4922920Y-8243150D01*
X4922920Y-8262198D02*
X4932444Y-8252674D01*
X4932444Y-8252674D02*
X4951491Y-8243150D01*
X4951491Y-8243150D02*
X4980063Y-8243150D01*
X4980063Y-8243150D02*
X4999110Y-8252674D01*
X4999110Y-8252674D02*
X5008634Y-8271722D01*
X5008634Y-8271722D02*
X5008634Y-8376484D01*
X5008634Y-8271722D02*
X5018158Y-8252674D01*
X5018158Y-8252674D02*
X5037205Y-8243150D01*
X5037205Y-8243150D02*
X5065777Y-8243150D01*
X5065777Y-8243150D02*
X5084825Y-8252674D01*
X5084825Y-8252674D02*
X5094348Y-8271722D01*
X5094348Y-8271722D02*
X5094348Y-8376484D01*
X5189586Y-8376484D02*
X5189586Y-8243150D01*
X5189586Y-8262198D02*
X5199110Y-8252674D01*
X5199110Y-8252674D02*
X5218158Y-8243150D01*
X5218158Y-8243150D02*
X5246729Y-8243150D01*
X5246729Y-8243150D02*
X5265777Y-8252674D01*
X5265777Y-8252674D02*
X5275301Y-8271722D01*
X5275301Y-8271722D02*
X5275301Y-8376484D01*
X5275301Y-8271722D02*
X5284825Y-8252674D01*
X5284825Y-8252674D02*
X5303872Y-8243150D01*
X5303872Y-8243150D02*
X5332444Y-8243150D01*
X5332444Y-8243150D02*
X5351491Y-8252674D01*
X5351491Y-8252674D02*
X5361015Y-8271722D01*
X5361015Y-8271722D02*
X5361015Y-8376484D01*
X5751491Y-8166960D02*
X5580063Y-8424103D01*
X6008634Y-8176484D02*
X6027682Y-8176484D01*
X6027682Y-8176484D02*
X6046729Y-8186008D01*
X6046729Y-8186008D02*
X6056253Y-8195531D01*
X6056253Y-8195531D02*
X6065777Y-8214579D01*
X6065777Y-8214579D02*
X6075301Y-8252674D01*
X6075301Y-8252674D02*
X6075301Y-8300293D01*
X6075301Y-8300293D02*
X6065777Y-8338388D01*
X6065777Y-8338388D02*
X6056253Y-8357436D01*
X6056253Y-8357436D02*
X6046729Y-8366960D01*
X6046729Y-8366960D02*
X6027682Y-8376484D01*
X6027682Y-8376484D02*
X6008634Y-8376484D01*
X6008634Y-8376484D02*
X5989586Y-8366960D01*
X5989586Y-8366960D02*
X5980063Y-8357436D01*
X5980063Y-8357436D02*
X5970539Y-8338388D01*
X5970539Y-8338388D02*
X5961015Y-8300293D01*
X5961015Y-8300293D02*
X5961015Y-8252674D01*
X5961015Y-8252674D02*
X5970539Y-8214579D01*
X5970539Y-8214579D02*
X5980063Y-8195531D01*
X5980063Y-8195531D02*
X5989586Y-8186008D01*
X5989586Y-8186008D02*
X6008634Y-8176484D01*
X6161015Y-8357436D02*
X6170539Y-8366960D01*
X6170539Y-8366960D02*
X6161015Y-8376484D01*
X6161015Y-8376484D02*
X6151491Y-8366960D01*
X6151491Y-8366960D02*
X6161015Y-8357436D01*
X6161015Y-8357436D02*
X6161015Y-8376484D01*
X6294348Y-8176484D02*
X6313396Y-8176484D01*
X6313396Y-8176484D02*
X6332444Y-8186008D01*
X6332444Y-8186008D02*
X6341967Y-8195531D01*
X6341967Y-8195531D02*
X6351491Y-8214579D01*
X6351491Y-8214579D02*
X6361015Y-8252674D01*
X6361015Y-8252674D02*
X6361015Y-8300293D01*
X6361015Y-8300293D02*
X6351491Y-8338388D01*
X6351491Y-8338388D02*
X6341967Y-8357436D01*
X6341967Y-8357436D02*
X6332444Y-8366960D01*
X6332444Y-8366960D02*
X6313396Y-8376484D01*
X6313396Y-8376484D02*
X6294348Y-8376484D01*
X6294348Y-8376484D02*
X6275301Y-8366960D01*
X6275301Y-8366960D02*
X6265777Y-8357436D01*
X6265777Y-8357436D02*
X6256253Y-8338388D01*
X6256253Y-8338388D02*
X6246729Y-8300293D01*
X6246729Y-8300293D02*
X6246729Y-8252674D01*
X6246729Y-8252674D02*
X6256253Y-8214579D01*
X6256253Y-8214579D02*
X6265777Y-8195531D01*
X6265777Y-8195531D02*
X6275301Y-8186008D01*
X6275301Y-8186008D02*
X6294348Y-8176484D01*
X6427682Y-8176484D02*
X6551491Y-8176484D01*
X6551491Y-8176484D02*
X6484825Y-8252674D01*
X6484825Y-8252674D02*
X6513396Y-8252674D01*
X6513396Y-8252674D02*
X6532444Y-8262198D01*
X6532444Y-8262198D02*
X6541967Y-8271722D01*
X6541967Y-8271722D02*
X6551491Y-8290769D01*
X6551491Y-8290769D02*
X6551491Y-8338388D01*
X6551491Y-8338388D02*
X6541967Y-8357436D01*
X6541967Y-8357436D02*
X6532444Y-8366960D01*
X6532444Y-8366960D02*
X6513396Y-8376484D01*
X6513396Y-8376484D02*
X6456253Y-8376484D01*
X6456253Y-8376484D02*
X6437206Y-8366960D01*
X6437206Y-8366960D02*
X6427682Y-8357436D01*
X6741967Y-8376484D02*
X6627682Y-8376484D01*
X6684825Y-8376484D02*
X6684825Y-8176484D01*
X6684825Y-8176484D02*
X6665777Y-8205055D01*
X6665777Y-8205055D02*
X6646729Y-8224103D01*
X6646729Y-8224103D02*
X6627682Y-8233627D01*
X6922920Y-8176484D02*
X6827682Y-8176484D01*
X6827682Y-8176484D02*
X6818158Y-8271722D01*
X6818158Y-8271722D02*
X6827682Y-8262198D01*
X6827682Y-8262198D02*
X6846729Y-8252674D01*
X6846729Y-8252674D02*
X6894348Y-8252674D01*
X6894348Y-8252674D02*
X6913396Y-8262198D01*
X6913396Y-8262198D02*
X6922920Y-8271722D01*
X6922920Y-8271722D02*
X6932444Y-8290769D01*
X6932444Y-8290769D02*
X6932444Y-8338388D01*
X6932444Y-8338388D02*
X6922920Y-8357436D01*
X6922920Y-8357436D02*
X6913396Y-8366960D01*
X6913396Y-8366960D02*
X6894348Y-8376484D01*
X6894348Y-8376484D02*
X6846729Y-8376484D01*
X6846729Y-8376484D02*
X6827682Y-8366960D01*
X6827682Y-8366960D02*
X6818158Y-8357436D01*
X7008634Y-8176484D02*
X7008634Y-8214579D01*
X7084825Y-8176484D02*
X7084825Y-8214579D01*
X7380063Y-8452674D02*
X7370539Y-8443150D01*
X7370539Y-8443150D02*
X7351491Y-8414579D01*
X7351491Y-8414579D02*
X7341968Y-8395531D01*
X7341968Y-8395531D02*
X7332444Y-8366960D01*
X7332444Y-8366960D02*
X7322920Y-8319341D01*
X7322920Y-8319341D02*
X7322920Y-8281246D01*
X7322920Y-8281246D02*
X7332444Y-8233627D01*
X7332444Y-8233627D02*
X7341968Y-8205055D01*
X7341968Y-8205055D02*
X7351491Y-8186008D01*
X7351491Y-8186008D02*
X7370539Y-8157436D01*
X7370539Y-8157436D02*
X7380063Y-8147912D01*
X7437206Y-8176484D02*
X7561015Y-8176484D01*
X7561015Y-8176484D02*
X7494348Y-8252674D01*
X7494348Y-8252674D02*
X7522920Y-8252674D01*
X7522920Y-8252674D02*
X7541968Y-8262198D01*
X7541968Y-8262198D02*
X7551491Y-8271722D01*
X7551491Y-8271722D02*
X7561015Y-8290769D01*
X7561015Y-8290769D02*
X7561015Y-8338388D01*
X7561015Y-8338388D02*
X7551491Y-8357436D01*
X7551491Y-8357436D02*
X7541968Y-8366960D01*
X7541968Y-8366960D02*
X7522920Y-8376484D01*
X7522920Y-8376484D02*
X7465777Y-8376484D01*
X7465777Y-8376484D02*
X7446729Y-8366960D01*
X7446729Y-8366960D02*
X7437206Y-8357436D01*
X7675301Y-8262198D02*
X7656253Y-8252674D01*
X7656253Y-8252674D02*
X7646729Y-8243150D01*
X7646729Y-8243150D02*
X7637206Y-8224103D01*
X7637206Y-8224103D02*
X7637206Y-8214579D01*
X7637206Y-8214579D02*
X7646729Y-8195531D01*
X7646729Y-8195531D02*
X7656253Y-8186008D01*
X7656253Y-8186008D02*
X7675301Y-8176484D01*
X7675301Y-8176484D02*
X7713396Y-8176484D01*
X7713396Y-8176484D02*
X7732444Y-8186008D01*
X7732444Y-8186008D02*
X7741968Y-8195531D01*
X7741968Y-8195531D02*
X7751491Y-8214579D01*
X7751491Y-8214579D02*
X7751491Y-8224103D01*
X7751491Y-8224103D02*
X7741968Y-8243150D01*
X7741968Y-8243150D02*
X7732444Y-8252674D01*
X7732444Y-8252674D02*
X7713396Y-8262198D01*
X7713396Y-8262198D02*
X7675301Y-8262198D01*
X7675301Y-8262198D02*
X7656253Y-8271722D01*
X7656253Y-8271722D02*
X7646729Y-8281246D01*
X7646729Y-8281246D02*
X7637206Y-8300293D01*
X7637206Y-8300293D02*
X7637206Y-8338388D01*
X7637206Y-8338388D02*
X7646729Y-8357436D01*
X7646729Y-8357436D02*
X7656253Y-8366960D01*
X7656253Y-8366960D02*
X7675301Y-8376484D01*
X7675301Y-8376484D02*
X7713396Y-8376484D01*
X7713396Y-8376484D02*
X7732444Y-8366960D01*
X7732444Y-8366960D02*
X7741968Y-8357436D01*
X7741968Y-8357436D02*
X7751491Y-8338388D01*
X7751491Y-8338388D02*
X7751491Y-8300293D01*
X7751491Y-8300293D02*
X7741968Y-8281246D01*
X7741968Y-8281246D02*
X7732444Y-8271722D01*
X7732444Y-8271722D02*
X7713396Y-8262198D01*
X7989587Y-8376484D02*
X7989587Y-8176484D01*
X8075301Y-8376484D02*
X8075301Y-8271722D01*
X8075301Y-8271722D02*
X8065777Y-8252674D01*
X8065777Y-8252674D02*
X8046730Y-8243150D01*
X8046730Y-8243150D02*
X8018158Y-8243150D01*
X8018158Y-8243150D02*
X7999110Y-8252674D01*
X7999110Y-8252674D02*
X7989587Y-8262198D01*
X8199110Y-8376484D02*
X8180063Y-8366960D01*
X8180063Y-8366960D02*
X8170539Y-8357436D01*
X8170539Y-8357436D02*
X8161015Y-8338388D01*
X8161015Y-8338388D02*
X8161015Y-8281246D01*
X8161015Y-8281246D02*
X8170539Y-8262198D01*
X8170539Y-8262198D02*
X8180063Y-8252674D01*
X8180063Y-8252674D02*
X8199110Y-8243150D01*
X8199110Y-8243150D02*
X8227682Y-8243150D01*
X8227682Y-8243150D02*
X8246730Y-8252674D01*
X8246730Y-8252674D02*
X8256253Y-8262198D01*
X8256253Y-8262198D02*
X8265777Y-8281246D01*
X8265777Y-8281246D02*
X8265777Y-8338388D01*
X8265777Y-8338388D02*
X8256253Y-8357436D01*
X8256253Y-8357436D02*
X8246730Y-8366960D01*
X8246730Y-8366960D02*
X8227682Y-8376484D01*
X8227682Y-8376484D02*
X8199110Y-8376484D01*
X8380063Y-8376484D02*
X8361015Y-8366960D01*
X8361015Y-8366960D02*
X8351491Y-8347912D01*
X8351491Y-8347912D02*
X8351491Y-8176484D01*
X8532444Y-8366960D02*
X8513396Y-8376484D01*
X8513396Y-8376484D02*
X8475301Y-8376484D01*
X8475301Y-8376484D02*
X8456253Y-8366960D01*
X8456253Y-8366960D02*
X8446730Y-8347912D01*
X8446730Y-8347912D02*
X8446730Y-8271722D01*
X8446730Y-8271722D02*
X8456253Y-8252674D01*
X8456253Y-8252674D02*
X8475301Y-8243150D01*
X8475301Y-8243150D02*
X8513396Y-8243150D01*
X8513396Y-8243150D02*
X8532444Y-8252674D01*
X8532444Y-8252674D02*
X8541968Y-8271722D01*
X8541968Y-8271722D02*
X8541968Y-8290769D01*
X8541968Y-8290769D02*
X8446730Y-8309817D01*
X8618158Y-8366960D02*
X8637206Y-8376484D01*
X8637206Y-8376484D02*
X8675301Y-8376484D01*
X8675301Y-8376484D02*
X8694349Y-8366960D01*
X8694349Y-8366960D02*
X8703873Y-8347912D01*
X8703873Y-8347912D02*
X8703873Y-8338388D01*
X8703873Y-8338388D02*
X8694349Y-8319341D01*
X8694349Y-8319341D02*
X8675301Y-8309817D01*
X8675301Y-8309817D02*
X8646730Y-8309817D01*
X8646730Y-8309817D02*
X8627682Y-8300293D01*
X8627682Y-8300293D02*
X8618158Y-8281246D01*
X8618158Y-8281246D02*
X8618158Y-8271722D01*
X8618158Y-8271722D02*
X8627682Y-8252674D01*
X8627682Y-8252674D02*
X8646730Y-8243150D01*
X8646730Y-8243150D02*
X8675301Y-8243150D01*
X8675301Y-8243150D02*
X8694349Y-8252674D01*
X8770539Y-8452674D02*
X8780063Y-8443150D01*
X8780063Y-8443150D02*
X8799111Y-8414579D01*
X8799111Y-8414579D02*
X8808634Y-8395531D01*
X8808634Y-8395531D02*
X8818158Y-8366960D01*
X8818158Y-8366960D02*
X8827682Y-8319341D01*
X8827682Y-8319341D02*
X8827682Y-8281246D01*
X8827682Y-8281246D02*
X8818158Y-8233627D01*
X8818158Y-8233627D02*
X8808634Y-8205055D01*
X8808634Y-8205055D02*
X8799111Y-8186008D01*
X8799111Y-8186008D02*
X8780063Y-8157436D01*
X8780063Y-8157436D02*
X8770539Y-8147912D01*
D10*
X3790356Y-8584356D02*
X3790356Y-8513644D01*
X3719644Y-8513644D01*
X3719644Y-8584356D01*
X3790356Y-8584356D01*
D11*
X4170539Y-8640484D02*
X4056253Y-8640484D01*
X4113396Y-8640484D02*
X4113396Y-8440484D01*
X4113396Y-8440484D02*
X4094348Y-8469055D01*
X4094348Y-8469055D02*
X4075301Y-8488103D01*
X4075301Y-8488103D02*
X4056253Y-8497627D01*
X4256253Y-8621436D02*
X4265777Y-8630960D01*
X4265777Y-8630960D02*
X4256253Y-8640484D01*
X4256253Y-8640484D02*
X4246729Y-8630960D01*
X4246729Y-8630960D02*
X4256253Y-8621436D01*
X4256253Y-8621436D02*
X4256253Y-8640484D01*
X4389586Y-8440484D02*
X4408634Y-8440484D01*
X4408634Y-8440484D02*
X4427682Y-8450008D01*
X4427682Y-8450008D02*
X4437205Y-8459531D01*
X4437205Y-8459531D02*
X4446729Y-8478579D01*
X4446729Y-8478579D02*
X4456253Y-8516674D01*
X4456253Y-8516674D02*
X4456253Y-8564293D01*
X4456253Y-8564293D02*
X4446729Y-8602389D01*
X4446729Y-8602389D02*
X4437205Y-8621436D01*
X4437205Y-8621436D02*
X4427682Y-8630960D01*
X4427682Y-8630960D02*
X4408634Y-8640484D01*
X4408634Y-8640484D02*
X4389586Y-8640484D01*
X4389586Y-8640484D02*
X4370539Y-8630960D01*
X4370539Y-8630960D02*
X4361015Y-8621436D01*
X4361015Y-8621436D02*
X4351491Y-8602389D01*
X4351491Y-8602389D02*
X4341967Y-8564293D01*
X4341967Y-8564293D02*
X4341967Y-8516674D01*
X4341967Y-8516674D02*
X4351491Y-8478579D01*
X4351491Y-8478579D02*
X4361015Y-8459531D01*
X4361015Y-8459531D02*
X4370539Y-8450008D01*
X4370539Y-8450008D02*
X4389586Y-8440484D01*
X4580063Y-8440484D02*
X4599110Y-8440484D01*
X4599110Y-8440484D02*
X4618158Y-8450008D01*
X4618158Y-8450008D02*
X4627682Y-8459531D01*
X4627682Y-8459531D02*
X4637205Y-8478579D01*
X4637205Y-8478579D02*
X4646729Y-8516674D01*
X4646729Y-8516674D02*
X4646729Y-8564293D01*
X4646729Y-8564293D02*
X4637205Y-8602389D01*
X4637205Y-8602389D02*
X4627682Y-8621436D01*
X4627682Y-8621436D02*
X4618158Y-8630960D01*
X4618158Y-8630960D02*
X4599110Y-8640484D01*
X4599110Y-8640484D02*
X4580063Y-8640484D01*
X4580063Y-8640484D02*
X4561015Y-8630960D01*
X4561015Y-8630960D02*
X4551491Y-8621436D01*
X4551491Y-8621436D02*
X4541967Y-8602389D01*
X4541967Y-8602389D02*
X4532444Y-8564293D01*
X4532444Y-8564293D02*
X4532444Y-8516674D01*
X4532444Y-8516674D02*
X4541967Y-8478579D01*
X4541967Y-8478579D02*
X4551491Y-8459531D01*
X4551491Y-8459531D02*
X4561015Y-8450008D01*
X4561015Y-8450008D02*
X4580063Y-8440484D01*
X4770539Y-8440484D02*
X4789586Y-8440484D01*
X4789586Y-8440484D02*
X4808634Y-8450008D01*
X4808634Y-8450008D02*
X4818158Y-8459531D01*
X4818158Y-8459531D02*
X4827682Y-8478579D01*
X4827682Y-8478579D02*
X4837205Y-8516674D01*
X4837205Y-8516674D02*
X4837205Y-8564293D01*
X4837205Y-8564293D02*
X4827682Y-8602389D01*
X4827682Y-8602389D02*
X4818158Y-8621436D01*
X4818158Y-8621436D02*
X4808634Y-8630960D01*
X4808634Y-8630960D02*
X4789586Y-8640484D01*
X4789586Y-8640484D02*
X4770539Y-8640484D01*
X4770539Y-8640484D02*
X4751491Y-8630960D01*
X4751491Y-8630960D02*
X4741967Y-8621436D01*
X4741967Y-8621436D02*
X4732444Y-8602389D01*
X4732444Y-8602389D02*
X4722920Y-8564293D01*
X4722920Y-8564293D02*
X4722920Y-8516674D01*
X4722920Y-8516674D02*
X4732444Y-8478579D01*
X4732444Y-8478579D02*
X4741967Y-8459531D01*
X4741967Y-8459531D02*
X4751491Y-8450008D01*
X4751491Y-8450008D02*
X4770539Y-8440484D01*
X4922920Y-8640484D02*
X4922920Y-8507150D01*
X4922920Y-8526198D02*
X4932444Y-8516674D01*
X4932444Y-8516674D02*
X4951491Y-8507150D01*
X4951491Y-8507150D02*
X4980063Y-8507150D01*
X4980063Y-8507150D02*
X4999110Y-8516674D01*
X4999110Y-8516674D02*
X5008634Y-8535722D01*
X5008634Y-8535722D02*
X5008634Y-8640484D01*
X5008634Y-8535722D02*
X5018158Y-8516674D01*
X5018158Y-8516674D02*
X5037205Y-8507150D01*
X5037205Y-8507150D02*
X5065777Y-8507150D01*
X5065777Y-8507150D02*
X5084825Y-8516674D01*
X5084825Y-8516674D02*
X5094348Y-8535722D01*
X5094348Y-8535722D02*
X5094348Y-8640484D01*
X5189586Y-8640484D02*
X5189586Y-8507150D01*
X5189586Y-8526198D02*
X5199110Y-8516674D01*
X5199110Y-8516674D02*
X5218158Y-8507150D01*
X5218158Y-8507150D02*
X5246729Y-8507150D01*
X5246729Y-8507150D02*
X5265777Y-8516674D01*
X5265777Y-8516674D02*
X5275301Y-8535722D01*
X5275301Y-8535722D02*
X5275301Y-8640484D01*
X5275301Y-8535722D02*
X5284825Y-8516674D01*
X5284825Y-8516674D02*
X5303872Y-8507150D01*
X5303872Y-8507150D02*
X5332444Y-8507150D01*
X5332444Y-8507150D02*
X5351491Y-8516674D01*
X5351491Y-8516674D02*
X5361015Y-8535722D01*
X5361015Y-8535722D02*
X5361015Y-8640484D01*
X5751491Y-8430960D02*
X5580063Y-8688103D01*
X6008634Y-8440484D02*
X6027682Y-8440484D01*
X6027682Y-8440484D02*
X6046729Y-8450008D01*
X6046729Y-8450008D02*
X6056253Y-8459531D01*
X6056253Y-8459531D02*
X6065777Y-8478579D01*
X6065777Y-8478579D02*
X6075301Y-8516674D01*
X6075301Y-8516674D02*
X6075301Y-8564293D01*
X6075301Y-8564293D02*
X6065777Y-8602389D01*
X6065777Y-8602389D02*
X6056253Y-8621436D01*
X6056253Y-8621436D02*
X6046729Y-8630960D01*
X6046729Y-8630960D02*
X6027682Y-8640484D01*
X6027682Y-8640484D02*
X6008634Y-8640484D01*
X6008634Y-8640484D02*
X5989586Y-8630960D01*
X5989586Y-8630960D02*
X5980063Y-8621436D01*
X5980063Y-8621436D02*
X5970539Y-8602389D01*
X5970539Y-8602389D02*
X5961015Y-8564293D01*
X5961015Y-8564293D02*
X5961015Y-8516674D01*
X5961015Y-8516674D02*
X5970539Y-8478579D01*
X5970539Y-8478579D02*
X5980063Y-8459531D01*
X5980063Y-8459531D02*
X5989586Y-8450008D01*
X5989586Y-8450008D02*
X6008634Y-8440484D01*
X6161015Y-8621436D02*
X6170539Y-8630960D01*
X6170539Y-8630960D02*
X6161015Y-8640484D01*
X6161015Y-8640484D02*
X6151491Y-8630960D01*
X6151491Y-8630960D02*
X6161015Y-8621436D01*
X6161015Y-8621436D02*
X6161015Y-8640484D01*
X6294348Y-8440484D02*
X6313396Y-8440484D01*
X6313396Y-8440484D02*
X6332444Y-8450008D01*
X6332444Y-8450008D02*
X6341967Y-8459531D01*
X6341967Y-8459531D02*
X6351491Y-8478579D01*
X6351491Y-8478579D02*
X6361015Y-8516674D01*
X6361015Y-8516674D02*
X6361015Y-8564293D01*
X6361015Y-8564293D02*
X6351491Y-8602389D01*
X6351491Y-8602389D02*
X6341967Y-8621436D01*
X6341967Y-8621436D02*
X6332444Y-8630960D01*
X6332444Y-8630960D02*
X6313396Y-8640484D01*
X6313396Y-8640484D02*
X6294348Y-8640484D01*
X6294348Y-8640484D02*
X6275301Y-8630960D01*
X6275301Y-8630960D02*
X6265777Y-8621436D01*
X6265777Y-8621436D02*
X6256253Y-8602389D01*
X6256253Y-8602389D02*
X6246729Y-8564293D01*
X6246729Y-8564293D02*
X6246729Y-8516674D01*
X6246729Y-8516674D02*
X6256253Y-8478579D01*
X6256253Y-8478579D02*
X6265777Y-8459531D01*
X6265777Y-8459531D02*
X6275301Y-8450008D01*
X6275301Y-8450008D02*
X6294348Y-8440484D01*
X6427682Y-8440484D02*
X6551491Y-8440484D01*
X6551491Y-8440484D02*
X6484825Y-8516674D01*
X6484825Y-8516674D02*
X6513396Y-8516674D01*
X6513396Y-8516674D02*
X6532444Y-8526198D01*
X6532444Y-8526198D02*
X6541967Y-8535722D01*
X6541967Y-8535722D02*
X6551491Y-8554770D01*
X6551491Y-8554770D02*
X6551491Y-8602389D01*
X6551491Y-8602389D02*
X6541967Y-8621436D01*
X6541967Y-8621436D02*
X6532444Y-8630960D01*
X6532444Y-8630960D02*
X6513396Y-8640484D01*
X6513396Y-8640484D02*
X6456253Y-8640484D01*
X6456253Y-8640484D02*
X6437206Y-8630960D01*
X6437206Y-8630960D02*
X6427682Y-8621436D01*
X6646729Y-8640484D02*
X6684825Y-8640484D01*
X6684825Y-8640484D02*
X6703872Y-8630960D01*
X6703872Y-8630960D02*
X6713396Y-8621436D01*
X6713396Y-8621436D02*
X6732444Y-8592865D01*
X6732444Y-8592865D02*
X6741967Y-8554770D01*
X6741967Y-8554770D02*
X6741967Y-8478579D01*
X6741967Y-8478579D02*
X6732444Y-8459531D01*
X6732444Y-8459531D02*
X6722920Y-8450008D01*
X6722920Y-8450008D02*
X6703872Y-8440484D01*
X6703872Y-8440484D02*
X6665777Y-8440484D01*
X6665777Y-8440484D02*
X6646729Y-8450008D01*
X6646729Y-8450008D02*
X6637206Y-8459531D01*
X6637206Y-8459531D02*
X6627682Y-8478579D01*
X6627682Y-8478579D02*
X6627682Y-8526198D01*
X6627682Y-8526198D02*
X6637206Y-8545246D01*
X6637206Y-8545246D02*
X6646729Y-8554770D01*
X6646729Y-8554770D02*
X6665777Y-8564293D01*
X6665777Y-8564293D02*
X6703872Y-8564293D01*
X6703872Y-8564293D02*
X6722920Y-8554770D01*
X6722920Y-8554770D02*
X6732444Y-8545246D01*
X6732444Y-8545246D02*
X6741967Y-8526198D01*
X6913396Y-8507150D02*
X6913396Y-8640484D01*
X6865777Y-8430960D02*
X6818158Y-8573817D01*
X6818158Y-8573817D02*
X6941967Y-8573817D01*
X7008634Y-8440484D02*
X7008634Y-8478579D01*
X7084825Y-8440484D02*
X7084825Y-8478579D01*
X7380063Y-8716674D02*
X7370539Y-8707150D01*
X7370539Y-8707150D02*
X7351491Y-8678579D01*
X7351491Y-8678579D02*
X7341968Y-8659531D01*
X7341968Y-8659531D02*
X7332444Y-8630960D01*
X7332444Y-8630960D02*
X7322920Y-8583341D01*
X7322920Y-8583341D02*
X7322920Y-8545246D01*
X7322920Y-8545246D02*
X7332444Y-8497627D01*
X7332444Y-8497627D02*
X7341968Y-8469055D01*
X7341968Y-8469055D02*
X7351491Y-8450008D01*
X7351491Y-8450008D02*
X7370539Y-8421436D01*
X7370539Y-8421436D02*
X7380063Y-8411912D01*
X7437206Y-8440484D02*
X7570539Y-8440484D01*
X7570539Y-8440484D02*
X7484825Y-8640484D01*
X7799110Y-8640484D02*
X7799110Y-8440484D01*
X7884825Y-8640484D02*
X7884825Y-8535722D01*
X7884825Y-8535722D02*
X7875301Y-8516674D01*
X7875301Y-8516674D02*
X7856253Y-8507150D01*
X7856253Y-8507150D02*
X7827682Y-8507150D01*
X7827682Y-8507150D02*
X7808634Y-8516674D01*
X7808634Y-8516674D02*
X7799110Y-8526198D01*
X8008634Y-8640484D02*
X7989587Y-8630960D01*
X7989587Y-8630960D02*
X7980063Y-8621436D01*
X7980063Y-8621436D02*
X7970539Y-8602389D01*
X7970539Y-8602389D02*
X7970539Y-8545246D01*
X7970539Y-8545246D02*
X7980063Y-8526198D01*
X7980063Y-8526198D02*
X7989587Y-8516674D01*
X7989587Y-8516674D02*
X8008634Y-8507150D01*
X8008634Y-8507150D02*
X8037206Y-8507150D01*
X8037206Y-8507150D02*
X8056253Y-8516674D01*
X8056253Y-8516674D02*
X8065777Y-8526198D01*
X8065777Y-8526198D02*
X8075301Y-8545246D01*
X8075301Y-8545246D02*
X8075301Y-8602389D01*
X8075301Y-8602389D02*
X8065777Y-8621436D01*
X8065777Y-8621436D02*
X8056253Y-8630960D01*
X8056253Y-8630960D02*
X8037206Y-8640484D01*
X8037206Y-8640484D02*
X8008634Y-8640484D01*
X8189587Y-8640484D02*
X8170539Y-8630960D01*
X8170539Y-8630960D02*
X8161015Y-8611912D01*
X8161015Y-8611912D02*
X8161015Y-8440484D01*
X8341968Y-8630960D02*
X8322920Y-8640484D01*
X8322920Y-8640484D02*
X8284825Y-8640484D01*
X8284825Y-8640484D02*
X8265777Y-8630960D01*
X8265777Y-8630960D02*
X8256253Y-8611912D01*
X8256253Y-8611912D02*
X8256253Y-8535722D01*
X8256253Y-8535722D02*
X8265777Y-8516674D01*
X8265777Y-8516674D02*
X8284825Y-8507150D01*
X8284825Y-8507150D02*
X8322920Y-8507150D01*
X8322920Y-8507150D02*
X8341968Y-8516674D01*
X8341968Y-8516674D02*
X8351491Y-8535722D01*
X8351491Y-8535722D02*
X8351491Y-8554770D01*
X8351491Y-8554770D02*
X8256253Y-8573817D01*
X8427682Y-8630960D02*
X8446730Y-8640484D01*
X8446730Y-8640484D02*
X8484825Y-8640484D01*
X8484825Y-8640484D02*
X8503873Y-8630960D01*
X8503873Y-8630960D02*
X8513396Y-8611912D01*
X8513396Y-8611912D02*
X8513396Y-8602389D01*
X8513396Y-8602389D02*
X8503873Y-8583341D01*
X8503873Y-8583341D02*
X8484825Y-8573817D01*
X8484825Y-8573817D02*
X8456253Y-8573817D01*
X8456253Y-8573817D02*
X8437206Y-8564293D01*
X8437206Y-8564293D02*
X8427682Y-8545246D01*
X8427682Y-8545246D02*
X8427682Y-8535722D01*
X8427682Y-8535722D02*
X8437206Y-8516674D01*
X8437206Y-8516674D02*
X8456253Y-8507150D01*
X8456253Y-8507150D02*
X8484825Y-8507150D01*
X8484825Y-8507150D02*
X8503873Y-8516674D01*
X8580063Y-8716674D02*
X8589587Y-8707150D01*
X8589587Y-8707150D02*
X8608634Y-8678579D01*
X8608634Y-8678579D02*
X8618158Y-8659531D01*
X8618158Y-8659531D02*
X8627682Y-8630960D01*
X8627682Y-8630960D02*
X8637206Y-8583341D01*
X8637206Y-8583341D02*
X8637206Y-8545246D01*
X8637206Y-8545246D02*
X8627682Y-8497627D01*
X8627682Y-8497627D02*
X8618158Y-8469055D01*
X8618158Y-8469055D02*
X8608634Y-8450008D01*
X8608634Y-8450008D02*
X8589587Y-8421436D01*
X8589587Y-8421436D02*
X8580063Y-8411912D01*
D12*
X3754200Y-8863800D02*
X3805000Y-8813000D01*
X3754200Y-8762200D01*
X3703400Y-8813000D01*
X3754200Y-8863800D01*
D11*
X4170539Y-8904484D02*
X4056253Y-8904484D01*
X4113396Y-8904484D02*
X4113396Y-8704484D01*
X4113396Y-8704484D02*
X4094348Y-8733055D01*
X4094348Y-8733055D02*
X4075301Y-8752103D01*
X4075301Y-8752103D02*
X4056253Y-8761627D01*
X4256253Y-8885436D02*
X4265777Y-8894960D01*
X4265777Y-8894960D02*
X4256253Y-8904484D01*
X4256253Y-8904484D02*
X4246729Y-8894960D01*
X4246729Y-8894960D02*
X4256253Y-8885436D01*
X4256253Y-8885436D02*
X4256253Y-8904484D01*
X4389586Y-8704484D02*
X4408634Y-8704484D01*
X4408634Y-8704484D02*
X4427682Y-8714008D01*
X4427682Y-8714008D02*
X4437205Y-8723531D01*
X4437205Y-8723531D02*
X4446729Y-8742579D01*
X4446729Y-8742579D02*
X4456253Y-8780674D01*
X4456253Y-8780674D02*
X4456253Y-8828293D01*
X4456253Y-8828293D02*
X4446729Y-8866389D01*
X4446729Y-8866389D02*
X4437205Y-8885436D01*
X4437205Y-8885436D02*
X4427682Y-8894960D01*
X4427682Y-8894960D02*
X4408634Y-8904484D01*
X4408634Y-8904484D02*
X4389586Y-8904484D01*
X4389586Y-8904484D02*
X4370539Y-8894960D01*
X4370539Y-8894960D02*
X4361015Y-8885436D01*
X4361015Y-8885436D02*
X4351491Y-8866389D01*
X4351491Y-8866389D02*
X4341967Y-8828293D01*
X4341967Y-8828293D02*
X4341967Y-8780674D01*
X4341967Y-8780674D02*
X4351491Y-8742579D01*
X4351491Y-8742579D02*
X4361015Y-8723531D01*
X4361015Y-8723531D02*
X4370539Y-8714008D01*
X4370539Y-8714008D02*
X4389586Y-8704484D01*
X4646729Y-8904484D02*
X4532444Y-8904484D01*
X4589586Y-8904484D02*
X4589586Y-8704484D01*
X4589586Y-8704484D02*
X4570539Y-8733055D01*
X4570539Y-8733055D02*
X4551491Y-8752103D01*
X4551491Y-8752103D02*
X4532444Y-8761627D01*
X4818158Y-8704484D02*
X4780063Y-8704484D01*
X4780063Y-8704484D02*
X4761015Y-8714008D01*
X4761015Y-8714008D02*
X4751491Y-8723531D01*
X4751491Y-8723531D02*
X4732444Y-8752103D01*
X4732444Y-8752103D02*
X4722920Y-8790198D01*
X4722920Y-8790198D02*
X4722920Y-8866389D01*
X4722920Y-8866389D02*
X4732444Y-8885436D01*
X4732444Y-8885436D02*
X4741967Y-8894960D01*
X4741967Y-8894960D02*
X4761015Y-8904484D01*
X4761015Y-8904484D02*
X4799110Y-8904484D01*
X4799110Y-8904484D02*
X4818158Y-8894960D01*
X4818158Y-8894960D02*
X4827682Y-8885436D01*
X4827682Y-8885436D02*
X4837205Y-8866389D01*
X4837205Y-8866389D02*
X4837205Y-8818770D01*
X4837205Y-8818770D02*
X4827682Y-8799722D01*
X4827682Y-8799722D02*
X4818158Y-8790198D01*
X4818158Y-8790198D02*
X4799110Y-8780674D01*
X4799110Y-8780674D02*
X4761015Y-8780674D01*
X4761015Y-8780674D02*
X4741967Y-8790198D01*
X4741967Y-8790198D02*
X4732444Y-8799722D01*
X4732444Y-8799722D02*
X4722920Y-8818770D01*
X4922920Y-8904484D02*
X4922920Y-8771150D01*
X4922920Y-8790198D02*
X4932444Y-8780674D01*
X4932444Y-8780674D02*
X4951491Y-8771150D01*
X4951491Y-8771150D02*
X4980063Y-8771150D01*
X4980063Y-8771150D02*
X4999110Y-8780674D01*
X4999110Y-8780674D02*
X5008634Y-8799722D01*
X5008634Y-8799722D02*
X5008634Y-8904484D01*
X5008634Y-8799722D02*
X5018158Y-8780674D01*
X5018158Y-8780674D02*
X5037205Y-8771150D01*
X5037205Y-8771150D02*
X5065777Y-8771150D01*
X5065777Y-8771150D02*
X5084825Y-8780674D01*
X5084825Y-8780674D02*
X5094348Y-8799722D01*
X5094348Y-8799722D02*
X5094348Y-8904484D01*
X5189586Y-8904484D02*
X5189586Y-8771150D01*
X5189586Y-8790198D02*
X5199110Y-8780674D01*
X5199110Y-8780674D02*
X5218158Y-8771150D01*
X5218158Y-8771150D02*
X5246729Y-8771150D01*
X5246729Y-8771150D02*
X5265777Y-8780674D01*
X5265777Y-8780674D02*
X5275301Y-8799722D01*
X5275301Y-8799722D02*
X5275301Y-8904484D01*
X5275301Y-8799722D02*
X5284825Y-8780674D01*
X5284825Y-8780674D02*
X5303872Y-8771150D01*
X5303872Y-8771150D02*
X5332444Y-8771150D01*
X5332444Y-8771150D02*
X5351491Y-8780674D01*
X5351491Y-8780674D02*
X5361015Y-8799722D01*
X5361015Y-8799722D02*
X5361015Y-8904484D01*
X5751491Y-8694960D02*
X5580063Y-8952103D01*
X6008634Y-8704484D02*
X6027682Y-8704484D01*
X6027682Y-8704484D02*
X6046729Y-8714008D01*
X6046729Y-8714008D02*
X6056253Y-8723531D01*
X6056253Y-8723531D02*
X6065777Y-8742579D01*
X6065777Y-8742579D02*
X6075301Y-8780674D01*
X6075301Y-8780674D02*
X6075301Y-8828293D01*
X6075301Y-8828293D02*
X6065777Y-8866389D01*
X6065777Y-8866389D02*
X6056253Y-8885436D01*
X6056253Y-8885436D02*
X6046729Y-8894960D01*
X6046729Y-8894960D02*
X6027682Y-8904484D01*
X6027682Y-8904484D02*
X6008634Y-8904484D01*
X6008634Y-8904484D02*
X5989586Y-8894960D01*
X5989586Y-8894960D02*
X5980063Y-8885436D01*
X5980063Y-8885436D02*
X5970539Y-8866389D01*
X5970539Y-8866389D02*
X5961015Y-8828293D01*
X5961015Y-8828293D02*
X5961015Y-8780674D01*
X5961015Y-8780674D02*
X5970539Y-8742579D01*
X5970539Y-8742579D02*
X5980063Y-8723531D01*
X5980063Y-8723531D02*
X5989586Y-8714008D01*
X5989586Y-8714008D02*
X6008634Y-8704484D01*
X6161015Y-8885436D02*
X6170539Y-8894960D01*
X6170539Y-8894960D02*
X6161015Y-8904484D01*
X6161015Y-8904484D02*
X6151491Y-8894960D01*
X6151491Y-8894960D02*
X6161015Y-8885436D01*
X6161015Y-8885436D02*
X6161015Y-8904484D01*
X6294348Y-8704484D02*
X6313396Y-8704484D01*
X6313396Y-8704484D02*
X6332444Y-8714008D01*
X6332444Y-8714008D02*
X6341967Y-8723531D01*
X6341967Y-8723531D02*
X6351491Y-8742579D01*
X6351491Y-8742579D02*
X6361015Y-8780674D01*
X6361015Y-8780674D02*
X6361015Y-8828293D01*
X6361015Y-8828293D02*
X6351491Y-8866389D01*
X6351491Y-8866389D02*
X6341967Y-8885436D01*
X6341967Y-8885436D02*
X6332444Y-8894960D01*
X6332444Y-8894960D02*
X6313396Y-8904484D01*
X6313396Y-8904484D02*
X6294348Y-8904484D01*
X6294348Y-8904484D02*
X6275301Y-8894960D01*
X6275301Y-8894960D02*
X6265777Y-8885436D01*
X6265777Y-8885436D02*
X6256253Y-8866389D01*
X6256253Y-8866389D02*
X6246729Y-8828293D01*
X6246729Y-8828293D02*
X6246729Y-8780674D01*
X6246729Y-8780674D02*
X6256253Y-8742579D01*
X6256253Y-8742579D02*
X6265777Y-8723531D01*
X6265777Y-8723531D02*
X6275301Y-8714008D01*
X6275301Y-8714008D02*
X6294348Y-8704484D01*
X6532444Y-8771150D02*
X6532444Y-8904484D01*
X6484825Y-8694960D02*
X6437206Y-8837817D01*
X6437206Y-8837817D02*
X6561015Y-8837817D01*
X6675301Y-8704484D02*
X6694348Y-8704484D01*
X6694348Y-8704484D02*
X6713396Y-8714008D01*
X6713396Y-8714008D02*
X6722920Y-8723531D01*
X6722920Y-8723531D02*
X6732444Y-8742579D01*
X6732444Y-8742579D02*
X6741967Y-8780674D01*
X6741967Y-8780674D02*
X6741967Y-8828293D01*
X6741967Y-8828293D02*
X6732444Y-8866389D01*
X6732444Y-8866389D02*
X6722920Y-8885436D01*
X6722920Y-8885436D02*
X6713396Y-8894960D01*
X6713396Y-8894960D02*
X6694348Y-8904484D01*
X6694348Y-8904484D02*
X6675301Y-8904484D01*
X6675301Y-8904484D02*
X6656253Y-8894960D01*
X6656253Y-8894960D02*
X6646729Y-8885436D01*
X6646729Y-8885436D02*
X6637206Y-8866389D01*
X6637206Y-8866389D02*
X6627682Y-8828293D01*
X6627682Y-8828293D02*
X6627682Y-8780674D01*
X6627682Y-8780674D02*
X6637206Y-8742579D01*
X6637206Y-8742579D02*
X6646729Y-8723531D01*
X6646729Y-8723531D02*
X6656253Y-8714008D01*
X6656253Y-8714008D02*
X6675301Y-8704484D01*
X6865777Y-8704484D02*
X6884825Y-8704484D01*
X6884825Y-8704484D02*
X6903872Y-8714008D01*
X6903872Y-8714008D02*
X6913396Y-8723531D01*
X6913396Y-8723531D02*
X6922920Y-8742579D01*
X6922920Y-8742579D02*
X6932444Y-8780674D01*
X6932444Y-8780674D02*
X6932444Y-8828293D01*
X6932444Y-8828293D02*
X6922920Y-8866389D01*
X6922920Y-8866389D02*
X6913396Y-8885436D01*
X6913396Y-8885436D02*
X6903872Y-8894960D01*
X6903872Y-8894960D02*
X6884825Y-8904484D01*
X6884825Y-8904484D02*
X6865777Y-8904484D01*
X6865777Y-8904484D02*
X6846729Y-8894960D01*
X6846729Y-8894960D02*
X6837206Y-8885436D01*
X6837206Y-8885436D02*
X6827682Y-8866389D01*
X6827682Y-8866389D02*
X6818158Y-8828293D01*
X6818158Y-8828293D02*
X6818158Y-8780674D01*
X6818158Y-8780674D02*
X6827682Y-8742579D01*
X6827682Y-8742579D02*
X6837206Y-8723531D01*
X6837206Y-8723531D02*
X6846729Y-8714008D01*
X6846729Y-8714008D02*
X6865777Y-8704484D01*
X7008634Y-8704484D02*
X7008634Y-8742579D01*
X7084825Y-8704484D02*
X7084825Y-8742579D01*
X7380063Y-8980674D02*
X7370539Y-8971150D01*
X7370539Y-8971150D02*
X7351491Y-8942579D01*
X7351491Y-8942579D02*
X7341968Y-8923531D01*
X7341968Y-8923531D02*
X7332444Y-8894960D01*
X7332444Y-8894960D02*
X7322920Y-8847341D01*
X7322920Y-8847341D02*
X7322920Y-8809246D01*
X7322920Y-8809246D02*
X7332444Y-8761627D01*
X7332444Y-8761627D02*
X7341968Y-8733055D01*
X7341968Y-8733055D02*
X7351491Y-8714008D01*
X7351491Y-8714008D02*
X7370539Y-8685436D01*
X7370539Y-8685436D02*
X7380063Y-8675912D01*
X7437206Y-8704484D02*
X7561015Y-8704484D01*
X7561015Y-8704484D02*
X7494348Y-8780674D01*
X7494348Y-8780674D02*
X7522920Y-8780674D01*
X7522920Y-8780674D02*
X7541968Y-8790198D01*
X7541968Y-8790198D02*
X7551491Y-8799722D01*
X7551491Y-8799722D02*
X7561015Y-8818770D01*
X7561015Y-8818770D02*
X7561015Y-8866389D01*
X7561015Y-8866389D02*
X7551491Y-8885436D01*
X7551491Y-8885436D02*
X7541968Y-8894960D01*
X7541968Y-8894960D02*
X7522920Y-8904484D01*
X7522920Y-8904484D02*
X7465777Y-8904484D01*
X7465777Y-8904484D02*
X7446729Y-8894960D01*
X7446729Y-8894960D02*
X7437206Y-8885436D01*
X7637206Y-8723531D02*
X7646729Y-8714008D01*
X7646729Y-8714008D02*
X7665777Y-8704484D01*
X7665777Y-8704484D02*
X7713396Y-8704484D01*
X7713396Y-8704484D02*
X7732444Y-8714008D01*
X7732444Y-8714008D02*
X7741968Y-8723531D01*
X7741968Y-8723531D02*
X7751491Y-8742579D01*
X7751491Y-8742579D02*
X7751491Y-8761627D01*
X7751491Y-8761627D02*
X7741968Y-8790198D01*
X7741968Y-8790198D02*
X7627682Y-8904484D01*
X7627682Y-8904484D02*
X7751491Y-8904484D01*
X7989587Y-8904484D02*
X7989587Y-8704484D01*
X8075301Y-8904484D02*
X8075301Y-8799722D01*
X8075301Y-8799722D02*
X8065777Y-8780674D01*
X8065777Y-8780674D02*
X8046730Y-8771150D01*
X8046730Y-8771150D02*
X8018158Y-8771150D01*
X8018158Y-8771150D02*
X7999110Y-8780674D01*
X7999110Y-8780674D02*
X7989587Y-8790198D01*
X8199110Y-8904484D02*
X8180063Y-8894960D01*
X8180063Y-8894960D02*
X8170539Y-8885436D01*
X8170539Y-8885436D02*
X8161015Y-8866389D01*
X8161015Y-8866389D02*
X8161015Y-8809246D01*
X8161015Y-8809246D02*
X8170539Y-8790198D01*
X8170539Y-8790198D02*
X8180063Y-8780674D01*
X8180063Y-8780674D02*
X8199110Y-8771150D01*
X8199110Y-8771150D02*
X8227682Y-8771150D01*
X8227682Y-8771150D02*
X8246730Y-8780674D01*
X8246730Y-8780674D02*
X8256253Y-8790198D01*
X8256253Y-8790198D02*
X8265777Y-8809246D01*
X8265777Y-8809246D02*
X8265777Y-8866389D01*
X8265777Y-8866389D02*
X8256253Y-8885436D01*
X8256253Y-8885436D02*
X8246730Y-8894960D01*
X8246730Y-8894960D02*
X8227682Y-8904484D01*
X8227682Y-8904484D02*
X8199110Y-8904484D01*
X8380063Y-8904484D02*
X8361015Y-8894960D01*
X8361015Y-8894960D02*
X8351491Y-8875912D01*
X8351491Y-8875912D02*
X8351491Y-8704484D01*
X8532444Y-8894960D02*
X8513396Y-8904484D01*
X8513396Y-8904484D02*
X8475301Y-8904484D01*
X8475301Y-8904484D02*
X8456253Y-8894960D01*
X8456253Y-8894960D02*
X8446730Y-8875912D01*
X8446730Y-8875912D02*
X8446730Y-8799722D01*
X8446730Y-8799722D02*
X8456253Y-8780674D01*
X8456253Y-8780674D02*
X8475301Y-8771150D01*
X8475301Y-8771150D02*
X8513396Y-8771150D01*
X8513396Y-8771150D02*
X8532444Y-8780674D01*
X8532444Y-8780674D02*
X8541968Y-8799722D01*
X8541968Y-8799722D02*
X8541968Y-8818770D01*
X8541968Y-8818770D02*
X8446730Y-8837817D01*
X8618158Y-8894960D02*
X8637206Y-8904484D01*
X8637206Y-8904484D02*
X8675301Y-8904484D01*
X8675301Y-8904484D02*
X8694349Y-8894960D01*
X8694349Y-8894960D02*
X8703873Y-8875912D01*
X8703873Y-8875912D02*
X8703873Y-8866389D01*
X8703873Y-8866389D02*
X8694349Y-8847341D01*
X8694349Y-8847341D02*
X8675301Y-8837817D01*
X8675301Y-8837817D02*
X8646730Y-8837817D01*
X8646730Y-8837817D02*
X8627682Y-8828293D01*
X8627682Y-8828293D02*
X8618158Y-8809246D01*
X8618158Y-8809246D02*
X8618158Y-8799722D01*
X8618158Y-8799722D02*
X8627682Y-8780674D01*
X8627682Y-8780674D02*
X8646730Y-8771150D01*
X8646730Y-8771150D02*
X8675301Y-8771150D01*
X8675301Y-8771150D02*
X8694349Y-8780674D01*
X8770539Y-8980674D02*
X8780063Y-8971150D01*
X8780063Y-8971150D02*
X8799111Y-8942579D01*
X8799111Y-8942579D02*
X8808634Y-8923531D01*
X8808634Y-8923531D02*
X8818158Y-8894960D01*
X8818158Y-8894960D02*
X8827682Y-8847341D01*
X8827682Y-8847341D02*
X8827682Y-8809246D01*
X8827682Y-8809246D02*
X8818158Y-8761627D01*
X8818158Y-8761627D02*
X8808634Y-8733055D01*
X8808634Y-8733055D02*
X8799111Y-8714008D01*
X8799111Y-8714008D02*
X8780063Y-8685436D01*
X8780063Y-8685436D02*
X8770539Y-8675912D01*
D13*
X3695000Y-9022000D02*
X3805000Y-9132000D01*
X3805000Y-9022000D02*
X3695000Y-9132000D01*
X3805000Y-9077000D02*
G75*
G03*
X3805000Y-9077000I-55000J0D01*
G01*
D11*
X4170539Y-9168484D02*
X4056253Y-9168484D01*
X4113396Y-9168484D02*
X4113396Y-8968484D01*
X4113396Y-8968484D02*
X4094348Y-8997055D01*
X4094348Y-8997055D02*
X4075301Y-9016103D01*
X4075301Y-9016103D02*
X4056253Y-9025627D01*
X4256253Y-9149436D02*
X4265777Y-9158960D01*
X4265777Y-9158960D02*
X4256253Y-9168484D01*
X4256253Y-9168484D02*
X4246729Y-9158960D01*
X4246729Y-9158960D02*
X4256253Y-9149436D01*
X4256253Y-9149436D02*
X4256253Y-9168484D01*
X4456253Y-9168484D02*
X4341967Y-9168484D01*
X4399110Y-9168484D02*
X4399110Y-8968484D01*
X4399110Y-8968484D02*
X4380063Y-8997055D01*
X4380063Y-8997055D02*
X4361015Y-9016103D01*
X4361015Y-9016103D02*
X4341967Y-9025627D01*
X4580063Y-8968484D02*
X4599110Y-8968484D01*
X4599110Y-8968484D02*
X4618158Y-8978008D01*
X4618158Y-8978008D02*
X4627682Y-8987531D01*
X4627682Y-8987531D02*
X4637205Y-9006579D01*
X4637205Y-9006579D02*
X4646729Y-9044674D01*
X4646729Y-9044674D02*
X4646729Y-9092293D01*
X4646729Y-9092293D02*
X4637205Y-9130389D01*
X4637205Y-9130389D02*
X4627682Y-9149436D01*
X4627682Y-9149436D02*
X4618158Y-9158960D01*
X4618158Y-9158960D02*
X4599110Y-9168484D01*
X4599110Y-9168484D02*
X4580063Y-9168484D01*
X4580063Y-9168484D02*
X4561015Y-9158960D01*
X4561015Y-9158960D02*
X4551491Y-9149436D01*
X4551491Y-9149436D02*
X4541967Y-9130389D01*
X4541967Y-9130389D02*
X4532444Y-9092293D01*
X4532444Y-9092293D02*
X4532444Y-9044674D01*
X4532444Y-9044674D02*
X4541967Y-9006579D01*
X4541967Y-9006579D02*
X4551491Y-8987531D01*
X4551491Y-8987531D02*
X4561015Y-8978008D01*
X4561015Y-8978008D02*
X4580063Y-8968484D01*
X4770539Y-8968484D02*
X4789586Y-8968484D01*
X4789586Y-8968484D02*
X4808634Y-8978008D01*
X4808634Y-8978008D02*
X4818158Y-8987531D01*
X4818158Y-8987531D02*
X4827682Y-9006579D01*
X4827682Y-9006579D02*
X4837205Y-9044674D01*
X4837205Y-9044674D02*
X4837205Y-9092293D01*
X4837205Y-9092293D02*
X4827682Y-9130389D01*
X4827682Y-9130389D02*
X4818158Y-9149436D01*
X4818158Y-9149436D02*
X4808634Y-9158960D01*
X4808634Y-9158960D02*
X4789586Y-9168484D01*
X4789586Y-9168484D02*
X4770539Y-9168484D01*
X4770539Y-9168484D02*
X4751491Y-9158960D01*
X4751491Y-9158960D02*
X4741967Y-9149436D01*
X4741967Y-9149436D02*
X4732444Y-9130389D01*
X4732444Y-9130389D02*
X4722920Y-9092293D01*
X4722920Y-9092293D02*
X4722920Y-9044674D01*
X4722920Y-9044674D02*
X4732444Y-9006579D01*
X4732444Y-9006579D02*
X4741967Y-8987531D01*
X4741967Y-8987531D02*
X4751491Y-8978008D01*
X4751491Y-8978008D02*
X4770539Y-8968484D01*
X4922920Y-9168484D02*
X4922920Y-9035150D01*
X4922920Y-9054198D02*
X4932444Y-9044674D01*
X4932444Y-9044674D02*
X4951491Y-9035150D01*
X4951491Y-9035150D02*
X4980063Y-9035150D01*
X4980063Y-9035150D02*
X4999110Y-9044674D01*
X4999110Y-9044674D02*
X5008634Y-9063722D01*
X5008634Y-9063722D02*
X5008634Y-9168484D01*
X5008634Y-9063722D02*
X5018158Y-9044674D01*
X5018158Y-9044674D02*
X5037205Y-9035150D01*
X5037205Y-9035150D02*
X5065777Y-9035150D01*
X5065777Y-9035150D02*
X5084825Y-9044674D01*
X5084825Y-9044674D02*
X5094348Y-9063722D01*
X5094348Y-9063722D02*
X5094348Y-9168484D01*
X5189586Y-9168484D02*
X5189586Y-9035150D01*
X5189586Y-9054198D02*
X5199110Y-9044674D01*
X5199110Y-9044674D02*
X5218158Y-9035150D01*
X5218158Y-9035150D02*
X5246729Y-9035150D01*
X5246729Y-9035150D02*
X5265777Y-9044674D01*
X5265777Y-9044674D02*
X5275301Y-9063722D01*
X5275301Y-9063722D02*
X5275301Y-9168484D01*
X5275301Y-9063722D02*
X5284825Y-9044674D01*
X5284825Y-9044674D02*
X5303872Y-9035150D01*
X5303872Y-9035150D02*
X5332444Y-9035150D01*
X5332444Y-9035150D02*
X5351491Y-9044674D01*
X5351491Y-9044674D02*
X5361015Y-9063722D01*
X5361015Y-9063722D02*
X5361015Y-9168484D01*
X5751491Y-8958960D02*
X5580063Y-9216103D01*
X6008634Y-8968484D02*
X6027682Y-8968484D01*
X6027682Y-8968484D02*
X6046729Y-8978008D01*
X6046729Y-8978008D02*
X6056253Y-8987531D01*
X6056253Y-8987531D02*
X6065777Y-9006579D01*
X6065777Y-9006579D02*
X6075301Y-9044674D01*
X6075301Y-9044674D02*
X6075301Y-9092293D01*
X6075301Y-9092293D02*
X6065777Y-9130389D01*
X6065777Y-9130389D02*
X6056253Y-9149436D01*
X6056253Y-9149436D02*
X6046729Y-9158960D01*
X6046729Y-9158960D02*
X6027682Y-9168484D01*
X6027682Y-9168484D02*
X6008634Y-9168484D01*
X6008634Y-9168484D02*
X5989586Y-9158960D01*
X5989586Y-9158960D02*
X5980063Y-9149436D01*
X5980063Y-9149436D02*
X5970539Y-9130389D01*
X5970539Y-9130389D02*
X5961015Y-9092293D01*
X5961015Y-9092293D02*
X5961015Y-9044674D01*
X5961015Y-9044674D02*
X5970539Y-9006579D01*
X5970539Y-9006579D02*
X5980063Y-8987531D01*
X5980063Y-8987531D02*
X5989586Y-8978008D01*
X5989586Y-8978008D02*
X6008634Y-8968484D01*
X6161015Y-9149436D02*
X6170539Y-9158960D01*
X6170539Y-9158960D02*
X6161015Y-9168484D01*
X6161015Y-9168484D02*
X6151491Y-9158960D01*
X6151491Y-9158960D02*
X6161015Y-9149436D01*
X6161015Y-9149436D02*
X6161015Y-9168484D01*
X6294348Y-8968484D02*
X6313396Y-8968484D01*
X6313396Y-8968484D02*
X6332444Y-8978008D01*
X6332444Y-8978008D02*
X6341967Y-8987531D01*
X6341967Y-8987531D02*
X6351491Y-9006579D01*
X6351491Y-9006579D02*
X6361015Y-9044674D01*
X6361015Y-9044674D02*
X6361015Y-9092293D01*
X6361015Y-9092293D02*
X6351491Y-9130389D01*
X6351491Y-9130389D02*
X6341967Y-9149436D01*
X6341967Y-9149436D02*
X6332444Y-9158960D01*
X6332444Y-9158960D02*
X6313396Y-9168484D01*
X6313396Y-9168484D02*
X6294348Y-9168484D01*
X6294348Y-9168484D02*
X6275301Y-9158960D01*
X6275301Y-9158960D02*
X6265777Y-9149436D01*
X6265777Y-9149436D02*
X6256253Y-9130389D01*
X6256253Y-9130389D02*
X6246729Y-9092293D01*
X6246729Y-9092293D02*
X6246729Y-9044674D01*
X6246729Y-9044674D02*
X6256253Y-9006579D01*
X6256253Y-9006579D02*
X6265777Y-8987531D01*
X6265777Y-8987531D02*
X6275301Y-8978008D01*
X6275301Y-8978008D02*
X6294348Y-8968484D01*
X6532444Y-9035150D02*
X6532444Y-9168484D01*
X6484825Y-8958960D02*
X6437206Y-9101817D01*
X6437206Y-9101817D02*
X6561015Y-9101817D01*
X6618158Y-8968484D02*
X6741967Y-8968484D01*
X6741967Y-8968484D02*
X6675301Y-9044674D01*
X6675301Y-9044674D02*
X6703872Y-9044674D01*
X6703872Y-9044674D02*
X6722920Y-9054198D01*
X6722920Y-9054198D02*
X6732444Y-9063722D01*
X6732444Y-9063722D02*
X6741967Y-9082770D01*
X6741967Y-9082770D02*
X6741967Y-9130389D01*
X6741967Y-9130389D02*
X6732444Y-9149436D01*
X6732444Y-9149436D02*
X6722920Y-9158960D01*
X6722920Y-9158960D02*
X6703872Y-9168484D01*
X6703872Y-9168484D02*
X6646729Y-9168484D01*
X6646729Y-9168484D02*
X6627682Y-9158960D01*
X6627682Y-9158960D02*
X6618158Y-9149436D01*
X6808634Y-8968484D02*
X6932444Y-8968484D01*
X6932444Y-8968484D02*
X6865777Y-9044674D01*
X6865777Y-9044674D02*
X6894348Y-9044674D01*
X6894348Y-9044674D02*
X6913396Y-9054198D01*
X6913396Y-9054198D02*
X6922920Y-9063722D01*
X6922920Y-9063722D02*
X6932444Y-9082770D01*
X6932444Y-9082770D02*
X6932444Y-9130389D01*
X6932444Y-9130389D02*
X6922920Y-9149436D01*
X6922920Y-9149436D02*
X6913396Y-9158960D01*
X6913396Y-9158960D02*
X6894348Y-9168484D01*
X6894348Y-9168484D02*
X6837206Y-9168484D01*
X6837206Y-9168484D02*
X6818158Y-9158960D01*
X6818158Y-9158960D02*
X6808634Y-9149436D01*
X7008634Y-8968484D02*
X7008634Y-9006579D01*
X7084825Y-8968484D02*
X7084825Y-9006579D01*
X7380063Y-9244674D02*
X7370539Y-9235150D01*
X7370539Y-9235150D02*
X7351491Y-9206579D01*
X7351491Y-9206579D02*
X7341968Y-9187531D01*
X7341968Y-9187531D02*
X7332444Y-9158960D01*
X7332444Y-9158960D02*
X7322920Y-9111341D01*
X7322920Y-9111341D02*
X7322920Y-9073246D01*
X7322920Y-9073246D02*
X7332444Y-9025627D01*
X7332444Y-9025627D02*
X7341968Y-8997055D01*
X7341968Y-8997055D02*
X7351491Y-8978008D01*
X7351491Y-8978008D02*
X7370539Y-8949436D01*
X7370539Y-8949436D02*
X7380063Y-8939912D01*
X7437206Y-8968484D02*
X7561015Y-8968484D01*
X7561015Y-8968484D02*
X7494348Y-9044674D01*
X7494348Y-9044674D02*
X7522920Y-9044674D01*
X7522920Y-9044674D02*
X7541968Y-9054198D01*
X7541968Y-9054198D02*
X7551491Y-9063722D01*
X7551491Y-9063722D02*
X7561015Y-9082770D01*
X7561015Y-9082770D02*
X7561015Y-9130389D01*
X7561015Y-9130389D02*
X7551491Y-9149436D01*
X7551491Y-9149436D02*
X7541968Y-9158960D01*
X7541968Y-9158960D02*
X7522920Y-9168484D01*
X7522920Y-9168484D02*
X7465777Y-9168484D01*
X7465777Y-9168484D02*
X7446729Y-9158960D01*
X7446729Y-9158960D02*
X7437206Y-9149436D01*
X7799110Y-9168484D02*
X7799110Y-8968484D01*
X7884825Y-9168484D02*
X7884825Y-9063722D01*
X7884825Y-9063722D02*
X7875301Y-9044674D01*
X7875301Y-9044674D02*
X7856253Y-9035150D01*
X7856253Y-9035150D02*
X7827682Y-9035150D01*
X7827682Y-9035150D02*
X7808634Y-9044674D01*
X7808634Y-9044674D02*
X7799110Y-9054198D01*
X8008634Y-9168484D02*
X7989587Y-9158960D01*
X7989587Y-9158960D02*
X7980063Y-9149436D01*
X7980063Y-9149436D02*
X7970539Y-9130389D01*
X7970539Y-9130389D02*
X7970539Y-9073246D01*
X7970539Y-9073246D02*
X7980063Y-9054198D01*
X7980063Y-9054198D02*
X7989587Y-9044674D01*
X7989587Y-9044674D02*
X8008634Y-9035150D01*
X8008634Y-9035150D02*
X8037206Y-9035150D01*
X8037206Y-9035150D02*
X8056253Y-9044674D01*
X8056253Y-9044674D02*
X8065777Y-9054198D01*
X8065777Y-9054198D02*
X8075301Y-9073246D01*
X8075301Y-9073246D02*
X8075301Y-9130389D01*
X8075301Y-9130389D02*
X8065777Y-9149436D01*
X8065777Y-9149436D02*
X8056253Y-9158960D01*
X8056253Y-9158960D02*
X8037206Y-9168484D01*
X8037206Y-9168484D02*
X8008634Y-9168484D01*
X8189587Y-9168484D02*
X8170539Y-9158960D01*
X8170539Y-9158960D02*
X8161015Y-9139912D01*
X8161015Y-9139912D02*
X8161015Y-8968484D01*
X8341968Y-9158960D02*
X8322920Y-9168484D01*
X8322920Y-9168484D02*
X8284825Y-9168484D01*
X8284825Y-9168484D02*
X8265777Y-9158960D01*
X8265777Y-9158960D02*
X8256253Y-9139912D01*
X8256253Y-9139912D02*
X8256253Y-9063722D01*
X8256253Y-9063722D02*
X8265777Y-9044674D01*
X8265777Y-9044674D02*
X8284825Y-9035150D01*
X8284825Y-9035150D02*
X8322920Y-9035150D01*
X8322920Y-9035150D02*
X8341968Y-9044674D01*
X8341968Y-9044674D02*
X8351491Y-9063722D01*
X8351491Y-9063722D02*
X8351491Y-9082770D01*
X8351491Y-9082770D02*
X8256253Y-9101817D01*
X8427682Y-9158960D02*
X8446730Y-9168484D01*
X8446730Y-9168484D02*
X8484825Y-9168484D01*
X8484825Y-9168484D02*
X8503873Y-9158960D01*
X8503873Y-9158960D02*
X8513396Y-9139912D01*
X8513396Y-9139912D02*
X8513396Y-9130389D01*
X8513396Y-9130389D02*
X8503873Y-9111341D01*
X8503873Y-9111341D02*
X8484825Y-9101817D01*
X8484825Y-9101817D02*
X8456253Y-9101817D01*
X8456253Y-9101817D02*
X8437206Y-9092293D01*
X8437206Y-9092293D02*
X8427682Y-9073246D01*
X8427682Y-9073246D02*
X8427682Y-9063722D01*
X8427682Y-9063722D02*
X8437206Y-9044674D01*
X8437206Y-9044674D02*
X8456253Y-9035150D01*
X8456253Y-9035150D02*
X8484825Y-9035150D01*
X8484825Y-9035150D02*
X8503873Y-9044674D01*
X8580063Y-9244674D02*
X8589587Y-9235150D01*
X8589587Y-9235150D02*
X8608634Y-9206579D01*
X8608634Y-9206579D02*
X8618158Y-9187531D01*
X8618158Y-9187531D02*
X8627682Y-9158960D01*
X8627682Y-9158960D02*
X8637206Y-9111341D01*
X8637206Y-9111341D02*
X8637206Y-9073246D01*
X8637206Y-9073246D02*
X8627682Y-9025627D01*
X8627682Y-9025627D02*
X8618158Y-8997055D01*
X8618158Y-8997055D02*
X8608634Y-8978008D01*
X8608634Y-8978008D02*
X8589587Y-8949436D01*
X8589587Y-8949436D02*
X8580063Y-8939912D01*
D14*
X3637000Y-9257000D02*
X3805000Y-9425000D01*
X3805000Y-9257000D02*
X3637000Y-9425000D01*
X3721000Y-9257000D02*
X3721000Y-9425000D01*
X3637000Y-9341000D02*
X3805000Y-9341000D01*
D11*
X4170539Y-9432484D02*
X4056253Y-9432484D01*
X4113396Y-9432484D02*
X4113396Y-9232484D01*
X4113396Y-9232484D02*
X4094348Y-9261055D01*
X4094348Y-9261055D02*
X4075301Y-9280103D01*
X4075301Y-9280103D02*
X4056253Y-9289627D01*
X4256253Y-9413436D02*
X4265777Y-9422960D01*
X4265777Y-9422960D02*
X4256253Y-9432484D01*
X4256253Y-9432484D02*
X4246729Y-9422960D01*
X4246729Y-9422960D02*
X4256253Y-9413436D01*
X4256253Y-9413436D02*
X4256253Y-9432484D01*
X4437205Y-9232484D02*
X4399110Y-9232484D01*
X4399110Y-9232484D02*
X4380063Y-9242008D01*
X4380063Y-9242008D02*
X4370539Y-9251531D01*
X4370539Y-9251531D02*
X4351491Y-9280103D01*
X4351491Y-9280103D02*
X4341967Y-9318198D01*
X4341967Y-9318198D02*
X4341967Y-9394389D01*
X4341967Y-9394389D02*
X4351491Y-9413436D01*
X4351491Y-9413436D02*
X4361015Y-9422960D01*
X4361015Y-9422960D02*
X4380063Y-9432484D01*
X4380063Y-9432484D02*
X4418158Y-9432484D01*
X4418158Y-9432484D02*
X4437205Y-9422960D01*
X4437205Y-9422960D02*
X4446729Y-9413436D01*
X4446729Y-9413436D02*
X4456253Y-9394389D01*
X4456253Y-9394389D02*
X4456253Y-9346770D01*
X4456253Y-9346770D02*
X4446729Y-9327722D01*
X4446729Y-9327722D02*
X4437205Y-9318198D01*
X4437205Y-9318198D02*
X4418158Y-9308674D01*
X4418158Y-9308674D02*
X4380063Y-9308674D01*
X4380063Y-9308674D02*
X4361015Y-9318198D01*
X4361015Y-9318198D02*
X4351491Y-9327722D01*
X4351491Y-9327722D02*
X4341967Y-9346770D01*
X4570539Y-9318198D02*
X4551491Y-9308674D01*
X4551491Y-9308674D02*
X4541967Y-9299150D01*
X4541967Y-9299150D02*
X4532444Y-9280103D01*
X4532444Y-9280103D02*
X4532444Y-9270579D01*
X4532444Y-9270579D02*
X4541967Y-9251531D01*
X4541967Y-9251531D02*
X4551491Y-9242008D01*
X4551491Y-9242008D02*
X4570539Y-9232484D01*
X4570539Y-9232484D02*
X4608634Y-9232484D01*
X4608634Y-9232484D02*
X4627682Y-9242008D01*
X4627682Y-9242008D02*
X4637205Y-9251531D01*
X4637205Y-9251531D02*
X4646729Y-9270579D01*
X4646729Y-9270579D02*
X4646729Y-9280103D01*
X4646729Y-9280103D02*
X4637205Y-9299150D01*
X4637205Y-9299150D02*
X4627682Y-9308674D01*
X4627682Y-9308674D02*
X4608634Y-9318198D01*
X4608634Y-9318198D02*
X4570539Y-9318198D01*
X4570539Y-9318198D02*
X4551491Y-9327722D01*
X4551491Y-9327722D02*
X4541967Y-9337246D01*
X4541967Y-9337246D02*
X4532444Y-9356293D01*
X4532444Y-9356293D02*
X4532444Y-9394389D01*
X4532444Y-9394389D02*
X4541967Y-9413436D01*
X4541967Y-9413436D02*
X4551491Y-9422960D01*
X4551491Y-9422960D02*
X4570539Y-9432484D01*
X4570539Y-9432484D02*
X4608634Y-9432484D01*
X4608634Y-9432484D02*
X4627682Y-9422960D01*
X4627682Y-9422960D02*
X4637205Y-9413436D01*
X4637205Y-9413436D02*
X4646729Y-9394389D01*
X4646729Y-9394389D02*
X4646729Y-9356293D01*
X4646729Y-9356293D02*
X4637205Y-9337246D01*
X4637205Y-9337246D02*
X4627682Y-9327722D01*
X4627682Y-9327722D02*
X4608634Y-9318198D01*
X4770539Y-9232484D02*
X4789586Y-9232484D01*
X4789586Y-9232484D02*
X4808634Y-9242008D01*
X4808634Y-9242008D02*
X4818158Y-9251531D01*
X4818158Y-9251531D02*
X4827682Y-9270579D01*
X4827682Y-9270579D02*
X4837205Y-9308674D01*
X4837205Y-9308674D02*
X4837205Y-9356293D01*
X4837205Y-9356293D02*
X4827682Y-9394389D01*
X4827682Y-9394389D02*
X4818158Y-9413436D01*
X4818158Y-9413436D02*
X4808634Y-9422960D01*
X4808634Y-9422960D02*
X4789586Y-9432484D01*
X4789586Y-9432484D02*
X4770539Y-9432484D01*
X4770539Y-9432484D02*
X4751491Y-9422960D01*
X4751491Y-9422960D02*
X4741967Y-9413436D01*
X4741967Y-9413436D02*
X4732444Y-9394389D01*
X4732444Y-9394389D02*
X4722920Y-9356293D01*
X4722920Y-9356293D02*
X4722920Y-9308674D01*
X4722920Y-9308674D02*
X4732444Y-9270579D01*
X4732444Y-9270579D02*
X4741967Y-9251531D01*
X4741967Y-9251531D02*
X4751491Y-9242008D01*
X4751491Y-9242008D02*
X4770539Y-9232484D01*
X4922920Y-9432484D02*
X4922920Y-9299150D01*
X4922920Y-9318198D02*
X4932444Y-9308674D01*
X4932444Y-9308674D02*
X4951491Y-9299150D01*
X4951491Y-9299150D02*
X4980063Y-9299150D01*
X4980063Y-9299150D02*
X4999110Y-9308674D01*
X4999110Y-9308674D02*
X5008634Y-9327722D01*
X5008634Y-9327722D02*
X5008634Y-9432484D01*
X5008634Y-9327722D02*
X5018158Y-9308674D01*
X5018158Y-9308674D02*
X5037205Y-9299150D01*
X5037205Y-9299150D02*
X5065777Y-9299150D01*
X5065777Y-9299150D02*
X5084825Y-9308674D01*
X5084825Y-9308674D02*
X5094348Y-9327722D01*
X5094348Y-9327722D02*
X5094348Y-9432484D01*
X5189586Y-9432484D02*
X5189586Y-9299150D01*
X5189586Y-9318198D02*
X5199110Y-9308674D01*
X5199110Y-9308674D02*
X5218158Y-9299150D01*
X5218158Y-9299150D02*
X5246729Y-9299150D01*
X5246729Y-9299150D02*
X5265777Y-9308674D01*
X5265777Y-9308674D02*
X5275301Y-9327722D01*
X5275301Y-9327722D02*
X5275301Y-9432484D01*
X5275301Y-9327722D02*
X5284825Y-9308674D01*
X5284825Y-9308674D02*
X5303872Y-9299150D01*
X5303872Y-9299150D02*
X5332444Y-9299150D01*
X5332444Y-9299150D02*
X5351491Y-9308674D01*
X5351491Y-9308674D02*
X5361015Y-9327722D01*
X5361015Y-9327722D02*
X5361015Y-9432484D01*
X5751491Y-9222960D02*
X5580063Y-9480103D01*
X6008634Y-9232484D02*
X6027682Y-9232484D01*
X6027682Y-9232484D02*
X6046729Y-9242008D01*
X6046729Y-9242008D02*
X6056253Y-9251531D01*
X6056253Y-9251531D02*
X6065777Y-9270579D01*
X6065777Y-9270579D02*
X6075301Y-9308674D01*
X6075301Y-9308674D02*
X6075301Y-9356293D01*
X6075301Y-9356293D02*
X6065777Y-9394389D01*
X6065777Y-9394389D02*
X6056253Y-9413436D01*
X6056253Y-9413436D02*
X6046729Y-9422960D01*
X6046729Y-9422960D02*
X6027682Y-9432484D01*
X6027682Y-9432484D02*
X6008634Y-9432484D01*
X6008634Y-9432484D02*
X5989586Y-9422960D01*
X5989586Y-9422960D02*
X5980063Y-9413436D01*
X5980063Y-9413436D02*
X5970539Y-9394389D01*
X5970539Y-9394389D02*
X5961015Y-9356293D01*
X5961015Y-9356293D02*
X5961015Y-9308674D01*
X5961015Y-9308674D02*
X5970539Y-9270579D01*
X5970539Y-9270579D02*
X5980063Y-9251531D01*
X5980063Y-9251531D02*
X5989586Y-9242008D01*
X5989586Y-9242008D02*
X6008634Y-9232484D01*
X6161015Y-9413436D02*
X6170539Y-9422960D01*
X6170539Y-9422960D02*
X6161015Y-9432484D01*
X6161015Y-9432484D02*
X6151491Y-9422960D01*
X6151491Y-9422960D02*
X6161015Y-9413436D01*
X6161015Y-9413436D02*
X6161015Y-9432484D01*
X6294348Y-9232484D02*
X6313396Y-9232484D01*
X6313396Y-9232484D02*
X6332444Y-9242008D01*
X6332444Y-9242008D02*
X6341967Y-9251531D01*
X6341967Y-9251531D02*
X6351491Y-9270579D01*
X6351491Y-9270579D02*
X6361015Y-9308674D01*
X6361015Y-9308674D02*
X6361015Y-9356293D01*
X6361015Y-9356293D02*
X6351491Y-9394389D01*
X6351491Y-9394389D02*
X6341967Y-9413436D01*
X6341967Y-9413436D02*
X6332444Y-9422960D01*
X6332444Y-9422960D02*
X6313396Y-9432484D01*
X6313396Y-9432484D02*
X6294348Y-9432484D01*
X6294348Y-9432484D02*
X6275301Y-9422960D01*
X6275301Y-9422960D02*
X6265777Y-9413436D01*
X6265777Y-9413436D02*
X6256253Y-9394389D01*
X6256253Y-9394389D02*
X6246729Y-9356293D01*
X6246729Y-9356293D02*
X6246729Y-9308674D01*
X6246729Y-9308674D02*
X6256253Y-9270579D01*
X6256253Y-9270579D02*
X6265777Y-9251531D01*
X6265777Y-9251531D02*
X6275301Y-9242008D01*
X6275301Y-9242008D02*
X6294348Y-9232484D01*
X6532444Y-9232484D02*
X6494348Y-9232484D01*
X6494348Y-9232484D02*
X6475301Y-9242008D01*
X6475301Y-9242008D02*
X6465777Y-9251531D01*
X6465777Y-9251531D02*
X6446729Y-9280103D01*
X6446729Y-9280103D02*
X6437206Y-9318198D01*
X6437206Y-9318198D02*
X6437206Y-9394389D01*
X6437206Y-9394389D02*
X6446729Y-9413436D01*
X6446729Y-9413436D02*
X6456253Y-9422960D01*
X6456253Y-9422960D02*
X6475301Y-9432484D01*
X6475301Y-9432484D02*
X6513396Y-9432484D01*
X6513396Y-9432484D02*
X6532444Y-9422960D01*
X6532444Y-9422960D02*
X6541967Y-9413436D01*
X6541967Y-9413436D02*
X6551491Y-9394389D01*
X6551491Y-9394389D02*
X6551491Y-9346770D01*
X6551491Y-9346770D02*
X6541967Y-9327722D01*
X6541967Y-9327722D02*
X6532444Y-9318198D01*
X6532444Y-9318198D02*
X6513396Y-9308674D01*
X6513396Y-9308674D02*
X6475301Y-9308674D01*
X6475301Y-9308674D02*
X6456253Y-9318198D01*
X6456253Y-9318198D02*
X6446729Y-9327722D01*
X6446729Y-9327722D02*
X6437206Y-9346770D01*
X6722920Y-9232484D02*
X6684825Y-9232484D01*
X6684825Y-9232484D02*
X6665777Y-9242008D01*
X6665777Y-9242008D02*
X6656253Y-9251531D01*
X6656253Y-9251531D02*
X6637206Y-9280103D01*
X6637206Y-9280103D02*
X6627682Y-9318198D01*
X6627682Y-9318198D02*
X6627682Y-9394389D01*
X6627682Y-9394389D02*
X6637206Y-9413436D01*
X6637206Y-9413436D02*
X6646729Y-9422960D01*
X6646729Y-9422960D02*
X6665777Y-9432484D01*
X6665777Y-9432484D02*
X6703872Y-9432484D01*
X6703872Y-9432484D02*
X6722920Y-9422960D01*
X6722920Y-9422960D02*
X6732444Y-9413436D01*
X6732444Y-9413436D02*
X6741967Y-9394389D01*
X6741967Y-9394389D02*
X6741967Y-9346770D01*
X6741967Y-9346770D02*
X6732444Y-9327722D01*
X6732444Y-9327722D02*
X6722920Y-9318198D01*
X6722920Y-9318198D02*
X6703872Y-9308674D01*
X6703872Y-9308674D02*
X6665777Y-9308674D01*
X6665777Y-9308674D02*
X6646729Y-9318198D01*
X6646729Y-9318198D02*
X6637206Y-9327722D01*
X6637206Y-9327722D02*
X6627682Y-9346770D01*
X6932444Y-9432484D02*
X6818158Y-9432484D01*
X6875301Y-9432484D02*
X6875301Y-9232484D01*
X6875301Y-9232484D02*
X6856253Y-9261055D01*
X6856253Y-9261055D02*
X6837206Y-9280103D01*
X6837206Y-9280103D02*
X6818158Y-9289627D01*
X7008634Y-9232484D02*
X7008634Y-9270579D01*
X7084825Y-9232484D02*
X7084825Y-9270579D01*
X7380063Y-9508674D02*
X7370539Y-9499150D01*
X7370539Y-9499150D02*
X7351491Y-9470579D01*
X7351491Y-9470579D02*
X7341968Y-9451531D01*
X7341968Y-9451531D02*
X7332444Y-9422960D01*
X7332444Y-9422960D02*
X7322920Y-9375341D01*
X7322920Y-9375341D02*
X7322920Y-9337246D01*
X7322920Y-9337246D02*
X7332444Y-9289627D01*
X7332444Y-9289627D02*
X7341968Y-9261055D01*
X7341968Y-9261055D02*
X7351491Y-9242008D01*
X7351491Y-9242008D02*
X7370539Y-9213436D01*
X7370539Y-9213436D02*
X7380063Y-9203912D01*
X7437206Y-9232484D02*
X7561015Y-9232484D01*
X7561015Y-9232484D02*
X7494348Y-9308674D01*
X7494348Y-9308674D02*
X7522920Y-9308674D01*
X7522920Y-9308674D02*
X7541968Y-9318198D01*
X7541968Y-9318198D02*
X7551491Y-9327722D01*
X7551491Y-9327722D02*
X7561015Y-9346770D01*
X7561015Y-9346770D02*
X7561015Y-9394389D01*
X7561015Y-9394389D02*
X7551491Y-9413436D01*
X7551491Y-9413436D02*
X7541968Y-9422960D01*
X7541968Y-9422960D02*
X7522920Y-9432484D01*
X7522920Y-9432484D02*
X7465777Y-9432484D01*
X7465777Y-9432484D02*
X7446729Y-9422960D01*
X7446729Y-9422960D02*
X7437206Y-9413436D01*
X7799110Y-9432484D02*
X7799110Y-9232484D01*
X7884825Y-9432484D02*
X7884825Y-9327722D01*
X7884825Y-9327722D02*
X7875301Y-9308674D01*
X7875301Y-9308674D02*
X7856253Y-9299150D01*
X7856253Y-9299150D02*
X7827682Y-9299150D01*
X7827682Y-9299150D02*
X7808634Y-9308674D01*
X7808634Y-9308674D02*
X7799110Y-9318198D01*
X8008634Y-9432484D02*
X7989587Y-9422960D01*
X7989587Y-9422960D02*
X7980063Y-9413436D01*
X7980063Y-9413436D02*
X7970539Y-9394389D01*
X7970539Y-9394389D02*
X7970539Y-9337246D01*
X7970539Y-9337246D02*
X7980063Y-9318198D01*
X7980063Y-9318198D02*
X7989587Y-9308674D01*
X7989587Y-9308674D02*
X8008634Y-9299150D01*
X8008634Y-9299150D02*
X8037206Y-9299150D01*
X8037206Y-9299150D02*
X8056253Y-9308674D01*
X8056253Y-9308674D02*
X8065777Y-9318198D01*
X8065777Y-9318198D02*
X8075301Y-9337246D01*
X8075301Y-9337246D02*
X8075301Y-9394389D01*
X8075301Y-9394389D02*
X8065777Y-9413436D01*
X8065777Y-9413436D02*
X8056253Y-9422960D01*
X8056253Y-9422960D02*
X8037206Y-9432484D01*
X8037206Y-9432484D02*
X8008634Y-9432484D01*
X8189587Y-9432484D02*
X8170539Y-9422960D01*
X8170539Y-9422960D02*
X8161015Y-9403912D01*
X8161015Y-9403912D02*
X8161015Y-9232484D01*
X8341968Y-9422960D02*
X8322920Y-9432484D01*
X8322920Y-9432484D02*
X8284825Y-9432484D01*
X8284825Y-9432484D02*
X8265777Y-9422960D01*
X8265777Y-9422960D02*
X8256253Y-9403912D01*
X8256253Y-9403912D02*
X8256253Y-9327722D01*
X8256253Y-9327722D02*
X8265777Y-9308674D01*
X8265777Y-9308674D02*
X8284825Y-9299150D01*
X8284825Y-9299150D02*
X8322920Y-9299150D01*
X8322920Y-9299150D02*
X8341968Y-9308674D01*
X8341968Y-9308674D02*
X8351491Y-9327722D01*
X8351491Y-9327722D02*
X8351491Y-9346770D01*
X8351491Y-9346770D02*
X8256253Y-9365817D01*
X8427682Y-9422960D02*
X8446730Y-9432484D01*
X8446730Y-9432484D02*
X8484825Y-9432484D01*
X8484825Y-9432484D02*
X8503873Y-9422960D01*
X8503873Y-9422960D02*
X8513396Y-9403912D01*
X8513396Y-9403912D02*
X8513396Y-9394389D01*
X8513396Y-9394389D02*
X8503873Y-9375341D01*
X8503873Y-9375341D02*
X8484825Y-9365817D01*
X8484825Y-9365817D02*
X8456253Y-9365817D01*
X8456253Y-9365817D02*
X8437206Y-9356293D01*
X8437206Y-9356293D02*
X8427682Y-9337246D01*
X8427682Y-9337246D02*
X8427682Y-9327722D01*
X8427682Y-9327722D02*
X8437206Y-9308674D01*
X8437206Y-9308674D02*
X8456253Y-9299150D01*
X8456253Y-9299150D02*
X8484825Y-9299150D01*
X8484825Y-9299150D02*
X8503873Y-9308674D01*
X8580063Y-9508674D02*
X8589587Y-9499150D01*
X8589587Y-9499150D02*
X8608634Y-9470579D01*
X8608634Y-9470579D02*
X8618158Y-9451531D01*
X8618158Y-9451531D02*
X8627682Y-9422960D01*
X8627682Y-9422960D02*
X8637206Y-9375341D01*
X8637206Y-9375341D02*
X8637206Y-9337246D01*
X8637206Y-9337246D02*
X8627682Y-9289627D01*
X8627682Y-9289627D02*
X8618158Y-9261055D01*
X8618158Y-9261055D02*
X8608634Y-9242008D01*
X8608634Y-9242008D02*
X8589587Y-9213436D01*
X8589587Y-9213436D02*
X8580063Y-9203912D01*
M02*
