%TF.GenerationSoftware,KiCad,Pcbnew,7.0.9*%
%TF.CreationDate,2023-12-06T14:48:21+01:00*%
%TF.ProjectId,Gas_Sensor,4761735f-5365-46e7-936f-722e6b696361,rev?*%
%TF.SameCoordinates,Original*%
%TF.FileFunction,Copper,L2,Bot*%
%TF.FilePolarity,Positive*%
%FSLAX46Y46*%
G04 Gerber Fmt 4.6, Leading zero omitted, Abs format (unit mm)*
G04 Created by KiCad (PCBNEW 7.0.9) date 2023-12-06 14:48:21*
%MOMM*%
%LPD*%
G01*
G04 APERTURE LIST*
%ADD10C,0.200000*%
%TA.AperFunction,ComponentPad*%
%ADD11O,1.600000X1.200000*%
%TD*%
%TA.AperFunction,ComponentPad*%
%ADD12O,1.200000X1.200000*%
%TD*%
%TA.AperFunction,ComponentPad*%
%ADD13C,2.200000*%
%TD*%
%TA.AperFunction,ComponentPad*%
%ADD14O,2.200000X2.200000*%
%TD*%
%TA.AperFunction,ComponentPad*%
%ADD15R,1.905000X2.000000*%
%TD*%
%TA.AperFunction,ComponentPad*%
%ADD16O,1.905000X2.000000*%
%TD*%
%TA.AperFunction,ComponentPad*%
%ADD17R,1.900000X1.900000*%
%TD*%
%TA.AperFunction,ComponentPad*%
%ADD18O,1.900000X1.900000*%
%TD*%
%TA.AperFunction,ComponentPad*%
%ADD19R,2.520000X2.520000*%
%TD*%
%TA.AperFunction,ComponentPad*%
%ADD20C,2.520000*%
%TD*%
%TA.AperFunction,ComponentPad*%
%ADD21O,1.727200X1.727200*%
%TD*%
%TA.AperFunction,ComponentPad*%
%ADD22R,1.727200X1.727200*%
%TD*%
%TA.AperFunction,ViaPad*%
%ADD23C,2.400000*%
%TD*%
%TA.AperFunction,Conductor*%
%ADD24C,0.800000*%
%TD*%
%TA.AperFunction,Conductor*%
%ADD25C,0.250000*%
%TD*%
G04 APERTURE END LIST*
D10*
G36*
X75982192Y-25032024D02*
G01*
X76006861Y-25056692D01*
X76042314Y-25127599D01*
X76084285Y-25295480D01*
X76084285Y-25508956D01*
X76042314Y-25676837D01*
X76006861Y-25747743D01*
X75982192Y-25772413D01*
X75922583Y-25802219D01*
X75874559Y-25802219D01*
X75814949Y-25772414D01*
X75790282Y-25747746D01*
X75754827Y-25676837D01*
X75712857Y-25508956D01*
X75712857Y-25295481D01*
X75754827Y-25127599D01*
X75790281Y-25056692D01*
X75814949Y-25032023D01*
X75874559Y-25002219D01*
X75922583Y-25002219D01*
X75982192Y-25032024D01*
G37*
G36*
X71252605Y-23747707D02*
G01*
X71274760Y-23792016D01*
X71274760Y-23836904D01*
X71003274Y-23782607D01*
X71020725Y-23747706D01*
X71065034Y-23725552D01*
X71208296Y-23725552D01*
X71252605Y-23747707D01*
G37*
G36*
X74633558Y-23747707D02*
G01*
X74655713Y-23792016D01*
X74655713Y-23836904D01*
X74384227Y-23782607D01*
X74401678Y-23747706D01*
X74445987Y-23725552D01*
X74589249Y-23725552D01*
X74633558Y-23747707D01*
G37*
G36*
X77596764Y-23893739D02*
G01*
X77625908Y-23922882D01*
X77655713Y-23982492D01*
X77655713Y-24078135D01*
X77625908Y-24137743D01*
X77601239Y-24162413D01*
X77541630Y-24192219D01*
X77445987Y-24192219D01*
X77386377Y-24162414D01*
X77355260Y-24131296D01*
X77346821Y-24120045D01*
X77546821Y-23880047D01*
X77548872Y-23874920D01*
X77553204Y-23871498D01*
X77556342Y-23866791D01*
X77596764Y-23893739D01*
G37*
G36*
X77490701Y-23414374D02*
G01*
X77512856Y-23458683D01*
X77512856Y-23514087D01*
X77490126Y-23582277D01*
X77438469Y-23547839D01*
X77409328Y-23518697D01*
X77379523Y-23459087D01*
X77379523Y-23458683D01*
X77401678Y-23414373D01*
X77445987Y-23392219D01*
X77446392Y-23392219D01*
X77490701Y-23414374D01*
G37*
G36*
X80109749Y-23747707D02*
G01*
X80131904Y-23792016D01*
X80131904Y-23836904D01*
X79860418Y-23782607D01*
X79877869Y-23747706D01*
X79922178Y-23725552D01*
X80065440Y-23725552D01*
X80109749Y-23747707D01*
G37*
G36*
X82839335Y-23755357D02*
G01*
X82864004Y-23780025D01*
X82893809Y-23839635D01*
X82893809Y-24078135D01*
X82864004Y-24137743D01*
X82839335Y-24162413D01*
X82779726Y-24192219D01*
X82684083Y-24192219D01*
X82624473Y-24162414D01*
X82599806Y-24137746D01*
X82570000Y-24078134D01*
X82570000Y-23839635D01*
X82599805Y-23780025D01*
X82624473Y-23755356D01*
X82684083Y-23725552D01*
X82779726Y-23725552D01*
X82839335Y-23755357D01*
G37*
G36*
X84236666Y-26145076D02*
G01*
X70655713Y-26145076D01*
X70655713Y-25711742D01*
X73608095Y-25711742D01*
X73615218Y-25733665D01*
X73618652Y-25756463D01*
X73666271Y-25851701D01*
X73677644Y-25863248D01*
X73685003Y-25877690D01*
X73732621Y-25925310D01*
X73747064Y-25932669D01*
X73758612Y-25944043D01*
X73853849Y-25991662D01*
X73876647Y-25995095D01*
X73898571Y-26002219D01*
X74184285Y-26002219D01*
X74206208Y-25995095D01*
X74229006Y-25991662D01*
X74324244Y-25944043D01*
X74335792Y-25932668D01*
X74350234Y-25925310D01*
X74397853Y-25877690D01*
X74425911Y-25822622D01*
X74416243Y-25761580D01*
X74372540Y-25717879D01*
X74311498Y-25708211D01*
X74256430Y-25736270D01*
X74220287Y-25772413D01*
X74160678Y-25802219D01*
X73922178Y-25802219D01*
X73862568Y-25772414D01*
X73837901Y-25747746D01*
X73808095Y-25688134D01*
X73808095Y-25497254D01*
X73837900Y-25437644D01*
X73862568Y-25412975D01*
X73922178Y-25383171D01*
X74041428Y-25383171D01*
X74060657Y-25376922D01*
X74080800Y-25375095D01*
X74089373Y-25367592D01*
X74100207Y-25364073D01*
X74112092Y-25347714D01*
X74127312Y-25334397D01*
X74129838Y-25323288D01*
X74136534Y-25314073D01*
X74136534Y-25293851D01*
X74141019Y-25274132D01*
X74136534Y-25263660D01*
X74136534Y-25252269D01*
X74124647Y-25235908D01*
X74116686Y-25217321D01*
X74090972Y-25187933D01*
X74560476Y-25187933D01*
X74565484Y-25203348D01*
X74565608Y-25219556D01*
X74613227Y-25362412D01*
X74626916Y-25380957D01*
X74637384Y-25401501D01*
X75038101Y-25802219D01*
X74660476Y-25802219D01*
X74601697Y-25821317D01*
X74565370Y-25871317D01*
X74565370Y-25933121D01*
X74601697Y-25983121D01*
X74660476Y-26002219D01*
X75279523Y-26002219D01*
X75301792Y-25994983D01*
X75324922Y-25991320D01*
X75330627Y-25985614D01*
X75338302Y-25983121D01*
X75352067Y-25964174D01*
X75368624Y-25947618D01*
X75369886Y-25939648D01*
X75374629Y-25933121D01*
X75374629Y-25909703D01*
X75378292Y-25886576D01*
X75374629Y-25879386D01*
X75374629Y-25871317D01*
X75360864Y-25852371D01*
X75350234Y-25831508D01*
X75039993Y-25521266D01*
X75512857Y-25521266D01*
X75516703Y-25533103D01*
X75515843Y-25545520D01*
X75563462Y-25735995D01*
X75569372Y-25745441D01*
X75571033Y-25756463D01*
X75618652Y-25851701D01*
X75630025Y-25863248D01*
X75637384Y-25877690D01*
X75685002Y-25925310D01*
X75699445Y-25932669D01*
X75710993Y-25944043D01*
X75806230Y-25991662D01*
X75829028Y-25995095D01*
X75850952Y-26002219D01*
X75946190Y-26002219D01*
X75968113Y-25995095D01*
X75990911Y-25991662D01*
X76086149Y-25944043D01*
X76097697Y-25932668D01*
X76112139Y-25925310D01*
X76159758Y-25877690D01*
X76167115Y-25863249D01*
X76178490Y-25851701D01*
X76226109Y-25756464D01*
X76227769Y-25745442D01*
X76233680Y-25735996D01*
X76281299Y-25545520D01*
X76280438Y-25533103D01*
X76284285Y-25521266D01*
X76284285Y-25283171D01*
X76280438Y-25271333D01*
X76281299Y-25258917D01*
X76263553Y-25187933D01*
X76465238Y-25187933D01*
X76470246Y-25203348D01*
X76470370Y-25219556D01*
X76517989Y-25362412D01*
X76531678Y-25380957D01*
X76542146Y-25401501D01*
X76942863Y-25802219D01*
X76565238Y-25802219D01*
X76506459Y-25821317D01*
X76470132Y-25871317D01*
X76470132Y-25933121D01*
X76506459Y-25983121D01*
X76565238Y-26002219D01*
X77184285Y-26002219D01*
X77206554Y-25994983D01*
X77229684Y-25991320D01*
X77235389Y-25985614D01*
X77243064Y-25983121D01*
X77256829Y-25964174D01*
X77273386Y-25947618D01*
X77274648Y-25939648D01*
X77279391Y-25933121D01*
X77279391Y-25909703D01*
X77283054Y-25886576D01*
X77279391Y-25879386D01*
X77279391Y-25871317D01*
X77265626Y-25852371D01*
X77254996Y-25831508D01*
X77135230Y-25711742D01*
X78179524Y-25711742D01*
X78186647Y-25733665D01*
X78190081Y-25756463D01*
X78237700Y-25851701D01*
X78249073Y-25863248D01*
X78256432Y-25877690D01*
X78304050Y-25925310D01*
X78318493Y-25932669D01*
X78330041Y-25944043D01*
X78425278Y-25991662D01*
X78448076Y-25995095D01*
X78470000Y-26002219D01*
X78708095Y-26002219D01*
X78723510Y-25997210D01*
X78739718Y-25997087D01*
X78882574Y-25949468D01*
X78932298Y-25912763D01*
X78950949Y-25853841D01*
X78931405Y-25795209D01*
X78881131Y-25759262D01*
X78819329Y-25759732D01*
X78691868Y-25802219D01*
X78493607Y-25802219D01*
X78433997Y-25772414D01*
X78409330Y-25747746D01*
X78391328Y-25711742D01*
X79131905Y-25711742D01*
X79139028Y-25733665D01*
X79142462Y-25756463D01*
X79190081Y-25851701D01*
X79201454Y-25863248D01*
X79208813Y-25877690D01*
X79256431Y-25925310D01*
X79270874Y-25932669D01*
X79282422Y-25944043D01*
X79377659Y-25991662D01*
X79400457Y-25995095D01*
X79422381Y-26002219D01*
X79660476Y-26002219D01*
X79675891Y-25997210D01*
X79692099Y-25997087D01*
X79834955Y-25949468D01*
X79884679Y-25912763D01*
X79888017Y-25902219D01*
X80131904Y-25902219D01*
X80151002Y-25960998D01*
X80201002Y-25997325D01*
X80262806Y-25997325D01*
X80312806Y-25960998D01*
X80331904Y-25902219D01*
X80331904Y-25711742D01*
X80560476Y-25711742D01*
X80567599Y-25733665D01*
X80571033Y-25756463D01*
X80618652Y-25851701D01*
X80630025Y-25863248D01*
X80637384Y-25877690D01*
X80685002Y-25925310D01*
X80699445Y-25932669D01*
X80710993Y-25944043D01*
X80806230Y-25991662D01*
X80829028Y-25995095D01*
X80850952Y-26002219D01*
X81089047Y-26002219D01*
X81110970Y-25995095D01*
X81133768Y-25991662D01*
X81229006Y-25944043D01*
X81240554Y-25932668D01*
X81254996Y-25925310D01*
X81302615Y-25877690D01*
X81330673Y-25822622D01*
X81321005Y-25761580D01*
X81277302Y-25717879D01*
X81216260Y-25708211D01*
X81161192Y-25736270D01*
X81125049Y-25772413D01*
X81065440Y-25802219D01*
X80874559Y-25802219D01*
X80814949Y-25772414D01*
X80790282Y-25747746D01*
X80760476Y-25688134D01*
X80760476Y-25497254D01*
X80790281Y-25437644D01*
X80814949Y-25412975D01*
X80874559Y-25383171D01*
X81065440Y-25383171D01*
X81125049Y-25412976D01*
X81161193Y-25449119D01*
X81186286Y-25461905D01*
X81210619Y-25476118D01*
X81213595Y-25475820D01*
X81216260Y-25477178D01*
X81244082Y-25472771D01*
X81272116Y-25469968D01*
X81274348Y-25467977D01*
X81277303Y-25467510D01*
X81297222Y-25447590D01*
X81318253Y-25428846D01*
X81318889Y-25425923D01*
X81321005Y-25423808D01*
X81325411Y-25395984D01*
X81331408Y-25368459D01*
X81283789Y-24892269D01*
X81279391Y-24882254D01*
X81279391Y-24871317D01*
X81267245Y-24854600D01*
X81258937Y-24835682D01*
X81249492Y-24830165D01*
X81243064Y-24821317D01*
X81223412Y-24814932D01*
X81205570Y-24804510D01*
X81194686Y-24805598D01*
X81184285Y-24802219D01*
X80708095Y-24802219D01*
X80649316Y-24821317D01*
X80612989Y-24871317D01*
X80612989Y-24933121D01*
X80649316Y-24983121D01*
X80708095Y-25002219D01*
X81093786Y-25002219D01*
X81112618Y-25190542D01*
X81110970Y-25190294D01*
X81089047Y-25183171D01*
X80850952Y-25183171D01*
X80829028Y-25190294D01*
X80806230Y-25193728D01*
X80710993Y-25241347D01*
X80699444Y-25252721D01*
X80685003Y-25260080D01*
X80637384Y-25307698D01*
X80630025Y-25322140D01*
X80618652Y-25333688D01*
X80571033Y-25428926D01*
X80567599Y-25451723D01*
X80560476Y-25473647D01*
X80560476Y-25711742D01*
X80331904Y-25711742D01*
X80331904Y-24902219D01*
X80312806Y-24843440D01*
X80262806Y-24807113D01*
X80201002Y-24807113D01*
X80151002Y-24843440D01*
X80131904Y-24902219D01*
X80131904Y-25902219D01*
X79888017Y-25902219D01*
X79903330Y-25853841D01*
X79883786Y-25795209D01*
X79833512Y-25759262D01*
X79771710Y-25759732D01*
X79644249Y-25802219D01*
X79445988Y-25802219D01*
X79386378Y-25772414D01*
X79361711Y-25747746D01*
X79331905Y-25688134D01*
X79331905Y-25640111D01*
X79361710Y-25580501D01*
X79386378Y-25555832D01*
X79457285Y-25520379D01*
X79637110Y-25475423D01*
X79646556Y-25469512D01*
X79657578Y-25467852D01*
X79752816Y-25420233D01*
X79764363Y-25408859D01*
X79778806Y-25401501D01*
X79826424Y-25353882D01*
X79833782Y-25339440D01*
X79845157Y-25327892D01*
X79892776Y-25232655D01*
X79896209Y-25209856D01*
X79903333Y-25187933D01*
X79903333Y-25092695D01*
X79896209Y-25070771D01*
X79892776Y-25047973D01*
X79845157Y-24952736D01*
X79833782Y-24941187D01*
X79826424Y-24926746D01*
X79778806Y-24879127D01*
X79764363Y-24871768D01*
X79752816Y-24860395D01*
X79657578Y-24812776D01*
X79634780Y-24809342D01*
X79612857Y-24802219D01*
X79374762Y-24802219D01*
X79359346Y-24807227D01*
X79343139Y-24807351D01*
X79200282Y-24854970D01*
X79150559Y-24891675D01*
X79131907Y-24950597D01*
X79151452Y-25009229D01*
X79201726Y-25045176D01*
X79263528Y-25044706D01*
X79390988Y-25002219D01*
X79589250Y-25002219D01*
X79648859Y-25032024D01*
X79673528Y-25056692D01*
X79703333Y-25116302D01*
X79703333Y-25164326D01*
X79673528Y-25223935D01*
X79648859Y-25248603D01*
X79577952Y-25284057D01*
X79398127Y-25329014D01*
X79388680Y-25334924D01*
X79377659Y-25336585D01*
X79282422Y-25384204D01*
X79270873Y-25395578D01*
X79256432Y-25402937D01*
X79208813Y-25450555D01*
X79201454Y-25464997D01*
X79190081Y-25476545D01*
X79142462Y-25571783D01*
X79139028Y-25594580D01*
X79131905Y-25616504D01*
X79131905Y-25711742D01*
X78391328Y-25711742D01*
X78379524Y-25688134D01*
X78379524Y-25640111D01*
X78409329Y-25580501D01*
X78433997Y-25555832D01*
X78504904Y-25520379D01*
X78684729Y-25475423D01*
X78694175Y-25469512D01*
X78705197Y-25467852D01*
X78800435Y-25420233D01*
X78811982Y-25408859D01*
X78826425Y-25401501D01*
X78874043Y-25353882D01*
X78881401Y-25339440D01*
X78892776Y-25327892D01*
X78940395Y-25232655D01*
X78943828Y-25209856D01*
X78950952Y-25187933D01*
X78950952Y-25092695D01*
X78943828Y-25070771D01*
X78940395Y-25047973D01*
X78892776Y-24952736D01*
X78881401Y-24941187D01*
X78874043Y-24926746D01*
X78826425Y-24879127D01*
X78811982Y-24871768D01*
X78800435Y-24860395D01*
X78705197Y-24812776D01*
X78682399Y-24809342D01*
X78660476Y-24802219D01*
X78422381Y-24802219D01*
X78406965Y-24807227D01*
X78390758Y-24807351D01*
X78247901Y-24854970D01*
X78198178Y-24891675D01*
X78179526Y-24950597D01*
X78199071Y-25009229D01*
X78249345Y-25045176D01*
X78311147Y-25044706D01*
X78438607Y-25002219D01*
X78636869Y-25002219D01*
X78696478Y-25032024D01*
X78721147Y-25056692D01*
X78750952Y-25116302D01*
X78750952Y-25164326D01*
X78721147Y-25223935D01*
X78696478Y-25248603D01*
X78625571Y-25284057D01*
X78445746Y-25329014D01*
X78436299Y-25334924D01*
X78425278Y-25336585D01*
X78330041Y-25384204D01*
X78318492Y-25395578D01*
X78304051Y-25402937D01*
X78256432Y-25450555D01*
X78249073Y-25464997D01*
X78237700Y-25476545D01*
X78190081Y-25571783D01*
X78186647Y-25594580D01*
X78179524Y-25616504D01*
X78179524Y-25711742D01*
X77135230Y-25711742D01*
X76700259Y-25276770D01*
X76665238Y-25171706D01*
X76665238Y-25116302D01*
X76695043Y-25056692D01*
X76719711Y-25032023D01*
X76779321Y-25002219D01*
X76970202Y-25002219D01*
X77029811Y-25032024D01*
X77065955Y-25068167D01*
X77121022Y-25096226D01*
X77182065Y-25086558D01*
X77225767Y-25042856D01*
X77235435Y-24981813D01*
X77207376Y-24926746D01*
X77159758Y-24879127D01*
X77145315Y-24871768D01*
X77133768Y-24860395D01*
X77038530Y-24812776D01*
X77015732Y-24809342D01*
X76993809Y-24802219D01*
X76755714Y-24802219D01*
X76733790Y-24809342D01*
X76710992Y-24812776D01*
X76615755Y-24860395D01*
X76604206Y-24871769D01*
X76589765Y-24879128D01*
X76542146Y-24926746D01*
X76534787Y-24941188D01*
X76523414Y-24952736D01*
X76475795Y-25047974D01*
X76472361Y-25070771D01*
X76465238Y-25092695D01*
X76465238Y-25187933D01*
X76263553Y-25187933D01*
X76233680Y-25068441D01*
X76227769Y-25058994D01*
X76226109Y-25047973D01*
X76178490Y-24952736D01*
X76167115Y-24941187D01*
X76159757Y-24926746D01*
X76112139Y-24879127D01*
X76097696Y-24871768D01*
X76086149Y-24860395D01*
X75990911Y-24812776D01*
X75968113Y-24809342D01*
X75946190Y-24802219D01*
X75850952Y-24802219D01*
X75829028Y-24809342D01*
X75806230Y-24812776D01*
X75710993Y-24860395D01*
X75699444Y-24871769D01*
X75685003Y-24879128D01*
X75637384Y-24926746D01*
X75630025Y-24941188D01*
X75618652Y-24952736D01*
X75571033Y-25047974D01*
X75569372Y-25058995D01*
X75563462Y-25068442D01*
X75515843Y-25258917D01*
X75516703Y-25271333D01*
X75512857Y-25283171D01*
X75512857Y-25521266D01*
X75039993Y-25521266D01*
X74795497Y-25276770D01*
X74760476Y-25171706D01*
X74760476Y-25116302D01*
X74790281Y-25056692D01*
X74814949Y-25032023D01*
X74874559Y-25002219D01*
X75065440Y-25002219D01*
X75125049Y-25032024D01*
X75161193Y-25068167D01*
X75216260Y-25096226D01*
X75277303Y-25086558D01*
X75321005Y-25042856D01*
X75330673Y-24981813D01*
X75302614Y-24926746D01*
X75254996Y-24879127D01*
X75240553Y-24871768D01*
X75229006Y-24860395D01*
X75133768Y-24812776D01*
X75110970Y-24809342D01*
X75089047Y-24802219D01*
X74850952Y-24802219D01*
X74829028Y-24809342D01*
X74806230Y-24812776D01*
X74710993Y-24860395D01*
X74699444Y-24871769D01*
X74685003Y-24879128D01*
X74637384Y-24926746D01*
X74630025Y-24941188D01*
X74618652Y-24952736D01*
X74571033Y-25047974D01*
X74567599Y-25070771D01*
X74560476Y-25092695D01*
X74560476Y-25187933D01*
X74090972Y-25187933D01*
X73928472Y-25002219D01*
X74327142Y-25002219D01*
X74385921Y-24983121D01*
X74422248Y-24933121D01*
X74422248Y-24871317D01*
X74385921Y-24821317D01*
X74327142Y-24802219D01*
X73708095Y-24802219D01*
X73688865Y-24808467D01*
X73668723Y-24810295D01*
X73660149Y-24817797D01*
X73649316Y-24821317D01*
X73637429Y-24837677D01*
X73622211Y-24850994D01*
X73619684Y-24862101D01*
X73612989Y-24871317D01*
X73612989Y-24891539D01*
X73608504Y-24911258D01*
X73612989Y-24921729D01*
X73612989Y-24933121D01*
X73624875Y-24949481D01*
X73632837Y-24968069D01*
X73837458Y-25201923D01*
X73758612Y-25241347D01*
X73747063Y-25252721D01*
X73732622Y-25260080D01*
X73685003Y-25307698D01*
X73677644Y-25322140D01*
X73666271Y-25333688D01*
X73618652Y-25428926D01*
X73615218Y-25451723D01*
X73608095Y-25473647D01*
X73608095Y-25711742D01*
X70655713Y-25711742D01*
X70655713Y-23863647D01*
X70798570Y-23863647D01*
X70800433Y-23869383D01*
X70799251Y-23875297D01*
X70809836Y-23898322D01*
X70817668Y-23922426D01*
X70822547Y-23925970D01*
X70825066Y-23931450D01*
X70847162Y-23943855D01*
X70867668Y-23958753D01*
X70873700Y-23958753D01*
X70878958Y-23961705D01*
X71274760Y-24040865D01*
X71274760Y-24125754D01*
X71252605Y-24170063D01*
X71208296Y-24192219D01*
X71065034Y-24192219D01*
X70990910Y-24155157D01*
X70929796Y-24145952D01*
X70874943Y-24174428D01*
X70847304Y-24229707D01*
X70857435Y-24290674D01*
X70901468Y-24334043D01*
X70996705Y-24381662D01*
X71019503Y-24385095D01*
X71041427Y-24392219D01*
X71231903Y-24392219D01*
X71253826Y-24385095D01*
X71276624Y-24381662D01*
X71371862Y-24334043D01*
X71372428Y-24333484D01*
X71373216Y-24333354D01*
X71394409Y-24311835D01*
X71415895Y-24290674D01*
X71416025Y-24289887D01*
X71416584Y-24289321D01*
X71464203Y-24194082D01*
X71467636Y-24171284D01*
X71474760Y-24149361D01*
X71655713Y-24149361D01*
X71662836Y-24171284D01*
X71666270Y-24194082D01*
X71713889Y-24289321D01*
X71714447Y-24289887D01*
X71714578Y-24290674D01*
X71736063Y-24311835D01*
X71757257Y-24333354D01*
X71758044Y-24333484D01*
X71758611Y-24334043D01*
X71853848Y-24381662D01*
X71876646Y-24385095D01*
X71898570Y-24392219D01*
X72089046Y-24392219D01*
X72110969Y-24385095D01*
X72133767Y-24381662D01*
X72229005Y-24334043D01*
X72273038Y-24290674D01*
X72283169Y-24229707D01*
X72255529Y-24174428D01*
X72207244Y-24149361D01*
X72465237Y-24149361D01*
X72472360Y-24171284D01*
X72475794Y-24194082D01*
X72523413Y-24289321D01*
X72523971Y-24289887D01*
X72524102Y-24290674D01*
X72545587Y-24311835D01*
X72566781Y-24333354D01*
X72567568Y-24333484D01*
X72568135Y-24334043D01*
X72663372Y-24381662D01*
X72686170Y-24385095D01*
X72708094Y-24392219D01*
X72898570Y-24392219D01*
X72920493Y-24385095D01*
X72943291Y-24381662D01*
X73038529Y-24334043D01*
X73080993Y-24292219D01*
X73322380Y-24292219D01*
X73341478Y-24350998D01*
X73391478Y-24387325D01*
X73453282Y-24387325D01*
X73485306Y-24364057D01*
X73520515Y-24381662D01*
X73543313Y-24385095D01*
X73565237Y-24392219D01*
X73708094Y-24392219D01*
X73730017Y-24385095D01*
X73752815Y-24381662D01*
X73848053Y-24334043D01*
X73848619Y-24333484D01*
X73849407Y-24333354D01*
X73870600Y-24311835D01*
X73892086Y-24290674D01*
X73892216Y-24289887D01*
X73892775Y-24289321D01*
X73940394Y-24194082D01*
X73943827Y-24171284D01*
X73950951Y-24149361D01*
X73950951Y-23863647D01*
X74179523Y-23863647D01*
X74181386Y-23869383D01*
X74180204Y-23875297D01*
X74190789Y-23898322D01*
X74198621Y-23922426D01*
X74203500Y-23925970D01*
X74206019Y-23931450D01*
X74228115Y-23943855D01*
X74248621Y-23958753D01*
X74254653Y-23958753D01*
X74259911Y-23961705D01*
X74655713Y-24040865D01*
X74655713Y-24125754D01*
X74633558Y-24170063D01*
X74589249Y-24192219D01*
X74445987Y-24192219D01*
X74371863Y-24155157D01*
X74310749Y-24145952D01*
X74255896Y-24174428D01*
X74228257Y-24229707D01*
X74238388Y-24290674D01*
X74282421Y-24334043D01*
X74377658Y-24381662D01*
X74400456Y-24385095D01*
X74422380Y-24392219D01*
X74612856Y-24392219D01*
X74634779Y-24385095D01*
X74657577Y-24381662D01*
X74752815Y-24334043D01*
X74753381Y-24333484D01*
X74754169Y-24333354D01*
X74775362Y-24311835D01*
X74795279Y-24292219D01*
X75084285Y-24292219D01*
X75103383Y-24350998D01*
X75153383Y-24387325D01*
X75215187Y-24387325D01*
X75265187Y-24350998D01*
X75284285Y-24292219D01*
X75284285Y-23868409D01*
X75655713Y-23868409D01*
X75655713Y-24292219D01*
X75674811Y-24350998D01*
X75724811Y-24387325D01*
X75786615Y-24387325D01*
X75836615Y-24350998D01*
X75845673Y-24323121D01*
X76851083Y-24323121D01*
X76887410Y-24373121D01*
X76946189Y-24392219D01*
X76993809Y-24392219D01*
X77015732Y-24385095D01*
X77038530Y-24381662D01*
X77133768Y-24334043D01*
X77145316Y-24322668D01*
X77159758Y-24315310D01*
X77208327Y-24266739D01*
X77208812Y-24267690D01*
X77256430Y-24315310D01*
X77270873Y-24322669D01*
X77282421Y-24334043D01*
X77377658Y-24381662D01*
X77400456Y-24385095D01*
X77422380Y-24392219D01*
X77565237Y-24392219D01*
X77587160Y-24385095D01*
X77609958Y-24381662D01*
X77705196Y-24334043D01*
X77716744Y-24322668D01*
X77731186Y-24315310D01*
X77778805Y-24267690D01*
X77786162Y-24253249D01*
X77797537Y-24241701D01*
X77843707Y-24149361D01*
X78846190Y-24149361D01*
X78853313Y-24171284D01*
X78856747Y-24194082D01*
X78904366Y-24289321D01*
X78904924Y-24289887D01*
X78905055Y-24290674D01*
X78926540Y-24311835D01*
X78947734Y-24333354D01*
X78948521Y-24333484D01*
X78949088Y-24334043D01*
X79044325Y-24381662D01*
X79067123Y-24385095D01*
X79089047Y-24392219D01*
X79279523Y-24392219D01*
X79301446Y-24385095D01*
X79324244Y-24381662D01*
X79419482Y-24334043D01*
X79463515Y-24290674D01*
X79473646Y-24229707D01*
X79446006Y-24174428D01*
X79391154Y-24145952D01*
X79330039Y-24155157D01*
X79255916Y-24192219D01*
X79112654Y-24192219D01*
X79068344Y-24170064D01*
X79046190Y-24125754D01*
X79046190Y-24125349D01*
X79068345Y-24081039D01*
X79112654Y-24058885D01*
X79231904Y-24058885D01*
X79253827Y-24051761D01*
X79276625Y-24048328D01*
X79371863Y-24000709D01*
X79372429Y-24000150D01*
X79373216Y-24000020D01*
X79394393Y-23978517D01*
X79415896Y-23957340D01*
X79416026Y-23956553D01*
X79416585Y-23955987D01*
X79462755Y-23863647D01*
X79655714Y-23863647D01*
X79657577Y-23869383D01*
X79656395Y-23875297D01*
X79666980Y-23898322D01*
X79674812Y-23922426D01*
X79679691Y-23925970D01*
X79682210Y-23931450D01*
X79704306Y-23943855D01*
X79724812Y-23958753D01*
X79730844Y-23958753D01*
X79736102Y-23961705D01*
X80131904Y-24040865D01*
X80131904Y-24125754D01*
X80109749Y-24170063D01*
X80065440Y-24192219D01*
X79922178Y-24192219D01*
X79848054Y-24155157D01*
X79786940Y-24145952D01*
X79732087Y-24174428D01*
X79704448Y-24229707D01*
X79714579Y-24290674D01*
X79758612Y-24334043D01*
X79853849Y-24381662D01*
X79876647Y-24385095D01*
X79898571Y-24392219D01*
X80089047Y-24392219D01*
X80110970Y-24385095D01*
X80133768Y-24381662D01*
X80229006Y-24334043D01*
X80229572Y-24333484D01*
X80230360Y-24333354D01*
X80251553Y-24311835D01*
X80271470Y-24292219D01*
X80560475Y-24292219D01*
X80579573Y-24350998D01*
X80629573Y-24387325D01*
X80691377Y-24387325D01*
X80741377Y-24350998D01*
X80760475Y-24292219D01*
X80760475Y-23792016D01*
X80782630Y-23747706D01*
X80826940Y-23725552D01*
X80922583Y-23725552D01*
X80966892Y-23747707D01*
X80989047Y-23792016D01*
X80989047Y-24292219D01*
X81008145Y-24350998D01*
X81058145Y-24387325D01*
X81119949Y-24387325D01*
X81169949Y-24350998D01*
X81189047Y-24292219D01*
X81189047Y-23792016D01*
X81211202Y-23747706D01*
X81255511Y-23725552D01*
X81351154Y-23725552D01*
X81410763Y-23755357D01*
X81417618Y-23762211D01*
X81417618Y-24292219D01*
X81436716Y-24350998D01*
X81486716Y-24387325D01*
X81548520Y-24387325D01*
X81598520Y-24350998D01*
X81612779Y-24307112D01*
X81799686Y-24307112D01*
X81827325Y-24362391D01*
X81882178Y-24390867D01*
X81943292Y-24381662D01*
X82038530Y-24334043D01*
X82039096Y-24333484D01*
X82039884Y-24333354D01*
X82061077Y-24311835D01*
X82082563Y-24290674D01*
X82082693Y-24289887D01*
X82083252Y-24289321D01*
X82130871Y-24194082D01*
X82134304Y-24171284D01*
X82141428Y-24149361D01*
X82141428Y-24101742D01*
X82370000Y-24101742D01*
X82377123Y-24123665D01*
X82380557Y-24146463D01*
X82428176Y-24241701D01*
X82439549Y-24253248D01*
X82446908Y-24267690D01*
X82494526Y-24315310D01*
X82508969Y-24322669D01*
X82520517Y-24334043D01*
X82615754Y-24381662D01*
X82638552Y-24385095D01*
X82660476Y-24392219D01*
X82803333Y-24392219D01*
X82825256Y-24385095D01*
X82848054Y-24381662D01*
X82943292Y-24334043D01*
X82954840Y-24322668D01*
X82969282Y-24315310D01*
X82992373Y-24292219D01*
X83322381Y-24292219D01*
X83341479Y-24350998D01*
X83391479Y-24387325D01*
X83453283Y-24387325D01*
X83503283Y-24350998D01*
X83522381Y-24292219D01*
X83522381Y-23868409D01*
X83893809Y-23868409D01*
X83893809Y-24292219D01*
X83912907Y-24350998D01*
X83962907Y-24387325D01*
X84024711Y-24387325D01*
X84074711Y-24350998D01*
X84093809Y-24292219D01*
X84093809Y-23292219D01*
X84074711Y-23233440D01*
X84024711Y-23197113D01*
X83962907Y-23197113D01*
X83912907Y-23233440D01*
X83893809Y-23292219D01*
X83893809Y-23668409D01*
X83522381Y-23668409D01*
X83522381Y-23292219D01*
X83503283Y-23233440D01*
X83453283Y-23197113D01*
X83391479Y-23197113D01*
X83341479Y-23233440D01*
X83322381Y-23292219D01*
X83322381Y-24292219D01*
X82992373Y-24292219D01*
X83016901Y-24267690D01*
X83024258Y-24253249D01*
X83035633Y-24241701D01*
X83083252Y-24146464D01*
X83086685Y-24123665D01*
X83093809Y-24101742D01*
X83093809Y-23816028D01*
X83086685Y-23794104D01*
X83083252Y-23771306D01*
X83035633Y-23676069D01*
X83024258Y-23664520D01*
X83016900Y-23650079D01*
X82969282Y-23602460D01*
X82954839Y-23595101D01*
X82943292Y-23583728D01*
X82848054Y-23536109D01*
X82825256Y-23532675D01*
X82803333Y-23525552D01*
X82660476Y-23525552D01*
X82638552Y-23532675D01*
X82615754Y-23536109D01*
X82520517Y-23583728D01*
X82508968Y-23595102D01*
X82494527Y-23602461D01*
X82446908Y-23650079D01*
X82439549Y-23664521D01*
X82428176Y-23676069D01*
X82380557Y-23771307D01*
X82377123Y-23794104D01*
X82370000Y-23816028D01*
X82370000Y-24101742D01*
X82141428Y-24101742D01*
X82141428Y-23292219D01*
X82122330Y-23233440D01*
X82072330Y-23197113D01*
X82010526Y-23197113D01*
X81960526Y-23233440D01*
X81941428Y-23292219D01*
X81941428Y-24125754D01*
X81919273Y-24170063D01*
X81853850Y-24202776D01*
X81809817Y-24246145D01*
X81799686Y-24307112D01*
X81612779Y-24307112D01*
X81617618Y-24292219D01*
X81617618Y-23625552D01*
X81598520Y-23566773D01*
X81548520Y-23530446D01*
X81486716Y-23530446D01*
X81454690Y-23553713D01*
X81419482Y-23536109D01*
X81396684Y-23532675D01*
X81374761Y-23525552D01*
X81231904Y-23525552D01*
X81209980Y-23532675D01*
X81187182Y-23536109D01*
X81091945Y-23583728D01*
X81091378Y-23584286D01*
X81090592Y-23584417D01*
X81089047Y-23585985D01*
X81087502Y-23584417D01*
X81086715Y-23584286D01*
X81086149Y-23583728D01*
X80990911Y-23536109D01*
X80968113Y-23532675D01*
X80946190Y-23525552D01*
X80803333Y-23525552D01*
X80781409Y-23532675D01*
X80758612Y-23536109D01*
X80663373Y-23583728D01*
X80662806Y-23584286D01*
X80662020Y-23584417D01*
X80640858Y-23605902D01*
X80619340Y-23627096D01*
X80619209Y-23627883D01*
X80618651Y-23628450D01*
X80571032Y-23723688D01*
X80567598Y-23746485D01*
X80560475Y-23768409D01*
X80560475Y-24292219D01*
X80271470Y-24292219D01*
X80273039Y-24290674D01*
X80273169Y-24289887D01*
X80273728Y-24289321D01*
X80321347Y-24194082D01*
X80324780Y-24171284D01*
X80331904Y-24149361D01*
X80331904Y-23768409D01*
X80324780Y-23746485D01*
X80321347Y-23723687D01*
X80273728Y-23628450D01*
X80273169Y-23627883D01*
X80273039Y-23627097D01*
X80251536Y-23605919D01*
X80230359Y-23584417D01*
X80229572Y-23584286D01*
X80229006Y-23583728D01*
X80133768Y-23536109D01*
X80110970Y-23532675D01*
X80089047Y-23525552D01*
X79898571Y-23525552D01*
X79876647Y-23532675D01*
X79853849Y-23536109D01*
X79758612Y-23583728D01*
X79758045Y-23584286D01*
X79757259Y-23584417D01*
X79736081Y-23605919D01*
X79714579Y-23627097D01*
X79714448Y-23627883D01*
X79713890Y-23628450D01*
X79666271Y-23723688D01*
X79662837Y-23746485D01*
X79655714Y-23768409D01*
X79655714Y-23863647D01*
X79462755Y-23863647D01*
X79464204Y-23860750D01*
X79467637Y-23837951D01*
X79474761Y-23816028D01*
X79474761Y-23768409D01*
X79467637Y-23746485D01*
X79464204Y-23723687D01*
X79416585Y-23628450D01*
X79416026Y-23627883D01*
X79415896Y-23627097D01*
X79394393Y-23605919D01*
X79373216Y-23584417D01*
X79372429Y-23584286D01*
X79371863Y-23583728D01*
X79276625Y-23536109D01*
X79253827Y-23532675D01*
X79231904Y-23525552D01*
X79089047Y-23525552D01*
X79067123Y-23532675D01*
X79044325Y-23536109D01*
X78949088Y-23583728D01*
X78905055Y-23627097D01*
X78894924Y-23688064D01*
X78922563Y-23743343D01*
X78977416Y-23771819D01*
X79038530Y-23762614D01*
X79112654Y-23725552D01*
X79208297Y-23725552D01*
X79252606Y-23747707D01*
X79274761Y-23792016D01*
X79274761Y-23792421D01*
X79252606Y-23836729D01*
X79208297Y-23858885D01*
X79089047Y-23858885D01*
X79067123Y-23866008D01*
X79044325Y-23869442D01*
X78949088Y-23917061D01*
X78948521Y-23917619D01*
X78947735Y-23917750D01*
X78926557Y-23939252D01*
X78905055Y-23960430D01*
X78904924Y-23961216D01*
X78904366Y-23961783D01*
X78856747Y-24057021D01*
X78853313Y-24079818D01*
X78846190Y-24101742D01*
X78846190Y-24149361D01*
X77843707Y-24149361D01*
X77845156Y-24146464D01*
X77848589Y-24123665D01*
X77855713Y-24101742D01*
X77855713Y-23958885D01*
X77848589Y-23936961D01*
X77845156Y-23914163D01*
X77797537Y-23818926D01*
X77786162Y-23807377D01*
X77778804Y-23792936D01*
X77731186Y-23745317D01*
X77722197Y-23740737D01*
X77715945Y-23732823D01*
X77662613Y-23697268D01*
X77707724Y-23561937D01*
X77707847Y-23545729D01*
X77712856Y-23530314D01*
X77712856Y-23435076D01*
X77705732Y-23413152D01*
X77702299Y-23390354D01*
X77654680Y-23295117D01*
X77654121Y-23294550D01*
X77653991Y-23293764D01*
X77632488Y-23272586D01*
X77611311Y-23251084D01*
X77610524Y-23250953D01*
X77609958Y-23250395D01*
X77514720Y-23202776D01*
X77491922Y-23199342D01*
X77469999Y-23192219D01*
X77422380Y-23192219D01*
X77400456Y-23199342D01*
X77377658Y-23202776D01*
X77282421Y-23250395D01*
X77281854Y-23250953D01*
X77281068Y-23251084D01*
X77259890Y-23272586D01*
X77238388Y-23293764D01*
X77238257Y-23294550D01*
X77237699Y-23295117D01*
X77190080Y-23390355D01*
X77186646Y-23413152D01*
X77179523Y-23435076D01*
X77179523Y-23482695D01*
X77186646Y-23504618D01*
X77190080Y-23527416D01*
X77237699Y-23622654D01*
X77249072Y-23634201D01*
X77256431Y-23648644D01*
X77304050Y-23696262D01*
X77313037Y-23700841D01*
X77319291Y-23708757D01*
X77389932Y-23755851D01*
X77389755Y-23756116D01*
X77224653Y-23954238D01*
X77189047Y-23847420D01*
X77189047Y-23768409D01*
X77169949Y-23709630D01*
X77119949Y-23673303D01*
X77058145Y-23673303D01*
X77008145Y-23709630D01*
X76989047Y-23768409D01*
X76989047Y-23863647D01*
X76994055Y-23879062D01*
X76994179Y-23895270D01*
X77041798Y-24038126D01*
X77051423Y-24051165D01*
X77056666Y-24066504D01*
X77086261Y-24105964D01*
X77029812Y-24162413D01*
X76970202Y-24192219D01*
X76946189Y-24192219D01*
X76887410Y-24211317D01*
X76851083Y-24261317D01*
X76851083Y-24323121D01*
X75845673Y-24323121D01*
X75855713Y-24292219D01*
X75855713Y-23292219D01*
X75836615Y-23233440D01*
X75786615Y-23197113D01*
X75724811Y-23197113D01*
X75674811Y-23233440D01*
X75655713Y-23292219D01*
X75655713Y-23668409D01*
X75284285Y-23668409D01*
X75284285Y-23292219D01*
X75265187Y-23233440D01*
X75215187Y-23197113D01*
X75153383Y-23197113D01*
X75103383Y-23233440D01*
X75084285Y-23292219D01*
X75084285Y-24292219D01*
X74795279Y-24292219D01*
X74796848Y-24290674D01*
X74796978Y-24289887D01*
X74797537Y-24289321D01*
X74845156Y-24194082D01*
X74848589Y-24171284D01*
X74855713Y-24149361D01*
X74855713Y-23768409D01*
X74848589Y-23746485D01*
X74845156Y-23723687D01*
X74797537Y-23628450D01*
X74796978Y-23627883D01*
X74796848Y-23627097D01*
X74775345Y-23605919D01*
X74754168Y-23584417D01*
X74753381Y-23584286D01*
X74752815Y-23583728D01*
X74657577Y-23536109D01*
X74634779Y-23532675D01*
X74612856Y-23525552D01*
X74422380Y-23525552D01*
X74400456Y-23532675D01*
X74377658Y-23536109D01*
X74282421Y-23583728D01*
X74281854Y-23584286D01*
X74281068Y-23584417D01*
X74259890Y-23605919D01*
X74238388Y-23627097D01*
X74238257Y-23627883D01*
X74237699Y-23628450D01*
X74190080Y-23723688D01*
X74186646Y-23746485D01*
X74179523Y-23768409D01*
X74179523Y-23863647D01*
X73950951Y-23863647D01*
X73950951Y-23625552D01*
X73931853Y-23566773D01*
X73881853Y-23530446D01*
X73820049Y-23530446D01*
X73770049Y-23566773D01*
X73750951Y-23625552D01*
X73750951Y-24125754D01*
X73728796Y-24170063D01*
X73684487Y-24192219D01*
X73588844Y-24192219D01*
X73529234Y-24162414D01*
X73522380Y-24155559D01*
X73522380Y-23625552D01*
X73503282Y-23566773D01*
X73453282Y-23530446D01*
X73391478Y-23530446D01*
X73341478Y-23566773D01*
X73322380Y-23625552D01*
X73322380Y-24292219D01*
X73080993Y-24292219D01*
X73082562Y-24290674D01*
X73092693Y-24229707D01*
X73065053Y-24174428D01*
X73010201Y-24145952D01*
X72949086Y-24155157D01*
X72874963Y-24192219D01*
X72731701Y-24192219D01*
X72687391Y-24170064D01*
X72665237Y-24125754D01*
X72665237Y-24125349D01*
X72687392Y-24081039D01*
X72731701Y-24058885D01*
X72850951Y-24058885D01*
X72872874Y-24051761D01*
X72895672Y-24048328D01*
X72990910Y-24000709D01*
X72991476Y-24000150D01*
X72992263Y-24000020D01*
X73013440Y-23978517D01*
X73034943Y-23957340D01*
X73035073Y-23956553D01*
X73035632Y-23955987D01*
X73083251Y-23860750D01*
X73086684Y-23837951D01*
X73093808Y-23816028D01*
X73093808Y-23768409D01*
X73086684Y-23746485D01*
X73083251Y-23723687D01*
X73035632Y-23628450D01*
X73035073Y-23627883D01*
X73034943Y-23627097D01*
X73013440Y-23605919D01*
X72992263Y-23584417D01*
X72991476Y-23584286D01*
X72990910Y-23583728D01*
X72895672Y-23536109D01*
X72872874Y-23532675D01*
X72850951Y-23525552D01*
X72708094Y-23525552D01*
X72686170Y-23532675D01*
X72663372Y-23536109D01*
X72568135Y-23583728D01*
X72524102Y-23627097D01*
X72513971Y-23688064D01*
X72541610Y-23743343D01*
X72596463Y-23771819D01*
X72657577Y-23762614D01*
X72731701Y-23725552D01*
X72827344Y-23725552D01*
X72871653Y-23747707D01*
X72893808Y-23792016D01*
X72893808Y-23792421D01*
X72871653Y-23836729D01*
X72827344Y-23858885D01*
X72708094Y-23858885D01*
X72686170Y-23866008D01*
X72663372Y-23869442D01*
X72568135Y-23917061D01*
X72567568Y-23917619D01*
X72566782Y-23917750D01*
X72545604Y-23939252D01*
X72524102Y-23960430D01*
X72523971Y-23961216D01*
X72523413Y-23961783D01*
X72475794Y-24057021D01*
X72472360Y-24079818D01*
X72465237Y-24101742D01*
X72465237Y-24149361D01*
X72207244Y-24149361D01*
X72200677Y-24145952D01*
X72139562Y-24155157D01*
X72065439Y-24192219D01*
X71922177Y-24192219D01*
X71877867Y-24170064D01*
X71855713Y-24125754D01*
X71855713Y-24125349D01*
X71877868Y-24081039D01*
X71922177Y-24058885D01*
X72041427Y-24058885D01*
X72063350Y-24051761D01*
X72086148Y-24048328D01*
X72181386Y-24000709D01*
X72181952Y-24000150D01*
X72182739Y-24000020D01*
X72203916Y-23978517D01*
X72225419Y-23957340D01*
X72225549Y-23956553D01*
X72226108Y-23955987D01*
X72273727Y-23860750D01*
X72277160Y-23837951D01*
X72284284Y-23816028D01*
X72284284Y-23768409D01*
X72277160Y-23746485D01*
X72273727Y-23723687D01*
X72226108Y-23628450D01*
X72225549Y-23627883D01*
X72225419Y-23627097D01*
X72203916Y-23605919D01*
X72182739Y-23584417D01*
X72181952Y-23584286D01*
X72181386Y-23583728D01*
X72086148Y-23536109D01*
X72063350Y-23532675D01*
X72041427Y-23525552D01*
X71898570Y-23525552D01*
X71876646Y-23532675D01*
X71853848Y-23536109D01*
X71758611Y-23583728D01*
X71714578Y-23627097D01*
X71704447Y-23688064D01*
X71732086Y-23743343D01*
X71786939Y-23771819D01*
X71848053Y-23762614D01*
X71922177Y-23725552D01*
X72017820Y-23725552D01*
X72062129Y-23747707D01*
X72084284Y-23792016D01*
X72084284Y-23792421D01*
X72062129Y-23836729D01*
X72017820Y-23858885D01*
X71898570Y-23858885D01*
X71876646Y-23866008D01*
X71853848Y-23869442D01*
X71758611Y-23917061D01*
X71758044Y-23917619D01*
X71757258Y-23917750D01*
X71736080Y-23939252D01*
X71714578Y-23960430D01*
X71714447Y-23961216D01*
X71713889Y-23961783D01*
X71666270Y-24057021D01*
X71662836Y-24079818D01*
X71655713Y-24101742D01*
X71655713Y-24149361D01*
X71474760Y-24149361D01*
X71474760Y-23768409D01*
X71467636Y-23746485D01*
X71464203Y-23723687D01*
X71416584Y-23628450D01*
X71416025Y-23627883D01*
X71415895Y-23627097D01*
X71394392Y-23605919D01*
X71373215Y-23584417D01*
X71372428Y-23584286D01*
X71371862Y-23583728D01*
X71276624Y-23536109D01*
X71253826Y-23532675D01*
X71231903Y-23525552D01*
X71041427Y-23525552D01*
X71019503Y-23532675D01*
X70996705Y-23536109D01*
X70901468Y-23583728D01*
X70900901Y-23584286D01*
X70900115Y-23584417D01*
X70878937Y-23605919D01*
X70857435Y-23627097D01*
X70857304Y-23627883D01*
X70856746Y-23628450D01*
X70809127Y-23723688D01*
X70805693Y-23746485D01*
X70798570Y-23768409D01*
X70798570Y-23863647D01*
X70655713Y-23863647D01*
X70655713Y-23049362D01*
X84236666Y-23049362D01*
X84236666Y-26145076D01*
G37*
D11*
%TO.P,U1,1,TempA*%
%TO.N,GND*%
X66300000Y-51435000D03*
D12*
%TO.P,U1,2,Gas1A*%
%TO.N,GAS1*%
X66857670Y-53151333D03*
%TO.P,U1,3,ResA*%
%TO.N,GND*%
X68317670Y-54212085D03*
%TO.P,U1,4,Gas1B*%
%TO.N,+5V*%
X70122330Y-54212085D03*
%TO.P,U1,5,NC*%
%TO.N,GND*%
X71582330Y-53151333D03*
%TO.P,U1,6,TempB*%
%TO.N,ADC2*%
X72140000Y-51435000D03*
%TO.P,U1,7,Gas2A*%
%TO.N,+5V*%
X71582330Y-49718667D03*
%TO.P,U1,8,ResB*%
%TO.N,SW_12V*%
X70122330Y-48657915D03*
%TO.P,U1,9,Gas2B*%
%TO.N,GAS2*%
X68317670Y-48657915D03*
%TO.P,U1,10,NC*%
%TO.N,GND*%
X66857670Y-49718667D03*
%TD*%
D13*
%TO.P,C3,1*%
%TO.N,+5V*%
X64095000Y-62230000D03*
%TO.P,C3,2*%
%TO.N,GND*%
X59095000Y-62230000D03*
%TD*%
%TO.P,R2,1*%
%TO.N,Net-(U2-IN-)*%
X44450000Y-40640000D03*
D14*
%TO.P,R2,2*%
%TO.N,GND*%
X54610000Y-40640000D03*
%TD*%
D13*
%TO.P,R1,1*%
%TO.N,Net-(U2-IN+)*%
X54610000Y-45085000D03*
D14*
%TO.P,R1,2*%
%TO.N,GND*%
X44450000Y-45085000D03*
%TD*%
D15*
%TO.P,Q1,1,G*%
%TO.N,Net-(Q1-G)*%
X85090000Y-53650000D03*
D16*
%TO.P,Q1,2,D*%
%TO.N,SW_12V*%
X87630000Y-53650000D03*
%TO.P,Q1,3,S*%
%TO.N,GND*%
X90170000Y-53650000D03*
%TD*%
D13*
%TO.P,R6,1*%
%TO.N,ADC2*%
X74295000Y-58420000D03*
D14*
%TO.P,R6,2*%
%TO.N,+5V*%
X64135000Y-58420000D03*
%TD*%
D13*
%TO.P,R7,1*%
%TO.N,+12V*%
X77470000Y-58420000D03*
D14*
%TO.P,R7,2*%
%TO.N,SW_12V*%
X87630000Y-58420000D03*
%TD*%
D13*
%TO.P,R8,1*%
%TO.N,SW_CTL*%
X80010000Y-43815000D03*
D14*
%TO.P,R8,2*%
%TO.N,Net-(Q1-G)*%
X80010000Y-53975000D03*
%TD*%
D17*
%TO.P,J1,1,Pin_1*%
%TO.N,RST*%
X67945000Y-26035000D03*
D18*
%TO.P,J1,2,Pin_2*%
%TO.N,TX*%
X65405000Y-26035000D03*
%TO.P,J1,3,Pin_3*%
%TO.N,RX*%
X62865000Y-26035000D03*
%TO.P,J1,4,Pin_4*%
%TO.N,+3.3V*%
X60325000Y-26035000D03*
%TO.P,J1,5,Pin_5*%
%TO.N,unconnected-(J1-Pin_5-Pad5)*%
X57785000Y-26035000D03*
%TO.P,J1,6,Pin_6*%
%TO.N,GND*%
X55245000Y-26035000D03*
%TO.P,J1,7,Pin_7*%
%TO.N,unconnected-(J1-Pin_7-Pad7)*%
X52705000Y-26035000D03*
%TD*%
D13*
%TO.P,R4,1*%
%TO.N,Net-(SW1-B)*%
X58420000Y-35560000D03*
D14*
%TO.P,R4,2*%
%TO.N,Net-(U2-IN+)*%
X58420000Y-45720000D03*
%TD*%
D19*
%TO.P,SW1,1,A*%
%TO.N,GAS1*%
X64515000Y-35560000D03*
D20*
%TO.P,SW1,2,B*%
%TO.N,Net-(SW1-B)*%
X69215000Y-35560000D03*
%TO.P,SW1,3,C*%
%TO.N,GAS2*%
X73915000Y-35560000D03*
%TD*%
D18*
%TO.P,A1,*%
%TO.N,*%
X56515000Y-67310000D03*
%TO.P,A1,3V3,3.3V*%
%TO.N,+3.3V*%
X64135000Y-67310000D03*
%TO.P,A1,5V1,5V*%
%TO.N,+5V*%
X66675000Y-67310000D03*
D21*
%TO.P,A1,5V2,SPI_5V*%
%TO.N,unconnected-(A1-SPI_5V-Pad5V2)*%
X94742000Y-39370000D03*
D18*
%TO.P,A1,A0,A0*%
%TO.N,ADC2*%
X79375000Y-67310000D03*
%TO.P,A1,A1,A1*%
%TO.N,ADC1*%
X81915000Y-67310000D03*
%TO.P,A1,A2,A2*%
%TO.N,unconnected-(A1-PadA2)*%
X84455000Y-67310000D03*
%TO.P,A1,A3,A3*%
%TO.N,unconnected-(A1-PadA3)*%
X86995000Y-67310000D03*
%TO.P,A1,A4,A4*%
%TO.N,unconnected-(A1-PadA4)*%
X89535000Y-67310000D03*
%TO.P,A1,A5,A5*%
%TO.N,unconnected-(A1-PadA5)*%
X92075000Y-67310000D03*
%TO.P,A1,AREF,AREF*%
%TO.N,unconnected-(A1-PadAREF)*%
X52451000Y-19050000D03*
%TO.P,A1,D0,D0/RX*%
%TO.N,unconnected-(A1-D0{slash}RX-PadD0)*%
X92075000Y-19050000D03*
%TO.P,A1,D1,D1/TX*%
%TO.N,unconnected-(A1-D1{slash}TX-PadD1)*%
X89535000Y-19050000D03*
%TO.P,A1,D2,D2_INT0*%
%TO.N,SW_CTL*%
X86995000Y-19050000D03*
%TO.P,A1,D3,D3_INT1*%
%TO.N,unconnected-(A1-D3_INT1-PadD3)*%
X84455000Y-19050000D03*
%TO.P,A1,D4,D4*%
%TO.N,unconnected-(A1-PadD4)*%
X81915000Y-19050000D03*
%TO.P,A1,D5,D5*%
%TO.N,unconnected-(A1-PadD5)*%
X79375000Y-19050000D03*
%TO.P,A1,D6,D6*%
%TO.N,unconnected-(A1-PadD6)*%
X76835000Y-19050000D03*
%TO.P,A1,D7,D7*%
%TO.N,unconnected-(A1-PadD7)*%
X74295000Y-19050000D03*
%TO.P,A1,D8,D8*%
%TO.N,unconnected-(A1-PadD8)*%
X70231000Y-19050000D03*
%TO.P,A1,D9,D9*%
%TO.N,RST*%
X67691000Y-19050000D03*
%TO.P,A1,D10,D10_CS*%
%TO.N,TX*%
X65151000Y-19050000D03*
%TO.P,A1,D11,D11*%
%TO.N,RX*%
X62611000Y-19050000D03*
%TO.P,A1,D12,D12*%
%TO.N,unconnected-(A1-PadD12)*%
X60071000Y-19050000D03*
%TO.P,A1,D13,D13*%
%TO.N,unconnected-(A1-PadD13)*%
X57531000Y-19050000D03*
D17*
%TO.P,A1,GND1,GND*%
%TO.N,GND*%
X54991000Y-19050000D03*
%TO.P,A1,GND2,GND*%
X69215000Y-67310000D03*
%TO.P,A1,GND3,GND*%
X71755000Y-67310000D03*
D22*
%TO.P,A1,GND4,SPI_GND*%
%TO.N,unconnected-(A1-SPI_GND-PadGND4)*%
X94742000Y-44450000D03*
D18*
%TO.P,A1,IORF,IOREF*%
%TO.N,unconnected-(A1-IOREF-PadIORF)*%
X59055000Y-67310000D03*
D21*
%TO.P,A1,MISO,SPI_MISO*%
%TO.N,unconnected-(A1-SPI_MISO-PadMISO)*%
X92202000Y-39370000D03*
%TO.P,A1,MOSI,SPI_MOSI*%
%TO.N,unconnected-(A1-SPI_MOSI-PadMOSI)*%
X94742000Y-41910000D03*
D18*
%TO.P,A1,RST1,RESET*%
%TO.N,unconnected-(A1-RESET-PadRST1)*%
X61595000Y-67310000D03*
D21*
%TO.P,A1,RST2,SPI_RESET*%
%TO.N,unconnected-(A1-SPI_RESET-PadRST2)*%
X92202000Y-44450000D03*
%TO.P,A1,SCK,SPI_SCK*%
%TO.N,unconnected-(A1-SPI_SCK-PadSCK)*%
X92202000Y-41910000D03*
D18*
%TO.P,A1,SCL,SCL*%
%TO.N,unconnected-(A1-PadSCL)*%
X47371000Y-19050000D03*
%TO.P,A1,SDA,SDA*%
%TO.N,unconnected-(A1-PadSDA)*%
X49911000Y-19050000D03*
%TO.P,A1,VIN,VIN*%
%TO.N,+12V*%
X74295000Y-67310000D03*
%TD*%
D13*
%TO.P,C1,1*%
%TO.N,Net-(U2-IN+)*%
X48300000Y-62230000D03*
%TO.P,C1,2*%
%TO.N,GND*%
X53300000Y-62230000D03*
%TD*%
%TO.P,R3,1*%
%TO.N,Net-(U2-IN-)*%
X44450000Y-35560000D03*
D14*
%TO.P,R3,2*%
%TO.N,Net-(U2-OUT)*%
X54610000Y-35560000D03*
%TD*%
D13*
%TO.P,C2,1*%
%TO.N,ADC1*%
X86360000Y-39925000D03*
%TO.P,C2,2*%
%TO.N,GND*%
X86360000Y-34925000D03*
%TD*%
%TO.P,R5,1*%
%TO.N,Net-(U2-OUT)*%
X81915000Y-29805000D03*
D14*
%TO.P,R5,2*%
%TO.N,ADC1*%
X81915000Y-39965000D03*
%TD*%
D13*
%TO.P,C4,2*%
%TO.N,Net-(U2-OUT)*%
X49490000Y-30480000D03*
%TO.P,C4,1*%
%TO.N,Net-(U2-IN-)*%
X44490000Y-30480000D03*
%TD*%
D17*
%TO.P,U2,1,NC*%
%TO.N,unconnected-(U2-NC-Pad1)*%
X50810000Y-50175000D03*
D18*
%TO.P,U2,2,IN-*%
%TO.N,Net-(U2-IN-)*%
X50810000Y-52715000D03*
%TO.P,U2,3,IN+*%
%TO.N,Net-(U2-IN+)*%
X50810000Y-55255000D03*
%TO.P,U2,4,V-*%
%TO.N,GND*%
X50810000Y-57795000D03*
%TO.P,U2,5,NC*%
%TO.N,unconnected-(U2-NC-Pad5)*%
X58430000Y-57795000D03*
%TO.P,U2,6,V+*%
%TO.N,+5V*%
X58430000Y-55255000D03*
%TO.P,U2,7,OUT*%
%TO.N,Net-(U2-OUT)*%
X58430000Y-52715000D03*
%TO.P,U2,8,CLK*%
%TO.N,unconnected-(U2-CLK-Pad8)*%
X58430000Y-50175000D03*
%TD*%
D23*
%TO.N,+12V*%
X77579203Y-62120797D03*
X71120000Y-62230000D03*
%TD*%
D24*
%TO.N,Net-(U2-OUT)*%
X54610000Y-35560000D02*
X62865000Y-43815000D01*
X62865000Y-43815000D02*
X62865000Y-50165000D01*
X62865000Y-50165000D02*
X60315000Y-52715000D01*
X60315000Y-52715000D02*
X58430000Y-52715000D01*
%TO.N,GAS1*%
X66857670Y-53151333D02*
X65695013Y-53151333D01*
X65695013Y-53151333D02*
X64515000Y-51971320D01*
X64515000Y-51971320D02*
X64515000Y-35560000D01*
X64515000Y-35560000D02*
X64300000Y-35775000D01*
%TO.N,+3.3V*%
X40640000Y-59055000D02*
X46355000Y-64770000D01*
X46355000Y-64770000D02*
X62816314Y-64770000D01*
X62816314Y-64770000D02*
X64135000Y-66088686D01*
X64135000Y-66088686D02*
X64135000Y-67310000D01*
X60325000Y-26035000D02*
X60325000Y-23495000D01*
X59690000Y-22860000D02*
X45085000Y-22860000D01*
X60325000Y-23495000D02*
X59690000Y-22860000D01*
X45085000Y-22860000D02*
X40640000Y-27305000D01*
X40640000Y-27305000D02*
X40640000Y-59055000D01*
%TO.N,+5V*%
X64135000Y-62190000D02*
X64095000Y-62230000D01*
X70122330Y-54212085D02*
X70122330Y-56877670D01*
X68580000Y-58420000D02*
X64135000Y-58420000D01*
X64135000Y-58420000D02*
X64135000Y-62190000D01*
X64095000Y-62230000D02*
X66675000Y-64810000D01*
X70122330Y-54212085D02*
X70122330Y-51178667D01*
X70122330Y-56877670D02*
X68580000Y-58420000D01*
X70122330Y-51178667D02*
X71582330Y-49718667D01*
X60970000Y-55255000D02*
X64135000Y-58420000D01*
X66675000Y-64810000D02*
X66675000Y-67310000D01*
X58430000Y-55255000D02*
X60970000Y-55255000D01*
%TO.N,ADC1*%
X86408686Y-61595000D02*
X89535000Y-61595000D01*
X81915000Y-67310000D02*
X81915000Y-66088686D01*
X89535000Y-61595000D02*
X93980000Y-57150000D01*
X86360000Y-44450000D02*
X86360000Y-39925000D01*
X86360000Y-39925000D02*
X81955000Y-39925000D01*
X93980000Y-52070000D02*
X86360000Y-44450000D01*
X81955000Y-39925000D02*
X81915000Y-39965000D01*
X81915000Y-66088686D02*
X86408686Y-61595000D01*
X93980000Y-57150000D02*
X93980000Y-52070000D01*
%TO.N,ADC2*%
X74295000Y-62230000D02*
X79375000Y-67310000D01*
X73025000Y-51435000D02*
X74295000Y-52705000D01*
X74295000Y-58420000D02*
X74295000Y-62230000D01*
X74295000Y-53590000D02*
X74295000Y-55864003D01*
X74295000Y-52705000D02*
X74295000Y-53590000D01*
X72140000Y-51435000D02*
X73025000Y-51435000D01*
X74295000Y-58420000D02*
X74295000Y-55864003D01*
%TO.N,SW_CTL*%
X85725000Y-33020000D02*
X86995000Y-31750000D01*
X80010000Y-43815000D02*
X79210001Y-43015001D01*
X86995000Y-31750000D02*
X86995000Y-19050000D01*
X79210001Y-43015001D02*
X79210001Y-37629999D01*
X83820000Y-33020000D02*
X85725000Y-33020000D01*
X79210001Y-37629999D02*
X83820000Y-33020000D01*
%TO.N,TX*%
X65151000Y-25781000D02*
X65405000Y-26035000D01*
X65151000Y-19050000D02*
X65151000Y-25781000D01*
%TO.N,RX*%
X62611000Y-19050000D02*
X62611000Y-25781000D01*
X62611000Y-25781000D02*
X62865000Y-26035000D01*
%TO.N,RST*%
X67691000Y-19050000D02*
X67691000Y-25781000D01*
D25*
X67691000Y-25781000D02*
X67945000Y-26035000D01*
D24*
%TO.N,+12V*%
X74295000Y-65405000D02*
X71120000Y-62230000D01*
X74295000Y-67310000D02*
X74295000Y-65405000D01*
X77470000Y-62011594D02*
X77579203Y-62120797D01*
X77470000Y-58420000D02*
X77470000Y-62011594D01*
%TO.N,Net-(U2-IN+)*%
X53340000Y-55245000D02*
X54610000Y-53975000D01*
X57785000Y-45085000D02*
X58420000Y-45720000D01*
X52060000Y-55255000D02*
X52070000Y-55245000D01*
X48300000Y-56633630D02*
X48300000Y-62230000D01*
X54610000Y-45085000D02*
X57785000Y-45085000D01*
X50810000Y-55255000D02*
X52060000Y-55255000D01*
X52070000Y-55245000D02*
X53340000Y-55245000D01*
X54610000Y-53975000D02*
X54610000Y-45085000D01*
X49678630Y-55255000D02*
X48300000Y-56633630D01*
X50810000Y-55255000D02*
X49678630Y-55255000D01*
%TO.N,Net-(U2-IN-)*%
X48905000Y-52715000D02*
X47625000Y-51435000D01*
X44490000Y-30480000D02*
X44490000Y-35520000D01*
X47625000Y-43815000D02*
X44450000Y-40640000D01*
X50810000Y-52715000D02*
X48905000Y-52715000D01*
X44450000Y-35560000D02*
X44450000Y-40640000D01*
X44490000Y-35520000D02*
X44450000Y-35560000D01*
X47625000Y-51435000D02*
X47625000Y-43815000D01*
%TO.N,Net-(U2-OUT)*%
X50800000Y-35560000D02*
X54610000Y-35560000D01*
X50165000Y-29805000D02*
X49490000Y-30480000D01*
X49490000Y-34250000D02*
X50800000Y-35560000D01*
X49490000Y-30480000D02*
X49490000Y-34250000D01*
X81915000Y-29805000D02*
X50165000Y-29805000D01*
%TO.N,Net-(SW1-B)*%
X65405000Y-31750000D02*
X69215000Y-35560000D01*
X62230000Y-31750000D02*
X65405000Y-31750000D01*
X58420000Y-35560000D02*
X62230000Y-31750000D01*
%TO.N,GAS2*%
X68317670Y-48657915D02*
X68317670Y-43442330D01*
X73915000Y-37845000D02*
X73915000Y-35560000D01*
X68317670Y-43442330D02*
X73915000Y-37845000D01*
%TO.N,Net-(Q1-G)*%
X80010000Y-53975000D02*
X84765000Y-53975000D01*
X84765000Y-53975000D02*
X85090000Y-53650000D01*
%TO.N,SW_12V*%
X70122330Y-47352670D02*
X70485000Y-46990000D01*
X87630000Y-58420000D02*
X87630000Y-53650000D01*
X85357500Y-50165000D02*
X76835000Y-50165000D01*
X70485000Y-46990000D02*
X73660000Y-46990000D01*
X76835000Y-50165000D02*
X73660000Y-46990000D01*
X70122330Y-48657915D02*
X70122330Y-47352670D01*
X87630000Y-52437500D02*
X85357500Y-50165000D01*
X87630000Y-53650000D02*
X87630000Y-52437500D01*
%TD*%
%TA.AperFunction,Conductor*%
%TO.N,GND*%
G36*
X39360323Y-16510500D02*
G01*
X39369901Y-16510500D01*
X92658430Y-16510500D01*
X92725469Y-16530185D01*
X92746111Y-16546819D01*
X94578181Y-18378888D01*
X94611666Y-18440211D01*
X94614500Y-18466569D01*
X94614500Y-29185368D01*
X94614419Y-29185774D01*
X94614457Y-29209999D01*
X94614576Y-29210284D01*
X94614616Y-29210382D01*
X94625881Y-29221589D01*
X96000806Y-30596513D01*
X97118181Y-31713888D01*
X97151666Y-31775211D01*
X97154500Y-31801569D01*
X97154500Y-65988429D01*
X97134815Y-66055468D01*
X97118181Y-66076110D01*
X94631995Y-68562295D01*
X94631819Y-68562413D01*
X94614616Y-68579616D01*
X94614457Y-68579995D01*
X94614461Y-68604665D01*
X94614500Y-68604855D01*
X94614500Y-69725500D01*
X94594815Y-69792539D01*
X94542011Y-69838294D01*
X94490500Y-69849500D01*
X39360323Y-69849500D01*
X39355222Y-69850000D01*
X38224500Y-69850000D01*
X38157461Y-69830315D01*
X38111706Y-69777511D01*
X38100500Y-69726000D01*
X38100500Y-67377763D01*
X40690787Y-67377763D01*
X40720413Y-67647013D01*
X40720415Y-67647024D01*
X40767576Y-67827416D01*
X40788928Y-67909088D01*
X40894870Y-68158390D01*
X40980596Y-68298857D01*
X41035979Y-68389605D01*
X41035986Y-68389615D01*
X41209253Y-68597819D01*
X41209259Y-68597824D01*
X41303688Y-68682432D01*
X41410998Y-68778582D01*
X41636910Y-68928044D01*
X41882176Y-69043020D01*
X41882183Y-69043022D01*
X41882185Y-69043023D01*
X42141557Y-69121057D01*
X42141564Y-69121058D01*
X42141569Y-69121060D01*
X42409561Y-69160500D01*
X42409566Y-69160500D01*
X42612636Y-69160500D01*
X42664133Y-69156730D01*
X42815156Y-69145677D01*
X42927758Y-69120593D01*
X43079546Y-69086782D01*
X43079548Y-69086781D01*
X43079553Y-69086780D01*
X43332558Y-68990014D01*
X43568777Y-68857441D01*
X43783177Y-68691888D01*
X43971186Y-68496881D01*
X44128799Y-68276579D01*
X44234164Y-68071643D01*
X44252649Y-68035690D01*
X44252651Y-68035684D01*
X44252656Y-68035675D01*
X44340118Y-67779305D01*
X44389319Y-67512933D01*
X44399212Y-67242235D01*
X44369586Y-66972982D01*
X44301072Y-66710912D01*
X44195130Y-66461610D01*
X44054018Y-66230390D01*
X43964747Y-66123119D01*
X43880746Y-66022180D01*
X43880740Y-66022175D01*
X43679002Y-65841418D01*
X43453092Y-65691957D01*
X43453090Y-65691956D01*
X43207824Y-65576980D01*
X43207819Y-65576978D01*
X43207814Y-65576976D01*
X42948442Y-65498942D01*
X42948428Y-65498939D01*
X42832791Y-65481921D01*
X42680439Y-65459500D01*
X42477369Y-65459500D01*
X42477364Y-65459500D01*
X42274844Y-65474323D01*
X42274831Y-65474325D01*
X42010453Y-65533217D01*
X42010446Y-65533220D01*
X41757439Y-65629987D01*
X41521226Y-65762557D01*
X41521224Y-65762558D01*
X41521223Y-65762559D01*
X41518509Y-65764655D01*
X41306822Y-65928112D01*
X41118822Y-66123109D01*
X41118816Y-66123116D01*
X40961202Y-66343419D01*
X40961199Y-66343424D01*
X40837350Y-66584309D01*
X40837343Y-66584327D01*
X40749884Y-66840685D01*
X40749881Y-66840699D01*
X40700681Y-67107068D01*
X40700680Y-67107075D01*
X40690787Y-67377763D01*
X38100500Y-67377763D01*
X38100500Y-59110684D01*
X39435644Y-59110684D01*
X39446980Y-59191950D01*
X39447310Y-59194794D01*
X39454884Y-59276535D01*
X39461347Y-59299249D01*
X39463121Y-59307659D01*
X39466381Y-59331031D01*
X39466382Y-59331033D01*
X39492459Y-59408837D01*
X39493305Y-59411570D01*
X39515771Y-59490528D01*
X39526295Y-59511663D01*
X39529580Y-59519595D01*
X39537085Y-59541987D01*
X39537086Y-59541989D01*
X39577024Y-59613690D01*
X39578360Y-59616224D01*
X39614937Y-59689679D01*
X39614944Y-59689692D01*
X39629170Y-59708531D01*
X39633856Y-59715723D01*
X39645348Y-59736353D01*
X39697782Y-59799496D01*
X39699560Y-59801742D01*
X39749016Y-59867233D01*
X39749018Y-59867236D01*
X39809673Y-59922530D01*
X39811745Y-59924508D01*
X45485500Y-65598264D01*
X45487478Y-65600335D01*
X45542763Y-65660981D01*
X45557924Y-65672429D01*
X45608289Y-65710462D01*
X45610470Y-65712191D01*
X45673647Y-65764653D01*
X45673648Y-65764654D01*
X45673650Y-65764655D01*
X45683453Y-65770114D01*
X45694275Y-65776142D01*
X45701471Y-65780830D01*
X45711755Y-65788596D01*
X45720309Y-65795057D01*
X45720320Y-65795063D01*
X45752684Y-65811178D01*
X45793781Y-65831642D01*
X45796261Y-65832948D01*
X45868015Y-65872915D01*
X45868019Y-65872916D01*
X45868020Y-65872917D01*
X45875908Y-65875560D01*
X45890408Y-65880420D01*
X45898339Y-65883705D01*
X45919472Y-65894229D01*
X45998446Y-65916699D01*
X46001135Y-65917532D01*
X46078968Y-65943619D01*
X46102362Y-65946882D01*
X46110749Y-65948652D01*
X46133464Y-65955115D01*
X46215214Y-65962689D01*
X46217980Y-65963010D01*
X46299319Y-65974357D01*
X46375308Y-65970843D01*
X46381322Y-65970566D01*
X46384185Y-65970500D01*
X55086754Y-65970500D01*
X55153793Y-65990185D01*
X55199548Y-66042989D01*
X55209492Y-66112147D01*
X55183701Y-66171813D01*
X55064614Y-66321143D01*
X54933432Y-66548356D01*
X54837582Y-66792578D01*
X54837576Y-66792597D01*
X54779197Y-67048374D01*
X54779196Y-67048379D01*
X54759592Y-67309995D01*
X54759592Y-67310004D01*
X54779196Y-67571620D01*
X54779197Y-67571625D01*
X54837576Y-67827402D01*
X54837578Y-67827411D01*
X54837580Y-67827416D01*
X54933432Y-68071643D01*
X55064614Y-68298857D01*
X55136987Y-68389610D01*
X55228198Y-68503985D01*
X55409753Y-68672441D01*
X55420521Y-68682433D01*
X55637296Y-68830228D01*
X55637301Y-68830230D01*
X55637302Y-68830231D01*
X55637303Y-68830232D01*
X55693804Y-68857441D01*
X55873673Y-68944061D01*
X55873674Y-68944061D01*
X55873677Y-68944063D01*
X56124385Y-69021396D01*
X56383818Y-69060500D01*
X56646182Y-69060500D01*
X56905615Y-69021396D01*
X57156323Y-68944063D01*
X57392704Y-68830228D01*
X57609479Y-68682433D01*
X57700660Y-68597828D01*
X57763190Y-68566661D01*
X57832647Y-68574248D01*
X57869338Y-68597827D01*
X57960521Y-68682433D01*
X58177296Y-68830228D01*
X58177301Y-68830230D01*
X58177302Y-68830231D01*
X58177303Y-68830232D01*
X58233804Y-68857441D01*
X58413673Y-68944061D01*
X58413674Y-68944061D01*
X58413677Y-68944063D01*
X58664385Y-69021396D01*
X58923818Y-69060500D01*
X59186182Y-69060500D01*
X59445615Y-69021396D01*
X59696323Y-68944063D01*
X59932704Y-68830228D01*
X60149479Y-68682433D01*
X60240660Y-68597828D01*
X60303190Y-68566661D01*
X60372647Y-68574248D01*
X60409338Y-68597827D01*
X60500521Y-68682433D01*
X60717296Y-68830228D01*
X60717301Y-68830230D01*
X60717302Y-68830231D01*
X60717303Y-68830232D01*
X60773804Y-68857441D01*
X60953673Y-68944061D01*
X60953674Y-68944061D01*
X60953677Y-68944063D01*
X61204385Y-69021396D01*
X61463818Y-69060500D01*
X61726182Y-69060500D01*
X61985615Y-69021396D01*
X62236323Y-68944063D01*
X62472704Y-68830228D01*
X62689479Y-68682433D01*
X62780660Y-68597828D01*
X62843190Y-68566661D01*
X62912647Y-68574248D01*
X62949338Y-68597827D01*
X63040521Y-68682433D01*
X63257296Y-68830228D01*
X63257301Y-68830230D01*
X63257302Y-68830231D01*
X63257303Y-68830232D01*
X63313804Y-68857441D01*
X63493673Y-68944061D01*
X63493674Y-68944061D01*
X63493677Y-68944063D01*
X63744385Y-69021396D01*
X64003818Y-69060500D01*
X64266182Y-69060500D01*
X64525615Y-69021396D01*
X64776323Y-68944063D01*
X65012704Y-68830228D01*
X65229479Y-68682433D01*
X65320660Y-68597828D01*
X65383190Y-68566661D01*
X65452647Y-68574248D01*
X65489338Y-68597827D01*
X65580521Y-68682433D01*
X65797296Y-68830228D01*
X65797301Y-68830230D01*
X65797302Y-68830231D01*
X65797303Y-68830232D01*
X65853804Y-68857441D01*
X66033673Y-68944061D01*
X66033674Y-68944061D01*
X66033677Y-68944063D01*
X66284385Y-69021396D01*
X66543818Y-69060500D01*
X66806182Y-69060500D01*
X67065615Y-69021396D01*
X67316323Y-68944063D01*
X67552704Y-68830228D01*
X67769479Y-68682433D01*
X67961805Y-68503981D01*
X68125386Y-68298857D01*
X68256568Y-68071643D01*
X68352420Y-67827416D01*
X68410802Y-67571630D01*
X68415201Y-67512931D01*
X68430408Y-67310004D01*
X68430408Y-67309995D01*
X68410803Y-67048379D01*
X68410802Y-67048374D01*
X68410802Y-67048370D01*
X68352420Y-66792584D01*
X68256568Y-66548357D01*
X68125386Y-66321143D01*
X67961805Y-66116019D01*
X67918794Y-66076110D01*
X67915157Y-66072735D01*
X67879404Y-66012707D01*
X67875500Y-65981838D01*
X67875500Y-64839163D01*
X67875566Y-64836300D01*
X67876046Y-64825907D01*
X67879356Y-64754319D01*
X67868012Y-64673001D01*
X67867691Y-64670235D01*
X67860115Y-64588464D01*
X67853652Y-64565749D01*
X67851877Y-64557334D01*
X67848619Y-64533974D01*
X67848618Y-64533973D01*
X67848618Y-64533967D01*
X67822534Y-64456143D01*
X67821701Y-64453454D01*
X67799229Y-64374472D01*
X67788705Y-64353339D01*
X67785420Y-64345408D01*
X67777915Y-64323015D01*
X67777914Y-64323012D01*
X67746063Y-64265831D01*
X67737955Y-64251275D01*
X67736649Y-64248796D01*
X67700058Y-64175311D01*
X67700057Y-64175310D01*
X67700057Y-64175309D01*
X67685831Y-64156471D01*
X67681138Y-64149269D01*
X67669652Y-64128647D01*
X67617210Y-64065494D01*
X67615437Y-64063256D01*
X67608722Y-64054364D01*
X67572791Y-64006782D01*
X67565979Y-63997761D01*
X67518480Y-63954461D01*
X67505316Y-63942460D01*
X67503253Y-63940490D01*
X66026541Y-62463778D01*
X65993056Y-62402455D01*
X65990538Y-62367250D01*
X66000355Y-62229999D01*
X66000355Y-62229998D01*
X65995508Y-62162235D01*
X65980961Y-61958840D01*
X65923175Y-61693199D01*
X65828172Y-61438487D01*
X65828170Y-61438484D01*
X65828169Y-61438480D01*
X65697890Y-61199892D01*
X65697889Y-61199891D01*
X65697887Y-61199887D01*
X65534971Y-60982258D01*
X65534966Y-60982253D01*
X65534961Y-60982247D01*
X65371819Y-60819105D01*
X65338334Y-60757782D01*
X65335500Y-60731424D01*
X65335500Y-59957405D01*
X65355185Y-59890366D01*
X65380073Y-59863648D01*
X65379398Y-59862868D01*
X65382730Y-59859979D01*
X65382742Y-59859971D01*
X65574971Y-59667742D01*
X65574979Y-59667730D01*
X65577868Y-59664398D01*
X65579261Y-59665605D01*
X65629076Y-59628317D01*
X65672406Y-59620500D01*
X68550837Y-59620500D01*
X68553700Y-59620566D01*
X68564884Y-59621082D01*
X68635681Y-59624356D01*
X68717002Y-59613011D01*
X68719758Y-59612692D01*
X68801536Y-59605115D01*
X68824259Y-59598648D01*
X68832644Y-59596879D01*
X68856033Y-59593618D01*
X68933880Y-59567525D01*
X68936530Y-59566705D01*
X69015528Y-59544229D01*
X69020034Y-59541985D01*
X69036658Y-59533707D01*
X69044601Y-59530416D01*
X69066985Y-59522915D01*
X69138705Y-59482965D01*
X69141209Y-59481646D01*
X69163258Y-59470667D01*
X69214689Y-59445058D01*
X69233539Y-59430822D01*
X69240710Y-59426149D01*
X69261353Y-59414652D01*
X69324529Y-59362189D01*
X69326722Y-59360452D01*
X69392236Y-59310981D01*
X69447550Y-59250303D01*
X69449497Y-59248264D01*
X70950594Y-57747167D01*
X70952633Y-57745220D01*
X71013311Y-57689906D01*
X71062782Y-57624392D01*
X71064519Y-57622199D01*
X71116982Y-57559023D01*
X71128479Y-57538380D01*
X71133152Y-57531209D01*
X71147388Y-57512359D01*
X71183978Y-57438875D01*
X71185295Y-57436375D01*
X71225245Y-57364655D01*
X71232746Y-57342271D01*
X71236037Y-57334328D01*
X71246557Y-57313202D01*
X71246556Y-57313202D01*
X71246559Y-57313198D01*
X71269035Y-57234200D01*
X71269855Y-57231550D01*
X71295948Y-57153703D01*
X71299209Y-57130314D01*
X71300978Y-57121929D01*
X71307445Y-57099206D01*
X71315022Y-57017428D01*
X71315341Y-57014672D01*
X71326686Y-56933351D01*
X71322896Y-56851368D01*
X71322830Y-56848505D01*
X71322830Y-54972070D01*
X71342515Y-54905031D01*
X71343023Y-54904246D01*
X71358254Y-54880934D01*
X71451487Y-54668385D01*
X71508464Y-54443390D01*
X71508778Y-54439605D01*
X71527630Y-54212091D01*
X71527630Y-54212078D01*
X71508465Y-53980787D01*
X71508463Y-53980776D01*
X71451487Y-53755784D01*
X71386501Y-53607633D01*
X71358254Y-53543236D01*
X71343020Y-53519918D01*
X71322833Y-53453028D01*
X71322830Y-53452098D01*
X71322830Y-52793298D01*
X71342515Y-52726259D01*
X71395319Y-52680504D01*
X71464477Y-52670560D01*
X71505848Y-52684244D01*
X71575486Y-52721931D01*
X71575492Y-52721933D01*
X71575497Y-52721936D01*
X71671270Y-52754815D01*
X71795015Y-52797297D01*
X71795017Y-52797297D01*
X71795019Y-52797298D01*
X72023951Y-52835500D01*
X72023952Y-52835500D01*
X72256048Y-52835500D01*
X72256049Y-52835500D01*
X72484981Y-52797298D01*
X72564048Y-52770153D01*
X72633844Y-52767004D01*
X72691991Y-52799754D01*
X73058181Y-53165944D01*
X73091666Y-53227267D01*
X73094500Y-53253625D01*
X73094500Y-56882594D01*
X73074815Y-56949633D01*
X73049940Y-56976356D01*
X73050608Y-56977127D01*
X73047250Y-56980036D01*
X72855038Y-57172247D01*
X72855028Y-57172259D01*
X72692110Y-57389891D01*
X72692109Y-57389892D01*
X72561830Y-57628480D01*
X72538920Y-57689906D01*
X72466825Y-57883199D01*
X72466824Y-57883202D01*
X72466823Y-57883206D01*
X72409040Y-58148832D01*
X72409039Y-58148839D01*
X72389645Y-58419998D01*
X72389645Y-58420001D01*
X72409039Y-58691160D01*
X72409040Y-58691167D01*
X72466823Y-58956793D01*
X72466825Y-58956801D01*
X72524221Y-59110684D01*
X72561830Y-59211519D01*
X72692109Y-59450107D01*
X72692110Y-59450108D01*
X72692113Y-59450113D01*
X72855029Y-59667742D01*
X72855033Y-59667746D01*
X72855038Y-59667752D01*
X73047247Y-59859961D01*
X73047254Y-59859967D01*
X73047258Y-59859971D01*
X73047261Y-59859973D01*
X73050602Y-59862868D01*
X73049384Y-59864273D01*
X73086658Y-59914007D01*
X73094500Y-59957405D01*
X73094500Y-61185959D01*
X73074815Y-61252998D01*
X73022011Y-61298753D01*
X72952853Y-61308697D01*
X72889297Y-61279672D01*
X72861668Y-61245386D01*
X72807229Y-61145690D01*
X72807224Y-61145682D01*
X72635745Y-60916612D01*
X72635729Y-60916594D01*
X72433405Y-60714270D01*
X72433387Y-60714254D01*
X72204317Y-60542775D01*
X72204309Y-60542770D01*
X71953166Y-60405635D01*
X71953167Y-60405635D01*
X71845915Y-60365632D01*
X71685046Y-60305631D01*
X71685043Y-60305630D01*
X71685037Y-60305628D01*
X71405433Y-60244804D01*
X71120001Y-60224390D01*
X71119999Y-60224390D01*
X70834566Y-60244804D01*
X70554962Y-60305628D01*
X70286833Y-60405635D01*
X70035690Y-60542770D01*
X70035682Y-60542775D01*
X69806612Y-60714254D01*
X69806594Y-60714270D01*
X69604270Y-60916594D01*
X69604254Y-60916612D01*
X69432775Y-61145682D01*
X69432770Y-61145690D01*
X69295635Y-61396833D01*
X69195628Y-61664962D01*
X69134804Y-61944566D01*
X69114390Y-62229998D01*
X69114390Y-62230001D01*
X69134804Y-62515433D01*
X69195628Y-62795037D01*
X69195630Y-62795043D01*
X69195631Y-62795046D01*
X69280099Y-63021513D01*
X69295635Y-63063166D01*
X69432770Y-63314309D01*
X69432775Y-63314317D01*
X69604254Y-63543387D01*
X69604270Y-63543405D01*
X69806594Y-63745729D01*
X69806612Y-63745745D01*
X70035682Y-63917224D01*
X70035690Y-63917229D01*
X70286833Y-64054364D01*
X70286832Y-64054364D01*
X70286836Y-64054365D01*
X70286839Y-64054367D01*
X70554954Y-64154369D01*
X70554960Y-64154370D01*
X70554962Y-64154371D01*
X70834566Y-64215195D01*
X70834568Y-64215195D01*
X70834572Y-64215196D01*
X71088220Y-64233337D01*
X71119999Y-64235610D01*
X71120000Y-64235610D01*
X71120001Y-64235610D01*
X71350815Y-64219102D01*
X71419088Y-64233954D01*
X71447342Y-64255105D01*
X73058181Y-65865944D01*
X73091666Y-65927267D01*
X73094500Y-65953625D01*
X73094500Y-65981838D01*
X73074815Y-66048877D01*
X73054843Y-66072735D01*
X73008198Y-66116015D01*
X73008195Y-66116019D01*
X72844614Y-66321143D01*
X72713432Y-66548356D01*
X72617582Y-66792578D01*
X72617576Y-66792597D01*
X72559197Y-67048374D01*
X72559196Y-67048379D01*
X72539592Y-67309995D01*
X72539592Y-67310004D01*
X72559196Y-67571620D01*
X72559197Y-67571625D01*
X72617576Y-67827402D01*
X72617578Y-67827411D01*
X72617580Y-67827416D01*
X72713432Y-68071643D01*
X72844614Y-68298857D01*
X72916987Y-68389610D01*
X73008198Y-68503985D01*
X73189753Y-68672441D01*
X73200521Y-68682433D01*
X73417296Y-68830228D01*
X73417301Y-68830230D01*
X73417302Y-68830231D01*
X73417303Y-68830232D01*
X73473804Y-68857441D01*
X73653673Y-68944061D01*
X73653674Y-68944061D01*
X73653677Y-68944063D01*
X73904385Y-69021396D01*
X74163818Y-69060500D01*
X74426182Y-69060500D01*
X74685615Y-69021396D01*
X74936323Y-68944063D01*
X75172704Y-68830228D01*
X75389479Y-68682433D01*
X75581805Y-68503981D01*
X75745386Y-68298857D01*
X75876568Y-68071643D01*
X75972420Y-67827416D01*
X76030802Y-67571630D01*
X76035201Y-67512931D01*
X76050408Y-67310004D01*
X76050408Y-67309995D01*
X76030803Y-67048379D01*
X76030802Y-67048374D01*
X76030802Y-67048370D01*
X75972420Y-66792584D01*
X75876568Y-66548357D01*
X75745386Y-66321143D01*
X75581805Y-66116019D01*
X75538794Y-66076110D01*
X75535157Y-66072735D01*
X75499404Y-66012707D01*
X75495500Y-65981838D01*
X75495500Y-65434164D01*
X75495566Y-65431301D01*
X75495984Y-65422254D01*
X75518742Y-65356194D01*
X75573602Y-65312925D01*
X75643145Y-65306184D01*
X75705294Y-65338112D01*
X75707533Y-65340296D01*
X77583387Y-67216150D01*
X77616872Y-67277473D01*
X77618826Y-67305362D01*
X77619592Y-67305362D01*
X77619592Y-67310004D01*
X77639196Y-67571620D01*
X77639197Y-67571625D01*
X77697576Y-67827402D01*
X77697578Y-67827411D01*
X77697580Y-67827416D01*
X77793432Y-68071643D01*
X77924614Y-68298857D01*
X77996987Y-68389610D01*
X78088198Y-68503985D01*
X78269753Y-68672441D01*
X78280521Y-68682433D01*
X78497296Y-68830228D01*
X78497301Y-68830230D01*
X78497302Y-68830231D01*
X78497303Y-68830232D01*
X78553804Y-68857441D01*
X78733673Y-68944061D01*
X78733674Y-68944061D01*
X78733677Y-68944063D01*
X78984385Y-69021396D01*
X79243818Y-69060500D01*
X79506182Y-69060500D01*
X79765615Y-69021396D01*
X80016323Y-68944063D01*
X80252704Y-68830228D01*
X80469479Y-68682433D01*
X80560660Y-68597828D01*
X80623190Y-68566661D01*
X80692647Y-68574248D01*
X80729338Y-68597827D01*
X80820521Y-68682433D01*
X81037296Y-68830228D01*
X81037301Y-68830230D01*
X81037302Y-68830231D01*
X81037303Y-68830232D01*
X81093804Y-68857441D01*
X81273673Y-68944061D01*
X81273674Y-68944061D01*
X81273677Y-68944063D01*
X81524385Y-69021396D01*
X81783818Y-69060500D01*
X82046182Y-69060500D01*
X82305615Y-69021396D01*
X82556323Y-68944063D01*
X82792704Y-68830228D01*
X83009479Y-68682433D01*
X83100660Y-68597828D01*
X83163190Y-68566661D01*
X83232647Y-68574248D01*
X83269338Y-68597827D01*
X83360521Y-68682433D01*
X83577296Y-68830228D01*
X83577301Y-68830230D01*
X83577302Y-68830231D01*
X83577303Y-68830232D01*
X83633804Y-68857441D01*
X83813673Y-68944061D01*
X83813674Y-68944061D01*
X83813677Y-68944063D01*
X84064385Y-69021396D01*
X84323818Y-69060500D01*
X84586182Y-69060500D01*
X84845615Y-69021396D01*
X85096323Y-68944063D01*
X85332704Y-68830228D01*
X85549479Y-68682433D01*
X85640660Y-68597828D01*
X85703190Y-68566661D01*
X85772647Y-68574248D01*
X85809338Y-68597827D01*
X85900521Y-68682433D01*
X86117296Y-68830228D01*
X86117301Y-68830230D01*
X86117302Y-68830231D01*
X86117303Y-68830232D01*
X86173804Y-68857441D01*
X86353673Y-68944061D01*
X86353674Y-68944061D01*
X86353677Y-68944063D01*
X86604385Y-69021396D01*
X86863818Y-69060500D01*
X87126182Y-69060500D01*
X87385615Y-69021396D01*
X87636323Y-68944063D01*
X87872704Y-68830228D01*
X88089479Y-68682433D01*
X88180660Y-68597828D01*
X88243190Y-68566661D01*
X88312647Y-68574248D01*
X88349338Y-68597827D01*
X88440521Y-68682433D01*
X88657296Y-68830228D01*
X88657301Y-68830230D01*
X88657302Y-68830231D01*
X88657303Y-68830232D01*
X88713804Y-68857441D01*
X88893673Y-68944061D01*
X88893674Y-68944061D01*
X88893677Y-68944063D01*
X89144385Y-69021396D01*
X89403818Y-69060500D01*
X89666182Y-69060500D01*
X89925615Y-69021396D01*
X90176323Y-68944063D01*
X90412704Y-68830228D01*
X90629479Y-68682433D01*
X90720660Y-68597828D01*
X90783190Y-68566661D01*
X90852647Y-68574248D01*
X90889338Y-68597827D01*
X90980521Y-68682433D01*
X91197296Y-68830228D01*
X91197301Y-68830230D01*
X91197302Y-68830231D01*
X91197303Y-68830232D01*
X91253804Y-68857441D01*
X91433673Y-68944061D01*
X91433674Y-68944061D01*
X91433677Y-68944063D01*
X91684385Y-69021396D01*
X91943818Y-69060500D01*
X92206182Y-69060500D01*
X92465615Y-69021396D01*
X92716323Y-68944063D01*
X92952704Y-68830228D01*
X93169479Y-68682433D01*
X93361805Y-68503981D01*
X93525386Y-68298857D01*
X93656568Y-68071643D01*
X93752420Y-67827416D01*
X93810802Y-67571630D01*
X93815201Y-67512931D01*
X93830408Y-67310004D01*
X93830408Y-67309995D01*
X93810803Y-67048379D01*
X93810802Y-67048374D01*
X93810802Y-67048370D01*
X93752420Y-66792584D01*
X93656568Y-66548357D01*
X93525386Y-66321143D01*
X93361805Y-66116019D01*
X93361804Y-66116018D01*
X93361801Y-66116014D01*
X93169479Y-65937567D01*
X93138852Y-65916686D01*
X92952704Y-65789772D01*
X92952700Y-65789770D01*
X92952697Y-65789768D01*
X92952696Y-65789767D01*
X92716325Y-65675938D01*
X92716327Y-65675938D01*
X92465623Y-65598606D01*
X92465619Y-65598605D01*
X92465615Y-65598604D01*
X92340823Y-65579794D01*
X92206187Y-65559500D01*
X92206182Y-65559500D01*
X91943818Y-65559500D01*
X91943812Y-65559500D01*
X91782247Y-65583853D01*
X91684385Y-65598604D01*
X91684382Y-65598605D01*
X91684376Y-65598606D01*
X91433673Y-65675938D01*
X91197303Y-65789767D01*
X91197302Y-65789768D01*
X90980520Y-65937567D01*
X90889341Y-66022169D01*
X90826808Y-66053337D01*
X90757352Y-66045750D01*
X90720659Y-66022169D01*
X90629479Y-65937567D01*
X90598852Y-65916686D01*
X90412704Y-65789772D01*
X90412700Y-65789770D01*
X90412697Y-65789768D01*
X90412696Y-65789767D01*
X90176325Y-65675938D01*
X90176327Y-65675938D01*
X89925623Y-65598606D01*
X89925619Y-65598605D01*
X89925615Y-65598604D01*
X89800823Y-65579794D01*
X89666187Y-65559500D01*
X89666182Y-65559500D01*
X89403818Y-65559500D01*
X89403812Y-65559500D01*
X89242247Y-65583853D01*
X89144385Y-65598604D01*
X89144382Y-65598605D01*
X89144376Y-65598606D01*
X88893673Y-65675938D01*
X88657303Y-65789767D01*
X88657302Y-65789768D01*
X88440520Y-65937567D01*
X88349341Y-66022169D01*
X88286808Y-66053337D01*
X88217352Y-66045750D01*
X88180659Y-66022169D01*
X88089479Y-65937567D01*
X88058852Y-65916686D01*
X87872704Y-65789772D01*
X87872700Y-65789770D01*
X87872697Y-65789768D01*
X87872696Y-65789767D01*
X87636325Y-65675938D01*
X87636327Y-65675938D01*
X87385623Y-65598606D01*
X87385619Y-65598605D01*
X87385615Y-65598604D01*
X87260823Y-65579794D01*
X87126187Y-65559500D01*
X87126182Y-65559500D01*
X86863818Y-65559500D01*
X86863812Y-65559500D01*
X86702247Y-65583853D01*
X86604385Y-65598604D01*
X86604382Y-65598605D01*
X86604376Y-65598606D01*
X86353673Y-65675938D01*
X86117303Y-65789767D01*
X86117302Y-65789768D01*
X85900520Y-65937567D01*
X85809341Y-66022169D01*
X85746808Y-66053337D01*
X85677352Y-66045750D01*
X85640659Y-66022169D01*
X85549479Y-65937567D01*
X85518852Y-65916686D01*
X85332704Y-65789772D01*
X85332700Y-65789770D01*
X85332697Y-65789768D01*
X85332696Y-65789767D01*
X85096325Y-65675938D01*
X85096327Y-65675938D01*
X84845623Y-65598606D01*
X84845619Y-65598605D01*
X84845615Y-65598604D01*
X84720823Y-65579794D01*
X84586187Y-65559500D01*
X84586182Y-65559500D01*
X84441310Y-65559500D01*
X84374271Y-65539815D01*
X84328516Y-65487011D01*
X84318572Y-65417853D01*
X84347597Y-65354297D01*
X84353629Y-65347819D01*
X85526138Y-64175311D01*
X86869630Y-62831819D01*
X86930953Y-62798334D01*
X86957311Y-62795500D01*
X89505837Y-62795500D01*
X89508700Y-62795566D01*
X89519884Y-62796082D01*
X89590681Y-62799356D01*
X89672002Y-62788011D01*
X89674758Y-62787692D01*
X89756536Y-62780115D01*
X89779259Y-62773648D01*
X89787644Y-62771879D01*
X89811033Y-62768618D01*
X89888880Y-62742525D01*
X89891530Y-62741705D01*
X89970528Y-62719229D01*
X89971095Y-62718946D01*
X89991658Y-62708707D01*
X89999601Y-62705416D01*
X90021985Y-62697915D01*
X90093705Y-62657965D01*
X90096209Y-62656646D01*
X90169689Y-62620058D01*
X90188539Y-62605822D01*
X90195710Y-62601149D01*
X90216353Y-62589652D01*
X90279529Y-62537189D01*
X90281722Y-62535452D01*
X90347236Y-62485981D01*
X90402550Y-62425303D01*
X90404497Y-62423264D01*
X90529998Y-62297763D01*
X92760787Y-62297763D01*
X92790413Y-62567013D01*
X92790415Y-62567024D01*
X92851155Y-62799356D01*
X92858928Y-62829088D01*
X92964870Y-63078390D01*
X93036998Y-63196575D01*
X93105979Y-63309605D01*
X93105986Y-63309615D01*
X93279253Y-63517819D01*
X93279259Y-63517824D01*
X93320005Y-63554332D01*
X93480998Y-63698582D01*
X93706910Y-63848044D01*
X93952176Y-63963020D01*
X93952183Y-63963022D01*
X93952185Y-63963023D01*
X94211557Y-64041057D01*
X94211564Y-64041058D01*
X94211569Y-64041060D01*
X94479561Y-64080500D01*
X94479566Y-64080500D01*
X94682636Y-64080500D01*
X94734133Y-64076730D01*
X94885156Y-64065677D01*
X94997758Y-64040593D01*
X95149546Y-64006782D01*
X95149548Y-64006781D01*
X95149553Y-64006780D01*
X95402558Y-63910014D01*
X95638777Y-63777441D01*
X95853177Y-63611888D01*
X96041186Y-63416881D01*
X96198799Y-63196579D01*
X96280753Y-63037178D01*
X96322649Y-62955690D01*
X96322651Y-62955684D01*
X96322656Y-62955675D01*
X96410118Y-62699305D01*
X96459319Y-62432933D01*
X96469212Y-62162235D01*
X96439586Y-61892982D01*
X96371072Y-61630912D01*
X96265130Y-61381610D01*
X96124018Y-61150390D01*
X96120107Y-61145690D01*
X95950746Y-60942180D01*
X95950740Y-60942175D01*
X95749002Y-60761418D01*
X95523092Y-60611957D01*
X95502479Y-60602294D01*
X95277824Y-60496980D01*
X95277819Y-60496978D01*
X95277814Y-60496976D01*
X95018442Y-60418942D01*
X95018428Y-60418939D01*
X94902791Y-60401921D01*
X94750439Y-60379500D01*
X94547369Y-60379500D01*
X94547364Y-60379500D01*
X94344844Y-60394323D01*
X94344831Y-60394325D01*
X94080453Y-60453217D01*
X94080446Y-60453220D01*
X93827439Y-60549987D01*
X93591226Y-60682557D01*
X93591224Y-60682558D01*
X93591223Y-60682559D01*
X93563431Y-60704019D01*
X93376822Y-60848112D01*
X93188822Y-61043109D01*
X93188816Y-61043116D01*
X93031202Y-61263419D01*
X93031199Y-61263424D01*
X92907350Y-61504309D01*
X92907343Y-61504327D01*
X92819884Y-61760685D01*
X92819882Y-61760695D01*
X92785919Y-61944572D01*
X92770681Y-62027068D01*
X92770680Y-62027075D01*
X92760787Y-62297763D01*
X90529998Y-62297763D01*
X94808264Y-58019497D01*
X94810303Y-58017550D01*
X94870981Y-57962236D01*
X94920452Y-57896722D01*
X94922189Y-57894529D01*
X94974652Y-57831353D01*
X94986149Y-57810710D01*
X94990822Y-57803539D01*
X95005058Y-57784689D01*
X95041648Y-57711205D01*
X95042965Y-57708705D01*
X95082915Y-57636985D01*
X95090416Y-57614601D01*
X95093707Y-57606658D01*
X95104227Y-57585532D01*
X95104226Y-57585532D01*
X95104229Y-57585528D01*
X95126705Y-57506530D01*
X95127525Y-57503880D01*
X95153618Y-57426033D01*
X95156879Y-57402644D01*
X95158648Y-57394259D01*
X95165115Y-57371536D01*
X95172692Y-57289758D01*
X95173011Y-57287002D01*
X95184356Y-57205681D01*
X95181205Y-57137528D01*
X95180566Y-57123698D01*
X95180500Y-57120835D01*
X95180500Y-52099163D01*
X95180566Y-52096300D01*
X95181796Y-52069689D01*
X95184356Y-52014319D01*
X95173012Y-51933001D01*
X95172691Y-51930235D01*
X95165115Y-51848464D01*
X95158652Y-51825749D01*
X95156877Y-51817334D01*
X95153619Y-51793974D01*
X95153618Y-51793973D01*
X95153618Y-51793967D01*
X95127534Y-51716143D01*
X95126701Y-51713454D01*
X95104229Y-51634472D01*
X95093705Y-51613339D01*
X95090420Y-51605408D01*
X95082915Y-51583015D01*
X95082914Y-51583012D01*
X95059143Y-51540338D01*
X95042955Y-51511275D01*
X95041649Y-51508796D01*
X95005058Y-51435311D01*
X95005057Y-51435310D01*
X95005057Y-51435309D01*
X94990831Y-51416471D01*
X94986138Y-51409269D01*
X94985820Y-51408698D01*
X94974652Y-51388647D01*
X94922210Y-51325494D01*
X94920437Y-51323256D01*
X94870979Y-51257761D01*
X94816123Y-51207754D01*
X94810316Y-51202460D01*
X94808253Y-51200490D01*
X88057767Y-44450004D01*
X90533234Y-44450004D01*
X90551871Y-44698707D01*
X90551872Y-44698712D01*
X90607369Y-44941863D01*
X90607371Y-44941872D01*
X90607373Y-44941877D01*
X90698494Y-45174050D01*
X90823201Y-45390049D01*
X90978708Y-45585049D01*
X91161541Y-45754694D01*
X91367617Y-45895194D01*
X91367622Y-45895196D01*
X91367623Y-45895197D01*
X91367624Y-45895198D01*
X91486968Y-45952670D01*
X91592327Y-46003408D01*
X91592328Y-46003408D01*
X91592331Y-46003410D01*
X91830665Y-46076927D01*
X91830666Y-46076927D01*
X91830669Y-46076928D01*
X92077285Y-46114099D01*
X92077290Y-46114099D01*
X92077293Y-46114100D01*
X92077294Y-46114100D01*
X92326706Y-46114100D01*
X92326707Y-46114100D01*
X92326714Y-46114099D01*
X92573330Y-46076928D01*
X92573331Y-46076927D01*
X92573335Y-46076927D01*
X92811669Y-46003410D01*
X93036383Y-45895194D01*
X93124844Y-45834881D01*
X93191322Y-45813381D01*
X93258872Y-45831234D01*
X93282376Y-45849654D01*
X93376138Y-45943416D01*
X93528878Y-46039389D01*
X93699145Y-46098968D01*
X93699150Y-46098969D01*
X93789646Y-46109165D01*
X93833440Y-46114099D01*
X93833443Y-46114100D01*
X93833446Y-46114100D01*
X95650557Y-46114100D01*
X95650558Y-46114099D01*
X95717704Y-46106534D01*
X95784849Y-46098969D01*
X95784852Y-46098968D01*
X95784855Y-46098968D01*
X95955122Y-46039389D01*
X96107862Y-45943416D01*
X96235416Y-45815862D01*
X96331389Y-45663122D01*
X96390968Y-45492855D01*
X96406100Y-45358554D01*
X96406100Y-43541446D01*
X96399415Y-43482113D01*
X96390969Y-43407150D01*
X96390968Y-43407145D01*
X96339217Y-43259250D01*
X96331389Y-43236878D01*
X96321281Y-43220792D01*
X96276254Y-43149131D01*
X96235416Y-43084138D01*
X96144349Y-42993071D01*
X96110864Y-42931748D01*
X96115848Y-42862056D01*
X96124640Y-42843395D01*
X96245506Y-42634050D01*
X96336627Y-42401877D01*
X96392127Y-42158717D01*
X96397889Y-42081828D01*
X96410766Y-41910004D01*
X96410766Y-41909995D01*
X96392128Y-41661292D01*
X96392127Y-41661287D01*
X96392127Y-41661283D01*
X96336627Y-41418123D01*
X96245506Y-41185950D01*
X96120799Y-40969951D01*
X95965292Y-40774951D01*
X95917813Y-40730897D01*
X95882060Y-40670870D01*
X95884435Y-40601041D01*
X95917814Y-40549102D01*
X95965292Y-40505049D01*
X96120799Y-40310049D01*
X96245506Y-40094050D01*
X96336627Y-39861877D01*
X96392127Y-39618717D01*
X96392128Y-39618707D01*
X96410766Y-39370004D01*
X96410766Y-39369995D01*
X96392128Y-39121292D01*
X96392127Y-39121287D01*
X96392127Y-39121283D01*
X96336627Y-38878123D01*
X96245506Y-38645950D01*
X96120799Y-38429951D01*
X95965292Y-38234951D01*
X95782459Y-38065306D01*
X95576383Y-37924806D01*
X95576379Y-37924804D01*
X95576376Y-37924802D01*
X95576375Y-37924801D01*
X95351671Y-37816591D01*
X95351673Y-37816591D01*
X95113336Y-37743073D01*
X95113330Y-37743071D01*
X94866714Y-37705900D01*
X94866707Y-37705900D01*
X94617293Y-37705900D01*
X94617285Y-37705900D01*
X94370669Y-37743071D01*
X94370663Y-37743073D01*
X94132327Y-37816591D01*
X93907624Y-37924801D01*
X93907623Y-37924802D01*
X93701540Y-38065306D01*
X93556341Y-38200032D01*
X93493809Y-38231200D01*
X93424352Y-38223613D01*
X93387659Y-38200032D01*
X93242459Y-38065306D01*
X93203932Y-38039039D01*
X93036383Y-37924806D01*
X93036379Y-37924804D01*
X93036376Y-37924802D01*
X93036375Y-37924801D01*
X92811671Y-37816591D01*
X92811673Y-37816591D01*
X92573336Y-37743073D01*
X92573330Y-37743071D01*
X92326714Y-37705900D01*
X92326707Y-37705900D01*
X92077293Y-37705900D01*
X92077285Y-37705900D01*
X91830669Y-37743071D01*
X91830663Y-37743073D01*
X91592327Y-37816591D01*
X91367624Y-37924801D01*
X91367623Y-37924802D01*
X91367617Y-37924805D01*
X91367617Y-37924806D01*
X91169845Y-38059645D01*
X91161540Y-38065307D01*
X90978710Y-38234949D01*
X90978708Y-38234951D01*
X90823201Y-38429951D01*
X90698494Y-38645949D01*
X90607375Y-38878117D01*
X90607369Y-38878136D01*
X90551872Y-39121287D01*
X90551871Y-39121292D01*
X90533234Y-39369995D01*
X90533234Y-39370004D01*
X90551871Y-39618707D01*
X90551872Y-39618712D01*
X90607369Y-39861863D01*
X90607371Y-39861872D01*
X90607373Y-39861877D01*
X90698494Y-40094050D01*
X90823201Y-40310049D01*
X90978708Y-40505049D01*
X90978713Y-40505054D01*
X90978717Y-40505058D01*
X91026185Y-40549103D01*
X91061939Y-40609131D01*
X91059563Y-40678960D01*
X91026185Y-40730897D01*
X90978717Y-40774941D01*
X90978708Y-40774951D01*
X90823201Y-40969951D01*
X90698494Y-41185949D01*
X90607375Y-41418117D01*
X90607369Y-41418136D01*
X90551872Y-41661287D01*
X90551871Y-41661292D01*
X90533234Y-41909995D01*
X90533234Y-41910004D01*
X90551871Y-42158707D01*
X90551872Y-42158712D01*
X90607369Y-42401863D01*
X90607371Y-42401872D01*
X90607373Y-42401877D01*
X90698494Y-42634050D01*
X90823201Y-42850049D01*
X90978708Y-43045049D01*
X90978713Y-43045054D01*
X90978717Y-43045058D01*
X91026185Y-43089103D01*
X91061939Y-43149131D01*
X91059563Y-43218960D01*
X91026185Y-43270897D01*
X90978717Y-43314941D01*
X90978708Y-43314951D01*
X90823201Y-43509951D01*
X90698494Y-43725949D01*
X90607375Y-43958117D01*
X90607369Y-43958136D01*
X90551872Y-44201287D01*
X90551871Y-44201292D01*
X90533234Y-44449995D01*
X90533234Y-44450004D01*
X88057767Y-44450004D01*
X87596819Y-43989056D01*
X87563334Y-43927733D01*
X87560500Y-43901375D01*
X87560500Y-41462405D01*
X87580185Y-41395366D01*
X87605073Y-41368648D01*
X87604398Y-41367868D01*
X87607730Y-41364979D01*
X87607742Y-41364971D01*
X87799971Y-41172742D01*
X87962887Y-40955113D01*
X88093172Y-40716513D01*
X88188175Y-40461801D01*
X88245961Y-40196160D01*
X88265355Y-39925000D01*
X88245961Y-39653840D01*
X88188175Y-39388199D01*
X88093172Y-39133487D01*
X88093170Y-39133484D01*
X88093169Y-39133480D01*
X87962890Y-38894892D01*
X87962889Y-38894891D01*
X87962887Y-38894887D01*
X87799971Y-38677258D01*
X87799966Y-38677253D01*
X87799961Y-38677247D01*
X87607752Y-38485038D01*
X87607746Y-38485033D01*
X87607742Y-38485029D01*
X87390113Y-38322113D01*
X87390108Y-38322110D01*
X87390107Y-38322109D01*
X87151518Y-38191830D01*
X87151519Y-38191830D01*
X87101920Y-38173330D01*
X86896801Y-38096825D01*
X86896794Y-38096823D01*
X86896793Y-38096823D01*
X86631167Y-38039040D01*
X86631160Y-38039039D01*
X86360001Y-38019645D01*
X86359999Y-38019645D01*
X86088839Y-38039039D01*
X86088832Y-38039040D01*
X85823206Y-38096823D01*
X85823202Y-38096824D01*
X85823199Y-38096825D01*
X85741595Y-38127262D01*
X85568480Y-38191830D01*
X85329892Y-38322109D01*
X85329891Y-38322110D01*
X85112259Y-38485028D01*
X85112247Y-38485038D01*
X84920038Y-38677247D01*
X84917132Y-38680602D01*
X84915738Y-38679394D01*
X84865924Y-38716683D01*
X84822594Y-38724500D01*
X83413575Y-38724500D01*
X83346536Y-38704815D01*
X83325898Y-38688185D01*
X83162742Y-38525029D01*
X82945113Y-38362113D01*
X82945108Y-38362110D01*
X82945107Y-38362109D01*
X82706518Y-38231830D01*
X82706519Y-38231830D01*
X82625396Y-38201573D01*
X82451801Y-38136825D01*
X82451794Y-38136823D01*
X82451793Y-38136823D01*
X82186167Y-38079040D01*
X82186160Y-38079039D01*
X81915001Y-38059645D01*
X81914999Y-38059645D01*
X81643839Y-38079039D01*
X81643832Y-38079040D01*
X81378206Y-38136823D01*
X81378202Y-38136824D01*
X81378199Y-38136825D01*
X81266132Y-38178624D01*
X81123480Y-38231830D01*
X80884892Y-38362109D01*
X80884891Y-38362110D01*
X80667259Y-38525028D01*
X80667247Y-38525038D01*
X80622182Y-38570104D01*
X80560859Y-38603589D01*
X80491167Y-38598605D01*
X80435234Y-38556733D01*
X80410817Y-38491269D01*
X80410501Y-38482423D01*
X80410501Y-38178624D01*
X80430186Y-38111585D01*
X80446820Y-38090943D01*
X84180000Y-34357763D01*
X92760787Y-34357763D01*
X92790413Y-34627013D01*
X92790415Y-34627024D01*
X92858926Y-34889082D01*
X92858928Y-34889088D01*
X92964870Y-35138390D01*
X93096745Y-35354475D01*
X93105979Y-35369605D01*
X93105986Y-35369615D01*
X93279253Y-35577819D01*
X93279259Y-35577824D01*
X93480998Y-35758582D01*
X93706910Y-35908044D01*
X93952176Y-36023020D01*
X93952183Y-36023022D01*
X93952185Y-36023023D01*
X94211557Y-36101057D01*
X94211564Y-36101058D01*
X94211569Y-36101060D01*
X94479561Y-36140500D01*
X94479566Y-36140500D01*
X94682636Y-36140500D01*
X94734133Y-36136730D01*
X94885156Y-36125677D01*
X94997758Y-36100593D01*
X95149546Y-36066782D01*
X95149548Y-36066781D01*
X95149553Y-36066780D01*
X95402558Y-35970014D01*
X95638777Y-35837441D01*
X95853177Y-35671888D01*
X96041186Y-35476881D01*
X96198799Y-35256579D01*
X96272787Y-35112669D01*
X96322649Y-35015690D01*
X96322651Y-35015684D01*
X96322656Y-35015675D01*
X96410118Y-34759305D01*
X96459319Y-34492933D01*
X96469212Y-34222235D01*
X96439586Y-33952982D01*
X96371072Y-33690912D01*
X96265130Y-33441610D01*
X96124018Y-33210390D01*
X96034747Y-33103119D01*
X95950746Y-33002180D01*
X95950740Y-33002175D01*
X95749002Y-32821418D01*
X95523092Y-32671957D01*
X95523090Y-32671956D01*
X95277824Y-32556980D01*
X95277819Y-32556978D01*
X95277814Y-32556976D01*
X95018442Y-32478942D01*
X95018428Y-32478939D01*
X94902791Y-32461921D01*
X94750439Y-32439500D01*
X94547369Y-32439500D01*
X94547364Y-32439500D01*
X94344844Y-32454323D01*
X94344831Y-32454325D01*
X94080453Y-32513217D01*
X94080446Y-32513220D01*
X93827439Y-32609987D01*
X93591226Y-32742557D01*
X93376822Y-32908112D01*
X93188822Y-33103109D01*
X93188816Y-33103116D01*
X93031202Y-33323419D01*
X93031199Y-33323424D01*
X92907350Y-33564309D01*
X92907343Y-33564327D01*
X92819884Y-33820685D01*
X92819881Y-33820699D01*
X92794070Y-33960439D01*
X92771436Y-34082983D01*
X92770681Y-34087068D01*
X92770680Y-34087075D01*
X92760787Y-34357763D01*
X84180000Y-34357763D01*
X84280944Y-34256819D01*
X84342267Y-34223334D01*
X84368625Y-34220500D01*
X85695837Y-34220500D01*
X85698700Y-34220566D01*
X85709884Y-34221082D01*
X85780681Y-34224356D01*
X85862002Y-34213011D01*
X85864758Y-34212692D01*
X85946536Y-34205115D01*
X85969259Y-34198648D01*
X85977644Y-34196879D01*
X86001033Y-34193618D01*
X86078880Y-34167525D01*
X86081530Y-34166705D01*
X86160528Y-34144229D01*
X86161095Y-34143946D01*
X86181658Y-34133707D01*
X86189601Y-34130416D01*
X86211985Y-34122915D01*
X86283705Y-34082965D01*
X86286209Y-34081646D01*
X86359689Y-34045058D01*
X86378539Y-34030822D01*
X86385710Y-34026149D01*
X86406353Y-34014652D01*
X86469529Y-33962189D01*
X86471722Y-33960452D01*
X86537236Y-33910981D01*
X86592550Y-33850303D01*
X86594497Y-33848264D01*
X87823264Y-32619497D01*
X87825303Y-32617550D01*
X87885981Y-32562236D01*
X87935452Y-32496722D01*
X87937189Y-32494529D01*
X87989652Y-32431353D01*
X88001149Y-32410710D01*
X88005822Y-32403539D01*
X88020058Y-32384689D01*
X88056648Y-32311205D01*
X88057965Y-32308705D01*
X88097915Y-32236985D01*
X88105416Y-32214601D01*
X88108707Y-32206658D01*
X88119227Y-32185532D01*
X88119226Y-32185532D01*
X88119229Y-32185528D01*
X88141705Y-32106530D01*
X88142525Y-32103880D01*
X88168618Y-32026033D01*
X88171879Y-32002644D01*
X88173648Y-31994259D01*
X88180115Y-31971536D01*
X88187692Y-31889758D01*
X88188011Y-31887002D01*
X88199356Y-31805681D01*
X88195566Y-31723698D01*
X88195500Y-31720835D01*
X88195500Y-20479297D01*
X88215185Y-20412258D01*
X88267989Y-20366503D01*
X88337147Y-20356559D01*
X88400703Y-20385584D01*
X88403816Y-20388376D01*
X88440521Y-20422433D01*
X88657296Y-20570228D01*
X88657301Y-20570230D01*
X88657302Y-20570231D01*
X88657303Y-20570232D01*
X88713804Y-20597441D01*
X88893673Y-20684061D01*
X88893674Y-20684061D01*
X88893677Y-20684063D01*
X89144385Y-20761396D01*
X89403818Y-20800500D01*
X89666182Y-20800500D01*
X89925615Y-20761396D01*
X90176323Y-20684063D01*
X90412704Y-20570228D01*
X90629479Y-20422433D01*
X90720660Y-20337828D01*
X90783190Y-20306661D01*
X90852647Y-20314248D01*
X90889338Y-20337827D01*
X90980521Y-20422433D01*
X91197296Y-20570228D01*
X91197301Y-20570230D01*
X91197302Y-20570231D01*
X91197303Y-20570232D01*
X91253804Y-20597441D01*
X91433673Y-20684061D01*
X91433674Y-20684061D01*
X91433677Y-20684063D01*
X91684385Y-20761396D01*
X91943818Y-20800500D01*
X92206182Y-20800500D01*
X92465615Y-20761396D01*
X92716323Y-20684063D01*
X92952704Y-20570228D01*
X93169479Y-20422433D01*
X93361805Y-20243981D01*
X93525386Y-20038857D01*
X93656568Y-19811643D01*
X93752420Y-19567416D01*
X93810802Y-19311630D01*
X93830408Y-19050000D01*
X93815201Y-18847075D01*
X93810803Y-18788379D01*
X93810802Y-18788374D01*
X93810802Y-18788370D01*
X93752420Y-18532584D01*
X93656568Y-18288357D01*
X93525386Y-18061143D01*
X93361805Y-17856019D01*
X93361804Y-17856018D01*
X93361801Y-17856014D01*
X93169479Y-17677567D01*
X93155611Y-17668112D01*
X92952704Y-17529772D01*
X92952700Y-17529770D01*
X92952697Y-17529768D01*
X92952696Y-17529767D01*
X92716325Y-17415938D01*
X92716327Y-17415938D01*
X92465623Y-17338606D01*
X92465619Y-17338605D01*
X92465615Y-17338604D01*
X92340823Y-17319794D01*
X92206187Y-17299500D01*
X92206182Y-17299500D01*
X91943818Y-17299500D01*
X91943812Y-17299500D01*
X91782247Y-17323853D01*
X91684385Y-17338604D01*
X91684382Y-17338605D01*
X91684376Y-17338606D01*
X91433673Y-17415938D01*
X91197303Y-17529767D01*
X91197302Y-17529768D01*
X90980520Y-17677567D01*
X90889341Y-17762169D01*
X90826808Y-17793337D01*
X90757352Y-17785750D01*
X90720659Y-17762169D01*
X90629479Y-17677567D01*
X90615611Y-17668112D01*
X90412704Y-17529772D01*
X90412700Y-17529770D01*
X90412697Y-17529768D01*
X90412696Y-17529767D01*
X90176325Y-17415938D01*
X90176327Y-17415938D01*
X89925623Y-17338606D01*
X89925619Y-17338605D01*
X89925615Y-17338604D01*
X89800823Y-17319794D01*
X89666187Y-17299500D01*
X89666182Y-17299500D01*
X89403818Y-17299500D01*
X89403812Y-17299500D01*
X89242247Y-17323853D01*
X89144385Y-17338604D01*
X89144382Y-17338605D01*
X89144376Y-17338606D01*
X88893673Y-17415938D01*
X88657303Y-17529767D01*
X88657302Y-17529768D01*
X88440520Y-17677567D01*
X88349341Y-17762169D01*
X88286808Y-17793337D01*
X88217352Y-17785750D01*
X88180659Y-17762169D01*
X88089479Y-17677567D01*
X88075611Y-17668112D01*
X87872704Y-17529772D01*
X87872700Y-17529770D01*
X87872697Y-17529768D01*
X87872696Y-17529767D01*
X87636325Y-17415938D01*
X87636327Y-17415938D01*
X87385623Y-17338606D01*
X87385619Y-17338605D01*
X87385615Y-17338604D01*
X87260823Y-17319794D01*
X87126187Y-17299500D01*
X87126182Y-17299500D01*
X86863818Y-17299500D01*
X86863812Y-17299500D01*
X86702247Y-17323853D01*
X86604385Y-17338604D01*
X86604382Y-17338605D01*
X86604376Y-17338606D01*
X86353673Y-17415938D01*
X86117303Y-17529767D01*
X86117302Y-17529768D01*
X85900520Y-17677567D01*
X85809341Y-17762169D01*
X85746808Y-17793337D01*
X85677352Y-17785750D01*
X85640659Y-17762169D01*
X85549479Y-17677567D01*
X85535611Y-17668112D01*
X85332704Y-17529772D01*
X85332700Y-17529770D01*
X85332697Y-17529768D01*
X85332696Y-17529767D01*
X85096325Y-17415938D01*
X85096327Y-17415938D01*
X84845623Y-17338606D01*
X84845619Y-17338605D01*
X84845615Y-17338604D01*
X84720823Y-17319794D01*
X84586187Y-17299500D01*
X84586182Y-17299500D01*
X84323818Y-17299500D01*
X84323812Y-17299500D01*
X84162247Y-17323853D01*
X84064385Y-17338604D01*
X84064382Y-17338605D01*
X84064376Y-17338606D01*
X83813673Y-17415938D01*
X83577303Y-17529767D01*
X83577302Y-17529768D01*
X83360520Y-17677567D01*
X83269341Y-17762169D01*
X83206808Y-17793337D01*
X83137352Y-17785750D01*
X83100659Y-17762169D01*
X83009479Y-17677567D01*
X82995611Y-17668112D01*
X82792704Y-17529772D01*
X82792700Y-17529770D01*
X82792697Y-17529768D01*
X82792696Y-17529767D01*
X82556325Y-17415938D01*
X82556327Y-17415938D01*
X82305623Y-17338606D01*
X82305619Y-17338605D01*
X82305615Y-17338604D01*
X82180823Y-17319794D01*
X82046187Y-17299500D01*
X82046182Y-17299500D01*
X81783818Y-17299500D01*
X81783812Y-17299500D01*
X81622247Y-17323853D01*
X81524385Y-17338604D01*
X81524382Y-17338605D01*
X81524376Y-17338606D01*
X81273673Y-17415938D01*
X81037303Y-17529767D01*
X81037302Y-17529768D01*
X80820520Y-17677567D01*
X80729341Y-17762169D01*
X80666808Y-17793337D01*
X80597352Y-17785750D01*
X80560659Y-17762169D01*
X80469479Y-17677567D01*
X80455611Y-17668112D01*
X80252704Y-17529772D01*
X80252700Y-17529770D01*
X80252697Y-17529768D01*
X80252696Y-17529767D01*
X80016325Y-17415938D01*
X80016327Y-17415938D01*
X79765623Y-17338606D01*
X79765619Y-17338605D01*
X79765615Y-17338604D01*
X79640823Y-17319794D01*
X79506187Y-17299500D01*
X79506182Y-17299500D01*
X79243818Y-17299500D01*
X79243812Y-17299500D01*
X79082247Y-17323853D01*
X78984385Y-17338604D01*
X78984382Y-17338605D01*
X78984376Y-17338606D01*
X78733673Y-17415938D01*
X78497303Y-17529767D01*
X78497302Y-17529768D01*
X78280520Y-17677567D01*
X78189341Y-17762169D01*
X78126808Y-17793337D01*
X78057352Y-17785750D01*
X78020659Y-17762169D01*
X77929479Y-17677567D01*
X77915611Y-17668112D01*
X77712704Y-17529772D01*
X77712700Y-17529770D01*
X77712697Y-17529768D01*
X77712696Y-17529767D01*
X77476325Y-17415938D01*
X77476327Y-17415938D01*
X77225623Y-17338606D01*
X77225619Y-17338605D01*
X77225615Y-17338604D01*
X77100823Y-17319794D01*
X76966187Y-17299500D01*
X76966182Y-17299500D01*
X76703818Y-17299500D01*
X76703812Y-17299500D01*
X76542247Y-17323853D01*
X76444385Y-17338604D01*
X76444382Y-17338605D01*
X76444376Y-17338606D01*
X76193673Y-17415938D01*
X75957303Y-17529767D01*
X75957302Y-17529768D01*
X75740520Y-17677567D01*
X75649341Y-17762169D01*
X75586808Y-17793337D01*
X75517352Y-17785750D01*
X75480659Y-17762169D01*
X75389479Y-17677567D01*
X75375611Y-17668112D01*
X75172704Y-17529772D01*
X75172700Y-17529770D01*
X75172697Y-17529768D01*
X75172696Y-17529767D01*
X74936325Y-17415938D01*
X74936327Y-17415938D01*
X74685623Y-17338606D01*
X74685619Y-17338605D01*
X74685615Y-17338604D01*
X74560823Y-17319794D01*
X74426187Y-17299500D01*
X74426182Y-17299500D01*
X74163818Y-17299500D01*
X74163812Y-17299500D01*
X74002247Y-17323853D01*
X73904385Y-17338604D01*
X73904382Y-17338605D01*
X73904376Y-17338606D01*
X73653673Y-17415938D01*
X73417303Y-17529767D01*
X73417302Y-17529768D01*
X73200520Y-17677567D01*
X73008198Y-17856014D01*
X72844614Y-18061143D01*
X72713432Y-18288356D01*
X72617582Y-18532578D01*
X72617576Y-18532597D01*
X72559197Y-18788374D01*
X72559196Y-18788379D01*
X72539592Y-19049995D01*
X72539592Y-19050004D01*
X72559196Y-19311620D01*
X72559197Y-19311625D01*
X72617576Y-19567402D01*
X72617578Y-19567411D01*
X72617580Y-19567416D01*
X72713432Y-19811643D01*
X72844614Y-20038857D01*
X72916987Y-20129610D01*
X73008198Y-20243985D01*
X73160807Y-20385584D01*
X73200521Y-20422433D01*
X73417296Y-20570228D01*
X73417301Y-20570230D01*
X73417302Y-20570231D01*
X73417303Y-20570232D01*
X73473804Y-20597441D01*
X73653673Y-20684061D01*
X73653674Y-20684061D01*
X73653677Y-20684063D01*
X73904385Y-20761396D01*
X74163818Y-20800500D01*
X74426182Y-20800500D01*
X74685615Y-20761396D01*
X74936323Y-20684063D01*
X75172704Y-20570228D01*
X75389479Y-20422433D01*
X75480660Y-20337828D01*
X75543190Y-20306661D01*
X75612647Y-20314248D01*
X75649338Y-20337827D01*
X75740521Y-20422433D01*
X75957296Y-20570228D01*
X75957301Y-20570230D01*
X75957302Y-20570231D01*
X75957303Y-20570232D01*
X76013804Y-20597441D01*
X76193673Y-20684061D01*
X76193674Y-20684061D01*
X76193677Y-20684063D01*
X76444385Y-20761396D01*
X76703818Y-20800500D01*
X76966182Y-20800500D01*
X77225615Y-20761396D01*
X77476323Y-20684063D01*
X77712704Y-20570228D01*
X77929479Y-20422433D01*
X78020660Y-20337828D01*
X78083190Y-20306661D01*
X78152647Y-20314248D01*
X78189338Y-20337827D01*
X78280521Y-20422433D01*
X78497296Y-20570228D01*
X78497301Y-20570230D01*
X78497302Y-20570231D01*
X78497303Y-20570232D01*
X78553804Y-20597441D01*
X78733673Y-20684061D01*
X78733674Y-20684061D01*
X78733677Y-20684063D01*
X78984385Y-20761396D01*
X79243818Y-20800500D01*
X79506182Y-20800500D01*
X79765615Y-20761396D01*
X80016323Y-20684063D01*
X80252704Y-20570228D01*
X80469479Y-20422433D01*
X80560660Y-20337828D01*
X80623190Y-20306661D01*
X80692647Y-20314248D01*
X80729338Y-20337827D01*
X80820521Y-20422433D01*
X81037296Y-20570228D01*
X81037301Y-20570230D01*
X81037302Y-20570231D01*
X81037303Y-20570232D01*
X81093804Y-20597441D01*
X81273673Y-20684061D01*
X81273674Y-20684061D01*
X81273677Y-20684063D01*
X81524385Y-20761396D01*
X81783818Y-20800500D01*
X82046182Y-20800500D01*
X82305615Y-20761396D01*
X82556323Y-20684063D01*
X82792704Y-20570228D01*
X83009479Y-20422433D01*
X83100660Y-20337828D01*
X83163190Y-20306661D01*
X83232647Y-20314248D01*
X83269338Y-20337827D01*
X83360521Y-20422433D01*
X83577296Y-20570228D01*
X83577301Y-20570230D01*
X83577302Y-20570231D01*
X83577303Y-20570232D01*
X83633804Y-20597441D01*
X83813673Y-20684061D01*
X83813674Y-20684061D01*
X83813677Y-20684063D01*
X84064385Y-20761396D01*
X84323818Y-20800500D01*
X84586182Y-20800500D01*
X84845615Y-20761396D01*
X85096323Y-20684063D01*
X85332704Y-20570228D01*
X85549479Y-20422433D01*
X85586159Y-20388398D01*
X85648690Y-20357230D01*
X85718147Y-20364817D01*
X85772476Y-20408750D01*
X85794428Y-20475081D01*
X85794500Y-20479297D01*
X85794500Y-31201375D01*
X85774815Y-31268414D01*
X85758181Y-31289056D01*
X85264056Y-31783181D01*
X85202733Y-31816666D01*
X85176375Y-31819500D01*
X83849163Y-31819500D01*
X83846300Y-31819434D01*
X83812118Y-31817853D01*
X83764319Y-31815644D01*
X83764317Y-31815644D01*
X83764314Y-31815644D01*
X83683048Y-31826980D01*
X83680204Y-31827310D01*
X83598462Y-31834885D01*
X83598458Y-31834885D01*
X83575750Y-31841346D01*
X83567344Y-31843119D01*
X83543973Y-31846380D01*
X83543962Y-31846382D01*
X83466160Y-31872459D01*
X83463425Y-31873306D01*
X83427842Y-31883430D01*
X83384472Y-31895771D01*
X83384470Y-31895771D01*
X83384466Y-31895773D01*
X83363337Y-31906294D01*
X83355399Y-31909582D01*
X83333017Y-31917083D01*
X83261325Y-31957015D01*
X83258793Y-31958350D01*
X83185309Y-31994943D01*
X83180742Y-31998392D01*
X83166465Y-32009172D01*
X83159274Y-32013857D01*
X83155019Y-32016228D01*
X83138652Y-32025344D01*
X83138644Y-32025350D01*
X83075495Y-32077787D01*
X83073251Y-32079564D01*
X83007760Y-32129022D01*
X82952469Y-32189673D01*
X82950492Y-32191744D01*
X78381745Y-36760491D01*
X78379674Y-36762468D01*
X78319023Y-36817759D01*
X78269565Y-36883250D01*
X78267788Y-36885494D01*
X78215351Y-36948643D01*
X78215345Y-36948651D01*
X78203861Y-36969270D01*
X78199173Y-36976464D01*
X78191576Y-36986524D01*
X78184944Y-36995308D01*
X78148351Y-37068792D01*
X78147016Y-37071324D01*
X78107084Y-37143016D01*
X78099583Y-37165398D01*
X78096295Y-37173336D01*
X78085774Y-37194465D01*
X78085772Y-37194472D01*
X78063307Y-37273424D01*
X78062460Y-37276159D01*
X78036383Y-37353961D01*
X78036381Y-37353972D01*
X78033120Y-37377343D01*
X78031347Y-37385749D01*
X78024886Y-37408457D01*
X78024886Y-37408461D01*
X78017311Y-37490203D01*
X78016981Y-37493047D01*
X78005645Y-37574313D01*
X78005645Y-37574316D01*
X78005645Y-37574318D01*
X78006006Y-37582116D01*
X78009435Y-37656299D01*
X78009501Y-37659162D01*
X78009501Y-42985836D01*
X78009435Y-42988699D01*
X78005645Y-43070685D01*
X78016981Y-43151951D01*
X78017311Y-43154795D01*
X78024885Y-43236536D01*
X78031348Y-43259250D01*
X78033122Y-43267660D01*
X78036382Y-43291032D01*
X78036383Y-43291034D01*
X78058943Y-43358347D01*
X78062460Y-43368838D01*
X78063306Y-43371571D01*
X78085772Y-43450529D01*
X78096296Y-43471664D01*
X78099581Y-43479596D01*
X78107086Y-43501988D01*
X78109403Y-43507234D01*
X78108208Y-43507761D01*
X78122193Y-43569578D01*
X78122124Y-43570604D01*
X78104645Y-43814998D01*
X78104645Y-43815001D01*
X78124039Y-44086160D01*
X78124040Y-44086167D01*
X78173224Y-44312263D01*
X78181825Y-44351801D01*
X78239221Y-44505684D01*
X78276830Y-44606519D01*
X78407109Y-44845107D01*
X78407110Y-44845108D01*
X78407113Y-44845113D01*
X78570029Y-45062742D01*
X78570033Y-45062746D01*
X78570038Y-45062752D01*
X78762247Y-45254961D01*
X78762253Y-45254966D01*
X78762258Y-45254971D01*
X78979887Y-45417887D01*
X78979891Y-45417889D01*
X78979892Y-45417890D01*
X79218481Y-45548169D01*
X79218480Y-45548169D01*
X79218484Y-45548170D01*
X79218487Y-45548172D01*
X79473199Y-45643175D01*
X79738840Y-45700961D01*
X79990605Y-45718967D01*
X80009999Y-45720355D01*
X80010000Y-45720355D01*
X80010001Y-45720355D01*
X80028100Y-45719060D01*
X80281160Y-45700961D01*
X80546801Y-45643175D01*
X80801513Y-45548172D01*
X80801517Y-45548169D01*
X80801519Y-45548169D01*
X80920813Y-45483029D01*
X81040113Y-45417887D01*
X81257742Y-45254971D01*
X81449971Y-45062742D01*
X81612887Y-44845113D01*
X81678029Y-44725813D01*
X81743169Y-44606519D01*
X81743169Y-44606517D01*
X81743172Y-44606513D01*
X81838175Y-44351801D01*
X81895961Y-44086160D01*
X81915355Y-43815000D01*
X81895961Y-43543840D01*
X81838175Y-43278199D01*
X81743172Y-43023487D01*
X81743170Y-43023484D01*
X81743169Y-43023480D01*
X81612890Y-42784892D01*
X81612889Y-42784891D01*
X81612887Y-42784887D01*
X81449971Y-42567258D01*
X81449966Y-42567253D01*
X81449961Y-42567247D01*
X81257752Y-42375038D01*
X81257746Y-42375033D01*
X81257742Y-42375029D01*
X81040113Y-42212113D01*
X81040108Y-42212110D01*
X81040107Y-42212109D01*
X80801518Y-42081830D01*
X80801519Y-42081830D01*
X80730124Y-42055201D01*
X80546801Y-41986825D01*
X80546797Y-41986824D01*
X80546794Y-41986823D01*
X80508142Y-41978415D01*
X80446819Y-41944930D01*
X80413335Y-41883607D01*
X80410501Y-41857249D01*
X80410501Y-41447577D01*
X80430186Y-41380538D01*
X80482990Y-41334783D01*
X80552148Y-41324839D01*
X80615704Y-41353864D01*
X80622182Y-41359896D01*
X80667247Y-41404961D01*
X80667253Y-41404966D01*
X80667258Y-41404971D01*
X80884887Y-41567887D01*
X80884891Y-41567889D01*
X80884892Y-41567890D01*
X81123481Y-41698169D01*
X81123480Y-41698169D01*
X81123484Y-41698170D01*
X81123487Y-41698172D01*
X81378199Y-41793175D01*
X81643840Y-41850961D01*
X81895605Y-41868967D01*
X81914999Y-41870355D01*
X81915000Y-41870355D01*
X81915001Y-41870355D01*
X81933100Y-41869060D01*
X82186160Y-41850961D01*
X82451801Y-41793175D01*
X82706513Y-41698172D01*
X82706517Y-41698169D01*
X82706519Y-41698169D01*
X82825813Y-41633029D01*
X82945113Y-41567887D01*
X83162742Y-41404971D01*
X83354971Y-41212742D01*
X83383083Y-41175188D01*
X83439017Y-41133318D01*
X83482350Y-41125500D01*
X84822594Y-41125500D01*
X84889633Y-41145185D01*
X84916359Y-41170067D01*
X84917132Y-41169398D01*
X84920038Y-41172752D01*
X85112247Y-41364961D01*
X85112254Y-41364967D01*
X85112258Y-41364971D01*
X85112261Y-41364973D01*
X85115602Y-41367868D01*
X85114384Y-41369273D01*
X85151658Y-41419007D01*
X85159500Y-41462405D01*
X85159500Y-44420835D01*
X85159434Y-44423698D01*
X85155644Y-44505684D01*
X85166980Y-44586950D01*
X85167310Y-44589794D01*
X85174884Y-44671535D01*
X85181347Y-44694249D01*
X85183121Y-44702659D01*
X85186381Y-44726031D01*
X85186382Y-44726033D01*
X85212459Y-44803837D01*
X85213305Y-44806570D01*
X85235771Y-44885528D01*
X85246295Y-44906663D01*
X85249580Y-44914595D01*
X85257085Y-44936987D01*
X85257086Y-44936989D01*
X85297024Y-45008690D01*
X85298360Y-45011224D01*
X85334937Y-45084679D01*
X85334944Y-45084692D01*
X85349170Y-45103531D01*
X85353856Y-45110723D01*
X85365348Y-45131353D01*
X85400804Y-45174050D01*
X85417782Y-45194496D01*
X85419560Y-45196742D01*
X85469016Y-45262233D01*
X85469018Y-45262236D01*
X85529673Y-45317530D01*
X85531745Y-45319508D01*
X92743181Y-52530944D01*
X92776666Y-52592267D01*
X92779500Y-52618625D01*
X92779500Y-56601375D01*
X92759815Y-56668414D01*
X92743181Y-56689056D01*
X89074056Y-60358181D01*
X89012733Y-60391666D01*
X88986375Y-60394500D01*
X88461773Y-60394500D01*
X88394734Y-60374815D01*
X88348979Y-60322011D01*
X88339035Y-60252853D01*
X88368060Y-60189297D01*
X88418440Y-60154318D01*
X88421513Y-60153172D01*
X88660113Y-60022887D01*
X88877742Y-59859971D01*
X89069971Y-59667742D01*
X89232887Y-59450113D01*
X89308859Y-59310980D01*
X89363169Y-59211519D01*
X89363169Y-59211517D01*
X89363172Y-59211513D01*
X89458175Y-58956801D01*
X89515961Y-58691160D01*
X89535355Y-58420000D01*
X89515961Y-58148840D01*
X89458175Y-57883199D01*
X89363172Y-57628487D01*
X89363170Y-57628484D01*
X89363169Y-57628480D01*
X89232890Y-57389892D01*
X89232889Y-57389891D01*
X89232887Y-57389887D01*
X89069971Y-57172258D01*
X89069966Y-57172253D01*
X89069961Y-57172247D01*
X88877749Y-56980036D01*
X88877742Y-56980029D01*
X88877734Y-56980023D01*
X88874392Y-56977127D01*
X88875597Y-56975735D01*
X88838311Y-56925907D01*
X88830500Y-56882594D01*
X88830500Y-55029071D01*
X88850185Y-54962032D01*
X88870159Y-54938172D01*
X88873412Y-54935154D01*
X88918643Y-54893186D01*
X89082458Y-54687769D01*
X89213827Y-54460231D01*
X89309816Y-54215655D01*
X89368281Y-53959504D01*
X89375581Y-53862086D01*
X89383000Y-53763094D01*
X89383000Y-53536906D01*
X89368281Y-53340498D01*
X89336730Y-53202263D01*
X89309816Y-53084345D01*
X89213827Y-52839769D01*
X89082458Y-52612231D01*
X88918643Y-52406814D01*
X88859478Y-52351917D01*
X88823724Y-52291891D01*
X88820350Y-52272467D01*
X88815115Y-52215964D01*
X88809885Y-52197584D01*
X88808652Y-52193249D01*
X88806877Y-52184834D01*
X88803619Y-52161474D01*
X88803618Y-52161473D01*
X88803618Y-52161467D01*
X88777534Y-52083643D01*
X88776701Y-52080954D01*
X88754229Y-52001972D01*
X88743705Y-51980839D01*
X88740420Y-51972908D01*
X88732915Y-51950515D01*
X88732914Y-51950512D01*
X88700746Y-51892761D01*
X88692955Y-51878775D01*
X88691649Y-51876296D01*
X88655058Y-51802811D01*
X88655057Y-51802810D01*
X88655057Y-51802809D01*
X88640831Y-51783971D01*
X88636138Y-51776769D01*
X88624652Y-51756147D01*
X88572210Y-51692994D01*
X88570437Y-51690756D01*
X88568098Y-51687659D01*
X88530462Y-51637819D01*
X88520979Y-51625261D01*
X88464054Y-51573368D01*
X88460316Y-51569960D01*
X88458253Y-51567990D01*
X86227008Y-49336745D01*
X86225030Y-49334673D01*
X86169736Y-49274018D01*
X86169733Y-49274016D01*
X86104242Y-49224560D01*
X86101996Y-49222782D01*
X86038853Y-49170348D01*
X86018223Y-49158856D01*
X86011031Y-49154170D01*
X85992192Y-49139944D01*
X85992190Y-49139943D01*
X85992189Y-49139942D01*
X85977961Y-49132857D01*
X85918724Y-49103360D01*
X85916190Y-49102024D01*
X85844489Y-49062086D01*
X85844487Y-49062085D01*
X85822095Y-49054580D01*
X85814163Y-49051295D01*
X85799885Y-49044185D01*
X85793029Y-49040771D01*
X85714073Y-49018306D01*
X85711355Y-49017464D01*
X85633533Y-48991382D01*
X85633531Y-48991381D01*
X85610159Y-48988121D01*
X85601749Y-48986347D01*
X85579035Y-48979884D01*
X85497294Y-48972310D01*
X85494450Y-48971980D01*
X85413184Y-48960644D01*
X85413181Y-48960644D01*
X85375778Y-48962373D01*
X85331200Y-48964434D01*
X85328337Y-48964500D01*
X77383625Y-48964500D01*
X77316586Y-48944815D01*
X77295944Y-48928181D01*
X74529508Y-46161745D01*
X74527530Y-46159673D01*
X74472236Y-46099018D01*
X74472233Y-46099016D01*
X74406742Y-46049560D01*
X74404496Y-46047782D01*
X74394388Y-46039388D01*
X74341353Y-45995348D01*
X74320723Y-45983856D01*
X74313531Y-45979170D01*
X74294692Y-45964944D01*
X74294690Y-45964943D01*
X74294689Y-45964942D01*
X74294677Y-45964936D01*
X74221224Y-45928360D01*
X74218690Y-45927024D01*
X74146989Y-45887086D01*
X74146987Y-45887085D01*
X74124595Y-45879580D01*
X74116663Y-45876295D01*
X74102385Y-45869185D01*
X74095529Y-45865771D01*
X74016573Y-45843306D01*
X74013855Y-45842464D01*
X73936033Y-45816382D01*
X73936031Y-45816381D01*
X73912659Y-45813121D01*
X73904249Y-45811347D01*
X73881535Y-45804884D01*
X73799794Y-45797310D01*
X73796950Y-45796980D01*
X73715684Y-45785644D01*
X73715681Y-45785644D01*
X73678278Y-45787373D01*
X73633700Y-45789434D01*
X73630837Y-45789500D01*
X70514164Y-45789500D01*
X70511301Y-45789434D01*
X70477023Y-45787849D01*
X70429319Y-45785644D01*
X70429317Y-45785644D01*
X70429314Y-45785644D01*
X70348049Y-45796980D01*
X70345205Y-45797310D01*
X70263463Y-45804885D01*
X70263456Y-45804886D01*
X70240745Y-45811348D01*
X70232345Y-45813120D01*
X70208968Y-45816382D01*
X70208965Y-45816382D01*
X70208965Y-45816383D01*
X70131164Y-45842458D01*
X70128429Y-45843304D01*
X70049471Y-45865770D01*
X70028337Y-45876293D01*
X70020401Y-45879581D01*
X69998009Y-45887087D01*
X69926302Y-45927027D01*
X69923770Y-45928361D01*
X69850321Y-45964936D01*
X69850304Y-45964946D01*
X69831476Y-45979164D01*
X69824278Y-45983854D01*
X69803647Y-45995346D01*
X69803637Y-45995353D01*
X69740503Y-46047781D01*
X69738259Y-46049558D01*
X69716899Y-46065689D01*
X69651539Y-46090383D01*
X69583204Y-46075819D01*
X69533590Y-46026623D01*
X69518170Y-45966737D01*
X69518170Y-43990954D01*
X69537855Y-43923915D01*
X69554484Y-43903278D01*
X74743264Y-38714497D01*
X74745303Y-38712550D01*
X74805981Y-38657236D01*
X74855452Y-38591722D01*
X74857189Y-38589529D01*
X74909652Y-38526353D01*
X74921149Y-38505710D01*
X74925822Y-38498539D01*
X74940058Y-38479689D01*
X74976648Y-38406205D01*
X74977965Y-38403705D01*
X75017915Y-38331985D01*
X75025416Y-38309601D01*
X75028707Y-38301658D01*
X75039227Y-38280532D01*
X75039226Y-38280532D01*
X75039229Y-38280528D01*
X75061705Y-38201530D01*
X75062525Y-38198880D01*
X75088618Y-38121033D01*
X75091879Y-38097644D01*
X75093648Y-38089259D01*
X75100115Y-38066536D01*
X75107692Y-37984758D01*
X75108011Y-37982002D01*
X75119356Y-37900681D01*
X75115566Y-37818698D01*
X75115500Y-37815835D01*
X75115500Y-37298564D01*
X75135185Y-37231525D01*
X75161243Y-37202377D01*
X75324687Y-37069406D01*
X75517088Y-36863395D01*
X75679645Y-36633105D01*
X75809330Y-36382824D01*
X75903728Y-36117215D01*
X75903728Y-36117210D01*
X75903731Y-36117204D01*
X75947194Y-35908044D01*
X75961079Y-35841227D01*
X75980315Y-35560000D01*
X75961079Y-35278773D01*
X75931907Y-35138389D01*
X75903731Y-35002795D01*
X75903726Y-35002779D01*
X75820458Y-34768487D01*
X75809331Y-34737179D01*
X75809332Y-34737179D01*
X75701924Y-34529892D01*
X75679645Y-34486895D01*
X75517088Y-34256605D01*
X75517083Y-34256599D01*
X75354276Y-34082276D01*
X75324687Y-34050594D01*
X75324685Y-34050593D01*
X75324683Y-34050590D01*
X75106023Y-33872697D01*
X74865177Y-33726235D01*
X74606633Y-33613934D01*
X74335207Y-33537884D01*
X74335202Y-33537883D01*
X74335201Y-33537883D01*
X74166022Y-33514630D01*
X74055943Y-33499500D01*
X74055942Y-33499500D01*
X73774058Y-33499500D01*
X73774057Y-33499500D01*
X73494799Y-33537883D01*
X73494792Y-33537884D01*
X73223366Y-33613934D01*
X72964822Y-33726235D01*
X72723976Y-33872697D01*
X72505316Y-34050590D01*
X72312916Y-34256599D01*
X72312916Y-34256600D01*
X72312913Y-34256602D01*
X72312912Y-34256605D01*
X72273628Y-34312258D01*
X72150355Y-34486894D01*
X72020668Y-34737179D01*
X71926273Y-35002779D01*
X71926268Y-35002795D01*
X71868921Y-35278770D01*
X71868920Y-35278772D01*
X71849685Y-35560000D01*
X71868920Y-35841227D01*
X71868921Y-35841229D01*
X71926268Y-36117204D01*
X71926273Y-36117220D01*
X72020668Y-36382820D01*
X72020667Y-36382820D01*
X72128075Y-36590107D01*
X72150355Y-36633105D01*
X72312912Y-36863395D01*
X72312916Y-36863399D01*
X72312916Y-36863400D01*
X72505316Y-37069409D01*
X72667547Y-37201394D01*
X72707128Y-37258971D01*
X72709296Y-37328807D01*
X72676973Y-37385263D01*
X70092288Y-39969947D01*
X67489393Y-42572842D01*
X67487344Y-42574799D01*
X67426689Y-42630093D01*
X67377234Y-42695581D01*
X67375457Y-42697825D01*
X67323020Y-42760974D01*
X67323014Y-42760982D01*
X67311530Y-42781601D01*
X67306842Y-42788795D01*
X67299245Y-42798855D01*
X67292613Y-42807639D01*
X67256020Y-42881123D01*
X67254685Y-42883655D01*
X67214753Y-42955347D01*
X67207252Y-42977729D01*
X67203964Y-42985667D01*
X67193443Y-43006796D01*
X67193441Y-43006803D01*
X67170976Y-43085755D01*
X67170129Y-43088490D01*
X67144052Y-43166292D01*
X67144050Y-43166303D01*
X67140789Y-43189674D01*
X67139016Y-43198080D01*
X67132555Y-43220788D01*
X67132555Y-43220792D01*
X67124980Y-43302534D01*
X67124650Y-43305378D01*
X67113314Y-43386644D01*
X67117104Y-43468630D01*
X67117170Y-43471493D01*
X67117170Y-47897928D01*
X67097485Y-47964967D01*
X67096980Y-47965748D01*
X67081745Y-47989067D01*
X66988512Y-48201614D01*
X66931536Y-48426606D01*
X66931534Y-48426617D01*
X66912370Y-48657908D01*
X66912370Y-48657921D01*
X66931534Y-48889212D01*
X66931536Y-48889223D01*
X66988512Y-49114215D01*
X67081745Y-49326763D01*
X67208686Y-49521062D01*
X67208689Y-49521066D01*
X67208691Y-49521068D01*
X67365886Y-49691828D01*
X67365889Y-49691830D01*
X67365892Y-49691833D01*
X67549035Y-49834379D01*
X67549041Y-49834383D01*
X67549044Y-49834385D01*
X67753167Y-49944851D01*
X67828023Y-49970549D01*
X67972685Y-50020212D01*
X67972687Y-50020212D01*
X67972689Y-50020213D01*
X68201621Y-50058415D01*
X68201622Y-50058415D01*
X68433718Y-50058415D01*
X68433719Y-50058415D01*
X68662651Y-50020213D01*
X68882173Y-49944851D01*
X69086296Y-49834385D01*
X69143838Y-49789598D01*
X69208830Y-49763955D01*
X69277370Y-49777521D01*
X69296157Y-49789595D01*
X69353701Y-49834383D01*
X69353706Y-49834386D01*
X69476820Y-49901012D01*
X69526411Y-49950231D01*
X69541519Y-50018448D01*
X69517349Y-50084004D01*
X69505484Y-50097748D01*
X69294074Y-50309159D01*
X69292003Y-50311136D01*
X69231352Y-50366427D01*
X69181894Y-50431918D01*
X69180117Y-50434162D01*
X69127680Y-50497311D01*
X69127674Y-50497319D01*
X69116190Y-50517938D01*
X69111502Y-50525132D01*
X69103905Y-50535192D01*
X69097273Y-50543976D01*
X69060680Y-50617460D01*
X69059345Y-50619992D01*
X69019413Y-50691684D01*
X69011912Y-50714066D01*
X69008624Y-50722004D01*
X68998103Y-50743133D01*
X68998101Y-50743140D01*
X68975636Y-50822092D01*
X68974789Y-50824827D01*
X68948712Y-50902629D01*
X68948710Y-50902640D01*
X68945449Y-50926011D01*
X68943676Y-50934417D01*
X68937215Y-50957125D01*
X68937215Y-50957129D01*
X68929640Y-51038871D01*
X68929310Y-51041715D01*
X68917974Y-51122981D01*
X68921764Y-51204967D01*
X68921830Y-51207830D01*
X68921830Y-53452098D01*
X68902145Y-53519137D01*
X68901640Y-53519918D01*
X68886405Y-53543237D01*
X68793172Y-53755784D01*
X68736196Y-53980776D01*
X68736194Y-53980787D01*
X68717030Y-54212078D01*
X68717030Y-54212091D01*
X68736194Y-54443382D01*
X68736196Y-54443393D01*
X68793172Y-54668385D01*
X68886405Y-54880933D01*
X68901637Y-54904246D01*
X68921826Y-54971136D01*
X68921830Y-54972070D01*
X68921830Y-56329045D01*
X68902145Y-56396084D01*
X68885511Y-56416726D01*
X68119056Y-57183181D01*
X68057733Y-57216666D01*
X68031375Y-57219500D01*
X65672406Y-57219500D01*
X65605367Y-57199815D01*
X65578640Y-57174932D01*
X65577868Y-57175602D01*
X65574973Y-57172261D01*
X65574971Y-57172258D01*
X65574967Y-57172254D01*
X65574961Y-57172247D01*
X65382752Y-56980038D01*
X65382746Y-56980033D01*
X65382742Y-56980029D01*
X65165113Y-56817113D01*
X65165108Y-56817110D01*
X65165107Y-56817109D01*
X64926518Y-56686830D01*
X64926519Y-56686830D01*
X64846040Y-56656813D01*
X64671801Y-56591825D01*
X64671794Y-56591823D01*
X64671793Y-56591823D01*
X64406167Y-56534040D01*
X64406160Y-56534039D01*
X64135001Y-56514645D01*
X64134999Y-56514645D01*
X63997748Y-56524461D01*
X63929475Y-56509609D01*
X63901221Y-56488458D01*
X61839508Y-54426745D01*
X61837530Y-54424673D01*
X61782236Y-54364018D01*
X61782233Y-54364016D01*
X61716742Y-54314560D01*
X61714496Y-54312782D01*
X61651353Y-54260348D01*
X61630723Y-54248856D01*
X61623531Y-54244170D01*
X61604692Y-54229944D01*
X61604690Y-54229943D01*
X61604689Y-54229942D01*
X61583207Y-54219245D01*
X61531224Y-54193360D01*
X61528690Y-54192024D01*
X61456989Y-54152086D01*
X61456987Y-54152085D01*
X61434595Y-54144580D01*
X61426663Y-54141295D01*
X61412385Y-54134185D01*
X61405529Y-54130771D01*
X61326573Y-54108306D01*
X61323855Y-54107464D01*
X61246033Y-54081382D01*
X61246031Y-54081381D01*
X61222659Y-54078121D01*
X61214249Y-54076347D01*
X61191535Y-54069884D01*
X61109794Y-54062310D01*
X61106950Y-54061980D01*
X61025684Y-54050644D01*
X61025681Y-54050644D01*
X60988278Y-54052373D01*
X60943700Y-54054434D01*
X60940837Y-54054500D01*
X60853996Y-54054500D01*
X60786957Y-54034815D01*
X60741202Y-53982011D01*
X60731258Y-53912853D01*
X60760283Y-53849297D01*
X60797560Y-53821756D01*
X60796975Y-53820706D01*
X60818391Y-53808776D01*
X60873705Y-53777965D01*
X60876209Y-53776646D01*
X60876215Y-53776643D01*
X60949689Y-53740058D01*
X60968539Y-53725822D01*
X60975710Y-53721149D01*
X60996353Y-53709652D01*
X61059529Y-53657189D01*
X61061722Y-53655452D01*
X61127236Y-53605981D01*
X61182550Y-53545303D01*
X61184497Y-53543264D01*
X63102820Y-51624941D01*
X63164142Y-51591458D01*
X63233834Y-51596442D01*
X63289767Y-51638314D01*
X63314184Y-51703778D01*
X63314500Y-51712624D01*
X63314500Y-51942155D01*
X63314434Y-51945018D01*
X63313822Y-51958256D01*
X63311231Y-52014316D01*
X63310644Y-52027004D01*
X63321980Y-52108270D01*
X63322310Y-52111114D01*
X63329884Y-52192855D01*
X63336347Y-52215569D01*
X63338121Y-52223979D01*
X63341381Y-52247351D01*
X63341382Y-52247353D01*
X63365963Y-52320696D01*
X63367459Y-52325157D01*
X63368306Y-52327893D01*
X63390760Y-52406812D01*
X63390771Y-52406848D01*
X63401295Y-52427983D01*
X63404580Y-52435915D01*
X63412085Y-52458307D01*
X63412086Y-52458309D01*
X63452024Y-52530010D01*
X63453360Y-52532544D01*
X63489937Y-52605999D01*
X63489944Y-52606012D01*
X63504170Y-52624851D01*
X63508856Y-52632043D01*
X63520348Y-52652673D01*
X63543459Y-52680504D01*
X63572782Y-52715816D01*
X63574560Y-52718062D01*
X63624016Y-52783553D01*
X63624018Y-52783556D01*
X63684673Y-52838850D01*
X63686745Y-52840828D01*
X64825503Y-53979586D01*
X64827473Y-53981649D01*
X64830528Y-53985000D01*
X64882776Y-54042314D01*
X64898914Y-54054500D01*
X64948291Y-54091787D01*
X64950483Y-54093524D01*
X65013659Y-54145985D01*
X65013661Y-54145986D01*
X65013662Y-54145987D01*
X65023720Y-54151588D01*
X65034285Y-54157473D01*
X65041478Y-54162159D01*
X65060324Y-54176391D01*
X65133808Y-54212982D01*
X65136320Y-54214307D01*
X65152632Y-54223392D01*
X65208028Y-54254247D01*
X65208031Y-54254248D01*
X65208033Y-54254249D01*
X65215933Y-54256896D01*
X65230415Y-54261750D01*
X65238341Y-54265033D01*
X65259485Y-54275562D01*
X65259487Y-54275562D01*
X65259488Y-54275563D01*
X65338440Y-54298026D01*
X65341177Y-54298874D01*
X65382673Y-54312782D01*
X65418980Y-54324951D01*
X65418986Y-54324951D01*
X65418987Y-54324952D01*
X65442347Y-54328210D01*
X65450762Y-54329985D01*
X65456344Y-54331573D01*
X65473477Y-54336448D01*
X65555248Y-54344024D01*
X65558014Y-54344345D01*
X65639332Y-54355689D01*
X65715311Y-54352176D01*
X65721313Y-54351899D01*
X65724176Y-54351833D01*
X66102046Y-54351833D01*
X66161062Y-54366777D01*
X66293167Y-54438269D01*
X66407157Y-54477401D01*
X66512685Y-54513630D01*
X66512687Y-54513630D01*
X66512689Y-54513631D01*
X66741621Y-54551833D01*
X66741622Y-54551833D01*
X66973718Y-54551833D01*
X66973719Y-54551833D01*
X67202651Y-54513631D01*
X67422173Y-54438269D01*
X67626296Y-54327803D01*
X67629961Y-54324951D01*
X67693414Y-54275563D01*
X67809454Y-54185246D01*
X67966649Y-54014486D01*
X68093594Y-53820182D01*
X68186827Y-53607633D01*
X68243804Y-53382638D01*
X68256251Y-53232421D01*
X68262970Y-53151339D01*
X68262970Y-53151326D01*
X68243805Y-52920035D01*
X68243803Y-52920024D01*
X68186827Y-52695032D01*
X68093594Y-52482484D01*
X67966653Y-52288185D01*
X67966650Y-52288182D01*
X67966649Y-52288180D01*
X67809454Y-52117420D01*
X67809449Y-52117416D01*
X67809447Y-52117414D01*
X67626304Y-51974868D01*
X67626298Y-51974864D01*
X67422174Y-51864397D01*
X67422165Y-51864394D01*
X67202654Y-51789035D01*
X67005540Y-51756143D01*
X66973719Y-51750833D01*
X66741621Y-51750833D01*
X66709800Y-51756143D01*
X66512685Y-51789035D01*
X66293175Y-51864394D01*
X66293171Y-51864395D01*
X66293167Y-51864397D01*
X66293164Y-51864398D01*
X66293153Y-51864403D01*
X66252932Y-51886169D01*
X66184604Y-51900763D01*
X66119232Y-51876098D01*
X66106237Y-51864794D01*
X65751819Y-51510376D01*
X65718334Y-51449053D01*
X65715500Y-51422695D01*
X65715500Y-37743082D01*
X65735185Y-37676043D01*
X65787989Y-37630288D01*
X65825617Y-37619862D01*
X65954249Y-37605369D01*
X65954252Y-37605368D01*
X65954255Y-37605368D01*
X66124522Y-37545789D01*
X66277262Y-37449816D01*
X66404816Y-37322262D01*
X66500789Y-37169522D01*
X66560368Y-36999255D01*
X66560813Y-36995310D01*
X66567934Y-36932104D01*
X66575500Y-36864954D01*
X66575500Y-34917625D01*
X66595185Y-34850586D01*
X66647989Y-34804831D01*
X66717147Y-34794887D01*
X66780703Y-34823912D01*
X66787181Y-34829944D01*
X67133477Y-35176240D01*
X67166962Y-35237563D01*
X67168399Y-35274491D01*
X67169210Y-35274547D01*
X67149685Y-35560000D01*
X67168920Y-35841227D01*
X67168921Y-35841229D01*
X67226268Y-36117204D01*
X67226273Y-36117220D01*
X67320668Y-36382820D01*
X67320667Y-36382820D01*
X67428075Y-36590107D01*
X67450355Y-36633105D01*
X67612912Y-36863395D01*
X67612916Y-36863399D01*
X67612916Y-36863400D01*
X67805316Y-37069409D01*
X67839728Y-37097405D01*
X68023973Y-37247300D01*
X68023975Y-37247301D01*
X68023976Y-37247302D01*
X68264822Y-37393764D01*
X68397740Y-37451498D01*
X68523368Y-37506066D01*
X68794799Y-37582117D01*
X69040312Y-37615861D01*
X69074057Y-37620500D01*
X69074058Y-37620500D01*
X69355943Y-37620500D01*
X69386049Y-37616361D01*
X69635201Y-37582117D01*
X69906632Y-37506066D01*
X70165179Y-37393763D01*
X70406027Y-37247300D01*
X70624687Y-37069406D01*
X70817088Y-36863395D01*
X70979645Y-36633105D01*
X71109330Y-36382824D01*
X71203728Y-36117215D01*
X71203728Y-36117210D01*
X71203731Y-36117204D01*
X71247194Y-35908044D01*
X71261079Y-35841227D01*
X71280315Y-35560000D01*
X71261079Y-35278773D01*
X71231907Y-35138389D01*
X71203731Y-35002795D01*
X71203726Y-35002779D01*
X71120458Y-34768487D01*
X71109331Y-34737179D01*
X71109332Y-34737179D01*
X71001924Y-34529892D01*
X70979645Y-34486895D01*
X70817088Y-34256605D01*
X70817083Y-34256599D01*
X70654276Y-34082276D01*
X70624687Y-34050594D01*
X70624685Y-34050593D01*
X70624683Y-34050590D01*
X70406023Y-33872697D01*
X70165177Y-33726235D01*
X69906633Y-33613934D01*
X69635207Y-33537884D01*
X69635202Y-33537883D01*
X69635201Y-33537883D01*
X69466022Y-33514630D01*
X69355943Y-33499500D01*
X69355942Y-33499500D01*
X69074058Y-33499500D01*
X69074056Y-33499500D01*
X68940078Y-33517914D01*
X68870983Y-33507541D01*
X68835513Y-33482750D01*
X66569944Y-31217181D01*
X66536459Y-31155858D01*
X66541443Y-31086166D01*
X66583315Y-31030233D01*
X66648779Y-31005816D01*
X66657625Y-31005500D01*
X80377594Y-31005500D01*
X80444633Y-31025185D01*
X80471359Y-31050067D01*
X80472132Y-31049398D01*
X80475038Y-31052752D01*
X80667247Y-31244961D01*
X80667253Y-31244966D01*
X80667258Y-31244971D01*
X80884887Y-31407887D01*
X80884891Y-31407889D01*
X80884892Y-31407890D01*
X81123481Y-31538169D01*
X81123480Y-31538169D01*
X81123484Y-31538170D01*
X81123487Y-31538172D01*
X81378199Y-31633175D01*
X81643840Y-31690961D01*
X81895605Y-31708967D01*
X81914999Y-31710355D01*
X81915000Y-31710355D01*
X81915001Y-31710355D01*
X81933100Y-31709060D01*
X82186160Y-31690961D01*
X82451801Y-31633175D01*
X82706513Y-31538172D01*
X82706517Y-31538169D01*
X82706519Y-31538169D01*
X82825813Y-31473029D01*
X82945113Y-31407887D01*
X83162742Y-31244971D01*
X83354971Y-31052742D01*
X83517887Y-30835113D01*
X83648172Y-30596513D01*
X83743175Y-30341801D01*
X83800961Y-30076160D01*
X83820355Y-29805000D01*
X83800961Y-29533840D01*
X83743175Y-29268199D01*
X83648172Y-29013487D01*
X83648170Y-29013484D01*
X83648169Y-29013480D01*
X83517890Y-28774892D01*
X83517889Y-28774891D01*
X83517887Y-28774887D01*
X83354971Y-28557258D01*
X83354966Y-28557253D01*
X83354961Y-28557247D01*
X83162752Y-28365038D01*
X83162746Y-28365033D01*
X83162742Y-28365029D01*
X82945113Y-28202113D01*
X82945108Y-28202110D01*
X82945107Y-28202109D01*
X82706518Y-28071830D01*
X82706519Y-28071830D01*
X82656920Y-28053330D01*
X82451801Y-27976825D01*
X82451794Y-27976823D01*
X82451793Y-27976823D01*
X82186167Y-27919040D01*
X82186160Y-27919039D01*
X81915001Y-27899645D01*
X81914999Y-27899645D01*
X81643839Y-27919039D01*
X81643832Y-27919040D01*
X81378206Y-27976823D01*
X81378202Y-27976824D01*
X81378199Y-27976825D01*
X81250843Y-28024326D01*
X81123480Y-28071830D01*
X80884892Y-28202109D01*
X80884891Y-28202110D01*
X80667259Y-28365028D01*
X80667247Y-28365038D01*
X80475038Y-28557247D01*
X80472132Y-28560602D01*
X80470738Y-28559394D01*
X80420924Y-28596683D01*
X80377594Y-28604500D01*
X50194163Y-28604500D01*
X50191300Y-28604434D01*
X50157118Y-28602853D01*
X50109319Y-28600644D01*
X50109317Y-28600644D01*
X50109314Y-28600644D01*
X50028048Y-28611980D01*
X50025204Y-28612310D01*
X49943462Y-28619885D01*
X49937824Y-28620939D01*
X49937549Y-28619472D01*
X49885570Y-28621101D01*
X49761171Y-28594040D01*
X49761160Y-28594039D01*
X49490001Y-28574645D01*
X49489999Y-28574645D01*
X49218839Y-28594039D01*
X49218832Y-28594040D01*
X48953206Y-28651823D01*
X48953202Y-28651824D01*
X48953199Y-28651825D01*
X48825843Y-28699326D01*
X48698480Y-28746830D01*
X48459892Y-28877109D01*
X48459891Y-28877110D01*
X48242259Y-29040028D01*
X48242247Y-29040038D01*
X48050038Y-29232247D01*
X48050028Y-29232259D01*
X47887110Y-29449891D01*
X47887109Y-29449892D01*
X47756830Y-29688480D01*
X47713371Y-29804998D01*
X47661825Y-29943199D01*
X47661824Y-29943202D01*
X47661823Y-29943206D01*
X47604040Y-30208832D01*
X47604039Y-30208839D01*
X47584645Y-30479998D01*
X47584645Y-30480001D01*
X47604039Y-30751160D01*
X47604040Y-30751167D01*
X47659435Y-31005816D01*
X47661825Y-31016801D01*
X47710442Y-31147147D01*
X47756830Y-31271519D01*
X47887109Y-31510107D01*
X47887110Y-31510108D01*
X47887113Y-31510113D01*
X48050029Y-31727742D01*
X48050033Y-31727746D01*
X48050038Y-31727752D01*
X48242247Y-31919961D01*
X48242254Y-31919967D01*
X48242258Y-31919971D01*
X48242261Y-31919973D01*
X48245602Y-31922868D01*
X48244384Y-31924273D01*
X48281658Y-31974007D01*
X48289500Y-32017405D01*
X48289500Y-34220835D01*
X48289434Y-34223698D01*
X48285644Y-34305684D01*
X48296980Y-34386950D01*
X48297310Y-34389794D01*
X48304884Y-34471535D01*
X48311347Y-34494249D01*
X48313121Y-34502659D01*
X48316381Y-34526031D01*
X48316382Y-34526033D01*
X48342459Y-34603837D01*
X48343305Y-34606570D01*
X48365771Y-34685528D01*
X48376295Y-34706663D01*
X48379580Y-34714595D01*
X48387085Y-34736987D01*
X48387086Y-34736989D01*
X48427024Y-34808690D01*
X48428360Y-34811224D01*
X48464937Y-34884679D01*
X48464944Y-34884692D01*
X48479170Y-34903531D01*
X48483856Y-34910723D01*
X48495348Y-34931353D01*
X48530442Y-34973614D01*
X48547782Y-34994496D01*
X48549560Y-34996742D01*
X48599016Y-35062233D01*
X48599018Y-35062236D01*
X48659673Y-35117530D01*
X48661745Y-35119508D01*
X49930490Y-36388253D01*
X49932468Y-36390324D01*
X49987762Y-36450980D01*
X50053249Y-36500433D01*
X50055494Y-36502212D01*
X50118646Y-36554653D01*
X50139272Y-36566141D01*
X50146477Y-36570835D01*
X50165309Y-36585057D01*
X50165320Y-36585063D01*
X50197684Y-36601178D01*
X50238781Y-36621642D01*
X50241261Y-36622948D01*
X50313015Y-36662915D01*
X50313019Y-36662916D01*
X50313020Y-36662917D01*
X50320908Y-36665560D01*
X50335408Y-36670420D01*
X50343339Y-36673705D01*
X50364472Y-36684229D01*
X50443446Y-36706699D01*
X50446135Y-36707532D01*
X50523968Y-36733619D01*
X50547362Y-36736882D01*
X50555749Y-36738652D01*
X50578464Y-36745115D01*
X50660228Y-36752690D01*
X50662994Y-36753011D01*
X50744319Y-36764356D01*
X50820272Y-36760844D01*
X50826301Y-36760566D01*
X50829164Y-36760500D01*
X53072594Y-36760500D01*
X53139633Y-36780185D01*
X53166359Y-36805067D01*
X53167132Y-36804398D01*
X53170038Y-36807752D01*
X53362247Y-36999961D01*
X53362253Y-36999966D01*
X53362258Y-36999971D01*
X53579887Y-37162887D01*
X53579891Y-37162889D01*
X53579892Y-37162890D01*
X53818481Y-37293169D01*
X53818480Y-37293169D01*
X53818484Y-37293170D01*
X53818487Y-37293172D01*
X54073199Y-37388175D01*
X54338840Y-37445961D01*
X54590605Y-37463967D01*
X54609999Y-37465355D01*
X54610000Y-37465355D01*
X54747250Y-37455538D01*
X54815523Y-37470390D01*
X54843778Y-37491541D01*
X61628181Y-44275944D01*
X61661666Y-44337267D01*
X61664500Y-44363625D01*
X61664500Y-49616374D01*
X61644815Y-49683413D01*
X61628181Y-49704055D01*
X60152983Y-51179253D01*
X60091660Y-51212738D01*
X60021968Y-51207754D01*
X59966035Y-51165882D01*
X59941618Y-51100418D01*
X59956470Y-51032145D01*
X59957879Y-51029634D01*
X60011568Y-50936643D01*
X60107420Y-50692416D01*
X60165802Y-50436630D01*
X60166384Y-50428862D01*
X60185408Y-50175004D01*
X60185408Y-50174995D01*
X60165803Y-49913379D01*
X60165802Y-49913374D01*
X60165802Y-49913370D01*
X60107420Y-49657584D01*
X60011568Y-49413357D01*
X59880386Y-49186143D01*
X59716805Y-48981019D01*
X59716804Y-48981018D01*
X59716801Y-48981014D01*
X59524479Y-48802567D01*
X59307704Y-48654772D01*
X59307700Y-48654770D01*
X59307697Y-48654768D01*
X59307696Y-48654767D01*
X59071325Y-48540938D01*
X59071327Y-48540938D01*
X58820623Y-48463606D01*
X58820619Y-48463605D01*
X58820615Y-48463604D01*
X58695823Y-48444794D01*
X58561187Y-48424500D01*
X58561182Y-48424500D01*
X58298818Y-48424500D01*
X58298812Y-48424500D01*
X58137247Y-48448853D01*
X58039385Y-48463604D01*
X58039382Y-48463605D01*
X58039376Y-48463606D01*
X57788673Y-48540938D01*
X57552303Y-48654767D01*
X57552302Y-48654768D01*
X57335520Y-48802567D01*
X57143198Y-48981014D01*
X56979614Y-49186143D01*
X56848432Y-49413356D01*
X56752582Y-49657578D01*
X56752576Y-49657597D01*
X56694197Y-49913374D01*
X56694196Y-49913379D01*
X56674592Y-50174995D01*
X56674592Y-50175004D01*
X56694196Y-50436620D01*
X56694197Y-50436625D01*
X56694197Y-50436629D01*
X56694198Y-50436630D01*
X56695047Y-50440348D01*
X56752576Y-50692402D01*
X56752578Y-50692411D01*
X56752580Y-50692416D01*
X56848432Y-50936643D01*
X56979614Y-51163857D01*
X57097821Y-51312084D01*
X57142163Y-51367687D01*
X57168572Y-51432374D01*
X57155815Y-51501069D01*
X57142163Y-51522313D01*
X56979614Y-51726143D01*
X56848432Y-51953356D01*
X56752582Y-52197578D01*
X56752576Y-52197597D01*
X56694197Y-52453374D01*
X56694196Y-52453379D01*
X56674592Y-52714995D01*
X56674592Y-52715004D01*
X56694196Y-52976620D01*
X56694197Y-52976625D01*
X56752576Y-53232402D01*
X56752578Y-53232411D01*
X56752580Y-53232416D01*
X56848432Y-53476643D01*
X56979614Y-53703857D01*
X57106160Y-53862541D01*
X57142163Y-53907687D01*
X57168572Y-53972374D01*
X57155815Y-54041069D01*
X57142163Y-54062313D01*
X56979614Y-54266143D01*
X56848432Y-54493356D01*
X56752582Y-54737578D01*
X56752576Y-54737597D01*
X56694197Y-54993374D01*
X56694196Y-54993379D01*
X56674592Y-55254995D01*
X56674592Y-55255004D01*
X56694196Y-55516620D01*
X56694197Y-55516625D01*
X56752576Y-55772402D01*
X56752578Y-55772411D01*
X56752580Y-55772416D01*
X56848432Y-56016643D01*
X56979614Y-56243857D01*
X57122056Y-56422473D01*
X57142163Y-56447687D01*
X57168572Y-56512374D01*
X57155815Y-56581069D01*
X57142163Y-56602313D01*
X56979614Y-56806143D01*
X56848432Y-57033356D01*
X56752582Y-57277578D01*
X56752576Y-57277597D01*
X56694197Y-57533374D01*
X56694196Y-57533379D01*
X56674592Y-57794995D01*
X56674592Y-57795004D01*
X56694196Y-58056620D01*
X56694197Y-58056625D01*
X56752576Y-58312402D01*
X56752578Y-58312411D01*
X56752580Y-58312416D01*
X56848432Y-58556643D01*
X56979614Y-58783857D01*
X57111736Y-58949533D01*
X57143198Y-58988985D01*
X57274360Y-59110684D01*
X57335521Y-59167433D01*
X57552296Y-59315228D01*
X57552301Y-59315230D01*
X57552302Y-59315231D01*
X57552303Y-59315232D01*
X57649874Y-59362219D01*
X57788673Y-59429061D01*
X57788674Y-59429061D01*
X57788677Y-59429063D01*
X58039385Y-59506396D01*
X58298818Y-59545500D01*
X58561182Y-59545500D01*
X58820615Y-59506396D01*
X59071323Y-59429063D01*
X59307704Y-59315228D01*
X59524479Y-59167433D01*
X59716805Y-58988981D01*
X59880386Y-58783857D01*
X60011568Y-58556643D01*
X60107420Y-58312416D01*
X60165802Y-58056630D01*
X60168660Y-58018494D01*
X60185408Y-57795004D01*
X60185408Y-57794995D01*
X60165803Y-57533379D01*
X60165802Y-57533374D01*
X60165802Y-57533370D01*
X60107420Y-57277584D01*
X60011568Y-57033357D01*
X59880386Y-56806143D01*
X59761298Y-56656812D01*
X59734890Y-56592126D01*
X59747647Y-56523431D01*
X59795517Y-56472537D01*
X59858246Y-56455500D01*
X60421375Y-56455500D01*
X60488414Y-56475185D01*
X60509056Y-56491819D01*
X62203458Y-58186221D01*
X62236943Y-58247544D01*
X62239461Y-58282748D01*
X62229645Y-58419998D01*
X62229645Y-58420001D01*
X62249039Y-58691160D01*
X62249040Y-58691167D01*
X62306823Y-58956793D01*
X62306825Y-58956801D01*
X62364221Y-59110684D01*
X62401830Y-59211519D01*
X62532109Y-59450107D01*
X62532110Y-59450108D01*
X62532113Y-59450113D01*
X62695029Y-59667742D01*
X62695033Y-59667746D01*
X62695038Y-59667752D01*
X62887247Y-59859961D01*
X62887254Y-59859967D01*
X62887258Y-59859971D01*
X62887261Y-59859973D01*
X62890602Y-59862868D01*
X62889384Y-59864273D01*
X62926658Y-59914007D01*
X62934500Y-59957405D01*
X62934500Y-60662650D01*
X62914815Y-60729689D01*
X62884811Y-60761917D01*
X62847259Y-60790027D01*
X62847247Y-60790038D01*
X62655038Y-60982247D01*
X62655028Y-60982259D01*
X62492110Y-61199891D01*
X62492109Y-61199892D01*
X62361830Y-61438480D01*
X62337271Y-61504327D01*
X62266825Y-61693199D01*
X62266824Y-61693202D01*
X62266823Y-61693206D01*
X62209040Y-61958832D01*
X62209039Y-61958839D01*
X62189645Y-62229998D01*
X62189645Y-62230001D01*
X62209039Y-62501160D01*
X62209040Y-62501167D01*
X62256476Y-62719227D01*
X62266825Y-62766801D01*
X62337272Y-62955675D01*
X62361830Y-63021519D01*
X62492109Y-63260107D01*
X62492114Y-63260115D01*
X62575264Y-63371190D01*
X62599681Y-63436654D01*
X62584829Y-63504927D01*
X62535424Y-63554332D01*
X62475997Y-63569500D01*
X49919003Y-63569500D01*
X49851964Y-63549815D01*
X49806209Y-63497011D01*
X49796265Y-63427853D01*
X49819736Y-63371190D01*
X49868021Y-63306687D01*
X49902887Y-63260113D01*
X50002115Y-63078390D01*
X50033169Y-63021519D01*
X50033169Y-63021517D01*
X50033172Y-63021513D01*
X50128175Y-62766801D01*
X50185961Y-62501160D01*
X50205355Y-62230000D01*
X50185961Y-61958840D01*
X50128175Y-61693199D01*
X50033172Y-61438487D01*
X50033170Y-61438484D01*
X50033169Y-61438480D01*
X49902890Y-61199892D01*
X49902889Y-61199891D01*
X49902887Y-61199887D01*
X49739971Y-60982258D01*
X49739966Y-60982253D01*
X49739961Y-60982247D01*
X49547749Y-60790036D01*
X49547742Y-60790029D01*
X49547734Y-60790023D01*
X49544392Y-60787127D01*
X49545597Y-60785735D01*
X49508311Y-60735907D01*
X49500500Y-60692594D01*
X49500500Y-57182254D01*
X49520185Y-57115215D01*
X49536815Y-57094577D01*
X49818697Y-56812694D01*
X49880020Y-56779210D01*
X49949712Y-56784194D01*
X49960179Y-56788656D01*
X50010097Y-56812695D01*
X50168673Y-56889061D01*
X50168674Y-56889061D01*
X50168677Y-56889063D01*
X50419385Y-56966396D01*
X50678818Y-57005500D01*
X50941182Y-57005500D01*
X51200615Y-56966396D01*
X51451323Y-56889063D01*
X51638111Y-56799110D01*
X51687696Y-56775232D01*
X51687696Y-56775231D01*
X51687704Y-56775228D01*
X51904479Y-56627433D01*
X52051716Y-56490815D01*
X52114249Y-56459647D01*
X52118901Y-56458906D01*
X52196977Y-56448014D01*
X52199787Y-56447689D01*
X52220578Y-56445763D01*
X52226287Y-56445500D01*
X53310837Y-56445500D01*
X53313700Y-56445566D01*
X53324884Y-56446082D01*
X53395681Y-56449356D01*
X53477002Y-56438011D01*
X53479758Y-56437692D01*
X53561536Y-56430115D01*
X53584259Y-56423648D01*
X53592644Y-56421879D01*
X53616033Y-56418618D01*
X53693880Y-56392525D01*
X53696530Y-56391705D01*
X53775528Y-56369229D01*
X53776095Y-56368946D01*
X53796658Y-56358707D01*
X53804601Y-56355416D01*
X53826985Y-56347915D01*
X53898705Y-56307965D01*
X53901209Y-56306646D01*
X53974689Y-56270058D01*
X53993539Y-56255822D01*
X54000710Y-56251149D01*
X54021353Y-56239652D01*
X54084529Y-56187189D01*
X54086722Y-56185452D01*
X54152236Y-56135981D01*
X54207550Y-56075303D01*
X54209497Y-56073264D01*
X55438264Y-54844497D01*
X55440303Y-54842550D01*
X55500981Y-54787236D01*
X55550452Y-54721722D01*
X55552189Y-54719529D01*
X55604652Y-54656353D01*
X55616149Y-54635710D01*
X55620822Y-54628539D01*
X55635058Y-54609689D01*
X55671648Y-54536205D01*
X55672965Y-54533705D01*
X55712915Y-54461985D01*
X55720416Y-54439601D01*
X55723707Y-54431658D01*
X55734227Y-54410532D01*
X55734226Y-54410532D01*
X55734229Y-54410528D01*
X55756705Y-54331530D01*
X55757525Y-54328880D01*
X55783618Y-54251033D01*
X55786879Y-54227644D01*
X55788648Y-54219259D01*
X55795115Y-54196536D01*
X55802692Y-54114758D01*
X55803011Y-54112002D01*
X55814356Y-54030681D01*
X55810566Y-53948698D01*
X55810500Y-53945835D01*
X55810500Y-46622405D01*
X55830185Y-46555366D01*
X55855073Y-46528648D01*
X55854398Y-46527868D01*
X55857730Y-46524979D01*
X55857742Y-46524971D01*
X56049971Y-46332742D01*
X56049979Y-46332730D01*
X56052868Y-46329398D01*
X56054261Y-46330605D01*
X56104076Y-46293317D01*
X56147406Y-46285500D01*
X56516434Y-46285500D01*
X56583473Y-46305185D01*
X56629228Y-46357989D01*
X56632616Y-46366166D01*
X56686830Y-46511518D01*
X56817109Y-46750107D01*
X56817110Y-46750108D01*
X56817113Y-46750113D01*
X56980029Y-46967742D01*
X56980033Y-46967746D01*
X56980038Y-46967752D01*
X57172247Y-47159961D01*
X57172253Y-47159966D01*
X57172258Y-47159971D01*
X57389887Y-47322887D01*
X57389891Y-47322889D01*
X57389892Y-47322890D01*
X57628481Y-47453169D01*
X57628480Y-47453169D01*
X57628484Y-47453170D01*
X57628487Y-47453172D01*
X57883199Y-47548175D01*
X58148840Y-47605961D01*
X58400605Y-47623967D01*
X58419999Y-47625355D01*
X58420000Y-47625355D01*
X58420001Y-47625355D01*
X58438100Y-47624060D01*
X58691160Y-47605961D01*
X58956801Y-47548175D01*
X59211513Y-47453172D01*
X59211517Y-47453169D01*
X59211519Y-47453169D01*
X59330813Y-47388029D01*
X59450113Y-47322887D01*
X59667742Y-47159971D01*
X59859971Y-46967742D01*
X60022887Y-46750113D01*
X60129227Y-46555366D01*
X60153169Y-46511519D01*
X60153169Y-46511517D01*
X60153172Y-46511513D01*
X60248175Y-46256801D01*
X60305961Y-45991160D01*
X60325355Y-45720000D01*
X60305961Y-45448840D01*
X60248175Y-45183199D01*
X60153172Y-44928487D01*
X60153170Y-44928484D01*
X60153169Y-44928480D01*
X60022890Y-44689892D01*
X60022889Y-44689891D01*
X60022887Y-44689887D01*
X59859971Y-44472258D01*
X59859966Y-44472253D01*
X59859961Y-44472247D01*
X59667752Y-44280038D01*
X59667746Y-44280033D01*
X59667742Y-44280029D01*
X59450113Y-44117113D01*
X59450108Y-44117110D01*
X59450107Y-44117109D01*
X59211518Y-43986830D01*
X59211519Y-43986830D01*
X59134536Y-43958117D01*
X58956801Y-43891825D01*
X58956794Y-43891823D01*
X58956793Y-43891823D01*
X58691167Y-43834040D01*
X58691160Y-43834039D01*
X58420001Y-43814645D01*
X58419999Y-43814645D01*
X58148839Y-43834039D01*
X58148832Y-43834040D01*
X57919501Y-43883927D01*
X57876013Y-43885572D01*
X57840685Y-43880644D01*
X57840681Y-43880644D01*
X57797393Y-43882645D01*
X57758700Y-43884434D01*
X57755837Y-43884500D01*
X56147406Y-43884500D01*
X56080367Y-43864815D01*
X56053640Y-43839932D01*
X56052868Y-43840602D01*
X56049973Y-43837261D01*
X56049971Y-43837258D01*
X56049967Y-43837254D01*
X56049961Y-43837247D01*
X55857752Y-43645038D01*
X55857746Y-43645033D01*
X55857742Y-43645029D01*
X55640113Y-43482113D01*
X55640108Y-43482110D01*
X55640107Y-43482109D01*
X55401518Y-43351830D01*
X55401519Y-43351830D01*
X55302615Y-43314941D01*
X55146801Y-43256825D01*
X55146794Y-43256823D01*
X55146793Y-43256823D01*
X54881167Y-43199040D01*
X54881160Y-43199039D01*
X54610001Y-43179645D01*
X54609999Y-43179645D01*
X54338839Y-43199039D01*
X54338832Y-43199040D01*
X54073206Y-43256823D01*
X54073202Y-43256824D01*
X54073199Y-43256825D01*
X53950649Y-43302534D01*
X53818480Y-43351830D01*
X53579892Y-43482109D01*
X53579891Y-43482110D01*
X53362259Y-43645028D01*
X53362247Y-43645038D01*
X53170038Y-43837247D01*
X53170028Y-43837259D01*
X53007110Y-44054891D01*
X53007109Y-44054892D01*
X52876830Y-44293480D01*
X52855081Y-44351793D01*
X52781825Y-44548199D01*
X52781824Y-44548202D01*
X52781823Y-44548206D01*
X52724040Y-44813832D01*
X52724039Y-44813839D01*
X52704645Y-45084998D01*
X52704645Y-45085001D01*
X52724039Y-45356160D01*
X52724040Y-45356167D01*
X52765808Y-45548172D01*
X52781825Y-45621801D01*
X52852522Y-45811347D01*
X52876830Y-45876519D01*
X53007109Y-46115107D01*
X53007110Y-46115108D01*
X53007113Y-46115113D01*
X53170029Y-46332742D01*
X53170033Y-46332746D01*
X53170038Y-46332752D01*
X53362247Y-46524961D01*
X53362254Y-46524967D01*
X53362258Y-46524971D01*
X53362261Y-46524973D01*
X53365602Y-46527868D01*
X53364384Y-46529273D01*
X53401658Y-46579007D01*
X53409500Y-46622405D01*
X53409500Y-53426375D01*
X53389815Y-53493414D01*
X53373181Y-53514056D01*
X52879056Y-54008181D01*
X52817733Y-54041666D01*
X52791375Y-54044500D01*
X52246221Y-54044500D01*
X52179182Y-54024815D01*
X52133427Y-53972011D01*
X52123483Y-53902853D01*
X52149274Y-53843187D01*
X52163447Y-53825414D01*
X52260386Y-53703857D01*
X52391568Y-53476643D01*
X52487420Y-53232416D01*
X52545802Y-52976630D01*
X52545803Y-52976620D01*
X52565408Y-52715004D01*
X52565408Y-52714995D01*
X52545803Y-52453379D01*
X52545802Y-52453374D01*
X52545802Y-52453370D01*
X52487420Y-52197584D01*
X52400841Y-51976984D01*
X52391569Y-51953359D01*
X52385100Y-51942155D01*
X52319140Y-51827908D01*
X52302668Y-51760012D01*
X52325520Y-51693984D01*
X52338844Y-51678232D01*
X52389816Y-51627262D01*
X52485789Y-51474522D01*
X52545368Y-51304255D01*
X52547062Y-51289226D01*
X52556241Y-51207754D01*
X52560500Y-51169954D01*
X52560500Y-49180046D01*
X52548126Y-49070219D01*
X52545369Y-49045750D01*
X52545368Y-49045745D01*
X52535470Y-49017459D01*
X52485789Y-48875478D01*
X52389816Y-48722738D01*
X52262262Y-48595184D01*
X52177942Y-48542202D01*
X52109523Y-48499211D01*
X51939254Y-48439631D01*
X51939249Y-48439630D01*
X51804960Y-48424500D01*
X51804954Y-48424500D01*
X49815046Y-48424500D01*
X49815039Y-48424500D01*
X49680750Y-48439630D01*
X49680745Y-48439631D01*
X49510476Y-48499211D01*
X49357737Y-48595184D01*
X49230184Y-48722737D01*
X49134211Y-48875476D01*
X49074631Y-49045745D01*
X49074630Y-49045749D01*
X49072720Y-49062709D01*
X49045653Y-49127123D01*
X48988058Y-49166678D01*
X48918221Y-49168815D01*
X48858315Y-49132857D01*
X48827359Y-49070219D01*
X48825500Y-49048825D01*
X48825500Y-43844163D01*
X48825566Y-43841300D01*
X48826046Y-43830907D01*
X48829356Y-43759319D01*
X48818012Y-43678001D01*
X48817691Y-43675235D01*
X48810115Y-43593464D01*
X48803652Y-43570749D01*
X48801877Y-43562334D01*
X48798619Y-43538974D01*
X48798618Y-43538973D01*
X48798618Y-43538967D01*
X48772534Y-43461143D01*
X48771701Y-43458454D01*
X48749229Y-43379472D01*
X48738705Y-43358339D01*
X48735420Y-43350408D01*
X48727915Y-43328015D01*
X48727914Y-43328012D01*
X48691920Y-43263393D01*
X48687955Y-43256275D01*
X48686649Y-43253796D01*
X48650058Y-43180311D01*
X48650057Y-43180310D01*
X48650057Y-43180309D01*
X48635831Y-43161471D01*
X48631138Y-43154269D01*
X48629847Y-43151951D01*
X48619652Y-43133647D01*
X48567210Y-43070494D01*
X48565437Y-43068256D01*
X48547912Y-43045049D01*
X48519031Y-43006803D01*
X48515979Y-43002761D01*
X48455324Y-42947468D01*
X48453253Y-42945490D01*
X46381541Y-40873778D01*
X46348056Y-40812455D01*
X46345538Y-40777250D01*
X46345703Y-40774951D01*
X46355355Y-40640000D01*
X46335961Y-40368840D01*
X46278175Y-40103199D01*
X46183172Y-39848487D01*
X46183170Y-39848484D01*
X46183169Y-39848480D01*
X46052890Y-39609892D01*
X46052889Y-39609891D01*
X46052887Y-39609887D01*
X45889971Y-39392258D01*
X45889966Y-39392253D01*
X45889961Y-39392247D01*
X45697749Y-39200036D01*
X45697742Y-39200029D01*
X45697734Y-39200023D01*
X45694392Y-39197127D01*
X45695597Y-39195735D01*
X45658311Y-39145907D01*
X45650500Y-39102594D01*
X45650500Y-37097405D01*
X45670185Y-37030366D01*
X45695073Y-37003648D01*
X45694398Y-37002868D01*
X45697730Y-36999979D01*
X45697742Y-36999971D01*
X45889971Y-36807742D01*
X46052887Y-36590113D01*
X46183172Y-36351513D01*
X46278175Y-36096801D01*
X46335961Y-35831160D01*
X46355355Y-35560000D01*
X46335961Y-35288840D01*
X46278175Y-35023199D01*
X46183172Y-34768487D01*
X46183170Y-34768484D01*
X46183169Y-34768480D01*
X46052890Y-34529892D01*
X46052889Y-34529891D01*
X46052887Y-34529887D01*
X45889971Y-34312258D01*
X45889966Y-34312253D01*
X45889961Y-34312247D01*
X45726819Y-34149105D01*
X45693334Y-34087782D01*
X45690500Y-34061424D01*
X45690500Y-32017405D01*
X45710185Y-31950366D01*
X45735073Y-31923648D01*
X45734398Y-31922868D01*
X45737730Y-31919979D01*
X45737742Y-31919971D01*
X45929971Y-31727742D01*
X46092887Y-31510113D01*
X46223172Y-31271513D01*
X46318175Y-31016801D01*
X46375961Y-30751160D01*
X46395355Y-30480000D01*
X46375961Y-30208840D01*
X46318175Y-29943199D01*
X46223172Y-29688487D01*
X46223170Y-29688484D01*
X46223169Y-29688480D01*
X46092890Y-29449892D01*
X46092889Y-29449891D01*
X46092887Y-29449887D01*
X45929971Y-29232258D01*
X45929966Y-29232253D01*
X45929961Y-29232247D01*
X45737752Y-29040038D01*
X45737746Y-29040033D01*
X45737742Y-29040029D01*
X45520113Y-28877113D01*
X45520108Y-28877110D01*
X45520107Y-28877109D01*
X45281518Y-28746830D01*
X45281519Y-28746830D01*
X45231920Y-28728330D01*
X45026801Y-28651825D01*
X45026794Y-28651823D01*
X45026793Y-28651823D01*
X44761167Y-28594040D01*
X44761160Y-28594039D01*
X44490001Y-28574645D01*
X44489999Y-28574645D01*
X44218839Y-28594039D01*
X44218832Y-28594040D01*
X43953206Y-28651823D01*
X43953202Y-28651824D01*
X43953199Y-28651825D01*
X43825843Y-28699326D01*
X43698480Y-28746830D01*
X43459892Y-28877109D01*
X43459891Y-28877110D01*
X43242259Y-29040028D01*
X43242247Y-29040038D01*
X43050038Y-29232247D01*
X43050028Y-29232259D01*
X42887110Y-29449891D01*
X42887109Y-29449892D01*
X42756830Y-29688480D01*
X42713371Y-29804998D01*
X42661825Y-29943199D01*
X42661824Y-29943202D01*
X42661823Y-29943206D01*
X42604040Y-30208832D01*
X42604039Y-30208839D01*
X42584645Y-30479998D01*
X42584645Y-30480001D01*
X42604039Y-30751160D01*
X42604040Y-30751167D01*
X42659435Y-31005816D01*
X42661825Y-31016801D01*
X42710442Y-31147147D01*
X42756830Y-31271519D01*
X42887109Y-31510107D01*
X42887110Y-31510108D01*
X42887113Y-31510113D01*
X43050029Y-31727742D01*
X43050033Y-31727746D01*
X43050038Y-31727752D01*
X43242247Y-31919961D01*
X43242254Y-31919967D01*
X43242258Y-31919971D01*
X43242261Y-31919973D01*
X43245602Y-31922868D01*
X43244384Y-31924273D01*
X43281658Y-31974007D01*
X43289500Y-32017405D01*
X43289500Y-33992650D01*
X43269815Y-34059689D01*
X43239811Y-34091917D01*
X43202259Y-34120027D01*
X43202247Y-34120038D01*
X43010038Y-34312247D01*
X43010028Y-34312259D01*
X42847110Y-34529891D01*
X42847109Y-34529892D01*
X42716830Y-34768480D01*
X42673490Y-34884679D01*
X42621825Y-35023199D01*
X42621824Y-35023202D01*
X42621823Y-35023206D01*
X42564040Y-35288832D01*
X42564039Y-35288839D01*
X42544645Y-35559998D01*
X42544645Y-35560001D01*
X42564039Y-35831160D01*
X42564040Y-35831167D01*
X42615294Y-36066779D01*
X42621825Y-36096801D01*
X42698330Y-36301920D01*
X42716830Y-36351519D01*
X42847109Y-36590107D01*
X42847110Y-36590108D01*
X42847113Y-36590113D01*
X43010029Y-36807742D01*
X43010033Y-36807746D01*
X43010038Y-36807752D01*
X43202247Y-36999961D01*
X43202254Y-36999967D01*
X43202258Y-36999971D01*
X43202261Y-36999973D01*
X43205602Y-37002868D01*
X43204384Y-37004273D01*
X43241658Y-37054007D01*
X43249500Y-37097405D01*
X43249500Y-39102594D01*
X43229815Y-39169633D01*
X43204940Y-39196356D01*
X43205608Y-39197127D01*
X43202250Y-39200036D01*
X43010038Y-39392247D01*
X43010028Y-39392259D01*
X42847110Y-39609891D01*
X42847109Y-39609892D01*
X42716830Y-39848480D01*
X42669326Y-39975843D01*
X42621825Y-40103199D01*
X42621824Y-40103202D01*
X42621823Y-40103206D01*
X42564040Y-40368832D01*
X42564039Y-40368839D01*
X42544645Y-40639998D01*
X42544645Y-40640001D01*
X42564039Y-40911160D01*
X42564040Y-40911167D01*
X42620942Y-41172742D01*
X42621825Y-41176801D01*
X42693614Y-41369273D01*
X42716830Y-41431519D01*
X42847109Y-41670107D01*
X42847110Y-41670108D01*
X42847113Y-41670113D01*
X43010029Y-41887742D01*
X43010033Y-41887746D01*
X43010038Y-41887752D01*
X43202247Y-42079961D01*
X43202253Y-42079966D01*
X43202258Y-42079971D01*
X43419887Y-42242887D01*
X43419891Y-42242889D01*
X43419892Y-42242890D01*
X43658481Y-42373169D01*
X43658480Y-42373169D01*
X43658484Y-42373170D01*
X43658487Y-42373172D01*
X43913199Y-42468175D01*
X44178840Y-42525961D01*
X44430605Y-42543967D01*
X44449999Y-42545355D01*
X44450000Y-42545355D01*
X44587250Y-42535538D01*
X44655523Y-42550390D01*
X44683778Y-42571541D01*
X46388181Y-44275944D01*
X46421666Y-44337267D01*
X46424500Y-44363625D01*
X46424500Y-51405835D01*
X46424434Y-51408698D01*
X46420644Y-51490684D01*
X46431980Y-51571950D01*
X46432310Y-51574794D01*
X46439884Y-51656535D01*
X46446347Y-51679249D01*
X46448121Y-51687659D01*
X46451381Y-51711031D01*
X46451382Y-51711033D01*
X46470754Y-51768834D01*
X46477459Y-51788837D01*
X46478306Y-51791573D01*
X46500771Y-51870529D01*
X46503623Y-51876256D01*
X46511295Y-51891663D01*
X46514580Y-51899595D01*
X46522085Y-51921987D01*
X46522086Y-51921989D01*
X46562024Y-51993690D01*
X46563360Y-51996224D01*
X46599937Y-52069679D01*
X46599944Y-52069692D01*
X46614170Y-52088531D01*
X46618856Y-52095723D01*
X46630348Y-52116353D01*
X46682782Y-52179496D01*
X46684560Y-52181742D01*
X46734016Y-52247233D01*
X46734018Y-52247236D01*
X46794673Y-52302530D01*
X46796745Y-52304508D01*
X48035490Y-53543253D01*
X48037468Y-53545324D01*
X48092761Y-53605979D01*
X48120915Y-53627239D01*
X48158265Y-53655444D01*
X48160494Y-53657210D01*
X48223647Y-53709652D01*
X48243001Y-53720432D01*
X48244270Y-53721139D01*
X48251470Y-53725830D01*
X48270311Y-53740058D01*
X48270316Y-53740060D01*
X48270317Y-53740061D01*
X48343784Y-53776643D01*
X48346318Y-53777979D01*
X48418011Y-53817912D01*
X48418015Y-53817914D01*
X48418017Y-53817914D01*
X48418020Y-53817916D01*
X48429479Y-53821756D01*
X48440397Y-53825415D01*
X48448323Y-53828698D01*
X48469472Y-53839229D01*
X48469475Y-53839230D01*
X48548427Y-53861693D01*
X48551164Y-53862541D01*
X48598853Y-53878524D01*
X48628967Y-53888618D01*
X48628973Y-53888618D01*
X48628974Y-53888619D01*
X48652334Y-53891877D01*
X48660749Y-53893652D01*
X48667450Y-53895558D01*
X48683464Y-53900115D01*
X48765235Y-53907691D01*
X48768001Y-53908012D01*
X48849319Y-53919356D01*
X48925298Y-53915843D01*
X48931300Y-53915566D01*
X48934163Y-53915500D01*
X49139634Y-53915500D01*
X49206673Y-53935185D01*
X49252428Y-53987989D01*
X49262372Y-54057147D01*
X49233347Y-54120703D01*
X49196066Y-54148245D01*
X49196652Y-54149296D01*
X49119955Y-54192015D01*
X49117423Y-54193350D01*
X49043939Y-54229943D01*
X49043938Y-54229944D01*
X49025099Y-54244170D01*
X49017904Y-54248857D01*
X49017897Y-54248862D01*
X48997282Y-54260344D01*
X48997274Y-54260350D01*
X48934125Y-54312787D01*
X48931881Y-54314564D01*
X48866390Y-54364022D01*
X48811099Y-54424673D01*
X48809122Y-54426744D01*
X47471744Y-55764122D01*
X47469673Y-55766099D01*
X47409022Y-55821390D01*
X47359564Y-55886881D01*
X47357787Y-55889125D01*
X47305350Y-55952274D01*
X47305344Y-55952282D01*
X47293860Y-55972901D01*
X47289172Y-55980095D01*
X47281575Y-55990155D01*
X47274943Y-55998939D01*
X47238350Y-56072423D01*
X47237015Y-56074955D01*
X47197083Y-56146647D01*
X47189582Y-56169029D01*
X47186294Y-56176967D01*
X47175773Y-56198096D01*
X47175771Y-56198103D01*
X47153306Y-56277055D01*
X47152459Y-56279790D01*
X47126382Y-56357592D01*
X47126380Y-56357603D01*
X47123119Y-56380974D01*
X47121346Y-56389380D01*
X47114885Y-56412088D01*
X47114885Y-56412092D01*
X47107310Y-56493834D01*
X47106980Y-56496678D01*
X47095644Y-56577944D01*
X47095644Y-56577947D01*
X47095644Y-56577949D01*
X47097853Y-56625748D01*
X47099434Y-56659930D01*
X47099500Y-56662793D01*
X47099500Y-60692594D01*
X47079815Y-60759633D01*
X47054940Y-60786356D01*
X47055608Y-60787127D01*
X47052250Y-60790036D01*
X46860038Y-60982247D01*
X46860028Y-60982259D01*
X46697110Y-61199891D01*
X46697109Y-61199892D01*
X46566830Y-61438480D01*
X46542271Y-61504327D01*
X46471825Y-61693199D01*
X46471824Y-61693202D01*
X46471823Y-61693206D01*
X46414040Y-61958832D01*
X46414039Y-61958839D01*
X46394645Y-62229998D01*
X46394645Y-62230001D01*
X46414039Y-62501160D01*
X46414040Y-62501167D01*
X46471823Y-62766796D01*
X46523805Y-62906164D01*
X46528789Y-62975855D01*
X46495304Y-63037178D01*
X46433981Y-63070663D01*
X46364289Y-63065679D01*
X46319942Y-63037178D01*
X41876819Y-58594055D01*
X41843334Y-58532732D01*
X41840500Y-58506374D01*
X41840500Y-27853625D01*
X41860185Y-27786586D01*
X41876819Y-27765944D01*
X45545944Y-24096819D01*
X45607267Y-24063334D01*
X45633625Y-24060500D01*
X52405299Y-24060500D01*
X52472338Y-24080185D01*
X52518093Y-24132989D01*
X52528037Y-24202147D01*
X52499012Y-24265703D01*
X52440234Y-24303477D01*
X52423782Y-24307114D01*
X52401238Y-24310512D01*
X52314382Y-24323604D01*
X52314376Y-24323606D01*
X52063673Y-24400938D01*
X51827303Y-24514767D01*
X51827302Y-24514768D01*
X51610520Y-24662567D01*
X51418198Y-24841014D01*
X51254614Y-25046143D01*
X51123432Y-25273356D01*
X51027582Y-25517578D01*
X51027576Y-25517597D01*
X50969197Y-25773374D01*
X50969196Y-25773379D01*
X50949592Y-26034995D01*
X50949592Y-26035004D01*
X50969196Y-26296620D01*
X50969197Y-26296625D01*
X51027576Y-26552402D01*
X51027578Y-26552411D01*
X51027580Y-26552416D01*
X51123432Y-26796643D01*
X51254614Y-27023857D01*
X51366573Y-27164249D01*
X51418198Y-27228985D01*
X51599753Y-27397441D01*
X51610521Y-27407433D01*
X51827296Y-27555228D01*
X51827301Y-27555230D01*
X51827302Y-27555231D01*
X51827303Y-27555232D01*
X51951030Y-27614815D01*
X52063673Y-27669061D01*
X52063674Y-27669061D01*
X52063677Y-27669063D01*
X52314385Y-27746396D01*
X52573818Y-27785500D01*
X52836182Y-27785500D01*
X53095615Y-27746396D01*
X53346323Y-27669063D01*
X53582704Y-27555228D01*
X53799479Y-27407433D01*
X53991805Y-27228981D01*
X54155386Y-27023857D01*
X54286568Y-26796643D01*
X54382420Y-26552416D01*
X54440802Y-26296630D01*
X54460408Y-26035000D01*
X54440802Y-25773370D01*
X54382420Y-25517584D01*
X54286568Y-25273357D01*
X54155386Y-25046143D01*
X53991805Y-24841019D01*
X53991804Y-24841018D01*
X53991801Y-24841014D01*
X53799479Y-24662567D01*
X53790500Y-24656445D01*
X53582704Y-24514772D01*
X53582700Y-24514770D01*
X53582697Y-24514768D01*
X53582696Y-24514767D01*
X53346325Y-24400938D01*
X53346327Y-24400938D01*
X53095623Y-24323606D01*
X53095617Y-24323604D01*
X53016874Y-24311735D01*
X52986218Y-24307114D01*
X52922862Y-24277658D01*
X52885489Y-24218624D01*
X52885964Y-24148756D01*
X52924138Y-24090236D01*
X52987890Y-24061645D01*
X53004701Y-24060500D01*
X57485299Y-24060500D01*
X57552338Y-24080185D01*
X57598093Y-24132989D01*
X57608037Y-24202147D01*
X57579012Y-24265703D01*
X57520234Y-24303477D01*
X57503782Y-24307114D01*
X57481238Y-24310512D01*
X57394382Y-24323604D01*
X57394376Y-24323606D01*
X57143673Y-24400938D01*
X56907303Y-24514767D01*
X56907302Y-24514768D01*
X56690520Y-24662567D01*
X56498198Y-24841014D01*
X56334614Y-25046143D01*
X56203432Y-25273356D01*
X56107582Y-25517578D01*
X56107576Y-25517597D01*
X56049197Y-25773374D01*
X56049196Y-25773379D01*
X56029592Y-26034995D01*
X56029592Y-26035004D01*
X56049196Y-26296620D01*
X56049197Y-26296625D01*
X56107576Y-26552402D01*
X56107578Y-26552411D01*
X56107580Y-26552416D01*
X56203432Y-26796643D01*
X56334614Y-27023857D01*
X56446573Y-27164249D01*
X56498198Y-27228985D01*
X56679753Y-27397441D01*
X56690521Y-27407433D01*
X56907296Y-27555228D01*
X56907301Y-27555230D01*
X56907302Y-27555231D01*
X56907303Y-27555232D01*
X57031030Y-27614815D01*
X57143673Y-27669061D01*
X57143674Y-27669061D01*
X57143677Y-27669063D01*
X57394385Y-27746396D01*
X57653818Y-27785500D01*
X57916182Y-27785500D01*
X58175615Y-27746396D01*
X58426323Y-27669063D01*
X58662704Y-27555228D01*
X58879479Y-27407433D01*
X58970660Y-27322828D01*
X59033190Y-27291661D01*
X59102647Y-27299248D01*
X59139338Y-27322827D01*
X59230521Y-27407433D01*
X59447296Y-27555228D01*
X59447301Y-27555230D01*
X59447302Y-27555231D01*
X59447303Y-27555232D01*
X59571030Y-27614815D01*
X59683673Y-27669061D01*
X59683674Y-27669061D01*
X59683677Y-27669063D01*
X59934385Y-27746396D01*
X60193818Y-27785500D01*
X60456182Y-27785500D01*
X60715615Y-27746396D01*
X60966323Y-27669063D01*
X61202704Y-27555228D01*
X61419479Y-27407433D01*
X61510660Y-27322828D01*
X61573190Y-27291661D01*
X61642647Y-27299248D01*
X61679338Y-27322827D01*
X61770521Y-27407433D01*
X61987296Y-27555228D01*
X61987301Y-27555230D01*
X61987302Y-27555231D01*
X61987303Y-27555232D01*
X62111030Y-27614815D01*
X62223673Y-27669061D01*
X62223674Y-27669061D01*
X62223677Y-27669063D01*
X62474385Y-27746396D01*
X62733818Y-27785500D01*
X62996182Y-27785500D01*
X63255615Y-27746396D01*
X63506323Y-27669063D01*
X63742704Y-27555228D01*
X63959479Y-27407433D01*
X64050660Y-27322828D01*
X64113190Y-27291661D01*
X64182647Y-27299248D01*
X64219338Y-27322827D01*
X64310521Y-27407433D01*
X64527296Y-27555228D01*
X64527301Y-27555230D01*
X64527302Y-27555231D01*
X64527303Y-27555232D01*
X64651030Y-27614815D01*
X64763673Y-27669061D01*
X64763674Y-27669061D01*
X64763677Y-27669063D01*
X65014385Y-27746396D01*
X65273818Y-27785500D01*
X65536182Y-27785500D01*
X65795615Y-27746396D01*
X66046323Y-27669063D01*
X66282704Y-27555228D01*
X66287261Y-27552120D01*
X66353736Y-27530611D01*
X66421289Y-27548456D01*
X66444806Y-27566884D01*
X66492738Y-27614816D01*
X66645478Y-27710789D01*
X66747237Y-27746396D01*
X66815745Y-27770368D01*
X66815750Y-27770369D01*
X66906246Y-27780565D01*
X66950040Y-27785499D01*
X66950043Y-27785500D01*
X66950046Y-27785500D01*
X68939957Y-27785500D01*
X68939958Y-27785499D01*
X69007104Y-27777934D01*
X69074249Y-27770369D01*
X69074252Y-27770368D01*
X69074255Y-27770368D01*
X69244522Y-27710789D01*
X69397262Y-27614816D01*
X69524816Y-27487262D01*
X69620789Y-27334522D01*
X69680368Y-27164255D01*
X69695500Y-27029954D01*
X69695500Y-25040046D01*
X69680368Y-24905745D01*
X69620789Y-24735478D01*
X69610118Y-24718496D01*
X69524815Y-24582737D01*
X69397262Y-24455184D01*
X69244523Y-24359211D01*
X69074254Y-24299631D01*
X69074250Y-24299630D01*
X69001616Y-24291447D01*
X68937202Y-24264381D01*
X68897647Y-24206786D01*
X68891500Y-24168227D01*
X68891500Y-23055638D01*
X70661283Y-23055638D01*
X70661283Y-26138927D01*
X84226666Y-26138927D01*
X84226666Y-23055638D01*
X70661283Y-23055638D01*
X68891500Y-23055638D01*
X68891500Y-20479297D01*
X68911185Y-20412258D01*
X68963989Y-20366503D01*
X69033147Y-20356559D01*
X69096703Y-20385584D01*
X69099816Y-20388376D01*
X69136521Y-20422433D01*
X69353296Y-20570228D01*
X69353301Y-20570230D01*
X69353302Y-20570231D01*
X69353303Y-20570232D01*
X69409804Y-20597441D01*
X69589673Y-20684061D01*
X69589674Y-20684061D01*
X69589677Y-20684063D01*
X69840385Y-20761396D01*
X70099818Y-20800500D01*
X70362182Y-20800500D01*
X70621615Y-20761396D01*
X70872323Y-20684063D01*
X71108704Y-20570228D01*
X71325479Y-20422433D01*
X71517805Y-20243981D01*
X71681386Y-20038857D01*
X71812568Y-19811643D01*
X71908420Y-19567416D01*
X71966802Y-19311630D01*
X71986408Y-19050000D01*
X71971201Y-18847075D01*
X71966803Y-18788379D01*
X71966802Y-18788374D01*
X71966802Y-18788370D01*
X71908420Y-18532584D01*
X71812568Y-18288357D01*
X71681386Y-18061143D01*
X71517805Y-17856019D01*
X71517804Y-17856018D01*
X71517801Y-17856014D01*
X71325479Y-17677567D01*
X71311611Y-17668112D01*
X71108704Y-17529772D01*
X71108700Y-17529770D01*
X71108697Y-17529768D01*
X71108696Y-17529767D01*
X70872325Y-17415938D01*
X70872327Y-17415938D01*
X70621623Y-17338606D01*
X70621619Y-17338605D01*
X70621615Y-17338604D01*
X70496823Y-17319794D01*
X70362187Y-17299500D01*
X70362182Y-17299500D01*
X70099818Y-17299500D01*
X70099812Y-17299500D01*
X69938247Y-17323853D01*
X69840385Y-17338604D01*
X69840382Y-17338605D01*
X69840376Y-17338606D01*
X69589673Y-17415938D01*
X69353303Y-17529767D01*
X69353302Y-17529768D01*
X69136520Y-17677567D01*
X69045341Y-17762169D01*
X68982808Y-17793337D01*
X68913352Y-17785750D01*
X68876659Y-17762169D01*
X68785479Y-17677567D01*
X68771611Y-17668112D01*
X68568704Y-17529772D01*
X68568700Y-17529770D01*
X68568697Y-17529768D01*
X68568696Y-17529767D01*
X68332325Y-17415938D01*
X68332327Y-17415938D01*
X68081623Y-17338606D01*
X68081619Y-17338605D01*
X68081615Y-17338604D01*
X67956823Y-17319794D01*
X67822187Y-17299500D01*
X67822182Y-17299500D01*
X67559818Y-17299500D01*
X67559812Y-17299500D01*
X67398247Y-17323853D01*
X67300385Y-17338604D01*
X67300382Y-17338605D01*
X67300376Y-17338606D01*
X67049673Y-17415938D01*
X66813303Y-17529767D01*
X66813302Y-17529768D01*
X66596520Y-17677567D01*
X66505341Y-17762169D01*
X66442808Y-17793337D01*
X66373352Y-17785750D01*
X66336659Y-17762169D01*
X66245479Y-17677567D01*
X66231611Y-17668112D01*
X66028704Y-17529772D01*
X66028700Y-17529770D01*
X66028697Y-17529768D01*
X66028696Y-17529767D01*
X65792325Y-17415938D01*
X65792327Y-17415938D01*
X65541623Y-17338606D01*
X65541619Y-17338605D01*
X65541615Y-17338604D01*
X65416823Y-17319794D01*
X65282187Y-17299500D01*
X65282182Y-17299500D01*
X65019818Y-17299500D01*
X65019812Y-17299500D01*
X64858247Y-17323853D01*
X64760385Y-17338604D01*
X64760382Y-17338605D01*
X64760376Y-17338606D01*
X64509673Y-17415938D01*
X64273303Y-17529767D01*
X64273302Y-17529768D01*
X64056520Y-17677567D01*
X63965341Y-17762169D01*
X63902808Y-17793337D01*
X63833352Y-17785750D01*
X63796659Y-17762169D01*
X63705479Y-17677567D01*
X63691611Y-17668112D01*
X63488704Y-17529772D01*
X63488700Y-17529770D01*
X63488697Y-17529768D01*
X63488696Y-17529767D01*
X63252325Y-17415938D01*
X63252327Y-17415938D01*
X63001623Y-17338606D01*
X63001619Y-17338605D01*
X63001615Y-17338604D01*
X62876823Y-17319794D01*
X62742187Y-17299500D01*
X62742182Y-17299500D01*
X62479818Y-17299500D01*
X62479812Y-17299500D01*
X62318247Y-17323853D01*
X62220385Y-17338604D01*
X62220382Y-17338605D01*
X62220376Y-17338606D01*
X61969673Y-17415938D01*
X61733303Y-17529767D01*
X61733302Y-17529768D01*
X61516520Y-17677567D01*
X61425341Y-17762169D01*
X61362808Y-17793337D01*
X61293352Y-17785750D01*
X61256659Y-17762169D01*
X61165479Y-17677567D01*
X61151611Y-17668112D01*
X60948704Y-17529772D01*
X60948700Y-17529770D01*
X60948697Y-17529768D01*
X60948696Y-17529767D01*
X60712325Y-17415938D01*
X60712327Y-17415938D01*
X60461623Y-17338606D01*
X60461619Y-17338605D01*
X60461615Y-17338604D01*
X60336823Y-17319794D01*
X60202187Y-17299500D01*
X60202182Y-17299500D01*
X59939818Y-17299500D01*
X59939812Y-17299500D01*
X59778247Y-17323853D01*
X59680385Y-17338604D01*
X59680382Y-17338605D01*
X59680376Y-17338606D01*
X59429673Y-17415938D01*
X59193303Y-17529767D01*
X59193302Y-17529768D01*
X58976520Y-17677567D01*
X58885341Y-17762169D01*
X58822808Y-17793337D01*
X58753352Y-17785750D01*
X58716659Y-17762169D01*
X58625479Y-17677567D01*
X58611611Y-17668112D01*
X58408704Y-17529772D01*
X58408700Y-17529770D01*
X58408697Y-17529768D01*
X58408696Y-17529767D01*
X58172325Y-17415938D01*
X58172327Y-17415938D01*
X57921623Y-17338606D01*
X57921619Y-17338605D01*
X57921615Y-17338604D01*
X57796823Y-17319794D01*
X57662187Y-17299500D01*
X57662182Y-17299500D01*
X57399818Y-17299500D01*
X57399812Y-17299500D01*
X57238247Y-17323853D01*
X57140385Y-17338604D01*
X57140382Y-17338605D01*
X57140376Y-17338606D01*
X56889673Y-17415938D01*
X56653303Y-17529767D01*
X56653302Y-17529768D01*
X56436520Y-17677567D01*
X56244198Y-17856014D01*
X56080614Y-18061143D01*
X55949432Y-18288356D01*
X55853582Y-18532578D01*
X55853576Y-18532597D01*
X55795197Y-18788374D01*
X55795196Y-18788379D01*
X55775592Y-19049995D01*
X55775592Y-19050004D01*
X55795196Y-19311620D01*
X55795197Y-19311625D01*
X55853576Y-19567402D01*
X55853578Y-19567411D01*
X55853580Y-19567416D01*
X55949432Y-19811643D01*
X56080614Y-20038857D01*
X56152987Y-20129610D01*
X56244198Y-20243985D01*
X56396807Y-20385584D01*
X56436521Y-20422433D01*
X56653296Y-20570228D01*
X56653301Y-20570230D01*
X56653302Y-20570231D01*
X56653303Y-20570232D01*
X56709804Y-20597441D01*
X56889673Y-20684061D01*
X56889674Y-20684061D01*
X56889677Y-20684063D01*
X57140385Y-20761396D01*
X57399818Y-20800500D01*
X57662182Y-20800500D01*
X57921615Y-20761396D01*
X58172323Y-20684063D01*
X58408704Y-20570228D01*
X58625479Y-20422433D01*
X58716660Y-20337828D01*
X58779190Y-20306661D01*
X58848647Y-20314248D01*
X58885338Y-20337827D01*
X58976521Y-20422433D01*
X59193296Y-20570228D01*
X59193301Y-20570230D01*
X59193302Y-20570231D01*
X59193303Y-20570232D01*
X59249804Y-20597441D01*
X59429673Y-20684061D01*
X59429674Y-20684061D01*
X59429677Y-20684063D01*
X59680385Y-20761396D01*
X59939818Y-20800500D01*
X60202182Y-20800500D01*
X60461615Y-20761396D01*
X60712323Y-20684063D01*
X60948704Y-20570228D01*
X61165479Y-20422433D01*
X61202159Y-20388398D01*
X61264690Y-20357230D01*
X61334147Y-20364817D01*
X61388476Y-20408750D01*
X61410428Y-20475081D01*
X61410500Y-20479297D01*
X61410500Y-22579258D01*
X61390815Y-22646297D01*
X61338011Y-22692052D01*
X61268853Y-22701996D01*
X61205297Y-22672971D01*
X61202962Y-22670895D01*
X61155336Y-22627478D01*
X61153264Y-22625500D01*
X60559507Y-22031744D01*
X60557529Y-22029672D01*
X60525290Y-21994308D01*
X60502236Y-21969019D01*
X60502234Y-21969018D01*
X60502232Y-21969015D01*
X60436742Y-21919560D01*
X60434496Y-21917782D01*
X60371355Y-21865350D01*
X60371353Y-21865348D01*
X60350723Y-21853856D01*
X60343531Y-21849170D01*
X60324692Y-21834944D01*
X60324690Y-21834943D01*
X60324689Y-21834942D01*
X60324679Y-21834937D01*
X60251224Y-21798360D01*
X60248690Y-21797024D01*
X60176989Y-21757086D01*
X60176987Y-21757085D01*
X60154595Y-21749580D01*
X60146661Y-21746294D01*
X60132385Y-21739185D01*
X60125529Y-21735771D01*
X60046573Y-21713306D01*
X60043855Y-21712464D01*
X59966033Y-21686382D01*
X59966031Y-21686381D01*
X59942659Y-21683121D01*
X59934249Y-21681347D01*
X59911535Y-21674884D01*
X59829794Y-21667310D01*
X59826950Y-21666980D01*
X59745684Y-21655644D01*
X59745681Y-21655644D01*
X59708278Y-21657373D01*
X59663700Y-21659434D01*
X59660837Y-21659500D01*
X45114163Y-21659500D01*
X45111300Y-21659434D01*
X45077118Y-21657853D01*
X45029319Y-21655644D01*
X45029317Y-21655644D01*
X45029314Y-21655644D01*
X44948048Y-21666980D01*
X44945204Y-21667310D01*
X44863462Y-21674885D01*
X44863458Y-21674885D01*
X44840750Y-21681346D01*
X44832344Y-21683119D01*
X44808973Y-21686380D01*
X44808962Y-21686382D01*
X44731160Y-21712459D01*
X44728425Y-21713306D01*
X44692842Y-21723430D01*
X44649472Y-21735771D01*
X44649470Y-21735771D01*
X44649466Y-21735773D01*
X44628337Y-21746294D01*
X44620399Y-21749582D01*
X44598017Y-21757083D01*
X44526325Y-21797015D01*
X44523793Y-21798350D01*
X44450309Y-21834943D01*
X44450308Y-21834944D01*
X44431469Y-21849170D01*
X44424274Y-21853857D01*
X44424267Y-21853862D01*
X44403652Y-21865344D01*
X44403644Y-21865350D01*
X44340495Y-21917787D01*
X44338251Y-21919564D01*
X44272760Y-21969022D01*
X44217469Y-22029673D01*
X44215492Y-22031744D01*
X39811744Y-26435492D01*
X39809673Y-26437469D01*
X39749022Y-26492760D01*
X39699564Y-26558251D01*
X39697787Y-26560495D01*
X39645350Y-26623644D01*
X39645344Y-26623652D01*
X39633860Y-26644271D01*
X39629172Y-26651465D01*
X39621575Y-26661525D01*
X39614943Y-26670309D01*
X39578350Y-26743793D01*
X39577015Y-26746325D01*
X39537083Y-26818017D01*
X39529582Y-26840399D01*
X39526294Y-26848337D01*
X39515773Y-26869466D01*
X39515771Y-26869473D01*
X39493306Y-26948425D01*
X39492459Y-26951160D01*
X39466382Y-27028962D01*
X39466380Y-27028973D01*
X39463119Y-27052344D01*
X39461346Y-27060750D01*
X39454885Y-27083458D01*
X39454885Y-27083462D01*
X39447310Y-27165204D01*
X39446980Y-27168048D01*
X39435644Y-27249314D01*
X39439434Y-27331300D01*
X39439500Y-27334163D01*
X39439500Y-59025835D01*
X39439434Y-59028698D01*
X39435644Y-59110684D01*
X38100500Y-59110684D01*
X38100500Y-19117763D01*
X41960787Y-19117763D01*
X41990413Y-19387013D01*
X41990415Y-19387024D01*
X42037576Y-19567416D01*
X42058928Y-19649088D01*
X42164870Y-19898390D01*
X42250596Y-20038857D01*
X42305979Y-20129605D01*
X42305986Y-20129615D01*
X42479253Y-20337819D01*
X42479259Y-20337824D01*
X42558418Y-20408750D01*
X42680998Y-20518582D01*
X42906910Y-20668044D01*
X43152176Y-20783020D01*
X43152183Y-20783022D01*
X43152185Y-20783023D01*
X43411557Y-20861057D01*
X43411564Y-20861058D01*
X43411569Y-20861060D01*
X43679561Y-20900500D01*
X43679566Y-20900500D01*
X43882636Y-20900500D01*
X43934133Y-20896730D01*
X44085156Y-20885677D01*
X44197758Y-20860593D01*
X44349546Y-20826782D01*
X44349548Y-20826781D01*
X44349553Y-20826780D01*
X44602558Y-20730014D01*
X44838777Y-20597441D01*
X45053177Y-20431888D01*
X45241186Y-20236881D01*
X45398799Y-20016579D01*
X45504164Y-19811643D01*
X45522649Y-19775690D01*
X45522654Y-19775678D01*
X45522656Y-19775675D01*
X45530936Y-19751401D01*
X45571208Y-19694311D01*
X45635957Y-19668054D01*
X45704622Y-19680971D01*
X45755404Y-19728961D01*
X45763722Y-19746136D01*
X45775317Y-19775678D01*
X45789432Y-19811643D01*
X45920614Y-20038857D01*
X45992987Y-20129610D01*
X46084198Y-20243985D01*
X46236807Y-20385584D01*
X46276521Y-20422433D01*
X46493296Y-20570228D01*
X46493301Y-20570230D01*
X46493302Y-20570231D01*
X46493303Y-20570232D01*
X46549804Y-20597441D01*
X46729673Y-20684061D01*
X46729674Y-20684061D01*
X46729677Y-20684063D01*
X46980385Y-20761396D01*
X47239818Y-20800500D01*
X47502182Y-20800500D01*
X47761615Y-20761396D01*
X48012323Y-20684063D01*
X48248704Y-20570228D01*
X48465479Y-20422433D01*
X48556660Y-20337828D01*
X48619190Y-20306661D01*
X48688647Y-20314248D01*
X48725338Y-20337827D01*
X48816521Y-20422433D01*
X49033296Y-20570228D01*
X49033301Y-20570230D01*
X49033302Y-20570231D01*
X49033303Y-20570232D01*
X49089804Y-20597441D01*
X49269673Y-20684061D01*
X49269674Y-20684061D01*
X49269677Y-20684063D01*
X49520385Y-20761396D01*
X49779818Y-20800500D01*
X50042182Y-20800500D01*
X50301615Y-20761396D01*
X50552323Y-20684063D01*
X50788704Y-20570228D01*
X51005479Y-20422433D01*
X51096660Y-20337828D01*
X51159190Y-20306661D01*
X51228647Y-20314248D01*
X51265338Y-20337827D01*
X51356521Y-20422433D01*
X51573296Y-20570228D01*
X51573301Y-20570230D01*
X51573302Y-20570231D01*
X51573303Y-20570232D01*
X51629804Y-20597441D01*
X51809673Y-20684061D01*
X51809674Y-20684061D01*
X51809677Y-20684063D01*
X52060385Y-20761396D01*
X52319818Y-20800500D01*
X52582182Y-20800500D01*
X52841615Y-20761396D01*
X53092323Y-20684063D01*
X53328704Y-20570228D01*
X53545479Y-20422433D01*
X53737805Y-20243981D01*
X53901386Y-20038857D01*
X54032568Y-19811643D01*
X54128420Y-19567416D01*
X54186802Y-19311630D01*
X54206408Y-19050000D01*
X54191201Y-18847075D01*
X54186803Y-18788379D01*
X54186802Y-18788374D01*
X54186802Y-18788370D01*
X54128420Y-18532584D01*
X54032568Y-18288357D01*
X53901386Y-18061143D01*
X53737805Y-17856019D01*
X53737804Y-17856018D01*
X53737801Y-17856014D01*
X53545479Y-17677567D01*
X53531611Y-17668112D01*
X53328704Y-17529772D01*
X53328700Y-17529770D01*
X53328697Y-17529768D01*
X53328696Y-17529767D01*
X53092325Y-17415938D01*
X53092327Y-17415938D01*
X52841623Y-17338606D01*
X52841619Y-17338605D01*
X52841615Y-17338604D01*
X52716823Y-17319794D01*
X52582187Y-17299500D01*
X52582182Y-17299500D01*
X52319818Y-17299500D01*
X52319812Y-17299500D01*
X52158247Y-17323853D01*
X52060385Y-17338604D01*
X52060382Y-17338605D01*
X52060376Y-17338606D01*
X51809673Y-17415938D01*
X51573303Y-17529767D01*
X51573302Y-17529768D01*
X51356520Y-17677567D01*
X51265341Y-17762169D01*
X51202808Y-17793337D01*
X51133352Y-17785750D01*
X51096659Y-17762169D01*
X51005479Y-17677567D01*
X50991611Y-17668112D01*
X50788704Y-17529772D01*
X50788700Y-17529770D01*
X50788697Y-17529768D01*
X50788696Y-17529767D01*
X50552325Y-17415938D01*
X50552327Y-17415938D01*
X50301623Y-17338606D01*
X50301619Y-17338605D01*
X50301615Y-17338604D01*
X50176823Y-17319794D01*
X50042187Y-17299500D01*
X50042182Y-17299500D01*
X49779818Y-17299500D01*
X49779812Y-17299500D01*
X49618247Y-17323853D01*
X49520385Y-17338604D01*
X49520382Y-17338605D01*
X49520376Y-17338606D01*
X49269673Y-17415938D01*
X49033303Y-17529767D01*
X49033302Y-17529768D01*
X48816520Y-17677567D01*
X48725341Y-17762169D01*
X48662808Y-17793337D01*
X48593352Y-17785750D01*
X48556659Y-17762169D01*
X48465479Y-17677567D01*
X48451611Y-17668112D01*
X48248704Y-17529772D01*
X48248700Y-17529770D01*
X48248697Y-17529768D01*
X48248696Y-17529767D01*
X48012325Y-17415938D01*
X48012327Y-17415938D01*
X47761623Y-17338606D01*
X47761619Y-17338605D01*
X47761615Y-17338604D01*
X47636823Y-17319794D01*
X47502187Y-17299500D01*
X47502182Y-17299500D01*
X47239818Y-17299500D01*
X47239812Y-17299500D01*
X47078247Y-17323853D01*
X46980385Y-17338604D01*
X46980382Y-17338605D01*
X46980376Y-17338606D01*
X46729673Y-17415938D01*
X46493303Y-17529767D01*
X46493302Y-17529768D01*
X46276520Y-17677567D01*
X46084198Y-17856014D01*
X45920614Y-18061143D01*
X45789433Y-18288354D01*
X45762290Y-18357514D01*
X45719474Y-18412727D01*
X45653604Y-18436028D01*
X45585593Y-18420017D01*
X45537035Y-18369779D01*
X45532739Y-18360708D01*
X45517271Y-18324309D01*
X45465130Y-18201610D01*
X45324018Y-17970390D01*
X45234747Y-17863119D01*
X45150746Y-17762180D01*
X45150740Y-17762175D01*
X44949002Y-17581418D01*
X44723092Y-17431957D01*
X44723090Y-17431956D01*
X44477824Y-17316980D01*
X44477819Y-17316978D01*
X44477814Y-17316976D01*
X44218442Y-17238942D01*
X44218428Y-17238939D01*
X44102791Y-17221921D01*
X43950439Y-17199500D01*
X43747369Y-17199500D01*
X43747364Y-17199500D01*
X43544844Y-17214323D01*
X43544831Y-17214325D01*
X43280453Y-17273217D01*
X43280446Y-17273220D01*
X43027439Y-17369987D01*
X42791226Y-17502557D01*
X42576822Y-17668112D01*
X42388822Y-17863109D01*
X42388816Y-17863116D01*
X42231202Y-18083419D01*
X42231199Y-18083424D01*
X42107350Y-18324309D01*
X42107343Y-18324327D01*
X42019884Y-18580685D01*
X42019881Y-18580699D01*
X41970681Y-18847068D01*
X41970680Y-18847075D01*
X41960787Y-19117763D01*
X38100500Y-19117763D01*
X38100500Y-16634000D01*
X38120185Y-16566961D01*
X38172989Y-16521206D01*
X38224500Y-16510000D01*
X39355222Y-16510000D01*
X39360323Y-16510500D01*
G37*
%TD.AperFunction*%
%TD*%
M02*
