%TF.GenerationSoftware,KiCad,Pcbnew,7.0.9*%
%TF.CreationDate,2023-12-06T14:48:21+01:00*%
%TF.ProjectId,Gas_Sensor,4761735f-5365-46e7-936f-722e6b696361,rev?*%
%TF.SameCoordinates,Original*%
%TF.FileFunction,Copper,L1,Top*%
%TF.FilePolarity,Positive*%
%FSLAX46Y46*%
G04 Gerber Fmt 4.6, Leading zero omitted, Abs format (unit mm)*
G04 Created by KiCad (PCBNEW 7.0.9) date 2023-12-06 14:48:21*
%MOMM*%
%LPD*%
G01*
G04 APERTURE LIST*
%TA.AperFunction,ComponentPad*%
%ADD10O,1.600000X1.200000*%
%TD*%
%TA.AperFunction,ComponentPad*%
%ADD11O,1.200000X1.200000*%
%TD*%
%TA.AperFunction,ComponentPad*%
%ADD12C,2.200000*%
%TD*%
%TA.AperFunction,ComponentPad*%
%ADD13O,2.200000X2.200000*%
%TD*%
%TA.AperFunction,ComponentPad*%
%ADD14R,1.905000X2.000000*%
%TD*%
%TA.AperFunction,ComponentPad*%
%ADD15O,1.905000X2.000000*%
%TD*%
%TA.AperFunction,ComponentPad*%
%ADD16R,1.900000X1.900000*%
%TD*%
%TA.AperFunction,ComponentPad*%
%ADD17O,1.900000X1.900000*%
%TD*%
%TA.AperFunction,ComponentPad*%
%ADD18R,2.520000X2.520000*%
%TD*%
%TA.AperFunction,ComponentPad*%
%ADD19C,2.520000*%
%TD*%
%TA.AperFunction,ComponentPad*%
%ADD20O,1.727200X1.727200*%
%TD*%
%TA.AperFunction,ComponentPad*%
%ADD21R,1.727200X1.727200*%
%TD*%
%TA.AperFunction,ViaPad*%
%ADD22C,2.400000*%
%TD*%
%TA.AperFunction,Conductor*%
%ADD23C,0.800000*%
%TD*%
G04 APERTURE END LIST*
D10*
%TO.P,U1,1,TempA*%
%TO.N,GND*%
X66300000Y-51435000D03*
D11*
%TO.P,U1,2,Gas1A*%
%TO.N,GAS1*%
X66857670Y-53151333D03*
%TO.P,U1,3,ResA*%
%TO.N,GND*%
X68317670Y-54212085D03*
%TO.P,U1,4,Gas1B*%
%TO.N,+5V*%
X70122330Y-54212085D03*
%TO.P,U1,5,NC*%
%TO.N,GND*%
X71582330Y-53151333D03*
%TO.P,U1,6,TempB*%
%TO.N,ADC2*%
X72140000Y-51435000D03*
%TO.P,U1,7,Gas2A*%
%TO.N,+5V*%
X71582330Y-49718667D03*
%TO.P,U1,8,ResB*%
%TO.N,SW_12V*%
X70122330Y-48657915D03*
%TO.P,U1,9,Gas2B*%
%TO.N,GAS2*%
X68317670Y-48657915D03*
%TO.P,U1,10,NC*%
%TO.N,GND*%
X66857670Y-49718667D03*
%TD*%
D12*
%TO.P,C3,1*%
%TO.N,+5V*%
X64095000Y-62230000D03*
%TO.P,C3,2*%
%TO.N,GND*%
X59095000Y-62230000D03*
%TD*%
%TO.P,R2,1*%
%TO.N,Net-(U2-IN-)*%
X44450000Y-40640000D03*
D13*
%TO.P,R2,2*%
%TO.N,GND*%
X54610000Y-40640000D03*
%TD*%
D12*
%TO.P,R1,1*%
%TO.N,Net-(U2-IN+)*%
X54610000Y-45085000D03*
D13*
%TO.P,R1,2*%
%TO.N,GND*%
X44450000Y-45085000D03*
%TD*%
D14*
%TO.P,Q1,1,G*%
%TO.N,Net-(Q1-G)*%
X85090000Y-53650000D03*
D15*
%TO.P,Q1,2,D*%
%TO.N,SW_12V*%
X87630000Y-53650000D03*
%TO.P,Q1,3,S*%
%TO.N,GND*%
X90170000Y-53650000D03*
%TD*%
D12*
%TO.P,R6,1*%
%TO.N,ADC2*%
X74295000Y-58420000D03*
D13*
%TO.P,R6,2*%
%TO.N,+5V*%
X64135000Y-58420000D03*
%TD*%
D12*
%TO.P,R7,1*%
%TO.N,+12V*%
X77470000Y-58420000D03*
D13*
%TO.P,R7,2*%
%TO.N,SW_12V*%
X87630000Y-58420000D03*
%TD*%
D12*
%TO.P,R8,1*%
%TO.N,SW_CTL*%
X80010000Y-43815000D03*
D13*
%TO.P,R8,2*%
%TO.N,Net-(Q1-G)*%
X80010000Y-53975000D03*
%TD*%
D16*
%TO.P,J1,1,Pin_1*%
%TO.N,RST*%
X67945000Y-26035000D03*
D17*
%TO.P,J1,2,Pin_2*%
%TO.N,TX*%
X65405000Y-26035000D03*
%TO.P,J1,3,Pin_3*%
%TO.N,RX*%
X62865000Y-26035000D03*
%TO.P,J1,4,Pin_4*%
%TO.N,+3.3V*%
X60325000Y-26035000D03*
%TO.P,J1,5,Pin_5*%
%TO.N,unconnected-(J1-Pin_5-Pad5)*%
X57785000Y-26035000D03*
%TO.P,J1,6,Pin_6*%
%TO.N,GND*%
X55245000Y-26035000D03*
%TO.P,J1,7,Pin_7*%
%TO.N,unconnected-(J1-Pin_7-Pad7)*%
X52705000Y-26035000D03*
%TD*%
D12*
%TO.P,R4,1*%
%TO.N,Net-(SW1-B)*%
X58420000Y-35560000D03*
D13*
%TO.P,R4,2*%
%TO.N,Net-(U2-IN+)*%
X58420000Y-45720000D03*
%TD*%
D18*
%TO.P,SW1,1,A*%
%TO.N,GAS1*%
X64515000Y-35560000D03*
D19*
%TO.P,SW1,2,B*%
%TO.N,Net-(SW1-B)*%
X69215000Y-35560000D03*
%TO.P,SW1,3,C*%
%TO.N,GAS2*%
X73915000Y-35560000D03*
%TD*%
D17*
%TO.P,A1,*%
%TO.N,*%
X56515000Y-67310000D03*
%TO.P,A1,3V3,3.3V*%
%TO.N,+3.3V*%
X64135000Y-67310000D03*
%TO.P,A1,5V1,5V*%
%TO.N,+5V*%
X66675000Y-67310000D03*
D20*
%TO.P,A1,5V2,SPI_5V*%
%TO.N,unconnected-(A1-SPI_5V-Pad5V2)*%
X94742000Y-39370000D03*
D17*
%TO.P,A1,A0,A0*%
%TO.N,ADC2*%
X79375000Y-67310000D03*
%TO.P,A1,A1,A1*%
%TO.N,ADC1*%
X81915000Y-67310000D03*
%TO.P,A1,A2,A2*%
%TO.N,unconnected-(A1-PadA2)*%
X84455000Y-67310000D03*
%TO.P,A1,A3,A3*%
%TO.N,unconnected-(A1-PadA3)*%
X86995000Y-67310000D03*
%TO.P,A1,A4,A4*%
%TO.N,unconnected-(A1-PadA4)*%
X89535000Y-67310000D03*
%TO.P,A1,A5,A5*%
%TO.N,unconnected-(A1-PadA5)*%
X92075000Y-67310000D03*
%TO.P,A1,AREF,AREF*%
%TO.N,unconnected-(A1-PadAREF)*%
X52451000Y-19050000D03*
%TO.P,A1,D0,D0/RX*%
%TO.N,unconnected-(A1-D0{slash}RX-PadD0)*%
X92075000Y-19050000D03*
%TO.P,A1,D1,D1/TX*%
%TO.N,unconnected-(A1-D1{slash}TX-PadD1)*%
X89535000Y-19050000D03*
%TO.P,A1,D2,D2_INT0*%
%TO.N,SW_CTL*%
X86995000Y-19050000D03*
%TO.P,A1,D3,D3_INT1*%
%TO.N,unconnected-(A1-D3_INT1-PadD3)*%
X84455000Y-19050000D03*
%TO.P,A1,D4,D4*%
%TO.N,unconnected-(A1-PadD4)*%
X81915000Y-19050000D03*
%TO.P,A1,D5,D5*%
%TO.N,unconnected-(A1-PadD5)*%
X79375000Y-19050000D03*
%TO.P,A1,D6,D6*%
%TO.N,unconnected-(A1-PadD6)*%
X76835000Y-19050000D03*
%TO.P,A1,D7,D7*%
%TO.N,unconnected-(A1-PadD7)*%
X74295000Y-19050000D03*
%TO.P,A1,D8,D8*%
%TO.N,unconnected-(A1-PadD8)*%
X70231000Y-19050000D03*
%TO.P,A1,D9,D9*%
%TO.N,RST*%
X67691000Y-19050000D03*
%TO.P,A1,D10,D10_CS*%
%TO.N,TX*%
X65151000Y-19050000D03*
%TO.P,A1,D11,D11*%
%TO.N,RX*%
X62611000Y-19050000D03*
%TO.P,A1,D12,D12*%
%TO.N,unconnected-(A1-PadD12)*%
X60071000Y-19050000D03*
%TO.P,A1,D13,D13*%
%TO.N,unconnected-(A1-PadD13)*%
X57531000Y-19050000D03*
D16*
%TO.P,A1,GND1,GND*%
%TO.N,GND*%
X54991000Y-19050000D03*
%TO.P,A1,GND2,GND*%
X69215000Y-67310000D03*
%TO.P,A1,GND3,GND*%
X71755000Y-67310000D03*
D21*
%TO.P,A1,GND4,SPI_GND*%
%TO.N,unconnected-(A1-SPI_GND-PadGND4)*%
X94742000Y-44450000D03*
D17*
%TO.P,A1,IORF,IOREF*%
%TO.N,unconnected-(A1-IOREF-PadIORF)*%
X59055000Y-67310000D03*
D20*
%TO.P,A1,MISO,SPI_MISO*%
%TO.N,unconnected-(A1-SPI_MISO-PadMISO)*%
X92202000Y-39370000D03*
%TO.P,A1,MOSI,SPI_MOSI*%
%TO.N,unconnected-(A1-SPI_MOSI-PadMOSI)*%
X94742000Y-41910000D03*
D17*
%TO.P,A1,RST1,RESET*%
%TO.N,unconnected-(A1-RESET-PadRST1)*%
X61595000Y-67310000D03*
D20*
%TO.P,A1,RST2,SPI_RESET*%
%TO.N,unconnected-(A1-SPI_RESET-PadRST2)*%
X92202000Y-44450000D03*
%TO.P,A1,SCK,SPI_SCK*%
%TO.N,unconnected-(A1-SPI_SCK-PadSCK)*%
X92202000Y-41910000D03*
D17*
%TO.P,A1,SCL,SCL*%
%TO.N,unconnected-(A1-PadSCL)*%
X47371000Y-19050000D03*
%TO.P,A1,SDA,SDA*%
%TO.N,unconnected-(A1-PadSDA)*%
X49911000Y-19050000D03*
%TO.P,A1,VIN,VIN*%
%TO.N,+12V*%
X74295000Y-67310000D03*
%TD*%
D12*
%TO.P,C1,1*%
%TO.N,Net-(U2-IN+)*%
X48300000Y-62230000D03*
%TO.P,C1,2*%
%TO.N,GND*%
X53300000Y-62230000D03*
%TD*%
%TO.P,R3,1*%
%TO.N,Net-(U2-IN-)*%
X44450000Y-35560000D03*
D13*
%TO.P,R3,2*%
%TO.N,Net-(U2-OUT)*%
X54610000Y-35560000D03*
%TD*%
D12*
%TO.P,C2,1*%
%TO.N,ADC1*%
X86360000Y-39925000D03*
%TO.P,C2,2*%
%TO.N,GND*%
X86360000Y-34925000D03*
%TD*%
%TO.P,R5,1*%
%TO.N,Net-(U2-OUT)*%
X81915000Y-29805000D03*
D13*
%TO.P,R5,2*%
%TO.N,ADC1*%
X81915000Y-39965000D03*
%TD*%
D12*
%TO.P,C4,2*%
%TO.N,Net-(U2-OUT)*%
X49490000Y-30480000D03*
%TO.P,C4,1*%
%TO.N,Net-(U2-IN-)*%
X44490000Y-30480000D03*
%TD*%
D16*
%TO.P,U2,1,NC*%
%TO.N,unconnected-(U2-NC-Pad1)*%
X50810000Y-50175000D03*
D17*
%TO.P,U2,2,IN-*%
%TO.N,Net-(U2-IN-)*%
X50810000Y-52715000D03*
%TO.P,U2,3,IN+*%
%TO.N,Net-(U2-IN+)*%
X50810000Y-55255000D03*
%TO.P,U2,4,V-*%
%TO.N,GND*%
X50810000Y-57795000D03*
%TO.P,U2,5,NC*%
%TO.N,unconnected-(U2-NC-Pad5)*%
X58430000Y-57795000D03*
%TO.P,U2,6,V+*%
%TO.N,+5V*%
X58430000Y-55255000D03*
%TO.P,U2,7,OUT*%
%TO.N,Net-(U2-OUT)*%
X58430000Y-52715000D03*
%TO.P,U2,8,CLK*%
%TO.N,unconnected-(U2-CLK-Pad8)*%
X58430000Y-50175000D03*
%TD*%
D22*
%TO.N,+12V*%
X77579203Y-62120797D03*
X71120000Y-62230000D03*
%TD*%
D23*
%TO.N,+12V*%
X71229203Y-62120797D02*
X71120000Y-62230000D01*
X77579203Y-62120797D02*
X71229203Y-62120797D01*
%TD*%
M02*
