%TF.GenerationSoftware,KiCad,Pcbnew,7.0.9*%
%TF.CreationDate,2023-12-06T14:48:21+01:00*%
%TF.ProjectId,Gas_Sensor,4761735f-5365-46e7-936f-722e6b696361,rev?*%
%TF.SameCoordinates,Original*%
%TF.FileFunction,Legend,Top*%
%TF.FilePolarity,Positive*%
%FSLAX46Y46*%
G04 Gerber Fmt 4.6, Leading zero omitted, Abs format (unit mm)*
G04 Created by KiCad (PCBNEW 7.0.9) date 2023-12-06 14:48:21*
%MOMM*%
%LPD*%
G01*
G04 APERTURE LIST*
%ADD10C,0.150000*%
%ADD11C,0.254000*%
%ADD12C,0.120000*%
%ADD13C,0.100000*%
%ADD14C,0.200000*%
G04 APERTURE END LIST*
D10*
X68458095Y-45069819D02*
X68458095Y-45879342D01*
X68458095Y-45879342D02*
X68505714Y-45974580D01*
X68505714Y-45974580D02*
X68553333Y-46022200D01*
X68553333Y-46022200D02*
X68648571Y-46069819D01*
X68648571Y-46069819D02*
X68839047Y-46069819D01*
X68839047Y-46069819D02*
X68934285Y-46022200D01*
X68934285Y-46022200D02*
X68981904Y-45974580D01*
X68981904Y-45974580D02*
X69029523Y-45879342D01*
X69029523Y-45879342D02*
X69029523Y-45069819D01*
X70029523Y-46069819D02*
X69458095Y-46069819D01*
X69743809Y-46069819D02*
X69743809Y-45069819D01*
X69743809Y-45069819D02*
X69648571Y-45212676D01*
X69648571Y-45212676D02*
X69553333Y-45307914D01*
X69553333Y-45307914D02*
X69458095Y-45355533D01*
X61428333Y-65089580D02*
X61380714Y-65137200D01*
X61380714Y-65137200D02*
X61237857Y-65184819D01*
X61237857Y-65184819D02*
X61142619Y-65184819D01*
X61142619Y-65184819D02*
X60999762Y-65137200D01*
X60999762Y-65137200D02*
X60904524Y-65041961D01*
X60904524Y-65041961D02*
X60856905Y-64946723D01*
X60856905Y-64946723D02*
X60809286Y-64756247D01*
X60809286Y-64756247D02*
X60809286Y-64613390D01*
X60809286Y-64613390D02*
X60856905Y-64422914D01*
X60856905Y-64422914D02*
X60904524Y-64327676D01*
X60904524Y-64327676D02*
X60999762Y-64232438D01*
X60999762Y-64232438D02*
X61142619Y-64184819D01*
X61142619Y-64184819D02*
X61237857Y-64184819D01*
X61237857Y-64184819D02*
X61380714Y-64232438D01*
X61380714Y-64232438D02*
X61428333Y-64280057D01*
X61761667Y-64184819D02*
X62380714Y-64184819D01*
X62380714Y-64184819D02*
X62047381Y-64565771D01*
X62047381Y-64565771D02*
X62190238Y-64565771D01*
X62190238Y-64565771D02*
X62285476Y-64613390D01*
X62285476Y-64613390D02*
X62333095Y-64661009D01*
X62333095Y-64661009D02*
X62380714Y-64756247D01*
X62380714Y-64756247D02*
X62380714Y-64994342D01*
X62380714Y-64994342D02*
X62333095Y-65089580D01*
X62333095Y-65089580D02*
X62285476Y-65137200D01*
X62285476Y-65137200D02*
X62190238Y-65184819D01*
X62190238Y-65184819D02*
X61904524Y-65184819D01*
X61904524Y-65184819D02*
X61809286Y-65137200D01*
X61809286Y-65137200D02*
X61761667Y-65089580D01*
X49363333Y-38724819D02*
X49030000Y-38248628D01*
X48791905Y-38724819D02*
X48791905Y-37724819D01*
X48791905Y-37724819D02*
X49172857Y-37724819D01*
X49172857Y-37724819D02*
X49268095Y-37772438D01*
X49268095Y-37772438D02*
X49315714Y-37820057D01*
X49315714Y-37820057D02*
X49363333Y-37915295D01*
X49363333Y-37915295D02*
X49363333Y-38058152D01*
X49363333Y-38058152D02*
X49315714Y-38153390D01*
X49315714Y-38153390D02*
X49268095Y-38201009D01*
X49268095Y-38201009D02*
X49172857Y-38248628D01*
X49172857Y-38248628D02*
X48791905Y-38248628D01*
X49744286Y-37820057D02*
X49791905Y-37772438D01*
X49791905Y-37772438D02*
X49887143Y-37724819D01*
X49887143Y-37724819D02*
X50125238Y-37724819D01*
X50125238Y-37724819D02*
X50220476Y-37772438D01*
X50220476Y-37772438D02*
X50268095Y-37820057D01*
X50268095Y-37820057D02*
X50315714Y-37915295D01*
X50315714Y-37915295D02*
X50315714Y-38010533D01*
X50315714Y-38010533D02*
X50268095Y-38153390D01*
X50268095Y-38153390D02*
X49696667Y-38724819D01*
X49696667Y-38724819D02*
X50315714Y-38724819D01*
X49363333Y-47909819D02*
X49030000Y-47433628D01*
X48791905Y-47909819D02*
X48791905Y-46909819D01*
X48791905Y-46909819D02*
X49172857Y-46909819D01*
X49172857Y-46909819D02*
X49268095Y-46957438D01*
X49268095Y-46957438D02*
X49315714Y-47005057D01*
X49315714Y-47005057D02*
X49363333Y-47100295D01*
X49363333Y-47100295D02*
X49363333Y-47243152D01*
X49363333Y-47243152D02*
X49315714Y-47338390D01*
X49315714Y-47338390D02*
X49268095Y-47386009D01*
X49268095Y-47386009D02*
X49172857Y-47433628D01*
X49172857Y-47433628D02*
X48791905Y-47433628D01*
X50315714Y-47909819D02*
X49744286Y-47909819D01*
X50030000Y-47909819D02*
X50030000Y-46909819D01*
X50030000Y-46909819D02*
X49934762Y-47052676D01*
X49934762Y-47052676D02*
X49839524Y-47147914D01*
X49839524Y-47147914D02*
X49744286Y-47195533D01*
X87534761Y-49930057D02*
X87439523Y-49882438D01*
X87439523Y-49882438D02*
X87344285Y-49787200D01*
X87344285Y-49787200D02*
X87201428Y-49644342D01*
X87201428Y-49644342D02*
X87106190Y-49596723D01*
X87106190Y-49596723D02*
X87010952Y-49596723D01*
X87058571Y-49834819D02*
X86963333Y-49787200D01*
X86963333Y-49787200D02*
X86868095Y-49691961D01*
X86868095Y-49691961D02*
X86820476Y-49501485D01*
X86820476Y-49501485D02*
X86820476Y-49168152D01*
X86820476Y-49168152D02*
X86868095Y-48977676D01*
X86868095Y-48977676D02*
X86963333Y-48882438D01*
X86963333Y-48882438D02*
X87058571Y-48834819D01*
X87058571Y-48834819D02*
X87249047Y-48834819D01*
X87249047Y-48834819D02*
X87344285Y-48882438D01*
X87344285Y-48882438D02*
X87439523Y-48977676D01*
X87439523Y-48977676D02*
X87487142Y-49168152D01*
X87487142Y-49168152D02*
X87487142Y-49501485D01*
X87487142Y-49501485D02*
X87439523Y-49691961D01*
X87439523Y-49691961D02*
X87344285Y-49787200D01*
X87344285Y-49787200D02*
X87249047Y-49834819D01*
X87249047Y-49834819D02*
X87058571Y-49834819D01*
X88439523Y-49834819D02*
X87868095Y-49834819D01*
X88153809Y-49834819D02*
X88153809Y-48834819D01*
X88153809Y-48834819D02*
X88058571Y-48977676D01*
X88058571Y-48977676D02*
X87963333Y-49072914D01*
X87963333Y-49072914D02*
X87868095Y-49120533D01*
X69048333Y-61244819D02*
X68715000Y-60768628D01*
X68476905Y-61244819D02*
X68476905Y-60244819D01*
X68476905Y-60244819D02*
X68857857Y-60244819D01*
X68857857Y-60244819D02*
X68953095Y-60292438D01*
X68953095Y-60292438D02*
X69000714Y-60340057D01*
X69000714Y-60340057D02*
X69048333Y-60435295D01*
X69048333Y-60435295D02*
X69048333Y-60578152D01*
X69048333Y-60578152D02*
X69000714Y-60673390D01*
X69000714Y-60673390D02*
X68953095Y-60721009D01*
X68953095Y-60721009D02*
X68857857Y-60768628D01*
X68857857Y-60768628D02*
X68476905Y-60768628D01*
X69905476Y-60244819D02*
X69715000Y-60244819D01*
X69715000Y-60244819D02*
X69619762Y-60292438D01*
X69619762Y-60292438D02*
X69572143Y-60340057D01*
X69572143Y-60340057D02*
X69476905Y-60482914D01*
X69476905Y-60482914D02*
X69429286Y-60673390D01*
X69429286Y-60673390D02*
X69429286Y-61054342D01*
X69429286Y-61054342D02*
X69476905Y-61149580D01*
X69476905Y-61149580D02*
X69524524Y-61197200D01*
X69524524Y-61197200D02*
X69619762Y-61244819D01*
X69619762Y-61244819D02*
X69810238Y-61244819D01*
X69810238Y-61244819D02*
X69905476Y-61197200D01*
X69905476Y-61197200D02*
X69953095Y-61149580D01*
X69953095Y-61149580D02*
X70000714Y-61054342D01*
X70000714Y-61054342D02*
X70000714Y-60816247D01*
X70000714Y-60816247D02*
X69953095Y-60721009D01*
X69953095Y-60721009D02*
X69905476Y-60673390D01*
X69905476Y-60673390D02*
X69810238Y-60625771D01*
X69810238Y-60625771D02*
X69619762Y-60625771D01*
X69619762Y-60625771D02*
X69524524Y-60673390D01*
X69524524Y-60673390D02*
X69476905Y-60721009D01*
X69476905Y-60721009D02*
X69429286Y-60816247D01*
X82383333Y-56504819D02*
X82050000Y-56028628D01*
X81811905Y-56504819D02*
X81811905Y-55504819D01*
X81811905Y-55504819D02*
X82192857Y-55504819D01*
X82192857Y-55504819D02*
X82288095Y-55552438D01*
X82288095Y-55552438D02*
X82335714Y-55600057D01*
X82335714Y-55600057D02*
X82383333Y-55695295D01*
X82383333Y-55695295D02*
X82383333Y-55838152D01*
X82383333Y-55838152D02*
X82335714Y-55933390D01*
X82335714Y-55933390D02*
X82288095Y-55981009D01*
X82288095Y-55981009D02*
X82192857Y-56028628D01*
X82192857Y-56028628D02*
X81811905Y-56028628D01*
X82716667Y-55504819D02*
X83383333Y-55504819D01*
X83383333Y-55504819D02*
X82954762Y-56504819D01*
X82834819Y-49061666D02*
X82358628Y-49394999D01*
X82834819Y-49633094D02*
X81834819Y-49633094D01*
X81834819Y-49633094D02*
X81834819Y-49252142D01*
X81834819Y-49252142D02*
X81882438Y-49156904D01*
X81882438Y-49156904D02*
X81930057Y-49109285D01*
X81930057Y-49109285D02*
X82025295Y-49061666D01*
X82025295Y-49061666D02*
X82168152Y-49061666D01*
X82168152Y-49061666D02*
X82263390Y-49109285D01*
X82263390Y-49109285D02*
X82311009Y-49156904D01*
X82311009Y-49156904D02*
X82358628Y-49252142D01*
X82358628Y-49252142D02*
X82358628Y-49633094D01*
X82263390Y-48490237D02*
X82215771Y-48585475D01*
X82215771Y-48585475D02*
X82168152Y-48633094D01*
X82168152Y-48633094D02*
X82072914Y-48680713D01*
X82072914Y-48680713D02*
X82025295Y-48680713D01*
X82025295Y-48680713D02*
X81930057Y-48633094D01*
X81930057Y-48633094D02*
X81882438Y-48585475D01*
X81882438Y-48585475D02*
X81834819Y-48490237D01*
X81834819Y-48490237D02*
X81834819Y-48299761D01*
X81834819Y-48299761D02*
X81882438Y-48204523D01*
X81882438Y-48204523D02*
X81930057Y-48156904D01*
X81930057Y-48156904D02*
X82025295Y-48109285D01*
X82025295Y-48109285D02*
X82072914Y-48109285D01*
X82072914Y-48109285D02*
X82168152Y-48156904D01*
X82168152Y-48156904D02*
X82215771Y-48204523D01*
X82215771Y-48204523D02*
X82263390Y-48299761D01*
X82263390Y-48299761D02*
X82263390Y-48490237D01*
X82263390Y-48490237D02*
X82311009Y-48585475D01*
X82311009Y-48585475D02*
X82358628Y-48633094D01*
X82358628Y-48633094D02*
X82453866Y-48680713D01*
X82453866Y-48680713D02*
X82644342Y-48680713D01*
X82644342Y-48680713D02*
X82739580Y-48633094D01*
X82739580Y-48633094D02*
X82787200Y-48585475D01*
X82787200Y-48585475D02*
X82834819Y-48490237D01*
X82834819Y-48490237D02*
X82834819Y-48299761D01*
X82834819Y-48299761D02*
X82787200Y-48204523D01*
X82787200Y-48204523D02*
X82739580Y-48156904D01*
X82739580Y-48156904D02*
X82644342Y-48109285D01*
X82644342Y-48109285D02*
X82453866Y-48109285D01*
X82453866Y-48109285D02*
X82358628Y-48156904D01*
X82358628Y-48156904D02*
X82311009Y-48204523D01*
X82311009Y-48204523D02*
X82263390Y-48299761D01*
X69729819Y-26368333D02*
X70444104Y-26368333D01*
X70444104Y-26368333D02*
X70586961Y-26415952D01*
X70586961Y-26415952D02*
X70682200Y-26511190D01*
X70682200Y-26511190D02*
X70729819Y-26654047D01*
X70729819Y-26654047D02*
X70729819Y-26749285D01*
X70729819Y-25368333D02*
X70729819Y-25939761D01*
X70729819Y-25654047D02*
X69729819Y-25654047D01*
X69729819Y-25654047D02*
X69872676Y-25749285D01*
X69872676Y-25749285D02*
X69967914Y-25844523D01*
X69967914Y-25844523D02*
X70015533Y-25939761D01*
X61244819Y-40806666D02*
X60768628Y-41139999D01*
X61244819Y-41378094D02*
X60244819Y-41378094D01*
X60244819Y-41378094D02*
X60244819Y-40997142D01*
X60244819Y-40997142D02*
X60292438Y-40901904D01*
X60292438Y-40901904D02*
X60340057Y-40854285D01*
X60340057Y-40854285D02*
X60435295Y-40806666D01*
X60435295Y-40806666D02*
X60578152Y-40806666D01*
X60578152Y-40806666D02*
X60673390Y-40854285D01*
X60673390Y-40854285D02*
X60721009Y-40901904D01*
X60721009Y-40901904D02*
X60768628Y-40997142D01*
X60768628Y-40997142D02*
X60768628Y-41378094D01*
X60578152Y-39949523D02*
X61244819Y-39949523D01*
X60197200Y-40187618D02*
X60911485Y-40425713D01*
X60911485Y-40425713D02*
X60911485Y-39806666D01*
D11*
X67521666Y-36073842D02*
X67703095Y-36134318D01*
X67703095Y-36134318D02*
X68005476Y-36134318D01*
X68005476Y-36134318D02*
X68126428Y-36073842D01*
X68126428Y-36073842D02*
X68186904Y-36013365D01*
X68186904Y-36013365D02*
X68247381Y-35892413D01*
X68247381Y-35892413D02*
X68247381Y-35771461D01*
X68247381Y-35771461D02*
X68186904Y-35650508D01*
X68186904Y-35650508D02*
X68126428Y-35590032D01*
X68126428Y-35590032D02*
X68005476Y-35529556D01*
X68005476Y-35529556D02*
X67763571Y-35469080D01*
X67763571Y-35469080D02*
X67642619Y-35408603D01*
X67642619Y-35408603D02*
X67582142Y-35348127D01*
X67582142Y-35348127D02*
X67521666Y-35227175D01*
X67521666Y-35227175D02*
X67521666Y-35106222D01*
X67521666Y-35106222D02*
X67582142Y-34985270D01*
X67582142Y-34985270D02*
X67642619Y-34924794D01*
X67642619Y-34924794D02*
X67763571Y-34864318D01*
X67763571Y-34864318D02*
X68065952Y-34864318D01*
X68065952Y-34864318D02*
X68247381Y-34924794D01*
X68670714Y-34864318D02*
X68973095Y-36134318D01*
X68973095Y-36134318D02*
X69215000Y-35227175D01*
X69215000Y-35227175D02*
X69456905Y-36134318D01*
X69456905Y-36134318D02*
X69759286Y-34864318D01*
X70908334Y-36134318D02*
X70182619Y-36134318D01*
X70545476Y-36134318D02*
X70545476Y-34864318D01*
X70545476Y-34864318D02*
X70424524Y-35045746D01*
X70424524Y-35045746D02*
X70303572Y-35166699D01*
X70303572Y-35166699D02*
X70182619Y-35227175D01*
D10*
X91336905Y-21409819D02*
X91336905Y-20409819D01*
X91336905Y-20409819D02*
X91575000Y-20409819D01*
X91575000Y-20409819D02*
X91717857Y-20457438D01*
X91717857Y-20457438D02*
X91813095Y-20552676D01*
X91813095Y-20552676D02*
X91860714Y-20647914D01*
X91860714Y-20647914D02*
X91908333Y-20838390D01*
X91908333Y-20838390D02*
X91908333Y-20981247D01*
X91908333Y-20981247D02*
X91860714Y-21171723D01*
X91860714Y-21171723D02*
X91813095Y-21266961D01*
X91813095Y-21266961D02*
X91717857Y-21362200D01*
X91717857Y-21362200D02*
X91575000Y-21409819D01*
X91575000Y-21409819D02*
X91336905Y-21409819D01*
X92527381Y-20409819D02*
X92622619Y-20409819D01*
X92622619Y-20409819D02*
X92717857Y-20457438D01*
X92717857Y-20457438D02*
X92765476Y-20505057D01*
X92765476Y-20505057D02*
X92813095Y-20600295D01*
X92813095Y-20600295D02*
X92860714Y-20790771D01*
X92860714Y-20790771D02*
X92860714Y-21028866D01*
X92860714Y-21028866D02*
X92813095Y-21219342D01*
X92813095Y-21219342D02*
X92765476Y-21314580D01*
X92765476Y-21314580D02*
X92717857Y-21362200D01*
X92717857Y-21362200D02*
X92622619Y-21409819D01*
X92622619Y-21409819D02*
X92527381Y-21409819D01*
X92527381Y-21409819D02*
X92432143Y-21362200D01*
X92432143Y-21362200D02*
X92384524Y-21314580D01*
X92384524Y-21314580D02*
X92336905Y-21219342D01*
X92336905Y-21219342D02*
X92289286Y-21028866D01*
X92289286Y-21028866D02*
X92289286Y-20790771D01*
X92289286Y-20790771D02*
X92336905Y-20600295D01*
X92336905Y-20600295D02*
X92384524Y-20505057D01*
X92384524Y-20505057D02*
X92432143Y-20457438D01*
X92432143Y-20457438D02*
X92527381Y-20409819D01*
X90424000Y-34395580D02*
X90471619Y-34443200D01*
X90471619Y-34443200D02*
X90424000Y-34490819D01*
X90424000Y-34490819D02*
X90376381Y-34443200D01*
X90376381Y-34443200D02*
X90424000Y-34395580D01*
X90424000Y-34395580D02*
X90424000Y-34490819D01*
X50633333Y-60089580D02*
X50585714Y-60137200D01*
X50585714Y-60137200D02*
X50442857Y-60184819D01*
X50442857Y-60184819D02*
X50347619Y-60184819D01*
X50347619Y-60184819D02*
X50204762Y-60137200D01*
X50204762Y-60137200D02*
X50109524Y-60041961D01*
X50109524Y-60041961D02*
X50061905Y-59946723D01*
X50061905Y-59946723D02*
X50014286Y-59756247D01*
X50014286Y-59756247D02*
X50014286Y-59613390D01*
X50014286Y-59613390D02*
X50061905Y-59422914D01*
X50061905Y-59422914D02*
X50109524Y-59327676D01*
X50109524Y-59327676D02*
X50204762Y-59232438D01*
X50204762Y-59232438D02*
X50347619Y-59184819D01*
X50347619Y-59184819D02*
X50442857Y-59184819D01*
X50442857Y-59184819D02*
X50585714Y-59232438D01*
X50585714Y-59232438D02*
X50633333Y-59280057D01*
X51585714Y-60184819D02*
X51014286Y-60184819D01*
X51300000Y-60184819D02*
X51300000Y-59184819D01*
X51300000Y-59184819D02*
X51204762Y-59327676D01*
X51204762Y-59327676D02*
X51109524Y-59422914D01*
X51109524Y-59422914D02*
X51014286Y-59470533D01*
X49363333Y-33644819D02*
X49030000Y-33168628D01*
X48791905Y-33644819D02*
X48791905Y-32644819D01*
X48791905Y-32644819D02*
X49172857Y-32644819D01*
X49172857Y-32644819D02*
X49268095Y-32692438D01*
X49268095Y-32692438D02*
X49315714Y-32740057D01*
X49315714Y-32740057D02*
X49363333Y-32835295D01*
X49363333Y-32835295D02*
X49363333Y-32978152D01*
X49363333Y-32978152D02*
X49315714Y-33073390D01*
X49315714Y-33073390D02*
X49268095Y-33121009D01*
X49268095Y-33121009D02*
X49172857Y-33168628D01*
X49172857Y-33168628D02*
X48791905Y-33168628D01*
X49696667Y-32644819D02*
X50315714Y-32644819D01*
X50315714Y-32644819D02*
X49982381Y-33025771D01*
X49982381Y-33025771D02*
X50125238Y-33025771D01*
X50125238Y-33025771D02*
X50220476Y-33073390D01*
X50220476Y-33073390D02*
X50268095Y-33121009D01*
X50268095Y-33121009D02*
X50315714Y-33216247D01*
X50315714Y-33216247D02*
X50315714Y-33454342D01*
X50315714Y-33454342D02*
X50268095Y-33549580D01*
X50268095Y-33549580D02*
X50220476Y-33597200D01*
X50220476Y-33597200D02*
X50125238Y-33644819D01*
X50125238Y-33644819D02*
X49839524Y-33644819D01*
X49839524Y-33644819D02*
X49744286Y-33597200D01*
X49744286Y-33597200D02*
X49696667Y-33549580D01*
X84219580Y-37591666D02*
X84267200Y-37639285D01*
X84267200Y-37639285D02*
X84314819Y-37782142D01*
X84314819Y-37782142D02*
X84314819Y-37877380D01*
X84314819Y-37877380D02*
X84267200Y-38020237D01*
X84267200Y-38020237D02*
X84171961Y-38115475D01*
X84171961Y-38115475D02*
X84076723Y-38163094D01*
X84076723Y-38163094D02*
X83886247Y-38210713D01*
X83886247Y-38210713D02*
X83743390Y-38210713D01*
X83743390Y-38210713D02*
X83552914Y-38163094D01*
X83552914Y-38163094D02*
X83457676Y-38115475D01*
X83457676Y-38115475D02*
X83362438Y-38020237D01*
X83362438Y-38020237D02*
X83314819Y-37877380D01*
X83314819Y-37877380D02*
X83314819Y-37782142D01*
X83314819Y-37782142D02*
X83362438Y-37639285D01*
X83362438Y-37639285D02*
X83410057Y-37591666D01*
X83410057Y-37210713D02*
X83362438Y-37163094D01*
X83362438Y-37163094D02*
X83314819Y-37067856D01*
X83314819Y-37067856D02*
X83314819Y-36829761D01*
X83314819Y-36829761D02*
X83362438Y-36734523D01*
X83362438Y-36734523D02*
X83410057Y-36686904D01*
X83410057Y-36686904D02*
X83505295Y-36639285D01*
X83505295Y-36639285D02*
X83600533Y-36639285D01*
X83600533Y-36639285D02*
X83743390Y-36686904D01*
X83743390Y-36686904D02*
X84314819Y-37258332D01*
X84314819Y-37258332D02*
X84314819Y-36639285D01*
X84739819Y-35051666D02*
X84263628Y-35384999D01*
X84739819Y-35623094D02*
X83739819Y-35623094D01*
X83739819Y-35623094D02*
X83739819Y-35242142D01*
X83739819Y-35242142D02*
X83787438Y-35146904D01*
X83787438Y-35146904D02*
X83835057Y-35099285D01*
X83835057Y-35099285D02*
X83930295Y-35051666D01*
X83930295Y-35051666D02*
X84073152Y-35051666D01*
X84073152Y-35051666D02*
X84168390Y-35099285D01*
X84168390Y-35099285D02*
X84216009Y-35146904D01*
X84216009Y-35146904D02*
X84263628Y-35242142D01*
X84263628Y-35242142D02*
X84263628Y-35623094D01*
X83739819Y-34146904D02*
X83739819Y-34623094D01*
X83739819Y-34623094D02*
X84216009Y-34670713D01*
X84216009Y-34670713D02*
X84168390Y-34623094D01*
X84168390Y-34623094D02*
X84120771Y-34527856D01*
X84120771Y-34527856D02*
X84120771Y-34289761D01*
X84120771Y-34289761D02*
X84168390Y-34194523D01*
X84168390Y-34194523D02*
X84216009Y-34146904D01*
X84216009Y-34146904D02*
X84311247Y-34099285D01*
X84311247Y-34099285D02*
X84549342Y-34099285D01*
X84549342Y-34099285D02*
X84644580Y-34146904D01*
X84644580Y-34146904D02*
X84692200Y-34194523D01*
X84692200Y-34194523D02*
X84739819Y-34289761D01*
X84739819Y-34289761D02*
X84739819Y-34527856D01*
X84739819Y-34527856D02*
X84692200Y-34623094D01*
X84692200Y-34623094D02*
X84644580Y-34670713D01*
X46823333Y-28339580D02*
X46775714Y-28387200D01*
X46775714Y-28387200D02*
X46632857Y-28434819D01*
X46632857Y-28434819D02*
X46537619Y-28434819D01*
X46537619Y-28434819D02*
X46394762Y-28387200D01*
X46394762Y-28387200D02*
X46299524Y-28291961D01*
X46299524Y-28291961D02*
X46251905Y-28196723D01*
X46251905Y-28196723D02*
X46204286Y-28006247D01*
X46204286Y-28006247D02*
X46204286Y-27863390D01*
X46204286Y-27863390D02*
X46251905Y-27672914D01*
X46251905Y-27672914D02*
X46299524Y-27577676D01*
X46299524Y-27577676D02*
X46394762Y-27482438D01*
X46394762Y-27482438D02*
X46537619Y-27434819D01*
X46537619Y-27434819D02*
X46632857Y-27434819D01*
X46632857Y-27434819D02*
X46775714Y-27482438D01*
X46775714Y-27482438D02*
X46823333Y-27530057D01*
X47680476Y-27768152D02*
X47680476Y-28434819D01*
X47442381Y-27387200D02*
X47204286Y-28101485D01*
X47204286Y-28101485D02*
X47823333Y-28101485D01*
X53858095Y-47299819D02*
X53858095Y-48109342D01*
X53858095Y-48109342D02*
X53905714Y-48204580D01*
X53905714Y-48204580D02*
X53953333Y-48252200D01*
X53953333Y-48252200D02*
X54048571Y-48299819D01*
X54048571Y-48299819D02*
X54239047Y-48299819D01*
X54239047Y-48299819D02*
X54334285Y-48252200D01*
X54334285Y-48252200D02*
X54381904Y-48204580D01*
X54381904Y-48204580D02*
X54429523Y-48109342D01*
X54429523Y-48109342D02*
X54429523Y-47299819D01*
X54858095Y-47395057D02*
X54905714Y-47347438D01*
X54905714Y-47347438D02*
X55000952Y-47299819D01*
X55000952Y-47299819D02*
X55239047Y-47299819D01*
X55239047Y-47299819D02*
X55334285Y-47347438D01*
X55334285Y-47347438D02*
X55381904Y-47395057D01*
X55381904Y-47395057D02*
X55429523Y-47490295D01*
X55429523Y-47490295D02*
X55429523Y-47585533D01*
X55429523Y-47585533D02*
X55381904Y-47728390D01*
X55381904Y-47728390D02*
X54810476Y-48299819D01*
X54810476Y-48299819D02*
X55429523Y-48299819D01*
D12*
%TO.C,U1*%
X64554144Y-47546961D02*
X65445098Y-48437916D01*
X65331961Y-46769144D02*
X64554144Y-47546961D01*
X66222916Y-47660098D02*
X65331961Y-46769144D01*
X65445327Y-48437629D02*
G75*
G03*
X66222916Y-47660099I3774673J-2997371D01*
G01*
%TO.C,C3*%
X65215000Y-63600000D02*
X65215000Y-60860000D01*
X65215000Y-63600000D02*
X57975000Y-63600000D01*
X65215000Y-60860000D02*
X57975000Y-60860000D01*
X57975000Y-63600000D02*
X57975000Y-60860000D01*
%TO.C,R2*%
X45490000Y-40640000D02*
X46260000Y-40640000D01*
X46260000Y-39270000D02*
X46260000Y-42010000D01*
X46260000Y-42010000D02*
X52800000Y-42010000D01*
X52800000Y-39270000D02*
X46260000Y-39270000D01*
X52800000Y-42010000D02*
X52800000Y-39270000D01*
X53570000Y-40640000D02*
X52800000Y-40640000D01*
%TO.C,R1*%
X53570000Y-45085000D02*
X52800000Y-45085000D01*
X52800000Y-46455000D02*
X52800000Y-43715000D01*
X52800000Y-43715000D02*
X46260000Y-43715000D01*
X46260000Y-46455000D02*
X52800000Y-46455000D01*
X46260000Y-43715000D02*
X46260000Y-46455000D01*
X45490000Y-45085000D02*
X46260000Y-45085000D01*
%TO.C,Q1*%
X82510000Y-50380000D02*
X82510000Y-55021000D01*
X82510000Y-50380000D02*
X92750000Y-50380000D01*
X82510000Y-51890000D02*
X92750000Y-51890000D01*
X82510000Y-55021000D02*
X92750000Y-55021000D01*
X85780000Y-50380000D02*
X85780000Y-51890000D01*
X89481000Y-50380000D02*
X89481000Y-51890000D01*
X92750000Y-50380000D02*
X92750000Y-55021000D01*
%TO.C,R6*%
X73255000Y-58420000D02*
X72485000Y-58420000D01*
X72485000Y-59790000D02*
X72485000Y-57050000D01*
X72485000Y-57050000D02*
X65945000Y-57050000D01*
X65945000Y-59790000D02*
X72485000Y-59790000D01*
X65945000Y-57050000D02*
X65945000Y-59790000D01*
X65175000Y-58420000D02*
X65945000Y-58420000D01*
%TO.C,R7*%
X78510000Y-58420000D02*
X79280000Y-58420000D01*
X79280000Y-57050000D02*
X79280000Y-59790000D01*
X79280000Y-59790000D02*
X85820000Y-59790000D01*
X85820000Y-57050000D02*
X79280000Y-57050000D01*
X85820000Y-59790000D02*
X85820000Y-57050000D01*
X86590000Y-58420000D02*
X85820000Y-58420000D01*
%TO.C,R8*%
X80010000Y-44855000D02*
X80010000Y-45625000D01*
X81380000Y-45625000D02*
X78640000Y-45625000D01*
X78640000Y-45625000D02*
X78640000Y-52165000D01*
X81380000Y-52165000D02*
X81380000Y-45625000D01*
X78640000Y-52165000D02*
X81380000Y-52165000D01*
X80010000Y-52935000D02*
X80010000Y-52165000D01*
%TO.C,J1*%
X69275000Y-24705000D02*
X69275000Y-26035000D01*
X67945000Y-24705000D02*
X69275000Y-24705000D01*
X66675000Y-24705000D02*
X51375000Y-24705000D01*
X66675000Y-24705000D02*
X66675000Y-27365000D01*
X51375000Y-24705000D02*
X51375000Y-27365000D01*
X66675000Y-27365000D02*
X51375000Y-27365000D01*
%TO.C,R4*%
X58420000Y-36600000D02*
X58420000Y-37370000D01*
X59790000Y-37370000D02*
X57050000Y-37370000D01*
X57050000Y-37370000D02*
X57050000Y-43910000D01*
X59790000Y-43910000D02*
X59790000Y-37370000D01*
X57050000Y-43910000D02*
X59790000Y-43910000D01*
X58420000Y-44680000D02*
X58420000Y-43910000D01*
D13*
%TO.C,SW1*%
X62215000Y-35560000D02*
X62215000Y-35560000D01*
X62315000Y-35560000D02*
X62315000Y-35560000D01*
D14*
X62865000Y-32160000D02*
X75565000Y-32160000D01*
X62865000Y-38960000D02*
X62865000Y-32160000D01*
X75565000Y-32160000D02*
X75565000Y-38960000D01*
X75565000Y-38960000D02*
X62865000Y-38960000D01*
D13*
X62315000Y-35560000D02*
G75*
G03*
X62215000Y-35560000I-50000J0D01*
G01*
X62215000Y-35560000D02*
G75*
G03*
X62315000Y-35560000I50000J0D01*
G01*
D12*
%TO.C,C1*%
X47180000Y-60860000D02*
X47180000Y-63600000D01*
X47180000Y-60860000D02*
X54420000Y-60860000D01*
X47180000Y-63600000D02*
X54420000Y-63600000D01*
X54420000Y-60860000D02*
X54420000Y-63600000D01*
%TO.C,R3*%
X45490000Y-35560000D02*
X46260000Y-35560000D01*
X46260000Y-34190000D02*
X46260000Y-36930000D01*
X46260000Y-36930000D02*
X52800000Y-36930000D01*
X52800000Y-34190000D02*
X46260000Y-34190000D01*
X52800000Y-36930000D02*
X52800000Y-34190000D01*
X53570000Y-35560000D02*
X52800000Y-35560000D01*
%TO.C,C2*%
X84990000Y-41045000D02*
X87730000Y-41045000D01*
X84990000Y-41045000D02*
X84990000Y-33805000D01*
X87730000Y-41045000D02*
X87730000Y-33805000D01*
X84990000Y-33805000D02*
X87730000Y-33805000D01*
%TO.C,R5*%
X81915000Y-30845000D02*
X81915000Y-31615000D01*
X83285000Y-31615000D02*
X80545000Y-31615000D01*
X80545000Y-31615000D02*
X80545000Y-38155000D01*
X83285000Y-38155000D02*
X83285000Y-31615000D01*
X80545000Y-38155000D02*
X83285000Y-38155000D01*
X81915000Y-38925000D02*
X81915000Y-38155000D01*
%TO.C,C4*%
X50610000Y-29110000D02*
X50610000Y-31850000D01*
X43370000Y-31850000D02*
X50610000Y-31850000D01*
X43370000Y-29110000D02*
X50610000Y-29110000D01*
X43370000Y-29110000D02*
X43370000Y-31850000D01*
%TO.C,U2*%
X51970000Y-48845000D02*
X51970000Y-59125000D01*
X51970000Y-59125000D02*
X57270000Y-59125000D01*
X53620000Y-48845000D02*
X51970000Y-48845000D01*
X57270000Y-48845000D02*
X55620000Y-48845000D01*
X57270000Y-59125000D02*
X57270000Y-48845000D01*
X53620000Y-48845000D02*
G75*
G03*
X55620000Y-48845000I1000000J0D01*
G01*
%TD*%
M02*
