%TF.GenerationSoftware,KiCad,Pcbnew,7.0.9*%
%TF.CreationDate,2023-12-06T14:48:21+01:00*%
%TF.ProjectId,Gas_Sensor,4761735f-5365-46e7-936f-722e6b696361,rev?*%
%TF.SameCoordinates,Original*%
%TF.FileFunction,Soldermask,Top*%
%TF.FilePolarity,Negative*%
%FSLAX46Y46*%
G04 Gerber Fmt 4.6, Leading zero omitted, Abs format (unit mm)*
G04 Created by KiCad (PCBNEW 7.0.9) date 2023-12-06 14:48:21*
%MOMM*%
%LPD*%
G01*
G04 APERTURE LIST*
%ADD10O,1.600000X1.200000*%
%ADD11O,1.200000X1.200000*%
%ADD12C,2.200000*%
%ADD13O,2.200000X2.200000*%
%ADD14R,1.905000X2.000000*%
%ADD15O,1.905000X2.000000*%
%ADD16R,1.900000X1.900000*%
%ADD17O,1.900000X1.900000*%
%ADD18R,2.520000X2.520000*%
%ADD19C,2.520000*%
%ADD20C,3.200000*%
%ADD21O,1.727200X1.727200*%
%ADD22R,1.727200X1.727200*%
G04 APERTURE END LIST*
D10*
%TO.C,U1*%
X66300000Y-51435000D03*
D11*
X66857670Y-53151333D03*
X68317670Y-54212085D03*
X70122330Y-54212085D03*
X71582330Y-53151333D03*
X72140000Y-51435000D03*
X71582330Y-49718667D03*
X70122330Y-48657915D03*
X68317670Y-48657915D03*
X66857670Y-49718667D03*
%TD*%
D12*
%TO.C,C3*%
X64095000Y-62230000D03*
X59095000Y-62230000D03*
%TD*%
%TO.C,R2*%
X44450000Y-40640000D03*
D13*
X54610000Y-40640000D03*
%TD*%
D12*
%TO.C,R1*%
X54610000Y-45085000D03*
D13*
X44450000Y-45085000D03*
%TD*%
D14*
%TO.C,Q1*%
X85090000Y-53650000D03*
D15*
X87630000Y-53650000D03*
X90170000Y-53650000D03*
%TD*%
D12*
%TO.C,R6*%
X74295000Y-58420000D03*
D13*
X64135000Y-58420000D03*
%TD*%
D12*
%TO.C,R7*%
X77470000Y-58420000D03*
D13*
X87630000Y-58420000D03*
%TD*%
D12*
%TO.C,R8*%
X80010000Y-43815000D03*
D13*
X80010000Y-53975000D03*
%TD*%
D16*
%TO.C,J1*%
X67945000Y-26035000D03*
D17*
X65405000Y-26035000D03*
X62865000Y-26035000D03*
X60325000Y-26035000D03*
X57785000Y-26035000D03*
X55245000Y-26035000D03*
X52705000Y-26035000D03*
%TD*%
D12*
%TO.C,R4*%
X58420000Y-35560000D03*
D13*
X58420000Y-45720000D03*
%TD*%
D18*
%TO.C,SW1*%
X64515000Y-35560000D03*
D19*
X69215000Y-35560000D03*
X73915000Y-35560000D03*
%TD*%
D20*
%TO.C,A1*%
X42545000Y-67310000D03*
X43815000Y-19050000D03*
D17*
X56515000Y-67310000D03*
D20*
X94615000Y-34290000D03*
X94615000Y-62230000D03*
D17*
X64135000Y-67310000D03*
X66675000Y-67310000D03*
D21*
X94742000Y-39370000D03*
D17*
X79375000Y-67310000D03*
X81915000Y-67310000D03*
X84455000Y-67310000D03*
X86995000Y-67310000D03*
X89535000Y-67310000D03*
X92075000Y-67310000D03*
X52451000Y-19050000D03*
X92075000Y-19050000D03*
X89535000Y-19050000D03*
X86995000Y-19050000D03*
X84455000Y-19050000D03*
X81915000Y-19050000D03*
X79375000Y-19050000D03*
X76835000Y-19050000D03*
X74295000Y-19050000D03*
X70231000Y-19050000D03*
X67691000Y-19050000D03*
X65151000Y-19050000D03*
X62611000Y-19050000D03*
X60071000Y-19050000D03*
X57531000Y-19050000D03*
D16*
X54991000Y-19050000D03*
X69215000Y-67310000D03*
X71755000Y-67310000D03*
D22*
X94742000Y-44450000D03*
D17*
X59055000Y-67310000D03*
D21*
X92202000Y-39370000D03*
X94742000Y-41910000D03*
D17*
X61595000Y-67310000D03*
D21*
X92202000Y-44450000D03*
X92202000Y-41910000D03*
D17*
X47371000Y-19050000D03*
X49911000Y-19050000D03*
X74295000Y-67310000D03*
%TD*%
D12*
%TO.C,C1*%
X48300000Y-62230000D03*
X53300000Y-62230000D03*
%TD*%
%TO.C,R3*%
X44450000Y-35560000D03*
D13*
X54610000Y-35560000D03*
%TD*%
D12*
%TO.C,C2*%
X86360000Y-39925000D03*
X86360000Y-34925000D03*
%TD*%
%TO.C,R5*%
X81915000Y-29805000D03*
D13*
X81915000Y-39965000D03*
%TD*%
D12*
%TO.C,C4*%
X49490000Y-30480000D03*
X44490000Y-30480000D03*
%TD*%
D16*
%TO.C,U2*%
X50810000Y-50175000D03*
D17*
X50810000Y-52715000D03*
X50810000Y-55255000D03*
X50810000Y-57795000D03*
X58430000Y-57795000D03*
X58430000Y-55255000D03*
X58430000Y-52715000D03*
X58430000Y-50175000D03*
%TD*%
M02*
