%TF.GenerationSoftware,KiCad,Pcbnew,7.0.9*%
%TF.CreationDate,2023-12-06T14:48:16+01:00*%
%TF.ProjectId,Gas_Sensor,4761735f-5365-46e7-936f-722e6b696361,rev?*%
%TF.SameCoordinates,Original*%
%TF.FileFunction,Drillmap*%
%TF.FilePolarity,Positive*%
%FSLAX45Y45*%
G04 Gerber Fmt 4.5, Leading zero omitted, Abs format (unit mm)*
G04 Created by KiCad (PCBNEW 7.0.9) date 2023-12-06 14:48:16*
%MOMM*%
%LPD*%
G01*
G04 APERTURE LIST*
%ADD10C,0.100000*%
%ADD11C,0.200000*%
%ADD12C,0.101600*%
%ADD13C,0.110000*%
%ADD14C,0.168000*%
G04 APERTURE END LIST*
D10*
X9271000Y-1651000D02*
X9461500Y-1841500D01*
X9461500Y-6985000D02*
X3937000Y-6985000D01*
X9461500Y-1841500D02*
X9461500Y-2921000D01*
X3810000Y-1651000D02*
X3810000Y-6985000D01*
X9461500Y-6858000D02*
X9461500Y-6985000D01*
X9715500Y-3175000D02*
X9715500Y-6604000D01*
X9461500Y-2921000D02*
X9715500Y-3175000D01*
X9715500Y-6604000D02*
X9461500Y-6858000D01*
X3937000Y-1651000D02*
X9271000Y-1651000D01*
D11*
D10*
X6595000Y-5108500D02*
X6665000Y-5178500D01*
X6665000Y-5108500D02*
X6595000Y-5178500D01*
X6650767Y-4936867D02*
X6720767Y-5006867D01*
X6720767Y-4936867D02*
X6650767Y-5006867D01*
X6650767Y-5280133D02*
X6720767Y-5350133D01*
X6720767Y-5280133D02*
X6650767Y-5350133D01*
X6796767Y-4830792D02*
X6866767Y-4900792D01*
X6866767Y-4830792D02*
X6796767Y-4900792D01*
X6796767Y-5386209D02*
X6866767Y-5456209D01*
X6866767Y-5386209D02*
X6796767Y-5456209D01*
X6977233Y-4830792D02*
X7047233Y-4900792D01*
X7047233Y-4830792D02*
X6977233Y-4900792D01*
X6977233Y-5386209D02*
X7047233Y-5456209D01*
X7047233Y-5386209D02*
X6977233Y-5456209D01*
X7123233Y-4936867D02*
X7193233Y-5006867D01*
X7193233Y-4936867D02*
X7123233Y-5006867D01*
X7123233Y-5280133D02*
X7193233Y-5350133D01*
X7193233Y-5280133D02*
X7123233Y-5350133D01*
X7179000Y-5108500D02*
X7249000Y-5178500D01*
X7249000Y-5108500D02*
X7179000Y-5178500D01*
X7152000Y-6223000D02*
G75*
G03*
X7152000Y-6223000I-40000J0D01*
G01*
X7797920Y-6212080D02*
G75*
G03*
X7797920Y-6212080I-40000J0D01*
G01*
X4445000Y-3516000D02*
X4445000Y-3596000D01*
X4405000Y-3556000D02*
X4485000Y-3556000D01*
X4445000Y-4024000D02*
X4445000Y-4104000D01*
X4405000Y-4064000D02*
X4485000Y-4064000D01*
X4445000Y-4468500D02*
X4445000Y-4548500D01*
X4405000Y-4508500D02*
X4485000Y-4508500D01*
X4449000Y-3008000D02*
X4449000Y-3088000D01*
X4409000Y-3048000D02*
X4489000Y-3048000D01*
X4830000Y-6183000D02*
X4830000Y-6263000D01*
X4790000Y-6223000D02*
X4870000Y-6223000D01*
X4949000Y-3008000D02*
X4949000Y-3088000D01*
X4909000Y-3048000D02*
X4989000Y-3048000D01*
X5081000Y-4977500D02*
X5081000Y-5057500D01*
X5041000Y-5017500D02*
X5121000Y-5017500D01*
X5081000Y-5231500D02*
X5081000Y-5311500D01*
X5041000Y-5271500D02*
X5121000Y-5271500D01*
X5081000Y-5485500D02*
X5081000Y-5565500D01*
X5041000Y-5525500D02*
X5121000Y-5525500D01*
X5081000Y-5739500D02*
X5081000Y-5819500D01*
X5041000Y-5779500D02*
X5121000Y-5779500D01*
X5330000Y-6183000D02*
X5330000Y-6263000D01*
X5290000Y-6223000D02*
X5370000Y-6223000D01*
X5461000Y-3516000D02*
X5461000Y-3596000D01*
X5421000Y-3556000D02*
X5501000Y-3556000D01*
X5461000Y-4024000D02*
X5461000Y-4104000D01*
X5421000Y-4064000D02*
X5501000Y-4064000D01*
X5461000Y-4468500D02*
X5461000Y-4548500D01*
X5421000Y-4508500D02*
X5501000Y-4508500D01*
X5842000Y-3516000D02*
X5842000Y-3596000D01*
X5802000Y-3556000D02*
X5882000Y-3556000D01*
X5842000Y-4532000D02*
X5842000Y-4612000D01*
X5802000Y-4572000D02*
X5882000Y-4572000D01*
X5843000Y-4977500D02*
X5843000Y-5057500D01*
X5803000Y-5017500D02*
X5883000Y-5017500D01*
X5843000Y-5231500D02*
X5843000Y-5311500D01*
X5803000Y-5271500D02*
X5883000Y-5271500D01*
X5843000Y-5485500D02*
X5843000Y-5565500D01*
X5803000Y-5525500D02*
X5883000Y-5525500D01*
X5843000Y-5739500D02*
X5843000Y-5819500D01*
X5803000Y-5779500D02*
X5883000Y-5779500D01*
X5909500Y-6183000D02*
X5909500Y-6263000D01*
X5869500Y-6223000D02*
X5949500Y-6223000D01*
X6409500Y-6183000D02*
X6409500Y-6263000D01*
X6369500Y-6223000D02*
X6449500Y-6223000D01*
X6413500Y-5802000D02*
X6413500Y-5882000D01*
X6373500Y-5842000D02*
X6453500Y-5842000D01*
X7429500Y-5802000D02*
X7429500Y-5882000D01*
X7389500Y-5842000D02*
X7469500Y-5842000D01*
X7747000Y-5802000D02*
X7747000Y-5882000D01*
X7707000Y-5842000D02*
X7787000Y-5842000D01*
X8001000Y-4341500D02*
X8001000Y-4421500D01*
X7961000Y-4381500D02*
X8041000Y-4381500D01*
X8001000Y-5357500D02*
X8001000Y-5437500D01*
X7961000Y-5397500D02*
X8041000Y-5397500D01*
X8191500Y-2940500D02*
X8191500Y-3020500D01*
X8151500Y-2980500D02*
X8231500Y-2980500D01*
X8191500Y-3956500D02*
X8191500Y-4036500D01*
X8151500Y-3996500D02*
X8231500Y-3996500D01*
X8636000Y-3452500D02*
X8636000Y-3532500D01*
X8596000Y-3492500D02*
X8676000Y-3492500D01*
X8636000Y-3952500D02*
X8636000Y-4032500D01*
X8596000Y-3992500D02*
X8676000Y-3992500D01*
X8763000Y-5802000D02*
X8763000Y-5882000D01*
X8723000Y-5842000D02*
X8803000Y-5842000D01*
X5305856Y-2638856D02*
X5305856Y-2568144D01*
X5235144Y-2568144D01*
X5235144Y-2638856D01*
X5305856Y-2638856D01*
X5559856Y-2638856D02*
X5559856Y-2568144D01*
X5489144Y-2568144D01*
X5489144Y-2638856D01*
X5559856Y-2638856D01*
X5813856Y-2638856D02*
X5813856Y-2568144D01*
X5743144Y-2568144D01*
X5743144Y-2638856D01*
X5813856Y-2638856D01*
X6067856Y-2638856D02*
X6067856Y-2568144D01*
X5997144Y-2568144D01*
X5997144Y-2638856D01*
X6067856Y-2638856D01*
X6321856Y-2638856D02*
X6321856Y-2568144D01*
X6251144Y-2568144D01*
X6251144Y-2638856D01*
X6321856Y-2638856D01*
X6575856Y-2638856D02*
X6575856Y-2568144D01*
X6505144Y-2568144D01*
X6505144Y-2638856D01*
X6575856Y-2638856D01*
X6829856Y-2638856D02*
X6829856Y-2568144D01*
X6759144Y-2568144D01*
X6759144Y-2638856D01*
X6829856Y-2638856D01*
D12*
X4737100Y-1955800D02*
X4787900Y-1905000D01*
X4737100Y-1854200D01*
X4686300Y-1905000D01*
X4737100Y-1955800D01*
X4991100Y-1955800D02*
X5041900Y-1905000D01*
X4991100Y-1854200D01*
X4940300Y-1905000D01*
X4991100Y-1955800D01*
X5245100Y-1955800D02*
X5295900Y-1905000D01*
X5245100Y-1854200D01*
X5194300Y-1905000D01*
X5245100Y-1955800D01*
X5499100Y-1955800D02*
X5549900Y-1905000D01*
X5499100Y-1854200D01*
X5448300Y-1905000D01*
X5499100Y-1955800D01*
X5651500Y-6781800D02*
X5702300Y-6731000D01*
X5651500Y-6680200D01*
X5600700Y-6731000D01*
X5651500Y-6781800D01*
X5753100Y-1955800D02*
X5803900Y-1905000D01*
X5753100Y-1854200D01*
X5702300Y-1905000D01*
X5753100Y-1955800D01*
X5905500Y-6781800D02*
X5956300Y-6731000D01*
X5905500Y-6680200D01*
X5854700Y-6731000D01*
X5905500Y-6781800D01*
X6007100Y-1955800D02*
X6057900Y-1905000D01*
X6007100Y-1854200D01*
X5956300Y-1905000D01*
X6007100Y-1955800D01*
X6159500Y-6781800D02*
X6210300Y-6731000D01*
X6159500Y-6680200D01*
X6108700Y-6731000D01*
X6159500Y-6781800D01*
X6261100Y-1955800D02*
X6311900Y-1905000D01*
X6261100Y-1854200D01*
X6210300Y-1905000D01*
X6261100Y-1955800D01*
X6413500Y-6781800D02*
X6464300Y-6731000D01*
X6413500Y-6680200D01*
X6362700Y-6731000D01*
X6413500Y-6781800D01*
X6515100Y-1955800D02*
X6565900Y-1905000D01*
X6515100Y-1854200D01*
X6464300Y-1905000D01*
X6515100Y-1955800D01*
X6667500Y-6781800D02*
X6718300Y-6731000D01*
X6667500Y-6680200D01*
X6616700Y-6731000D01*
X6667500Y-6781800D01*
X6769100Y-1955800D02*
X6819900Y-1905000D01*
X6769100Y-1854200D01*
X6718300Y-1905000D01*
X6769100Y-1955800D01*
X6921500Y-6781800D02*
X6972300Y-6731000D01*
X6921500Y-6680200D01*
X6870700Y-6731000D01*
X6921500Y-6781800D01*
X7023100Y-1955800D02*
X7073900Y-1905000D01*
X7023100Y-1854200D01*
X6972300Y-1905000D01*
X7023100Y-1955800D01*
X7175500Y-6781800D02*
X7226300Y-6731000D01*
X7175500Y-6680200D01*
X7124700Y-6731000D01*
X7175500Y-6781800D01*
X7429500Y-1955800D02*
X7480300Y-1905000D01*
X7429500Y-1854200D01*
X7378700Y-1905000D01*
X7429500Y-1955800D01*
X7429500Y-6781800D02*
X7480300Y-6731000D01*
X7429500Y-6680200D01*
X7378700Y-6731000D01*
X7429500Y-6781800D01*
X7683500Y-1955800D02*
X7734300Y-1905000D01*
X7683500Y-1854200D01*
X7632700Y-1905000D01*
X7683500Y-1955800D01*
X7937500Y-1955800D02*
X7988300Y-1905000D01*
X7937500Y-1854200D01*
X7886700Y-1905000D01*
X7937500Y-1955800D01*
X7937500Y-6781800D02*
X7988300Y-6731000D01*
X7937500Y-6680200D01*
X7886700Y-6731000D01*
X7937500Y-6781800D01*
X8191500Y-1955800D02*
X8242300Y-1905000D01*
X8191500Y-1854200D01*
X8140700Y-1905000D01*
X8191500Y-1955800D01*
X8191500Y-6781800D02*
X8242300Y-6731000D01*
X8191500Y-6680200D01*
X8140700Y-6731000D01*
X8191500Y-6781800D01*
X8445500Y-1955800D02*
X8496300Y-1905000D01*
X8445500Y-1854200D01*
X8394700Y-1905000D01*
X8445500Y-1955800D01*
X8445500Y-6781800D02*
X8496300Y-6731000D01*
X8445500Y-6680200D01*
X8394700Y-6731000D01*
X8445500Y-6781800D01*
X8699500Y-1955800D02*
X8750300Y-1905000D01*
X8699500Y-1854200D01*
X8648700Y-1905000D01*
X8699500Y-1955800D01*
X8699500Y-6781800D02*
X8750300Y-6731000D01*
X8699500Y-6680200D01*
X8648700Y-6731000D01*
X8699500Y-6781800D01*
X8953500Y-1955800D02*
X9004300Y-1905000D01*
X8953500Y-1854200D01*
X8902700Y-1905000D01*
X8953500Y-1955800D01*
X8953500Y-6781800D02*
X9004300Y-6731000D01*
X8953500Y-6680200D01*
X8902700Y-6731000D01*
X8953500Y-6781800D01*
X9207500Y-1955800D02*
X9258300Y-1905000D01*
X9207500Y-1854200D01*
X9156700Y-1905000D01*
X9207500Y-1955800D01*
X9207500Y-6781800D02*
X9258300Y-6731000D01*
X9207500Y-6680200D01*
X9156700Y-6731000D01*
X9207500Y-6781800D01*
X9220200Y-3987800D02*
X9271000Y-3937000D01*
X9220200Y-3886200D01*
X9169400Y-3937000D01*
X9220200Y-3987800D01*
X9220200Y-4241800D02*
X9271000Y-4191000D01*
X9220200Y-4140200D01*
X9169400Y-4191000D01*
X9220200Y-4241800D01*
X9220200Y-4495800D02*
X9271000Y-4445000D01*
X9220200Y-4394200D01*
X9169400Y-4445000D01*
X9220200Y-4495800D01*
X9474200Y-3987800D02*
X9525000Y-3937000D01*
X9474200Y-3886200D01*
X9423400Y-3937000D01*
X9474200Y-3987800D01*
X9474200Y-4241800D02*
X9525000Y-4191000D01*
X9474200Y-4140200D01*
X9423400Y-4191000D01*
X9474200Y-4241800D01*
X9474200Y-4495800D02*
X9525000Y-4445000D01*
X9474200Y-4394200D01*
X9423400Y-4445000D01*
X9474200Y-4495800D01*
D13*
X8454000Y-5310000D02*
X8564000Y-5420000D01*
X8564000Y-5310000D02*
X8454000Y-5420000D01*
X8564000Y-5365000D02*
G75*
G03*
X8564000Y-5365000I-55000J0D01*
G01*
X8708000Y-5310000D02*
X8818000Y-5420000D01*
X8818000Y-5310000D02*
X8708000Y-5420000D01*
X8818000Y-5365000D02*
G75*
G03*
X8818000Y-5365000I-55000J0D01*
G01*
X8962000Y-5310000D02*
X9072000Y-5420000D01*
X9072000Y-5310000D02*
X8962000Y-5420000D01*
X9072000Y-5365000D02*
G75*
G03*
X9072000Y-5365000I-55000J0D01*
G01*
D14*
X6367500Y-3472000D02*
X6535500Y-3640000D01*
X6535500Y-3472000D02*
X6367500Y-3640000D01*
X6451500Y-3472000D02*
X6451500Y-3640000D01*
X6367500Y-3556000D02*
X6535500Y-3556000D01*
X6837500Y-3472000D02*
X7005500Y-3640000D01*
X7005500Y-3472000D02*
X6837500Y-3640000D01*
X6921500Y-3472000D02*
X6921500Y-3640000D01*
X6837500Y-3556000D02*
X7005500Y-3556000D01*
X7307500Y-3472000D02*
X7475500Y-3640000D01*
X7475500Y-3472000D02*
X7307500Y-3640000D01*
X7391500Y-3472000D02*
X7391500Y-3640000D01*
X7307500Y-3556000D02*
X7475500Y-3556000D01*
D11*
X4065777Y-7301484D02*
X4065777Y-7101484D01*
X4065777Y-7101484D02*
X4113396Y-7101484D01*
X4113396Y-7101484D02*
X4141967Y-7111008D01*
X4141967Y-7111008D02*
X4161015Y-7130055D01*
X4161015Y-7130055D02*
X4170539Y-7149103D01*
X4170539Y-7149103D02*
X4180062Y-7187198D01*
X4180062Y-7187198D02*
X4180062Y-7215769D01*
X4180062Y-7215769D02*
X4170539Y-7253865D01*
X4170539Y-7253865D02*
X4161015Y-7272912D01*
X4161015Y-7272912D02*
X4141967Y-7291960D01*
X4141967Y-7291960D02*
X4113396Y-7301484D01*
X4113396Y-7301484D02*
X4065777Y-7301484D01*
X4265777Y-7301484D02*
X4265777Y-7168150D01*
X4265777Y-7206246D02*
X4275301Y-7187198D01*
X4275301Y-7187198D02*
X4284824Y-7177674D01*
X4284824Y-7177674D02*
X4303872Y-7168150D01*
X4303872Y-7168150D02*
X4322920Y-7168150D01*
X4389586Y-7301484D02*
X4389586Y-7168150D01*
X4389586Y-7101484D02*
X4380063Y-7111008D01*
X4380063Y-7111008D02*
X4389586Y-7120531D01*
X4389586Y-7120531D02*
X4399110Y-7111008D01*
X4399110Y-7111008D02*
X4389586Y-7101484D01*
X4389586Y-7101484D02*
X4389586Y-7120531D01*
X4513396Y-7301484D02*
X4494348Y-7291960D01*
X4494348Y-7291960D02*
X4484824Y-7272912D01*
X4484824Y-7272912D02*
X4484824Y-7101484D01*
X4618158Y-7301484D02*
X4599110Y-7291960D01*
X4599110Y-7291960D02*
X4589586Y-7272912D01*
X4589586Y-7272912D02*
X4589586Y-7101484D01*
X4846729Y-7301484D02*
X4846729Y-7101484D01*
X4846729Y-7101484D02*
X4913396Y-7244341D01*
X4913396Y-7244341D02*
X4980063Y-7101484D01*
X4980063Y-7101484D02*
X4980063Y-7301484D01*
X5161015Y-7301484D02*
X5161015Y-7196722D01*
X5161015Y-7196722D02*
X5151491Y-7177674D01*
X5151491Y-7177674D02*
X5132444Y-7168150D01*
X5132444Y-7168150D02*
X5094348Y-7168150D01*
X5094348Y-7168150D02*
X5075301Y-7177674D01*
X5161015Y-7291960D02*
X5141967Y-7301484D01*
X5141967Y-7301484D02*
X5094348Y-7301484D01*
X5094348Y-7301484D02*
X5075301Y-7291960D01*
X5075301Y-7291960D02*
X5065777Y-7272912D01*
X5065777Y-7272912D02*
X5065777Y-7253865D01*
X5065777Y-7253865D02*
X5075301Y-7234817D01*
X5075301Y-7234817D02*
X5094348Y-7225293D01*
X5094348Y-7225293D02*
X5141967Y-7225293D01*
X5141967Y-7225293D02*
X5161015Y-7215769D01*
X5256253Y-7168150D02*
X5256253Y-7368150D01*
X5256253Y-7177674D02*
X5275301Y-7168150D01*
X5275301Y-7168150D02*
X5313396Y-7168150D01*
X5313396Y-7168150D02*
X5332444Y-7177674D01*
X5332444Y-7177674D02*
X5341967Y-7187198D01*
X5341967Y-7187198D02*
X5351491Y-7206246D01*
X5351491Y-7206246D02*
X5351491Y-7263388D01*
X5351491Y-7263388D02*
X5341967Y-7282436D01*
X5341967Y-7282436D02*
X5332444Y-7291960D01*
X5332444Y-7291960D02*
X5313396Y-7301484D01*
X5313396Y-7301484D02*
X5275301Y-7301484D01*
X5275301Y-7301484D02*
X5256253Y-7291960D01*
X5437205Y-7282436D02*
X5446729Y-7291960D01*
X5446729Y-7291960D02*
X5437205Y-7301484D01*
X5437205Y-7301484D02*
X5427682Y-7291960D01*
X5427682Y-7291960D02*
X5437205Y-7282436D01*
X5437205Y-7282436D02*
X5437205Y-7301484D01*
X5437205Y-7177674D02*
X5446729Y-7187198D01*
X5446729Y-7187198D02*
X5437205Y-7196722D01*
X5437205Y-7196722D02*
X5427682Y-7187198D01*
X5427682Y-7187198D02*
X5437205Y-7177674D01*
X5437205Y-7177674D02*
X5437205Y-7196722D01*
D10*
X3735000Y-7595000D02*
X3805000Y-7665000D01*
X3805000Y-7595000D02*
X3735000Y-7665000D01*
D11*
X4103872Y-7521484D02*
X4122920Y-7521484D01*
X4122920Y-7521484D02*
X4141967Y-7531008D01*
X4141967Y-7531008D02*
X4151491Y-7540531D01*
X4151491Y-7540531D02*
X4161015Y-7559579D01*
X4161015Y-7559579D02*
X4170539Y-7597674D01*
X4170539Y-7597674D02*
X4170539Y-7645293D01*
X4170539Y-7645293D02*
X4161015Y-7683388D01*
X4161015Y-7683388D02*
X4151491Y-7702436D01*
X4151491Y-7702436D02*
X4141967Y-7711960D01*
X4141967Y-7711960D02*
X4122920Y-7721484D01*
X4122920Y-7721484D02*
X4103872Y-7721484D01*
X4103872Y-7721484D02*
X4084824Y-7711960D01*
X4084824Y-7711960D02*
X4075301Y-7702436D01*
X4075301Y-7702436D02*
X4065777Y-7683388D01*
X4065777Y-7683388D02*
X4056253Y-7645293D01*
X4056253Y-7645293D02*
X4056253Y-7597674D01*
X4056253Y-7597674D02*
X4065777Y-7559579D01*
X4065777Y-7559579D02*
X4075301Y-7540531D01*
X4075301Y-7540531D02*
X4084824Y-7531008D01*
X4084824Y-7531008D02*
X4103872Y-7521484D01*
X4256253Y-7702436D02*
X4265777Y-7711960D01*
X4265777Y-7711960D02*
X4256253Y-7721484D01*
X4256253Y-7721484D02*
X4246729Y-7711960D01*
X4246729Y-7711960D02*
X4256253Y-7702436D01*
X4256253Y-7702436D02*
X4256253Y-7721484D01*
X4332444Y-7521484D02*
X4465777Y-7521484D01*
X4465777Y-7521484D02*
X4380063Y-7721484D01*
X4580063Y-7521484D02*
X4599110Y-7521484D01*
X4599110Y-7521484D02*
X4618158Y-7531008D01*
X4618158Y-7531008D02*
X4627682Y-7540531D01*
X4627682Y-7540531D02*
X4637205Y-7559579D01*
X4637205Y-7559579D02*
X4646729Y-7597674D01*
X4646729Y-7597674D02*
X4646729Y-7645293D01*
X4646729Y-7645293D02*
X4637205Y-7683388D01*
X4637205Y-7683388D02*
X4627682Y-7702436D01*
X4627682Y-7702436D02*
X4618158Y-7711960D01*
X4618158Y-7711960D02*
X4599110Y-7721484D01*
X4599110Y-7721484D02*
X4580063Y-7721484D01*
X4580063Y-7721484D02*
X4561015Y-7711960D01*
X4561015Y-7711960D02*
X4551491Y-7702436D01*
X4551491Y-7702436D02*
X4541967Y-7683388D01*
X4541967Y-7683388D02*
X4532444Y-7645293D01*
X4532444Y-7645293D02*
X4532444Y-7597674D01*
X4532444Y-7597674D02*
X4541967Y-7559579D01*
X4541967Y-7559579D02*
X4551491Y-7540531D01*
X4551491Y-7540531D02*
X4561015Y-7531008D01*
X4561015Y-7531008D02*
X4580063Y-7521484D01*
X4770539Y-7521484D02*
X4789586Y-7521484D01*
X4789586Y-7521484D02*
X4808634Y-7531008D01*
X4808634Y-7531008D02*
X4818158Y-7540531D01*
X4818158Y-7540531D02*
X4827682Y-7559579D01*
X4827682Y-7559579D02*
X4837205Y-7597674D01*
X4837205Y-7597674D02*
X4837205Y-7645293D01*
X4837205Y-7645293D02*
X4827682Y-7683388D01*
X4827682Y-7683388D02*
X4818158Y-7702436D01*
X4818158Y-7702436D02*
X4808634Y-7711960D01*
X4808634Y-7711960D02*
X4789586Y-7721484D01*
X4789586Y-7721484D02*
X4770539Y-7721484D01*
X4770539Y-7721484D02*
X4751491Y-7711960D01*
X4751491Y-7711960D02*
X4741967Y-7702436D01*
X4741967Y-7702436D02*
X4732444Y-7683388D01*
X4732444Y-7683388D02*
X4722920Y-7645293D01*
X4722920Y-7645293D02*
X4722920Y-7597674D01*
X4722920Y-7597674D02*
X4732444Y-7559579D01*
X4732444Y-7559579D02*
X4741967Y-7540531D01*
X4741967Y-7540531D02*
X4751491Y-7531008D01*
X4751491Y-7531008D02*
X4770539Y-7521484D01*
X4922920Y-7721484D02*
X4922920Y-7588150D01*
X4922920Y-7607198D02*
X4932444Y-7597674D01*
X4932444Y-7597674D02*
X4951491Y-7588150D01*
X4951491Y-7588150D02*
X4980063Y-7588150D01*
X4980063Y-7588150D02*
X4999110Y-7597674D01*
X4999110Y-7597674D02*
X5008634Y-7616722D01*
X5008634Y-7616722D02*
X5008634Y-7721484D01*
X5008634Y-7616722D02*
X5018158Y-7597674D01*
X5018158Y-7597674D02*
X5037205Y-7588150D01*
X5037205Y-7588150D02*
X5065777Y-7588150D01*
X5065777Y-7588150D02*
X5084825Y-7597674D01*
X5084825Y-7597674D02*
X5094348Y-7616722D01*
X5094348Y-7616722D02*
X5094348Y-7721484D01*
X5189586Y-7721484D02*
X5189586Y-7588150D01*
X5189586Y-7607198D02*
X5199110Y-7597674D01*
X5199110Y-7597674D02*
X5218158Y-7588150D01*
X5218158Y-7588150D02*
X5246729Y-7588150D01*
X5246729Y-7588150D02*
X5265777Y-7597674D01*
X5265777Y-7597674D02*
X5275301Y-7616722D01*
X5275301Y-7616722D02*
X5275301Y-7721484D01*
X5275301Y-7616722D02*
X5284825Y-7597674D01*
X5284825Y-7597674D02*
X5303872Y-7588150D01*
X5303872Y-7588150D02*
X5332444Y-7588150D01*
X5332444Y-7588150D02*
X5351491Y-7597674D01*
X5351491Y-7597674D02*
X5361015Y-7616722D01*
X5361015Y-7616722D02*
X5361015Y-7721484D01*
X5751491Y-7511960D02*
X5580063Y-7769103D01*
X6008634Y-7521484D02*
X6027682Y-7521484D01*
X6027682Y-7521484D02*
X6046729Y-7531008D01*
X6046729Y-7531008D02*
X6056253Y-7540531D01*
X6056253Y-7540531D02*
X6065777Y-7559579D01*
X6065777Y-7559579D02*
X6075301Y-7597674D01*
X6075301Y-7597674D02*
X6075301Y-7645293D01*
X6075301Y-7645293D02*
X6065777Y-7683388D01*
X6065777Y-7683388D02*
X6056253Y-7702436D01*
X6056253Y-7702436D02*
X6046729Y-7711960D01*
X6046729Y-7711960D02*
X6027682Y-7721484D01*
X6027682Y-7721484D02*
X6008634Y-7721484D01*
X6008634Y-7721484D02*
X5989586Y-7711960D01*
X5989586Y-7711960D02*
X5980063Y-7702436D01*
X5980063Y-7702436D02*
X5970539Y-7683388D01*
X5970539Y-7683388D02*
X5961015Y-7645293D01*
X5961015Y-7645293D02*
X5961015Y-7597674D01*
X5961015Y-7597674D02*
X5970539Y-7559579D01*
X5970539Y-7559579D02*
X5980063Y-7540531D01*
X5980063Y-7540531D02*
X5989586Y-7531008D01*
X5989586Y-7531008D02*
X6008634Y-7521484D01*
X6161015Y-7702436D02*
X6170539Y-7711960D01*
X6170539Y-7711960D02*
X6161015Y-7721484D01*
X6161015Y-7721484D02*
X6151491Y-7711960D01*
X6151491Y-7711960D02*
X6161015Y-7702436D01*
X6161015Y-7702436D02*
X6161015Y-7721484D01*
X6294348Y-7521484D02*
X6313396Y-7521484D01*
X6313396Y-7521484D02*
X6332444Y-7531008D01*
X6332444Y-7531008D02*
X6341967Y-7540531D01*
X6341967Y-7540531D02*
X6351491Y-7559579D01*
X6351491Y-7559579D02*
X6361015Y-7597674D01*
X6361015Y-7597674D02*
X6361015Y-7645293D01*
X6361015Y-7645293D02*
X6351491Y-7683388D01*
X6351491Y-7683388D02*
X6341967Y-7702436D01*
X6341967Y-7702436D02*
X6332444Y-7711960D01*
X6332444Y-7711960D02*
X6313396Y-7721484D01*
X6313396Y-7721484D02*
X6294348Y-7721484D01*
X6294348Y-7721484D02*
X6275301Y-7711960D01*
X6275301Y-7711960D02*
X6265777Y-7702436D01*
X6265777Y-7702436D02*
X6256253Y-7683388D01*
X6256253Y-7683388D02*
X6246729Y-7645293D01*
X6246729Y-7645293D02*
X6246729Y-7597674D01*
X6246729Y-7597674D02*
X6256253Y-7559579D01*
X6256253Y-7559579D02*
X6265777Y-7540531D01*
X6265777Y-7540531D02*
X6275301Y-7531008D01*
X6275301Y-7531008D02*
X6294348Y-7521484D01*
X6437206Y-7540531D02*
X6446729Y-7531008D01*
X6446729Y-7531008D02*
X6465777Y-7521484D01*
X6465777Y-7521484D02*
X6513396Y-7521484D01*
X6513396Y-7521484D02*
X6532444Y-7531008D01*
X6532444Y-7531008D02*
X6541967Y-7540531D01*
X6541967Y-7540531D02*
X6551491Y-7559579D01*
X6551491Y-7559579D02*
X6551491Y-7578627D01*
X6551491Y-7578627D02*
X6541967Y-7607198D01*
X6541967Y-7607198D02*
X6427682Y-7721484D01*
X6427682Y-7721484D02*
X6551491Y-7721484D01*
X6618158Y-7521484D02*
X6751491Y-7521484D01*
X6751491Y-7521484D02*
X6665777Y-7721484D01*
X6913396Y-7521484D02*
X6875301Y-7521484D01*
X6875301Y-7521484D02*
X6856253Y-7531008D01*
X6856253Y-7531008D02*
X6846729Y-7540531D01*
X6846729Y-7540531D02*
X6827682Y-7569103D01*
X6827682Y-7569103D02*
X6818158Y-7607198D01*
X6818158Y-7607198D02*
X6818158Y-7683388D01*
X6818158Y-7683388D02*
X6827682Y-7702436D01*
X6827682Y-7702436D02*
X6837206Y-7711960D01*
X6837206Y-7711960D02*
X6856253Y-7721484D01*
X6856253Y-7721484D02*
X6894348Y-7721484D01*
X6894348Y-7721484D02*
X6913396Y-7711960D01*
X6913396Y-7711960D02*
X6922920Y-7702436D01*
X6922920Y-7702436D02*
X6932444Y-7683388D01*
X6932444Y-7683388D02*
X6932444Y-7635769D01*
X6932444Y-7635769D02*
X6922920Y-7616722D01*
X6922920Y-7616722D02*
X6913396Y-7607198D01*
X6913396Y-7607198D02*
X6894348Y-7597674D01*
X6894348Y-7597674D02*
X6856253Y-7597674D01*
X6856253Y-7597674D02*
X6837206Y-7607198D01*
X6837206Y-7607198D02*
X6827682Y-7616722D01*
X6827682Y-7616722D02*
X6818158Y-7635769D01*
X7008634Y-7521484D02*
X7008634Y-7559579D01*
X7084825Y-7521484D02*
X7084825Y-7559579D01*
X7380063Y-7797674D02*
X7370539Y-7788150D01*
X7370539Y-7788150D02*
X7351491Y-7759579D01*
X7351491Y-7759579D02*
X7341968Y-7740531D01*
X7341968Y-7740531D02*
X7332444Y-7711960D01*
X7332444Y-7711960D02*
X7322920Y-7664341D01*
X7322920Y-7664341D02*
X7322920Y-7626246D01*
X7322920Y-7626246D02*
X7332444Y-7578627D01*
X7332444Y-7578627D02*
X7341968Y-7550055D01*
X7341968Y-7550055D02*
X7351491Y-7531008D01*
X7351491Y-7531008D02*
X7370539Y-7502436D01*
X7370539Y-7502436D02*
X7380063Y-7492912D01*
X7561015Y-7721484D02*
X7446729Y-7721484D01*
X7503872Y-7721484D02*
X7503872Y-7521484D01*
X7503872Y-7521484D02*
X7484825Y-7550055D01*
X7484825Y-7550055D02*
X7465777Y-7569103D01*
X7465777Y-7569103D02*
X7446729Y-7578627D01*
X7684825Y-7521484D02*
X7703872Y-7521484D01*
X7703872Y-7521484D02*
X7722920Y-7531008D01*
X7722920Y-7531008D02*
X7732444Y-7540531D01*
X7732444Y-7540531D02*
X7741968Y-7559579D01*
X7741968Y-7559579D02*
X7751491Y-7597674D01*
X7751491Y-7597674D02*
X7751491Y-7645293D01*
X7751491Y-7645293D02*
X7741968Y-7683388D01*
X7741968Y-7683388D02*
X7732444Y-7702436D01*
X7732444Y-7702436D02*
X7722920Y-7711960D01*
X7722920Y-7711960D02*
X7703872Y-7721484D01*
X7703872Y-7721484D02*
X7684825Y-7721484D01*
X7684825Y-7721484D02*
X7665777Y-7711960D01*
X7665777Y-7711960D02*
X7656253Y-7702436D01*
X7656253Y-7702436D02*
X7646729Y-7683388D01*
X7646729Y-7683388D02*
X7637206Y-7645293D01*
X7637206Y-7645293D02*
X7637206Y-7597674D01*
X7637206Y-7597674D02*
X7646729Y-7559579D01*
X7646729Y-7559579D02*
X7656253Y-7540531D01*
X7656253Y-7540531D02*
X7665777Y-7531008D01*
X7665777Y-7531008D02*
X7684825Y-7521484D01*
X7989587Y-7721484D02*
X7989587Y-7521484D01*
X8075301Y-7721484D02*
X8075301Y-7616722D01*
X8075301Y-7616722D02*
X8065777Y-7597674D01*
X8065777Y-7597674D02*
X8046730Y-7588150D01*
X8046730Y-7588150D02*
X8018158Y-7588150D01*
X8018158Y-7588150D02*
X7999110Y-7597674D01*
X7999110Y-7597674D02*
X7989587Y-7607198D01*
X8199110Y-7721484D02*
X8180063Y-7711960D01*
X8180063Y-7711960D02*
X8170539Y-7702436D01*
X8170539Y-7702436D02*
X8161015Y-7683388D01*
X8161015Y-7683388D02*
X8161015Y-7626246D01*
X8161015Y-7626246D02*
X8170539Y-7607198D01*
X8170539Y-7607198D02*
X8180063Y-7597674D01*
X8180063Y-7597674D02*
X8199110Y-7588150D01*
X8199110Y-7588150D02*
X8227682Y-7588150D01*
X8227682Y-7588150D02*
X8246730Y-7597674D01*
X8246730Y-7597674D02*
X8256253Y-7607198D01*
X8256253Y-7607198D02*
X8265777Y-7626246D01*
X8265777Y-7626246D02*
X8265777Y-7683388D01*
X8265777Y-7683388D02*
X8256253Y-7702436D01*
X8256253Y-7702436D02*
X8246730Y-7711960D01*
X8246730Y-7711960D02*
X8227682Y-7721484D01*
X8227682Y-7721484D02*
X8199110Y-7721484D01*
X8380063Y-7721484D02*
X8361015Y-7711960D01*
X8361015Y-7711960D02*
X8351491Y-7692912D01*
X8351491Y-7692912D02*
X8351491Y-7521484D01*
X8532444Y-7711960D02*
X8513396Y-7721484D01*
X8513396Y-7721484D02*
X8475301Y-7721484D01*
X8475301Y-7721484D02*
X8456253Y-7711960D01*
X8456253Y-7711960D02*
X8446730Y-7692912D01*
X8446730Y-7692912D02*
X8446730Y-7616722D01*
X8446730Y-7616722D02*
X8456253Y-7597674D01*
X8456253Y-7597674D02*
X8475301Y-7588150D01*
X8475301Y-7588150D02*
X8513396Y-7588150D01*
X8513396Y-7588150D02*
X8532444Y-7597674D01*
X8532444Y-7597674D02*
X8541968Y-7616722D01*
X8541968Y-7616722D02*
X8541968Y-7635769D01*
X8541968Y-7635769D02*
X8446730Y-7654817D01*
X8618158Y-7711960D02*
X8637206Y-7721484D01*
X8637206Y-7721484D02*
X8675301Y-7721484D01*
X8675301Y-7721484D02*
X8694349Y-7711960D01*
X8694349Y-7711960D02*
X8703873Y-7692912D01*
X8703873Y-7692912D02*
X8703873Y-7683388D01*
X8703873Y-7683388D02*
X8694349Y-7664341D01*
X8694349Y-7664341D02*
X8675301Y-7654817D01*
X8675301Y-7654817D02*
X8646730Y-7654817D01*
X8646730Y-7654817D02*
X8627682Y-7645293D01*
X8627682Y-7645293D02*
X8618158Y-7626246D01*
X8618158Y-7626246D02*
X8618158Y-7616722D01*
X8618158Y-7616722D02*
X8627682Y-7597674D01*
X8627682Y-7597674D02*
X8646730Y-7588150D01*
X8646730Y-7588150D02*
X8675301Y-7588150D01*
X8675301Y-7588150D02*
X8694349Y-7597674D01*
X8770539Y-7797674D02*
X8780063Y-7788150D01*
X8780063Y-7788150D02*
X8799111Y-7759579D01*
X8799111Y-7759579D02*
X8808634Y-7740531D01*
X8808634Y-7740531D02*
X8818158Y-7711960D01*
X8818158Y-7711960D02*
X8827682Y-7664341D01*
X8827682Y-7664341D02*
X8827682Y-7626246D01*
X8827682Y-7626246D02*
X8818158Y-7578627D01*
X8818158Y-7578627D02*
X8808634Y-7550055D01*
X8808634Y-7550055D02*
X8799111Y-7531008D01*
X8799111Y-7531008D02*
X8780063Y-7502436D01*
X8780063Y-7502436D02*
X8770539Y-7492912D01*
D10*
X3805000Y-7894000D02*
G75*
G03*
X3805000Y-7894000I-40000J0D01*
G01*
D11*
X4103872Y-7785484D02*
X4122920Y-7785484D01*
X4122920Y-7785484D02*
X4141967Y-7795008D01*
X4141967Y-7795008D02*
X4151491Y-7804531D01*
X4151491Y-7804531D02*
X4161015Y-7823579D01*
X4161015Y-7823579D02*
X4170539Y-7861674D01*
X4170539Y-7861674D02*
X4170539Y-7909293D01*
X4170539Y-7909293D02*
X4161015Y-7947388D01*
X4161015Y-7947388D02*
X4151491Y-7966436D01*
X4151491Y-7966436D02*
X4141967Y-7975960D01*
X4141967Y-7975960D02*
X4122920Y-7985484D01*
X4122920Y-7985484D02*
X4103872Y-7985484D01*
X4103872Y-7985484D02*
X4084824Y-7975960D01*
X4084824Y-7975960D02*
X4075301Y-7966436D01*
X4075301Y-7966436D02*
X4065777Y-7947388D01*
X4065777Y-7947388D02*
X4056253Y-7909293D01*
X4056253Y-7909293D02*
X4056253Y-7861674D01*
X4056253Y-7861674D02*
X4065777Y-7823579D01*
X4065777Y-7823579D02*
X4075301Y-7804531D01*
X4075301Y-7804531D02*
X4084824Y-7795008D01*
X4084824Y-7795008D02*
X4103872Y-7785484D01*
X4256253Y-7966436D02*
X4265777Y-7975960D01*
X4265777Y-7975960D02*
X4256253Y-7985484D01*
X4256253Y-7985484D02*
X4246729Y-7975960D01*
X4246729Y-7975960D02*
X4256253Y-7966436D01*
X4256253Y-7966436D02*
X4256253Y-7985484D01*
X4380063Y-7871198D02*
X4361015Y-7861674D01*
X4361015Y-7861674D02*
X4351491Y-7852150D01*
X4351491Y-7852150D02*
X4341967Y-7833103D01*
X4341967Y-7833103D02*
X4341967Y-7823579D01*
X4341967Y-7823579D02*
X4351491Y-7804531D01*
X4351491Y-7804531D02*
X4361015Y-7795008D01*
X4361015Y-7795008D02*
X4380063Y-7785484D01*
X4380063Y-7785484D02*
X4418158Y-7785484D01*
X4418158Y-7785484D02*
X4437205Y-7795008D01*
X4437205Y-7795008D02*
X4446729Y-7804531D01*
X4446729Y-7804531D02*
X4456253Y-7823579D01*
X4456253Y-7823579D02*
X4456253Y-7833103D01*
X4456253Y-7833103D02*
X4446729Y-7852150D01*
X4446729Y-7852150D02*
X4437205Y-7861674D01*
X4437205Y-7861674D02*
X4418158Y-7871198D01*
X4418158Y-7871198D02*
X4380063Y-7871198D01*
X4380063Y-7871198D02*
X4361015Y-7880722D01*
X4361015Y-7880722D02*
X4351491Y-7890246D01*
X4351491Y-7890246D02*
X4341967Y-7909293D01*
X4341967Y-7909293D02*
X4341967Y-7947388D01*
X4341967Y-7947388D02*
X4351491Y-7966436D01*
X4351491Y-7966436D02*
X4361015Y-7975960D01*
X4361015Y-7975960D02*
X4380063Y-7985484D01*
X4380063Y-7985484D02*
X4418158Y-7985484D01*
X4418158Y-7985484D02*
X4437205Y-7975960D01*
X4437205Y-7975960D02*
X4446729Y-7966436D01*
X4446729Y-7966436D02*
X4456253Y-7947388D01*
X4456253Y-7947388D02*
X4456253Y-7909293D01*
X4456253Y-7909293D02*
X4446729Y-7890246D01*
X4446729Y-7890246D02*
X4437205Y-7880722D01*
X4437205Y-7880722D02*
X4418158Y-7871198D01*
X4580063Y-7785484D02*
X4599110Y-7785484D01*
X4599110Y-7785484D02*
X4618158Y-7795008D01*
X4618158Y-7795008D02*
X4627682Y-7804531D01*
X4627682Y-7804531D02*
X4637205Y-7823579D01*
X4637205Y-7823579D02*
X4646729Y-7861674D01*
X4646729Y-7861674D02*
X4646729Y-7909293D01*
X4646729Y-7909293D02*
X4637205Y-7947388D01*
X4637205Y-7947388D02*
X4627682Y-7966436D01*
X4627682Y-7966436D02*
X4618158Y-7975960D01*
X4618158Y-7975960D02*
X4599110Y-7985484D01*
X4599110Y-7985484D02*
X4580063Y-7985484D01*
X4580063Y-7985484D02*
X4561015Y-7975960D01*
X4561015Y-7975960D02*
X4551491Y-7966436D01*
X4551491Y-7966436D02*
X4541967Y-7947388D01*
X4541967Y-7947388D02*
X4532444Y-7909293D01*
X4532444Y-7909293D02*
X4532444Y-7861674D01*
X4532444Y-7861674D02*
X4541967Y-7823579D01*
X4541967Y-7823579D02*
X4551491Y-7804531D01*
X4551491Y-7804531D02*
X4561015Y-7795008D01*
X4561015Y-7795008D02*
X4580063Y-7785484D01*
X4770539Y-7785484D02*
X4789586Y-7785484D01*
X4789586Y-7785484D02*
X4808634Y-7795008D01*
X4808634Y-7795008D02*
X4818158Y-7804531D01*
X4818158Y-7804531D02*
X4827682Y-7823579D01*
X4827682Y-7823579D02*
X4837205Y-7861674D01*
X4837205Y-7861674D02*
X4837205Y-7909293D01*
X4837205Y-7909293D02*
X4827682Y-7947388D01*
X4827682Y-7947388D02*
X4818158Y-7966436D01*
X4818158Y-7966436D02*
X4808634Y-7975960D01*
X4808634Y-7975960D02*
X4789586Y-7985484D01*
X4789586Y-7985484D02*
X4770539Y-7985484D01*
X4770539Y-7985484D02*
X4751491Y-7975960D01*
X4751491Y-7975960D02*
X4741967Y-7966436D01*
X4741967Y-7966436D02*
X4732444Y-7947388D01*
X4732444Y-7947388D02*
X4722920Y-7909293D01*
X4722920Y-7909293D02*
X4722920Y-7861674D01*
X4722920Y-7861674D02*
X4732444Y-7823579D01*
X4732444Y-7823579D02*
X4741967Y-7804531D01*
X4741967Y-7804531D02*
X4751491Y-7795008D01*
X4751491Y-7795008D02*
X4770539Y-7785484D01*
X4922920Y-7985484D02*
X4922920Y-7852150D01*
X4922920Y-7871198D02*
X4932444Y-7861674D01*
X4932444Y-7861674D02*
X4951491Y-7852150D01*
X4951491Y-7852150D02*
X4980063Y-7852150D01*
X4980063Y-7852150D02*
X4999110Y-7861674D01*
X4999110Y-7861674D02*
X5008634Y-7880722D01*
X5008634Y-7880722D02*
X5008634Y-7985484D01*
X5008634Y-7880722D02*
X5018158Y-7861674D01*
X5018158Y-7861674D02*
X5037205Y-7852150D01*
X5037205Y-7852150D02*
X5065777Y-7852150D01*
X5065777Y-7852150D02*
X5084825Y-7861674D01*
X5084825Y-7861674D02*
X5094348Y-7880722D01*
X5094348Y-7880722D02*
X5094348Y-7985484D01*
X5189586Y-7985484D02*
X5189586Y-7852150D01*
X5189586Y-7871198D02*
X5199110Y-7861674D01*
X5199110Y-7861674D02*
X5218158Y-7852150D01*
X5218158Y-7852150D02*
X5246729Y-7852150D01*
X5246729Y-7852150D02*
X5265777Y-7861674D01*
X5265777Y-7861674D02*
X5275301Y-7880722D01*
X5275301Y-7880722D02*
X5275301Y-7985484D01*
X5275301Y-7880722D02*
X5284825Y-7861674D01*
X5284825Y-7861674D02*
X5303872Y-7852150D01*
X5303872Y-7852150D02*
X5332444Y-7852150D01*
X5332444Y-7852150D02*
X5351491Y-7861674D01*
X5351491Y-7861674D02*
X5361015Y-7880722D01*
X5361015Y-7880722D02*
X5361015Y-7985484D01*
X5751491Y-7775960D02*
X5580063Y-8033103D01*
X6008634Y-7785484D02*
X6027682Y-7785484D01*
X6027682Y-7785484D02*
X6046729Y-7795008D01*
X6046729Y-7795008D02*
X6056253Y-7804531D01*
X6056253Y-7804531D02*
X6065777Y-7823579D01*
X6065777Y-7823579D02*
X6075301Y-7861674D01*
X6075301Y-7861674D02*
X6075301Y-7909293D01*
X6075301Y-7909293D02*
X6065777Y-7947388D01*
X6065777Y-7947388D02*
X6056253Y-7966436D01*
X6056253Y-7966436D02*
X6046729Y-7975960D01*
X6046729Y-7975960D02*
X6027682Y-7985484D01*
X6027682Y-7985484D02*
X6008634Y-7985484D01*
X6008634Y-7985484D02*
X5989586Y-7975960D01*
X5989586Y-7975960D02*
X5980063Y-7966436D01*
X5980063Y-7966436D02*
X5970539Y-7947388D01*
X5970539Y-7947388D02*
X5961015Y-7909293D01*
X5961015Y-7909293D02*
X5961015Y-7861674D01*
X5961015Y-7861674D02*
X5970539Y-7823579D01*
X5970539Y-7823579D02*
X5980063Y-7804531D01*
X5980063Y-7804531D02*
X5989586Y-7795008D01*
X5989586Y-7795008D02*
X6008634Y-7785484D01*
X6161015Y-7966436D02*
X6170539Y-7975960D01*
X6170539Y-7975960D02*
X6161015Y-7985484D01*
X6161015Y-7985484D02*
X6151491Y-7975960D01*
X6151491Y-7975960D02*
X6161015Y-7966436D01*
X6161015Y-7966436D02*
X6161015Y-7985484D01*
X6294348Y-7785484D02*
X6313396Y-7785484D01*
X6313396Y-7785484D02*
X6332444Y-7795008D01*
X6332444Y-7795008D02*
X6341967Y-7804531D01*
X6341967Y-7804531D02*
X6351491Y-7823579D01*
X6351491Y-7823579D02*
X6361015Y-7861674D01*
X6361015Y-7861674D02*
X6361015Y-7909293D01*
X6361015Y-7909293D02*
X6351491Y-7947388D01*
X6351491Y-7947388D02*
X6341967Y-7966436D01*
X6341967Y-7966436D02*
X6332444Y-7975960D01*
X6332444Y-7975960D02*
X6313396Y-7985484D01*
X6313396Y-7985484D02*
X6294348Y-7985484D01*
X6294348Y-7985484D02*
X6275301Y-7975960D01*
X6275301Y-7975960D02*
X6265777Y-7966436D01*
X6265777Y-7966436D02*
X6256253Y-7947388D01*
X6256253Y-7947388D02*
X6246729Y-7909293D01*
X6246729Y-7909293D02*
X6246729Y-7861674D01*
X6246729Y-7861674D02*
X6256253Y-7823579D01*
X6256253Y-7823579D02*
X6265777Y-7804531D01*
X6265777Y-7804531D02*
X6275301Y-7795008D01*
X6275301Y-7795008D02*
X6294348Y-7785484D01*
X6427682Y-7785484D02*
X6551491Y-7785484D01*
X6551491Y-7785484D02*
X6484825Y-7861674D01*
X6484825Y-7861674D02*
X6513396Y-7861674D01*
X6513396Y-7861674D02*
X6532444Y-7871198D01*
X6532444Y-7871198D02*
X6541967Y-7880722D01*
X6541967Y-7880722D02*
X6551491Y-7899769D01*
X6551491Y-7899769D02*
X6551491Y-7947388D01*
X6551491Y-7947388D02*
X6541967Y-7966436D01*
X6541967Y-7966436D02*
X6532444Y-7975960D01*
X6532444Y-7975960D02*
X6513396Y-7985484D01*
X6513396Y-7985484D02*
X6456253Y-7985484D01*
X6456253Y-7985484D02*
X6437206Y-7975960D01*
X6437206Y-7975960D02*
X6427682Y-7966436D01*
X6741967Y-7985484D02*
X6627682Y-7985484D01*
X6684825Y-7985484D02*
X6684825Y-7785484D01*
X6684825Y-7785484D02*
X6665777Y-7814055D01*
X6665777Y-7814055D02*
X6646729Y-7833103D01*
X6646729Y-7833103D02*
X6627682Y-7842627D01*
X6922920Y-7785484D02*
X6827682Y-7785484D01*
X6827682Y-7785484D02*
X6818158Y-7880722D01*
X6818158Y-7880722D02*
X6827682Y-7871198D01*
X6827682Y-7871198D02*
X6846729Y-7861674D01*
X6846729Y-7861674D02*
X6894348Y-7861674D01*
X6894348Y-7861674D02*
X6913396Y-7871198D01*
X6913396Y-7871198D02*
X6922920Y-7880722D01*
X6922920Y-7880722D02*
X6932444Y-7899769D01*
X6932444Y-7899769D02*
X6932444Y-7947388D01*
X6932444Y-7947388D02*
X6922920Y-7966436D01*
X6922920Y-7966436D02*
X6913396Y-7975960D01*
X6913396Y-7975960D02*
X6894348Y-7985484D01*
X6894348Y-7985484D02*
X6846729Y-7985484D01*
X6846729Y-7985484D02*
X6827682Y-7975960D01*
X6827682Y-7975960D02*
X6818158Y-7966436D01*
X7008634Y-7785484D02*
X7008634Y-7823579D01*
X7084825Y-7785484D02*
X7084825Y-7823579D01*
X7380063Y-8061674D02*
X7370539Y-8052150D01*
X7370539Y-8052150D02*
X7351491Y-8023579D01*
X7351491Y-8023579D02*
X7341968Y-8004531D01*
X7341968Y-8004531D02*
X7332444Y-7975960D01*
X7332444Y-7975960D02*
X7322920Y-7928341D01*
X7322920Y-7928341D02*
X7322920Y-7890246D01*
X7322920Y-7890246D02*
X7332444Y-7842627D01*
X7332444Y-7842627D02*
X7341968Y-7814055D01*
X7341968Y-7814055D02*
X7351491Y-7795008D01*
X7351491Y-7795008D02*
X7370539Y-7766436D01*
X7370539Y-7766436D02*
X7380063Y-7756912D01*
X7446729Y-7804531D02*
X7456253Y-7795008D01*
X7456253Y-7795008D02*
X7475301Y-7785484D01*
X7475301Y-7785484D02*
X7522920Y-7785484D01*
X7522920Y-7785484D02*
X7541968Y-7795008D01*
X7541968Y-7795008D02*
X7551491Y-7804531D01*
X7551491Y-7804531D02*
X7561015Y-7823579D01*
X7561015Y-7823579D02*
X7561015Y-7842627D01*
X7561015Y-7842627D02*
X7551491Y-7871198D01*
X7551491Y-7871198D02*
X7437206Y-7985484D01*
X7437206Y-7985484D02*
X7561015Y-7985484D01*
X7799110Y-7985484D02*
X7799110Y-7785484D01*
X7884825Y-7985484D02*
X7884825Y-7880722D01*
X7884825Y-7880722D02*
X7875301Y-7861674D01*
X7875301Y-7861674D02*
X7856253Y-7852150D01*
X7856253Y-7852150D02*
X7827682Y-7852150D01*
X7827682Y-7852150D02*
X7808634Y-7861674D01*
X7808634Y-7861674D02*
X7799110Y-7871198D01*
X8008634Y-7985484D02*
X7989587Y-7975960D01*
X7989587Y-7975960D02*
X7980063Y-7966436D01*
X7980063Y-7966436D02*
X7970539Y-7947388D01*
X7970539Y-7947388D02*
X7970539Y-7890246D01*
X7970539Y-7890246D02*
X7980063Y-7871198D01*
X7980063Y-7871198D02*
X7989587Y-7861674D01*
X7989587Y-7861674D02*
X8008634Y-7852150D01*
X8008634Y-7852150D02*
X8037206Y-7852150D01*
X8037206Y-7852150D02*
X8056253Y-7861674D01*
X8056253Y-7861674D02*
X8065777Y-7871198D01*
X8065777Y-7871198D02*
X8075301Y-7890246D01*
X8075301Y-7890246D02*
X8075301Y-7947388D01*
X8075301Y-7947388D02*
X8065777Y-7966436D01*
X8065777Y-7966436D02*
X8056253Y-7975960D01*
X8056253Y-7975960D02*
X8037206Y-7985484D01*
X8037206Y-7985484D02*
X8008634Y-7985484D01*
X8189587Y-7985484D02*
X8170539Y-7975960D01*
X8170539Y-7975960D02*
X8161015Y-7956912D01*
X8161015Y-7956912D02*
X8161015Y-7785484D01*
X8341968Y-7975960D02*
X8322920Y-7985484D01*
X8322920Y-7985484D02*
X8284825Y-7985484D01*
X8284825Y-7985484D02*
X8265777Y-7975960D01*
X8265777Y-7975960D02*
X8256253Y-7956912D01*
X8256253Y-7956912D02*
X8256253Y-7880722D01*
X8256253Y-7880722D02*
X8265777Y-7861674D01*
X8265777Y-7861674D02*
X8284825Y-7852150D01*
X8284825Y-7852150D02*
X8322920Y-7852150D01*
X8322920Y-7852150D02*
X8341968Y-7861674D01*
X8341968Y-7861674D02*
X8351491Y-7880722D01*
X8351491Y-7880722D02*
X8351491Y-7899769D01*
X8351491Y-7899769D02*
X8256253Y-7918817D01*
X8427682Y-7975960D02*
X8446730Y-7985484D01*
X8446730Y-7985484D02*
X8484825Y-7985484D01*
X8484825Y-7985484D02*
X8503873Y-7975960D01*
X8503873Y-7975960D02*
X8513396Y-7956912D01*
X8513396Y-7956912D02*
X8513396Y-7947388D01*
X8513396Y-7947388D02*
X8503873Y-7928341D01*
X8503873Y-7928341D02*
X8484825Y-7918817D01*
X8484825Y-7918817D02*
X8456253Y-7918817D01*
X8456253Y-7918817D02*
X8437206Y-7909293D01*
X8437206Y-7909293D02*
X8427682Y-7890246D01*
X8427682Y-7890246D02*
X8427682Y-7880722D01*
X8427682Y-7880722D02*
X8437206Y-7861674D01*
X8437206Y-7861674D02*
X8456253Y-7852150D01*
X8456253Y-7852150D02*
X8484825Y-7852150D01*
X8484825Y-7852150D02*
X8503873Y-7861674D01*
X8580063Y-8061674D02*
X8589587Y-8052150D01*
X8589587Y-8052150D02*
X8608634Y-8023579D01*
X8608634Y-8023579D02*
X8618158Y-8004531D01*
X8618158Y-8004531D02*
X8627682Y-7975960D01*
X8627682Y-7975960D02*
X8637206Y-7928341D01*
X8637206Y-7928341D02*
X8637206Y-7890246D01*
X8637206Y-7890246D02*
X8627682Y-7842627D01*
X8627682Y-7842627D02*
X8618158Y-7814055D01*
X8618158Y-7814055D02*
X8608634Y-7795008D01*
X8608634Y-7795008D02*
X8589587Y-7766436D01*
X8589587Y-7766436D02*
X8580063Y-7756912D01*
D10*
X3765000Y-8118000D02*
X3765000Y-8198000D01*
X3725000Y-8158000D02*
X3805000Y-8158000D01*
D11*
X4103872Y-8049484D02*
X4122920Y-8049484D01*
X4122920Y-8049484D02*
X4141967Y-8059008D01*
X4141967Y-8059008D02*
X4151491Y-8068531D01*
X4151491Y-8068531D02*
X4161015Y-8087579D01*
X4161015Y-8087579D02*
X4170539Y-8125674D01*
X4170539Y-8125674D02*
X4170539Y-8173293D01*
X4170539Y-8173293D02*
X4161015Y-8211388D01*
X4161015Y-8211388D02*
X4151491Y-8230436D01*
X4151491Y-8230436D02*
X4141967Y-8239960D01*
X4141967Y-8239960D02*
X4122920Y-8249484D01*
X4122920Y-8249484D02*
X4103872Y-8249484D01*
X4103872Y-8249484D02*
X4084824Y-8239960D01*
X4084824Y-8239960D02*
X4075301Y-8230436D01*
X4075301Y-8230436D02*
X4065777Y-8211388D01*
X4065777Y-8211388D02*
X4056253Y-8173293D01*
X4056253Y-8173293D02*
X4056253Y-8125674D01*
X4056253Y-8125674D02*
X4065777Y-8087579D01*
X4065777Y-8087579D02*
X4075301Y-8068531D01*
X4075301Y-8068531D02*
X4084824Y-8059008D01*
X4084824Y-8059008D02*
X4103872Y-8049484D01*
X4256253Y-8230436D02*
X4265777Y-8239960D01*
X4265777Y-8239960D02*
X4256253Y-8249484D01*
X4256253Y-8249484D02*
X4246729Y-8239960D01*
X4246729Y-8239960D02*
X4256253Y-8230436D01*
X4256253Y-8230436D02*
X4256253Y-8249484D01*
X4380063Y-8135198D02*
X4361015Y-8125674D01*
X4361015Y-8125674D02*
X4351491Y-8116150D01*
X4351491Y-8116150D02*
X4341967Y-8097103D01*
X4341967Y-8097103D02*
X4341967Y-8087579D01*
X4341967Y-8087579D02*
X4351491Y-8068531D01*
X4351491Y-8068531D02*
X4361015Y-8059008D01*
X4361015Y-8059008D02*
X4380063Y-8049484D01*
X4380063Y-8049484D02*
X4418158Y-8049484D01*
X4418158Y-8049484D02*
X4437205Y-8059008D01*
X4437205Y-8059008D02*
X4446729Y-8068531D01*
X4446729Y-8068531D02*
X4456253Y-8087579D01*
X4456253Y-8087579D02*
X4456253Y-8097103D01*
X4456253Y-8097103D02*
X4446729Y-8116150D01*
X4446729Y-8116150D02*
X4437205Y-8125674D01*
X4437205Y-8125674D02*
X4418158Y-8135198D01*
X4418158Y-8135198D02*
X4380063Y-8135198D01*
X4380063Y-8135198D02*
X4361015Y-8144722D01*
X4361015Y-8144722D02*
X4351491Y-8154246D01*
X4351491Y-8154246D02*
X4341967Y-8173293D01*
X4341967Y-8173293D02*
X4341967Y-8211388D01*
X4341967Y-8211388D02*
X4351491Y-8230436D01*
X4351491Y-8230436D02*
X4361015Y-8239960D01*
X4361015Y-8239960D02*
X4380063Y-8249484D01*
X4380063Y-8249484D02*
X4418158Y-8249484D01*
X4418158Y-8249484D02*
X4437205Y-8239960D01*
X4437205Y-8239960D02*
X4446729Y-8230436D01*
X4446729Y-8230436D02*
X4456253Y-8211388D01*
X4456253Y-8211388D02*
X4456253Y-8173293D01*
X4456253Y-8173293D02*
X4446729Y-8154246D01*
X4446729Y-8154246D02*
X4437205Y-8144722D01*
X4437205Y-8144722D02*
X4418158Y-8135198D01*
X4580063Y-8049484D02*
X4599110Y-8049484D01*
X4599110Y-8049484D02*
X4618158Y-8059008D01*
X4618158Y-8059008D02*
X4627682Y-8068531D01*
X4627682Y-8068531D02*
X4637205Y-8087579D01*
X4637205Y-8087579D02*
X4646729Y-8125674D01*
X4646729Y-8125674D02*
X4646729Y-8173293D01*
X4646729Y-8173293D02*
X4637205Y-8211388D01*
X4637205Y-8211388D02*
X4627682Y-8230436D01*
X4627682Y-8230436D02*
X4618158Y-8239960D01*
X4618158Y-8239960D02*
X4599110Y-8249484D01*
X4599110Y-8249484D02*
X4580063Y-8249484D01*
X4580063Y-8249484D02*
X4561015Y-8239960D01*
X4561015Y-8239960D02*
X4551491Y-8230436D01*
X4551491Y-8230436D02*
X4541967Y-8211388D01*
X4541967Y-8211388D02*
X4532444Y-8173293D01*
X4532444Y-8173293D02*
X4532444Y-8125674D01*
X4532444Y-8125674D02*
X4541967Y-8087579D01*
X4541967Y-8087579D02*
X4551491Y-8068531D01*
X4551491Y-8068531D02*
X4561015Y-8059008D01*
X4561015Y-8059008D02*
X4580063Y-8049484D01*
X4770539Y-8049484D02*
X4789586Y-8049484D01*
X4789586Y-8049484D02*
X4808634Y-8059008D01*
X4808634Y-8059008D02*
X4818158Y-8068531D01*
X4818158Y-8068531D02*
X4827682Y-8087579D01*
X4827682Y-8087579D02*
X4837205Y-8125674D01*
X4837205Y-8125674D02*
X4837205Y-8173293D01*
X4837205Y-8173293D02*
X4827682Y-8211388D01*
X4827682Y-8211388D02*
X4818158Y-8230436D01*
X4818158Y-8230436D02*
X4808634Y-8239960D01*
X4808634Y-8239960D02*
X4789586Y-8249484D01*
X4789586Y-8249484D02*
X4770539Y-8249484D01*
X4770539Y-8249484D02*
X4751491Y-8239960D01*
X4751491Y-8239960D02*
X4741967Y-8230436D01*
X4741967Y-8230436D02*
X4732444Y-8211388D01*
X4732444Y-8211388D02*
X4722920Y-8173293D01*
X4722920Y-8173293D02*
X4722920Y-8125674D01*
X4722920Y-8125674D02*
X4732444Y-8087579D01*
X4732444Y-8087579D02*
X4741967Y-8068531D01*
X4741967Y-8068531D02*
X4751491Y-8059008D01*
X4751491Y-8059008D02*
X4770539Y-8049484D01*
X4922920Y-8249484D02*
X4922920Y-8116150D01*
X4922920Y-8135198D02*
X4932444Y-8125674D01*
X4932444Y-8125674D02*
X4951491Y-8116150D01*
X4951491Y-8116150D02*
X4980063Y-8116150D01*
X4980063Y-8116150D02*
X4999110Y-8125674D01*
X4999110Y-8125674D02*
X5008634Y-8144722D01*
X5008634Y-8144722D02*
X5008634Y-8249484D01*
X5008634Y-8144722D02*
X5018158Y-8125674D01*
X5018158Y-8125674D02*
X5037205Y-8116150D01*
X5037205Y-8116150D02*
X5065777Y-8116150D01*
X5065777Y-8116150D02*
X5084825Y-8125674D01*
X5084825Y-8125674D02*
X5094348Y-8144722D01*
X5094348Y-8144722D02*
X5094348Y-8249484D01*
X5189586Y-8249484D02*
X5189586Y-8116150D01*
X5189586Y-8135198D02*
X5199110Y-8125674D01*
X5199110Y-8125674D02*
X5218158Y-8116150D01*
X5218158Y-8116150D02*
X5246729Y-8116150D01*
X5246729Y-8116150D02*
X5265777Y-8125674D01*
X5265777Y-8125674D02*
X5275301Y-8144722D01*
X5275301Y-8144722D02*
X5275301Y-8249484D01*
X5275301Y-8144722D02*
X5284825Y-8125674D01*
X5284825Y-8125674D02*
X5303872Y-8116150D01*
X5303872Y-8116150D02*
X5332444Y-8116150D01*
X5332444Y-8116150D02*
X5351491Y-8125674D01*
X5351491Y-8125674D02*
X5361015Y-8144722D01*
X5361015Y-8144722D02*
X5361015Y-8249484D01*
X5751491Y-8039960D02*
X5580063Y-8297103D01*
X6008634Y-8049484D02*
X6027682Y-8049484D01*
X6027682Y-8049484D02*
X6046729Y-8059008D01*
X6046729Y-8059008D02*
X6056253Y-8068531D01*
X6056253Y-8068531D02*
X6065777Y-8087579D01*
X6065777Y-8087579D02*
X6075301Y-8125674D01*
X6075301Y-8125674D02*
X6075301Y-8173293D01*
X6075301Y-8173293D02*
X6065777Y-8211388D01*
X6065777Y-8211388D02*
X6056253Y-8230436D01*
X6056253Y-8230436D02*
X6046729Y-8239960D01*
X6046729Y-8239960D02*
X6027682Y-8249484D01*
X6027682Y-8249484D02*
X6008634Y-8249484D01*
X6008634Y-8249484D02*
X5989586Y-8239960D01*
X5989586Y-8239960D02*
X5980063Y-8230436D01*
X5980063Y-8230436D02*
X5970539Y-8211388D01*
X5970539Y-8211388D02*
X5961015Y-8173293D01*
X5961015Y-8173293D02*
X5961015Y-8125674D01*
X5961015Y-8125674D02*
X5970539Y-8087579D01*
X5970539Y-8087579D02*
X5980063Y-8068531D01*
X5980063Y-8068531D02*
X5989586Y-8059008D01*
X5989586Y-8059008D02*
X6008634Y-8049484D01*
X6161015Y-8230436D02*
X6170539Y-8239960D01*
X6170539Y-8239960D02*
X6161015Y-8249484D01*
X6161015Y-8249484D02*
X6151491Y-8239960D01*
X6151491Y-8239960D02*
X6161015Y-8230436D01*
X6161015Y-8230436D02*
X6161015Y-8249484D01*
X6294348Y-8049484D02*
X6313396Y-8049484D01*
X6313396Y-8049484D02*
X6332444Y-8059008D01*
X6332444Y-8059008D02*
X6341967Y-8068531D01*
X6341967Y-8068531D02*
X6351491Y-8087579D01*
X6351491Y-8087579D02*
X6361015Y-8125674D01*
X6361015Y-8125674D02*
X6361015Y-8173293D01*
X6361015Y-8173293D02*
X6351491Y-8211388D01*
X6351491Y-8211388D02*
X6341967Y-8230436D01*
X6341967Y-8230436D02*
X6332444Y-8239960D01*
X6332444Y-8239960D02*
X6313396Y-8249484D01*
X6313396Y-8249484D02*
X6294348Y-8249484D01*
X6294348Y-8249484D02*
X6275301Y-8239960D01*
X6275301Y-8239960D02*
X6265777Y-8230436D01*
X6265777Y-8230436D02*
X6256253Y-8211388D01*
X6256253Y-8211388D02*
X6246729Y-8173293D01*
X6246729Y-8173293D02*
X6246729Y-8125674D01*
X6246729Y-8125674D02*
X6256253Y-8087579D01*
X6256253Y-8087579D02*
X6265777Y-8068531D01*
X6265777Y-8068531D02*
X6275301Y-8059008D01*
X6275301Y-8059008D02*
X6294348Y-8049484D01*
X6427682Y-8049484D02*
X6551491Y-8049484D01*
X6551491Y-8049484D02*
X6484825Y-8125674D01*
X6484825Y-8125674D02*
X6513396Y-8125674D01*
X6513396Y-8125674D02*
X6532444Y-8135198D01*
X6532444Y-8135198D02*
X6541967Y-8144722D01*
X6541967Y-8144722D02*
X6551491Y-8163769D01*
X6551491Y-8163769D02*
X6551491Y-8211388D01*
X6551491Y-8211388D02*
X6541967Y-8230436D01*
X6541967Y-8230436D02*
X6532444Y-8239960D01*
X6532444Y-8239960D02*
X6513396Y-8249484D01*
X6513396Y-8249484D02*
X6456253Y-8249484D01*
X6456253Y-8249484D02*
X6437206Y-8239960D01*
X6437206Y-8239960D02*
X6427682Y-8230436D01*
X6741967Y-8249484D02*
X6627682Y-8249484D01*
X6684825Y-8249484D02*
X6684825Y-8049484D01*
X6684825Y-8049484D02*
X6665777Y-8078055D01*
X6665777Y-8078055D02*
X6646729Y-8097103D01*
X6646729Y-8097103D02*
X6627682Y-8106627D01*
X6922920Y-8049484D02*
X6827682Y-8049484D01*
X6827682Y-8049484D02*
X6818158Y-8144722D01*
X6818158Y-8144722D02*
X6827682Y-8135198D01*
X6827682Y-8135198D02*
X6846729Y-8125674D01*
X6846729Y-8125674D02*
X6894348Y-8125674D01*
X6894348Y-8125674D02*
X6913396Y-8135198D01*
X6913396Y-8135198D02*
X6922920Y-8144722D01*
X6922920Y-8144722D02*
X6932444Y-8163769D01*
X6932444Y-8163769D02*
X6932444Y-8211388D01*
X6932444Y-8211388D02*
X6922920Y-8230436D01*
X6922920Y-8230436D02*
X6913396Y-8239960D01*
X6913396Y-8239960D02*
X6894348Y-8249484D01*
X6894348Y-8249484D02*
X6846729Y-8249484D01*
X6846729Y-8249484D02*
X6827682Y-8239960D01*
X6827682Y-8239960D02*
X6818158Y-8230436D01*
X7008634Y-8049484D02*
X7008634Y-8087579D01*
X7084825Y-8049484D02*
X7084825Y-8087579D01*
X7380063Y-8325674D02*
X7370539Y-8316150D01*
X7370539Y-8316150D02*
X7351491Y-8287579D01*
X7351491Y-8287579D02*
X7341968Y-8268531D01*
X7341968Y-8268531D02*
X7332444Y-8239960D01*
X7332444Y-8239960D02*
X7322920Y-8192341D01*
X7322920Y-8192341D02*
X7322920Y-8154246D01*
X7322920Y-8154246D02*
X7332444Y-8106627D01*
X7332444Y-8106627D02*
X7341968Y-8078055D01*
X7341968Y-8078055D02*
X7351491Y-8059008D01*
X7351491Y-8059008D02*
X7370539Y-8030436D01*
X7370539Y-8030436D02*
X7380063Y-8020912D01*
X7437206Y-8049484D02*
X7561015Y-8049484D01*
X7561015Y-8049484D02*
X7494348Y-8125674D01*
X7494348Y-8125674D02*
X7522920Y-8125674D01*
X7522920Y-8125674D02*
X7541968Y-8135198D01*
X7541968Y-8135198D02*
X7551491Y-8144722D01*
X7551491Y-8144722D02*
X7561015Y-8163769D01*
X7561015Y-8163769D02*
X7561015Y-8211388D01*
X7561015Y-8211388D02*
X7551491Y-8230436D01*
X7551491Y-8230436D02*
X7541968Y-8239960D01*
X7541968Y-8239960D02*
X7522920Y-8249484D01*
X7522920Y-8249484D02*
X7465777Y-8249484D01*
X7465777Y-8249484D02*
X7446729Y-8239960D01*
X7446729Y-8239960D02*
X7437206Y-8230436D01*
X7637206Y-8068531D02*
X7646729Y-8059008D01*
X7646729Y-8059008D02*
X7665777Y-8049484D01*
X7665777Y-8049484D02*
X7713396Y-8049484D01*
X7713396Y-8049484D02*
X7732444Y-8059008D01*
X7732444Y-8059008D02*
X7741968Y-8068531D01*
X7741968Y-8068531D02*
X7751491Y-8087579D01*
X7751491Y-8087579D02*
X7751491Y-8106627D01*
X7751491Y-8106627D02*
X7741968Y-8135198D01*
X7741968Y-8135198D02*
X7627682Y-8249484D01*
X7627682Y-8249484D02*
X7751491Y-8249484D01*
X7989587Y-8249484D02*
X7989587Y-8049484D01*
X8075301Y-8249484D02*
X8075301Y-8144722D01*
X8075301Y-8144722D02*
X8065777Y-8125674D01*
X8065777Y-8125674D02*
X8046730Y-8116150D01*
X8046730Y-8116150D02*
X8018158Y-8116150D01*
X8018158Y-8116150D02*
X7999110Y-8125674D01*
X7999110Y-8125674D02*
X7989587Y-8135198D01*
X8199110Y-8249484D02*
X8180063Y-8239960D01*
X8180063Y-8239960D02*
X8170539Y-8230436D01*
X8170539Y-8230436D02*
X8161015Y-8211388D01*
X8161015Y-8211388D02*
X8161015Y-8154246D01*
X8161015Y-8154246D02*
X8170539Y-8135198D01*
X8170539Y-8135198D02*
X8180063Y-8125674D01*
X8180063Y-8125674D02*
X8199110Y-8116150D01*
X8199110Y-8116150D02*
X8227682Y-8116150D01*
X8227682Y-8116150D02*
X8246730Y-8125674D01*
X8246730Y-8125674D02*
X8256253Y-8135198D01*
X8256253Y-8135198D02*
X8265777Y-8154246D01*
X8265777Y-8154246D02*
X8265777Y-8211388D01*
X8265777Y-8211388D02*
X8256253Y-8230436D01*
X8256253Y-8230436D02*
X8246730Y-8239960D01*
X8246730Y-8239960D02*
X8227682Y-8249484D01*
X8227682Y-8249484D02*
X8199110Y-8249484D01*
X8380063Y-8249484D02*
X8361015Y-8239960D01*
X8361015Y-8239960D02*
X8351491Y-8220912D01*
X8351491Y-8220912D02*
X8351491Y-8049484D01*
X8532444Y-8239960D02*
X8513396Y-8249484D01*
X8513396Y-8249484D02*
X8475301Y-8249484D01*
X8475301Y-8249484D02*
X8456253Y-8239960D01*
X8456253Y-8239960D02*
X8446730Y-8220912D01*
X8446730Y-8220912D02*
X8446730Y-8144722D01*
X8446730Y-8144722D02*
X8456253Y-8125674D01*
X8456253Y-8125674D02*
X8475301Y-8116150D01*
X8475301Y-8116150D02*
X8513396Y-8116150D01*
X8513396Y-8116150D02*
X8532444Y-8125674D01*
X8532444Y-8125674D02*
X8541968Y-8144722D01*
X8541968Y-8144722D02*
X8541968Y-8163769D01*
X8541968Y-8163769D02*
X8446730Y-8182817D01*
X8618158Y-8239960D02*
X8637206Y-8249484D01*
X8637206Y-8249484D02*
X8675301Y-8249484D01*
X8675301Y-8249484D02*
X8694349Y-8239960D01*
X8694349Y-8239960D02*
X8703873Y-8220912D01*
X8703873Y-8220912D02*
X8703873Y-8211388D01*
X8703873Y-8211388D02*
X8694349Y-8192341D01*
X8694349Y-8192341D02*
X8675301Y-8182817D01*
X8675301Y-8182817D02*
X8646730Y-8182817D01*
X8646730Y-8182817D02*
X8627682Y-8173293D01*
X8627682Y-8173293D02*
X8618158Y-8154246D01*
X8618158Y-8154246D02*
X8618158Y-8144722D01*
X8618158Y-8144722D02*
X8627682Y-8125674D01*
X8627682Y-8125674D02*
X8646730Y-8116150D01*
X8646730Y-8116150D02*
X8675301Y-8116150D01*
X8675301Y-8116150D02*
X8694349Y-8125674D01*
X8770539Y-8325674D02*
X8780063Y-8316150D01*
X8780063Y-8316150D02*
X8799111Y-8287579D01*
X8799111Y-8287579D02*
X8808634Y-8268531D01*
X8808634Y-8268531D02*
X8818158Y-8239960D01*
X8818158Y-8239960D02*
X8827682Y-8192341D01*
X8827682Y-8192341D02*
X8827682Y-8154246D01*
X8827682Y-8154246D02*
X8818158Y-8106627D01*
X8818158Y-8106627D02*
X8808634Y-8078055D01*
X8808634Y-8078055D02*
X8799111Y-8059008D01*
X8799111Y-8059008D02*
X8780063Y-8030436D01*
X8780063Y-8030436D02*
X8770539Y-8020912D01*
D10*
X3790356Y-8457356D02*
X3790356Y-8386644D01*
X3719644Y-8386644D01*
X3719644Y-8457356D01*
X3790356Y-8457356D01*
D11*
X4170539Y-8513484D02*
X4056253Y-8513484D01*
X4113396Y-8513484D02*
X4113396Y-8313484D01*
X4113396Y-8313484D02*
X4094348Y-8342055D01*
X4094348Y-8342055D02*
X4075301Y-8361103D01*
X4075301Y-8361103D02*
X4056253Y-8370627D01*
X4256253Y-8494436D02*
X4265777Y-8503960D01*
X4265777Y-8503960D02*
X4256253Y-8513484D01*
X4256253Y-8513484D02*
X4246729Y-8503960D01*
X4246729Y-8503960D02*
X4256253Y-8494436D01*
X4256253Y-8494436D02*
X4256253Y-8513484D01*
X4389586Y-8313484D02*
X4408634Y-8313484D01*
X4408634Y-8313484D02*
X4427682Y-8323008D01*
X4427682Y-8323008D02*
X4437205Y-8332531D01*
X4437205Y-8332531D02*
X4446729Y-8351579D01*
X4446729Y-8351579D02*
X4456253Y-8389674D01*
X4456253Y-8389674D02*
X4456253Y-8437293D01*
X4456253Y-8437293D02*
X4446729Y-8475389D01*
X4446729Y-8475389D02*
X4437205Y-8494436D01*
X4437205Y-8494436D02*
X4427682Y-8503960D01*
X4427682Y-8503960D02*
X4408634Y-8513484D01*
X4408634Y-8513484D02*
X4389586Y-8513484D01*
X4389586Y-8513484D02*
X4370539Y-8503960D01*
X4370539Y-8503960D02*
X4361015Y-8494436D01*
X4361015Y-8494436D02*
X4351491Y-8475389D01*
X4351491Y-8475389D02*
X4341967Y-8437293D01*
X4341967Y-8437293D02*
X4341967Y-8389674D01*
X4341967Y-8389674D02*
X4351491Y-8351579D01*
X4351491Y-8351579D02*
X4361015Y-8332531D01*
X4361015Y-8332531D02*
X4370539Y-8323008D01*
X4370539Y-8323008D02*
X4389586Y-8313484D01*
X4580063Y-8313484D02*
X4599110Y-8313484D01*
X4599110Y-8313484D02*
X4618158Y-8323008D01*
X4618158Y-8323008D02*
X4627682Y-8332531D01*
X4627682Y-8332531D02*
X4637205Y-8351579D01*
X4637205Y-8351579D02*
X4646729Y-8389674D01*
X4646729Y-8389674D02*
X4646729Y-8437293D01*
X4646729Y-8437293D02*
X4637205Y-8475389D01*
X4637205Y-8475389D02*
X4627682Y-8494436D01*
X4627682Y-8494436D02*
X4618158Y-8503960D01*
X4618158Y-8503960D02*
X4599110Y-8513484D01*
X4599110Y-8513484D02*
X4580063Y-8513484D01*
X4580063Y-8513484D02*
X4561015Y-8503960D01*
X4561015Y-8503960D02*
X4551491Y-8494436D01*
X4551491Y-8494436D02*
X4541967Y-8475389D01*
X4541967Y-8475389D02*
X4532444Y-8437293D01*
X4532444Y-8437293D02*
X4532444Y-8389674D01*
X4532444Y-8389674D02*
X4541967Y-8351579D01*
X4541967Y-8351579D02*
X4551491Y-8332531D01*
X4551491Y-8332531D02*
X4561015Y-8323008D01*
X4561015Y-8323008D02*
X4580063Y-8313484D01*
X4770539Y-8313484D02*
X4789586Y-8313484D01*
X4789586Y-8313484D02*
X4808634Y-8323008D01*
X4808634Y-8323008D02*
X4818158Y-8332531D01*
X4818158Y-8332531D02*
X4827682Y-8351579D01*
X4827682Y-8351579D02*
X4837205Y-8389674D01*
X4837205Y-8389674D02*
X4837205Y-8437293D01*
X4837205Y-8437293D02*
X4827682Y-8475389D01*
X4827682Y-8475389D02*
X4818158Y-8494436D01*
X4818158Y-8494436D02*
X4808634Y-8503960D01*
X4808634Y-8503960D02*
X4789586Y-8513484D01*
X4789586Y-8513484D02*
X4770539Y-8513484D01*
X4770539Y-8513484D02*
X4751491Y-8503960D01*
X4751491Y-8503960D02*
X4741967Y-8494436D01*
X4741967Y-8494436D02*
X4732444Y-8475389D01*
X4732444Y-8475389D02*
X4722920Y-8437293D01*
X4722920Y-8437293D02*
X4722920Y-8389674D01*
X4722920Y-8389674D02*
X4732444Y-8351579D01*
X4732444Y-8351579D02*
X4741967Y-8332531D01*
X4741967Y-8332531D02*
X4751491Y-8323008D01*
X4751491Y-8323008D02*
X4770539Y-8313484D01*
X4922920Y-8513484D02*
X4922920Y-8380150D01*
X4922920Y-8399198D02*
X4932444Y-8389674D01*
X4932444Y-8389674D02*
X4951491Y-8380150D01*
X4951491Y-8380150D02*
X4980063Y-8380150D01*
X4980063Y-8380150D02*
X4999110Y-8389674D01*
X4999110Y-8389674D02*
X5008634Y-8408722D01*
X5008634Y-8408722D02*
X5008634Y-8513484D01*
X5008634Y-8408722D02*
X5018158Y-8389674D01*
X5018158Y-8389674D02*
X5037205Y-8380150D01*
X5037205Y-8380150D02*
X5065777Y-8380150D01*
X5065777Y-8380150D02*
X5084825Y-8389674D01*
X5084825Y-8389674D02*
X5094348Y-8408722D01*
X5094348Y-8408722D02*
X5094348Y-8513484D01*
X5189586Y-8513484D02*
X5189586Y-8380150D01*
X5189586Y-8399198D02*
X5199110Y-8389674D01*
X5199110Y-8389674D02*
X5218158Y-8380150D01*
X5218158Y-8380150D02*
X5246729Y-8380150D01*
X5246729Y-8380150D02*
X5265777Y-8389674D01*
X5265777Y-8389674D02*
X5275301Y-8408722D01*
X5275301Y-8408722D02*
X5275301Y-8513484D01*
X5275301Y-8408722D02*
X5284825Y-8389674D01*
X5284825Y-8389674D02*
X5303872Y-8380150D01*
X5303872Y-8380150D02*
X5332444Y-8380150D01*
X5332444Y-8380150D02*
X5351491Y-8389674D01*
X5351491Y-8389674D02*
X5361015Y-8408722D01*
X5361015Y-8408722D02*
X5361015Y-8513484D01*
X5751491Y-8303960D02*
X5580063Y-8561103D01*
X6008634Y-8313484D02*
X6027682Y-8313484D01*
X6027682Y-8313484D02*
X6046729Y-8323008D01*
X6046729Y-8323008D02*
X6056253Y-8332531D01*
X6056253Y-8332531D02*
X6065777Y-8351579D01*
X6065777Y-8351579D02*
X6075301Y-8389674D01*
X6075301Y-8389674D02*
X6075301Y-8437293D01*
X6075301Y-8437293D02*
X6065777Y-8475389D01*
X6065777Y-8475389D02*
X6056253Y-8494436D01*
X6056253Y-8494436D02*
X6046729Y-8503960D01*
X6046729Y-8503960D02*
X6027682Y-8513484D01*
X6027682Y-8513484D02*
X6008634Y-8513484D01*
X6008634Y-8513484D02*
X5989586Y-8503960D01*
X5989586Y-8503960D02*
X5980063Y-8494436D01*
X5980063Y-8494436D02*
X5970539Y-8475389D01*
X5970539Y-8475389D02*
X5961015Y-8437293D01*
X5961015Y-8437293D02*
X5961015Y-8389674D01*
X5961015Y-8389674D02*
X5970539Y-8351579D01*
X5970539Y-8351579D02*
X5980063Y-8332531D01*
X5980063Y-8332531D02*
X5989586Y-8323008D01*
X5989586Y-8323008D02*
X6008634Y-8313484D01*
X6161015Y-8494436D02*
X6170539Y-8503960D01*
X6170539Y-8503960D02*
X6161015Y-8513484D01*
X6161015Y-8513484D02*
X6151491Y-8503960D01*
X6151491Y-8503960D02*
X6161015Y-8494436D01*
X6161015Y-8494436D02*
X6161015Y-8513484D01*
X6294348Y-8313484D02*
X6313396Y-8313484D01*
X6313396Y-8313484D02*
X6332444Y-8323008D01*
X6332444Y-8323008D02*
X6341967Y-8332531D01*
X6341967Y-8332531D02*
X6351491Y-8351579D01*
X6351491Y-8351579D02*
X6361015Y-8389674D01*
X6361015Y-8389674D02*
X6361015Y-8437293D01*
X6361015Y-8437293D02*
X6351491Y-8475389D01*
X6351491Y-8475389D02*
X6341967Y-8494436D01*
X6341967Y-8494436D02*
X6332444Y-8503960D01*
X6332444Y-8503960D02*
X6313396Y-8513484D01*
X6313396Y-8513484D02*
X6294348Y-8513484D01*
X6294348Y-8513484D02*
X6275301Y-8503960D01*
X6275301Y-8503960D02*
X6265777Y-8494436D01*
X6265777Y-8494436D02*
X6256253Y-8475389D01*
X6256253Y-8475389D02*
X6246729Y-8437293D01*
X6246729Y-8437293D02*
X6246729Y-8389674D01*
X6246729Y-8389674D02*
X6256253Y-8351579D01*
X6256253Y-8351579D02*
X6265777Y-8332531D01*
X6265777Y-8332531D02*
X6275301Y-8323008D01*
X6275301Y-8323008D02*
X6294348Y-8313484D01*
X6427682Y-8313484D02*
X6551491Y-8313484D01*
X6551491Y-8313484D02*
X6484825Y-8389674D01*
X6484825Y-8389674D02*
X6513396Y-8389674D01*
X6513396Y-8389674D02*
X6532444Y-8399198D01*
X6532444Y-8399198D02*
X6541967Y-8408722D01*
X6541967Y-8408722D02*
X6551491Y-8427770D01*
X6551491Y-8427770D02*
X6551491Y-8475389D01*
X6551491Y-8475389D02*
X6541967Y-8494436D01*
X6541967Y-8494436D02*
X6532444Y-8503960D01*
X6532444Y-8503960D02*
X6513396Y-8513484D01*
X6513396Y-8513484D02*
X6456253Y-8513484D01*
X6456253Y-8513484D02*
X6437206Y-8503960D01*
X6437206Y-8503960D02*
X6427682Y-8494436D01*
X6646729Y-8513484D02*
X6684825Y-8513484D01*
X6684825Y-8513484D02*
X6703872Y-8503960D01*
X6703872Y-8503960D02*
X6713396Y-8494436D01*
X6713396Y-8494436D02*
X6732444Y-8465865D01*
X6732444Y-8465865D02*
X6741967Y-8427770D01*
X6741967Y-8427770D02*
X6741967Y-8351579D01*
X6741967Y-8351579D02*
X6732444Y-8332531D01*
X6732444Y-8332531D02*
X6722920Y-8323008D01*
X6722920Y-8323008D02*
X6703872Y-8313484D01*
X6703872Y-8313484D02*
X6665777Y-8313484D01*
X6665777Y-8313484D02*
X6646729Y-8323008D01*
X6646729Y-8323008D02*
X6637206Y-8332531D01*
X6637206Y-8332531D02*
X6627682Y-8351579D01*
X6627682Y-8351579D02*
X6627682Y-8399198D01*
X6627682Y-8399198D02*
X6637206Y-8418246D01*
X6637206Y-8418246D02*
X6646729Y-8427770D01*
X6646729Y-8427770D02*
X6665777Y-8437293D01*
X6665777Y-8437293D02*
X6703872Y-8437293D01*
X6703872Y-8437293D02*
X6722920Y-8427770D01*
X6722920Y-8427770D02*
X6732444Y-8418246D01*
X6732444Y-8418246D02*
X6741967Y-8399198D01*
X6913396Y-8380150D02*
X6913396Y-8513484D01*
X6865777Y-8303960D02*
X6818158Y-8446817D01*
X6818158Y-8446817D02*
X6941967Y-8446817D01*
X7008634Y-8313484D02*
X7008634Y-8351579D01*
X7084825Y-8313484D02*
X7084825Y-8351579D01*
X7380063Y-8589674D02*
X7370539Y-8580150D01*
X7370539Y-8580150D02*
X7351491Y-8551579D01*
X7351491Y-8551579D02*
X7341968Y-8532531D01*
X7341968Y-8532531D02*
X7332444Y-8503960D01*
X7332444Y-8503960D02*
X7322920Y-8456341D01*
X7322920Y-8456341D02*
X7322920Y-8418246D01*
X7322920Y-8418246D02*
X7332444Y-8370627D01*
X7332444Y-8370627D02*
X7341968Y-8342055D01*
X7341968Y-8342055D02*
X7351491Y-8323008D01*
X7351491Y-8323008D02*
X7370539Y-8294436D01*
X7370539Y-8294436D02*
X7380063Y-8284912D01*
X7437206Y-8313484D02*
X7570539Y-8313484D01*
X7570539Y-8313484D02*
X7484825Y-8513484D01*
X7799110Y-8513484D02*
X7799110Y-8313484D01*
X7884825Y-8513484D02*
X7884825Y-8408722D01*
X7884825Y-8408722D02*
X7875301Y-8389674D01*
X7875301Y-8389674D02*
X7856253Y-8380150D01*
X7856253Y-8380150D02*
X7827682Y-8380150D01*
X7827682Y-8380150D02*
X7808634Y-8389674D01*
X7808634Y-8389674D02*
X7799110Y-8399198D01*
X8008634Y-8513484D02*
X7989587Y-8503960D01*
X7989587Y-8503960D02*
X7980063Y-8494436D01*
X7980063Y-8494436D02*
X7970539Y-8475389D01*
X7970539Y-8475389D02*
X7970539Y-8418246D01*
X7970539Y-8418246D02*
X7980063Y-8399198D01*
X7980063Y-8399198D02*
X7989587Y-8389674D01*
X7989587Y-8389674D02*
X8008634Y-8380150D01*
X8008634Y-8380150D02*
X8037206Y-8380150D01*
X8037206Y-8380150D02*
X8056253Y-8389674D01*
X8056253Y-8389674D02*
X8065777Y-8399198D01*
X8065777Y-8399198D02*
X8075301Y-8418246D01*
X8075301Y-8418246D02*
X8075301Y-8475389D01*
X8075301Y-8475389D02*
X8065777Y-8494436D01*
X8065777Y-8494436D02*
X8056253Y-8503960D01*
X8056253Y-8503960D02*
X8037206Y-8513484D01*
X8037206Y-8513484D02*
X8008634Y-8513484D01*
X8189587Y-8513484D02*
X8170539Y-8503960D01*
X8170539Y-8503960D02*
X8161015Y-8484912D01*
X8161015Y-8484912D02*
X8161015Y-8313484D01*
X8341968Y-8503960D02*
X8322920Y-8513484D01*
X8322920Y-8513484D02*
X8284825Y-8513484D01*
X8284825Y-8513484D02*
X8265777Y-8503960D01*
X8265777Y-8503960D02*
X8256253Y-8484912D01*
X8256253Y-8484912D02*
X8256253Y-8408722D01*
X8256253Y-8408722D02*
X8265777Y-8389674D01*
X8265777Y-8389674D02*
X8284825Y-8380150D01*
X8284825Y-8380150D02*
X8322920Y-8380150D01*
X8322920Y-8380150D02*
X8341968Y-8389674D01*
X8341968Y-8389674D02*
X8351491Y-8408722D01*
X8351491Y-8408722D02*
X8351491Y-8427770D01*
X8351491Y-8427770D02*
X8256253Y-8446817D01*
X8427682Y-8503960D02*
X8446730Y-8513484D01*
X8446730Y-8513484D02*
X8484825Y-8513484D01*
X8484825Y-8513484D02*
X8503873Y-8503960D01*
X8503873Y-8503960D02*
X8513396Y-8484912D01*
X8513396Y-8484912D02*
X8513396Y-8475389D01*
X8513396Y-8475389D02*
X8503873Y-8456341D01*
X8503873Y-8456341D02*
X8484825Y-8446817D01*
X8484825Y-8446817D02*
X8456253Y-8446817D01*
X8456253Y-8446817D02*
X8437206Y-8437293D01*
X8437206Y-8437293D02*
X8427682Y-8418246D01*
X8427682Y-8418246D02*
X8427682Y-8408722D01*
X8427682Y-8408722D02*
X8437206Y-8389674D01*
X8437206Y-8389674D02*
X8456253Y-8380150D01*
X8456253Y-8380150D02*
X8484825Y-8380150D01*
X8484825Y-8380150D02*
X8503873Y-8389674D01*
X8580063Y-8589674D02*
X8589587Y-8580150D01*
X8589587Y-8580150D02*
X8608634Y-8551579D01*
X8608634Y-8551579D02*
X8618158Y-8532531D01*
X8618158Y-8532531D02*
X8627682Y-8503960D01*
X8627682Y-8503960D02*
X8637206Y-8456341D01*
X8637206Y-8456341D02*
X8637206Y-8418246D01*
X8637206Y-8418246D02*
X8627682Y-8370627D01*
X8627682Y-8370627D02*
X8618158Y-8342055D01*
X8618158Y-8342055D02*
X8608634Y-8323008D01*
X8608634Y-8323008D02*
X8589587Y-8294436D01*
X8589587Y-8294436D02*
X8580063Y-8284912D01*
D12*
X3754200Y-8736800D02*
X3805000Y-8686000D01*
X3754200Y-8635200D01*
X3703400Y-8686000D01*
X3754200Y-8736800D01*
D11*
X4170539Y-8777484D02*
X4056253Y-8777484D01*
X4113396Y-8777484D02*
X4113396Y-8577484D01*
X4113396Y-8577484D02*
X4094348Y-8606055D01*
X4094348Y-8606055D02*
X4075301Y-8625103D01*
X4075301Y-8625103D02*
X4056253Y-8634627D01*
X4256253Y-8758436D02*
X4265777Y-8767960D01*
X4265777Y-8767960D02*
X4256253Y-8777484D01*
X4256253Y-8777484D02*
X4246729Y-8767960D01*
X4246729Y-8767960D02*
X4256253Y-8758436D01*
X4256253Y-8758436D02*
X4256253Y-8777484D01*
X4389586Y-8577484D02*
X4408634Y-8577484D01*
X4408634Y-8577484D02*
X4427682Y-8587008D01*
X4427682Y-8587008D02*
X4437205Y-8596531D01*
X4437205Y-8596531D02*
X4446729Y-8615579D01*
X4446729Y-8615579D02*
X4456253Y-8653674D01*
X4456253Y-8653674D02*
X4456253Y-8701293D01*
X4456253Y-8701293D02*
X4446729Y-8739389D01*
X4446729Y-8739389D02*
X4437205Y-8758436D01*
X4437205Y-8758436D02*
X4427682Y-8767960D01*
X4427682Y-8767960D02*
X4408634Y-8777484D01*
X4408634Y-8777484D02*
X4389586Y-8777484D01*
X4389586Y-8777484D02*
X4370539Y-8767960D01*
X4370539Y-8767960D02*
X4361015Y-8758436D01*
X4361015Y-8758436D02*
X4351491Y-8739389D01*
X4351491Y-8739389D02*
X4341967Y-8701293D01*
X4341967Y-8701293D02*
X4341967Y-8653674D01*
X4341967Y-8653674D02*
X4351491Y-8615579D01*
X4351491Y-8615579D02*
X4361015Y-8596531D01*
X4361015Y-8596531D02*
X4370539Y-8587008D01*
X4370539Y-8587008D02*
X4389586Y-8577484D01*
X4646729Y-8777484D02*
X4532444Y-8777484D01*
X4589586Y-8777484D02*
X4589586Y-8577484D01*
X4589586Y-8577484D02*
X4570539Y-8606055D01*
X4570539Y-8606055D02*
X4551491Y-8625103D01*
X4551491Y-8625103D02*
X4532444Y-8634627D01*
X4818158Y-8577484D02*
X4780063Y-8577484D01*
X4780063Y-8577484D02*
X4761015Y-8587008D01*
X4761015Y-8587008D02*
X4751491Y-8596531D01*
X4751491Y-8596531D02*
X4732444Y-8625103D01*
X4732444Y-8625103D02*
X4722920Y-8663198D01*
X4722920Y-8663198D02*
X4722920Y-8739389D01*
X4722920Y-8739389D02*
X4732444Y-8758436D01*
X4732444Y-8758436D02*
X4741967Y-8767960D01*
X4741967Y-8767960D02*
X4761015Y-8777484D01*
X4761015Y-8777484D02*
X4799110Y-8777484D01*
X4799110Y-8777484D02*
X4818158Y-8767960D01*
X4818158Y-8767960D02*
X4827682Y-8758436D01*
X4827682Y-8758436D02*
X4837205Y-8739389D01*
X4837205Y-8739389D02*
X4837205Y-8691770D01*
X4837205Y-8691770D02*
X4827682Y-8672722D01*
X4827682Y-8672722D02*
X4818158Y-8663198D01*
X4818158Y-8663198D02*
X4799110Y-8653674D01*
X4799110Y-8653674D02*
X4761015Y-8653674D01*
X4761015Y-8653674D02*
X4741967Y-8663198D01*
X4741967Y-8663198D02*
X4732444Y-8672722D01*
X4732444Y-8672722D02*
X4722920Y-8691770D01*
X4922920Y-8777484D02*
X4922920Y-8644150D01*
X4922920Y-8663198D02*
X4932444Y-8653674D01*
X4932444Y-8653674D02*
X4951491Y-8644150D01*
X4951491Y-8644150D02*
X4980063Y-8644150D01*
X4980063Y-8644150D02*
X4999110Y-8653674D01*
X4999110Y-8653674D02*
X5008634Y-8672722D01*
X5008634Y-8672722D02*
X5008634Y-8777484D01*
X5008634Y-8672722D02*
X5018158Y-8653674D01*
X5018158Y-8653674D02*
X5037205Y-8644150D01*
X5037205Y-8644150D02*
X5065777Y-8644150D01*
X5065777Y-8644150D02*
X5084825Y-8653674D01*
X5084825Y-8653674D02*
X5094348Y-8672722D01*
X5094348Y-8672722D02*
X5094348Y-8777484D01*
X5189586Y-8777484D02*
X5189586Y-8644150D01*
X5189586Y-8663198D02*
X5199110Y-8653674D01*
X5199110Y-8653674D02*
X5218158Y-8644150D01*
X5218158Y-8644150D02*
X5246729Y-8644150D01*
X5246729Y-8644150D02*
X5265777Y-8653674D01*
X5265777Y-8653674D02*
X5275301Y-8672722D01*
X5275301Y-8672722D02*
X5275301Y-8777484D01*
X5275301Y-8672722D02*
X5284825Y-8653674D01*
X5284825Y-8653674D02*
X5303872Y-8644150D01*
X5303872Y-8644150D02*
X5332444Y-8644150D01*
X5332444Y-8644150D02*
X5351491Y-8653674D01*
X5351491Y-8653674D02*
X5361015Y-8672722D01*
X5361015Y-8672722D02*
X5361015Y-8777484D01*
X5751491Y-8567960D02*
X5580063Y-8825103D01*
X6008634Y-8577484D02*
X6027682Y-8577484D01*
X6027682Y-8577484D02*
X6046729Y-8587008D01*
X6046729Y-8587008D02*
X6056253Y-8596531D01*
X6056253Y-8596531D02*
X6065777Y-8615579D01*
X6065777Y-8615579D02*
X6075301Y-8653674D01*
X6075301Y-8653674D02*
X6075301Y-8701293D01*
X6075301Y-8701293D02*
X6065777Y-8739389D01*
X6065777Y-8739389D02*
X6056253Y-8758436D01*
X6056253Y-8758436D02*
X6046729Y-8767960D01*
X6046729Y-8767960D02*
X6027682Y-8777484D01*
X6027682Y-8777484D02*
X6008634Y-8777484D01*
X6008634Y-8777484D02*
X5989586Y-8767960D01*
X5989586Y-8767960D02*
X5980063Y-8758436D01*
X5980063Y-8758436D02*
X5970539Y-8739389D01*
X5970539Y-8739389D02*
X5961015Y-8701293D01*
X5961015Y-8701293D02*
X5961015Y-8653674D01*
X5961015Y-8653674D02*
X5970539Y-8615579D01*
X5970539Y-8615579D02*
X5980063Y-8596531D01*
X5980063Y-8596531D02*
X5989586Y-8587008D01*
X5989586Y-8587008D02*
X6008634Y-8577484D01*
X6161015Y-8758436D02*
X6170539Y-8767960D01*
X6170539Y-8767960D02*
X6161015Y-8777484D01*
X6161015Y-8777484D02*
X6151491Y-8767960D01*
X6151491Y-8767960D02*
X6161015Y-8758436D01*
X6161015Y-8758436D02*
X6161015Y-8777484D01*
X6294348Y-8577484D02*
X6313396Y-8577484D01*
X6313396Y-8577484D02*
X6332444Y-8587008D01*
X6332444Y-8587008D02*
X6341967Y-8596531D01*
X6341967Y-8596531D02*
X6351491Y-8615579D01*
X6351491Y-8615579D02*
X6361015Y-8653674D01*
X6361015Y-8653674D02*
X6361015Y-8701293D01*
X6361015Y-8701293D02*
X6351491Y-8739389D01*
X6351491Y-8739389D02*
X6341967Y-8758436D01*
X6341967Y-8758436D02*
X6332444Y-8767960D01*
X6332444Y-8767960D02*
X6313396Y-8777484D01*
X6313396Y-8777484D02*
X6294348Y-8777484D01*
X6294348Y-8777484D02*
X6275301Y-8767960D01*
X6275301Y-8767960D02*
X6265777Y-8758436D01*
X6265777Y-8758436D02*
X6256253Y-8739389D01*
X6256253Y-8739389D02*
X6246729Y-8701293D01*
X6246729Y-8701293D02*
X6246729Y-8653674D01*
X6246729Y-8653674D02*
X6256253Y-8615579D01*
X6256253Y-8615579D02*
X6265777Y-8596531D01*
X6265777Y-8596531D02*
X6275301Y-8587008D01*
X6275301Y-8587008D02*
X6294348Y-8577484D01*
X6532444Y-8644150D02*
X6532444Y-8777484D01*
X6484825Y-8567960D02*
X6437206Y-8710817D01*
X6437206Y-8710817D02*
X6561015Y-8710817D01*
X6675301Y-8577484D02*
X6694348Y-8577484D01*
X6694348Y-8577484D02*
X6713396Y-8587008D01*
X6713396Y-8587008D02*
X6722920Y-8596531D01*
X6722920Y-8596531D02*
X6732444Y-8615579D01*
X6732444Y-8615579D02*
X6741967Y-8653674D01*
X6741967Y-8653674D02*
X6741967Y-8701293D01*
X6741967Y-8701293D02*
X6732444Y-8739389D01*
X6732444Y-8739389D02*
X6722920Y-8758436D01*
X6722920Y-8758436D02*
X6713396Y-8767960D01*
X6713396Y-8767960D02*
X6694348Y-8777484D01*
X6694348Y-8777484D02*
X6675301Y-8777484D01*
X6675301Y-8777484D02*
X6656253Y-8767960D01*
X6656253Y-8767960D02*
X6646729Y-8758436D01*
X6646729Y-8758436D02*
X6637206Y-8739389D01*
X6637206Y-8739389D02*
X6627682Y-8701293D01*
X6627682Y-8701293D02*
X6627682Y-8653674D01*
X6627682Y-8653674D02*
X6637206Y-8615579D01*
X6637206Y-8615579D02*
X6646729Y-8596531D01*
X6646729Y-8596531D02*
X6656253Y-8587008D01*
X6656253Y-8587008D02*
X6675301Y-8577484D01*
X6865777Y-8577484D02*
X6884825Y-8577484D01*
X6884825Y-8577484D02*
X6903872Y-8587008D01*
X6903872Y-8587008D02*
X6913396Y-8596531D01*
X6913396Y-8596531D02*
X6922920Y-8615579D01*
X6922920Y-8615579D02*
X6932444Y-8653674D01*
X6932444Y-8653674D02*
X6932444Y-8701293D01*
X6932444Y-8701293D02*
X6922920Y-8739389D01*
X6922920Y-8739389D02*
X6913396Y-8758436D01*
X6913396Y-8758436D02*
X6903872Y-8767960D01*
X6903872Y-8767960D02*
X6884825Y-8777484D01*
X6884825Y-8777484D02*
X6865777Y-8777484D01*
X6865777Y-8777484D02*
X6846729Y-8767960D01*
X6846729Y-8767960D02*
X6837206Y-8758436D01*
X6837206Y-8758436D02*
X6827682Y-8739389D01*
X6827682Y-8739389D02*
X6818158Y-8701293D01*
X6818158Y-8701293D02*
X6818158Y-8653674D01*
X6818158Y-8653674D02*
X6827682Y-8615579D01*
X6827682Y-8615579D02*
X6837206Y-8596531D01*
X6837206Y-8596531D02*
X6846729Y-8587008D01*
X6846729Y-8587008D02*
X6865777Y-8577484D01*
X7008634Y-8577484D02*
X7008634Y-8615579D01*
X7084825Y-8577484D02*
X7084825Y-8615579D01*
X7380063Y-8853674D02*
X7370539Y-8844150D01*
X7370539Y-8844150D02*
X7351491Y-8815579D01*
X7351491Y-8815579D02*
X7341968Y-8796531D01*
X7341968Y-8796531D02*
X7332444Y-8767960D01*
X7332444Y-8767960D02*
X7322920Y-8720341D01*
X7322920Y-8720341D02*
X7322920Y-8682246D01*
X7322920Y-8682246D02*
X7332444Y-8634627D01*
X7332444Y-8634627D02*
X7341968Y-8606055D01*
X7341968Y-8606055D02*
X7351491Y-8587008D01*
X7351491Y-8587008D02*
X7370539Y-8558436D01*
X7370539Y-8558436D02*
X7380063Y-8548912D01*
X7437206Y-8577484D02*
X7561015Y-8577484D01*
X7561015Y-8577484D02*
X7494348Y-8653674D01*
X7494348Y-8653674D02*
X7522920Y-8653674D01*
X7522920Y-8653674D02*
X7541968Y-8663198D01*
X7541968Y-8663198D02*
X7551491Y-8672722D01*
X7551491Y-8672722D02*
X7561015Y-8691770D01*
X7561015Y-8691770D02*
X7561015Y-8739389D01*
X7561015Y-8739389D02*
X7551491Y-8758436D01*
X7551491Y-8758436D02*
X7541968Y-8767960D01*
X7541968Y-8767960D02*
X7522920Y-8777484D01*
X7522920Y-8777484D02*
X7465777Y-8777484D01*
X7465777Y-8777484D02*
X7446729Y-8767960D01*
X7446729Y-8767960D02*
X7437206Y-8758436D01*
X7675301Y-8663198D02*
X7656253Y-8653674D01*
X7656253Y-8653674D02*
X7646729Y-8644150D01*
X7646729Y-8644150D02*
X7637206Y-8625103D01*
X7637206Y-8625103D02*
X7637206Y-8615579D01*
X7637206Y-8615579D02*
X7646729Y-8596531D01*
X7646729Y-8596531D02*
X7656253Y-8587008D01*
X7656253Y-8587008D02*
X7675301Y-8577484D01*
X7675301Y-8577484D02*
X7713396Y-8577484D01*
X7713396Y-8577484D02*
X7732444Y-8587008D01*
X7732444Y-8587008D02*
X7741968Y-8596531D01*
X7741968Y-8596531D02*
X7751491Y-8615579D01*
X7751491Y-8615579D02*
X7751491Y-8625103D01*
X7751491Y-8625103D02*
X7741968Y-8644150D01*
X7741968Y-8644150D02*
X7732444Y-8653674D01*
X7732444Y-8653674D02*
X7713396Y-8663198D01*
X7713396Y-8663198D02*
X7675301Y-8663198D01*
X7675301Y-8663198D02*
X7656253Y-8672722D01*
X7656253Y-8672722D02*
X7646729Y-8682246D01*
X7646729Y-8682246D02*
X7637206Y-8701293D01*
X7637206Y-8701293D02*
X7637206Y-8739389D01*
X7637206Y-8739389D02*
X7646729Y-8758436D01*
X7646729Y-8758436D02*
X7656253Y-8767960D01*
X7656253Y-8767960D02*
X7675301Y-8777484D01*
X7675301Y-8777484D02*
X7713396Y-8777484D01*
X7713396Y-8777484D02*
X7732444Y-8767960D01*
X7732444Y-8767960D02*
X7741968Y-8758436D01*
X7741968Y-8758436D02*
X7751491Y-8739389D01*
X7751491Y-8739389D02*
X7751491Y-8701293D01*
X7751491Y-8701293D02*
X7741968Y-8682246D01*
X7741968Y-8682246D02*
X7732444Y-8672722D01*
X7732444Y-8672722D02*
X7713396Y-8663198D01*
X7989587Y-8777484D02*
X7989587Y-8577484D01*
X8075301Y-8777484D02*
X8075301Y-8672722D01*
X8075301Y-8672722D02*
X8065777Y-8653674D01*
X8065777Y-8653674D02*
X8046730Y-8644150D01*
X8046730Y-8644150D02*
X8018158Y-8644150D01*
X8018158Y-8644150D02*
X7999110Y-8653674D01*
X7999110Y-8653674D02*
X7989587Y-8663198D01*
X8199110Y-8777484D02*
X8180063Y-8767960D01*
X8180063Y-8767960D02*
X8170539Y-8758436D01*
X8170539Y-8758436D02*
X8161015Y-8739389D01*
X8161015Y-8739389D02*
X8161015Y-8682246D01*
X8161015Y-8682246D02*
X8170539Y-8663198D01*
X8170539Y-8663198D02*
X8180063Y-8653674D01*
X8180063Y-8653674D02*
X8199110Y-8644150D01*
X8199110Y-8644150D02*
X8227682Y-8644150D01*
X8227682Y-8644150D02*
X8246730Y-8653674D01*
X8246730Y-8653674D02*
X8256253Y-8663198D01*
X8256253Y-8663198D02*
X8265777Y-8682246D01*
X8265777Y-8682246D02*
X8265777Y-8739389D01*
X8265777Y-8739389D02*
X8256253Y-8758436D01*
X8256253Y-8758436D02*
X8246730Y-8767960D01*
X8246730Y-8767960D02*
X8227682Y-8777484D01*
X8227682Y-8777484D02*
X8199110Y-8777484D01*
X8380063Y-8777484D02*
X8361015Y-8767960D01*
X8361015Y-8767960D02*
X8351491Y-8748912D01*
X8351491Y-8748912D02*
X8351491Y-8577484D01*
X8532444Y-8767960D02*
X8513396Y-8777484D01*
X8513396Y-8777484D02*
X8475301Y-8777484D01*
X8475301Y-8777484D02*
X8456253Y-8767960D01*
X8456253Y-8767960D02*
X8446730Y-8748912D01*
X8446730Y-8748912D02*
X8446730Y-8672722D01*
X8446730Y-8672722D02*
X8456253Y-8653674D01*
X8456253Y-8653674D02*
X8475301Y-8644150D01*
X8475301Y-8644150D02*
X8513396Y-8644150D01*
X8513396Y-8644150D02*
X8532444Y-8653674D01*
X8532444Y-8653674D02*
X8541968Y-8672722D01*
X8541968Y-8672722D02*
X8541968Y-8691770D01*
X8541968Y-8691770D02*
X8446730Y-8710817D01*
X8618158Y-8767960D02*
X8637206Y-8777484D01*
X8637206Y-8777484D02*
X8675301Y-8777484D01*
X8675301Y-8777484D02*
X8694349Y-8767960D01*
X8694349Y-8767960D02*
X8703873Y-8748912D01*
X8703873Y-8748912D02*
X8703873Y-8739389D01*
X8703873Y-8739389D02*
X8694349Y-8720341D01*
X8694349Y-8720341D02*
X8675301Y-8710817D01*
X8675301Y-8710817D02*
X8646730Y-8710817D01*
X8646730Y-8710817D02*
X8627682Y-8701293D01*
X8627682Y-8701293D02*
X8618158Y-8682246D01*
X8618158Y-8682246D02*
X8618158Y-8672722D01*
X8618158Y-8672722D02*
X8627682Y-8653674D01*
X8627682Y-8653674D02*
X8646730Y-8644150D01*
X8646730Y-8644150D02*
X8675301Y-8644150D01*
X8675301Y-8644150D02*
X8694349Y-8653674D01*
X8770539Y-8853674D02*
X8780063Y-8844150D01*
X8780063Y-8844150D02*
X8799111Y-8815579D01*
X8799111Y-8815579D02*
X8808634Y-8796531D01*
X8808634Y-8796531D02*
X8818158Y-8767960D01*
X8818158Y-8767960D02*
X8827682Y-8720341D01*
X8827682Y-8720341D02*
X8827682Y-8682246D01*
X8827682Y-8682246D02*
X8818158Y-8634627D01*
X8818158Y-8634627D02*
X8808634Y-8606055D01*
X8808634Y-8606055D02*
X8799111Y-8587008D01*
X8799111Y-8587008D02*
X8780063Y-8558436D01*
X8780063Y-8558436D02*
X8770539Y-8548912D01*
D13*
X3695000Y-8895000D02*
X3805000Y-9005000D01*
X3805000Y-8895000D02*
X3695000Y-9005000D01*
X3805000Y-8950000D02*
G75*
G03*
X3805000Y-8950000I-55000J0D01*
G01*
D11*
X4170539Y-9041484D02*
X4056253Y-9041484D01*
X4113396Y-9041484D02*
X4113396Y-8841484D01*
X4113396Y-8841484D02*
X4094348Y-8870055D01*
X4094348Y-8870055D02*
X4075301Y-8889103D01*
X4075301Y-8889103D02*
X4056253Y-8898627D01*
X4256253Y-9022436D02*
X4265777Y-9031960D01*
X4265777Y-9031960D02*
X4256253Y-9041484D01*
X4256253Y-9041484D02*
X4246729Y-9031960D01*
X4246729Y-9031960D02*
X4256253Y-9022436D01*
X4256253Y-9022436D02*
X4256253Y-9041484D01*
X4456253Y-9041484D02*
X4341967Y-9041484D01*
X4399110Y-9041484D02*
X4399110Y-8841484D01*
X4399110Y-8841484D02*
X4380063Y-8870055D01*
X4380063Y-8870055D02*
X4361015Y-8889103D01*
X4361015Y-8889103D02*
X4341967Y-8898627D01*
X4580063Y-8841484D02*
X4599110Y-8841484D01*
X4599110Y-8841484D02*
X4618158Y-8851008D01*
X4618158Y-8851008D02*
X4627682Y-8860531D01*
X4627682Y-8860531D02*
X4637205Y-8879579D01*
X4637205Y-8879579D02*
X4646729Y-8917674D01*
X4646729Y-8917674D02*
X4646729Y-8965293D01*
X4646729Y-8965293D02*
X4637205Y-9003389D01*
X4637205Y-9003389D02*
X4627682Y-9022436D01*
X4627682Y-9022436D02*
X4618158Y-9031960D01*
X4618158Y-9031960D02*
X4599110Y-9041484D01*
X4599110Y-9041484D02*
X4580063Y-9041484D01*
X4580063Y-9041484D02*
X4561015Y-9031960D01*
X4561015Y-9031960D02*
X4551491Y-9022436D01*
X4551491Y-9022436D02*
X4541967Y-9003389D01*
X4541967Y-9003389D02*
X4532444Y-8965293D01*
X4532444Y-8965293D02*
X4532444Y-8917674D01*
X4532444Y-8917674D02*
X4541967Y-8879579D01*
X4541967Y-8879579D02*
X4551491Y-8860531D01*
X4551491Y-8860531D02*
X4561015Y-8851008D01*
X4561015Y-8851008D02*
X4580063Y-8841484D01*
X4770539Y-8841484D02*
X4789586Y-8841484D01*
X4789586Y-8841484D02*
X4808634Y-8851008D01*
X4808634Y-8851008D02*
X4818158Y-8860531D01*
X4818158Y-8860531D02*
X4827682Y-8879579D01*
X4827682Y-8879579D02*
X4837205Y-8917674D01*
X4837205Y-8917674D02*
X4837205Y-8965293D01*
X4837205Y-8965293D02*
X4827682Y-9003389D01*
X4827682Y-9003389D02*
X4818158Y-9022436D01*
X4818158Y-9022436D02*
X4808634Y-9031960D01*
X4808634Y-9031960D02*
X4789586Y-9041484D01*
X4789586Y-9041484D02*
X4770539Y-9041484D01*
X4770539Y-9041484D02*
X4751491Y-9031960D01*
X4751491Y-9031960D02*
X4741967Y-9022436D01*
X4741967Y-9022436D02*
X4732444Y-9003389D01*
X4732444Y-9003389D02*
X4722920Y-8965293D01*
X4722920Y-8965293D02*
X4722920Y-8917674D01*
X4722920Y-8917674D02*
X4732444Y-8879579D01*
X4732444Y-8879579D02*
X4741967Y-8860531D01*
X4741967Y-8860531D02*
X4751491Y-8851008D01*
X4751491Y-8851008D02*
X4770539Y-8841484D01*
X4922920Y-9041484D02*
X4922920Y-8908150D01*
X4922920Y-8927198D02*
X4932444Y-8917674D01*
X4932444Y-8917674D02*
X4951491Y-8908150D01*
X4951491Y-8908150D02*
X4980063Y-8908150D01*
X4980063Y-8908150D02*
X4999110Y-8917674D01*
X4999110Y-8917674D02*
X5008634Y-8936722D01*
X5008634Y-8936722D02*
X5008634Y-9041484D01*
X5008634Y-8936722D02*
X5018158Y-8917674D01*
X5018158Y-8917674D02*
X5037205Y-8908150D01*
X5037205Y-8908150D02*
X5065777Y-8908150D01*
X5065777Y-8908150D02*
X5084825Y-8917674D01*
X5084825Y-8917674D02*
X5094348Y-8936722D01*
X5094348Y-8936722D02*
X5094348Y-9041484D01*
X5189586Y-9041484D02*
X5189586Y-8908150D01*
X5189586Y-8927198D02*
X5199110Y-8917674D01*
X5199110Y-8917674D02*
X5218158Y-8908150D01*
X5218158Y-8908150D02*
X5246729Y-8908150D01*
X5246729Y-8908150D02*
X5265777Y-8917674D01*
X5265777Y-8917674D02*
X5275301Y-8936722D01*
X5275301Y-8936722D02*
X5275301Y-9041484D01*
X5275301Y-8936722D02*
X5284825Y-8917674D01*
X5284825Y-8917674D02*
X5303872Y-8908150D01*
X5303872Y-8908150D02*
X5332444Y-8908150D01*
X5332444Y-8908150D02*
X5351491Y-8917674D01*
X5351491Y-8917674D02*
X5361015Y-8936722D01*
X5361015Y-8936722D02*
X5361015Y-9041484D01*
X5751491Y-8831960D02*
X5580063Y-9089103D01*
X6008634Y-8841484D02*
X6027682Y-8841484D01*
X6027682Y-8841484D02*
X6046729Y-8851008D01*
X6046729Y-8851008D02*
X6056253Y-8860531D01*
X6056253Y-8860531D02*
X6065777Y-8879579D01*
X6065777Y-8879579D02*
X6075301Y-8917674D01*
X6075301Y-8917674D02*
X6075301Y-8965293D01*
X6075301Y-8965293D02*
X6065777Y-9003389D01*
X6065777Y-9003389D02*
X6056253Y-9022436D01*
X6056253Y-9022436D02*
X6046729Y-9031960D01*
X6046729Y-9031960D02*
X6027682Y-9041484D01*
X6027682Y-9041484D02*
X6008634Y-9041484D01*
X6008634Y-9041484D02*
X5989586Y-9031960D01*
X5989586Y-9031960D02*
X5980063Y-9022436D01*
X5980063Y-9022436D02*
X5970539Y-9003389D01*
X5970539Y-9003389D02*
X5961015Y-8965293D01*
X5961015Y-8965293D02*
X5961015Y-8917674D01*
X5961015Y-8917674D02*
X5970539Y-8879579D01*
X5970539Y-8879579D02*
X5980063Y-8860531D01*
X5980063Y-8860531D02*
X5989586Y-8851008D01*
X5989586Y-8851008D02*
X6008634Y-8841484D01*
X6161015Y-9022436D02*
X6170539Y-9031960D01*
X6170539Y-9031960D02*
X6161015Y-9041484D01*
X6161015Y-9041484D02*
X6151491Y-9031960D01*
X6151491Y-9031960D02*
X6161015Y-9022436D01*
X6161015Y-9022436D02*
X6161015Y-9041484D01*
X6294348Y-8841484D02*
X6313396Y-8841484D01*
X6313396Y-8841484D02*
X6332444Y-8851008D01*
X6332444Y-8851008D02*
X6341967Y-8860531D01*
X6341967Y-8860531D02*
X6351491Y-8879579D01*
X6351491Y-8879579D02*
X6361015Y-8917674D01*
X6361015Y-8917674D02*
X6361015Y-8965293D01*
X6361015Y-8965293D02*
X6351491Y-9003389D01*
X6351491Y-9003389D02*
X6341967Y-9022436D01*
X6341967Y-9022436D02*
X6332444Y-9031960D01*
X6332444Y-9031960D02*
X6313396Y-9041484D01*
X6313396Y-9041484D02*
X6294348Y-9041484D01*
X6294348Y-9041484D02*
X6275301Y-9031960D01*
X6275301Y-9031960D02*
X6265777Y-9022436D01*
X6265777Y-9022436D02*
X6256253Y-9003389D01*
X6256253Y-9003389D02*
X6246729Y-8965293D01*
X6246729Y-8965293D02*
X6246729Y-8917674D01*
X6246729Y-8917674D02*
X6256253Y-8879579D01*
X6256253Y-8879579D02*
X6265777Y-8860531D01*
X6265777Y-8860531D02*
X6275301Y-8851008D01*
X6275301Y-8851008D02*
X6294348Y-8841484D01*
X6532444Y-8908150D02*
X6532444Y-9041484D01*
X6484825Y-8831960D02*
X6437206Y-8974817D01*
X6437206Y-8974817D02*
X6561015Y-8974817D01*
X6618158Y-8841484D02*
X6741967Y-8841484D01*
X6741967Y-8841484D02*
X6675301Y-8917674D01*
X6675301Y-8917674D02*
X6703872Y-8917674D01*
X6703872Y-8917674D02*
X6722920Y-8927198D01*
X6722920Y-8927198D02*
X6732444Y-8936722D01*
X6732444Y-8936722D02*
X6741967Y-8955770D01*
X6741967Y-8955770D02*
X6741967Y-9003389D01*
X6741967Y-9003389D02*
X6732444Y-9022436D01*
X6732444Y-9022436D02*
X6722920Y-9031960D01*
X6722920Y-9031960D02*
X6703872Y-9041484D01*
X6703872Y-9041484D02*
X6646729Y-9041484D01*
X6646729Y-9041484D02*
X6627682Y-9031960D01*
X6627682Y-9031960D02*
X6618158Y-9022436D01*
X6808634Y-8841484D02*
X6932444Y-8841484D01*
X6932444Y-8841484D02*
X6865777Y-8917674D01*
X6865777Y-8917674D02*
X6894348Y-8917674D01*
X6894348Y-8917674D02*
X6913396Y-8927198D01*
X6913396Y-8927198D02*
X6922920Y-8936722D01*
X6922920Y-8936722D02*
X6932444Y-8955770D01*
X6932444Y-8955770D02*
X6932444Y-9003389D01*
X6932444Y-9003389D02*
X6922920Y-9022436D01*
X6922920Y-9022436D02*
X6913396Y-9031960D01*
X6913396Y-9031960D02*
X6894348Y-9041484D01*
X6894348Y-9041484D02*
X6837206Y-9041484D01*
X6837206Y-9041484D02*
X6818158Y-9031960D01*
X6818158Y-9031960D02*
X6808634Y-9022436D01*
X7008634Y-8841484D02*
X7008634Y-8879579D01*
X7084825Y-8841484D02*
X7084825Y-8879579D01*
X7380063Y-9117674D02*
X7370539Y-9108150D01*
X7370539Y-9108150D02*
X7351491Y-9079579D01*
X7351491Y-9079579D02*
X7341968Y-9060531D01*
X7341968Y-9060531D02*
X7332444Y-9031960D01*
X7332444Y-9031960D02*
X7322920Y-8984341D01*
X7322920Y-8984341D02*
X7322920Y-8946246D01*
X7322920Y-8946246D02*
X7332444Y-8898627D01*
X7332444Y-8898627D02*
X7341968Y-8870055D01*
X7341968Y-8870055D02*
X7351491Y-8851008D01*
X7351491Y-8851008D02*
X7370539Y-8822436D01*
X7370539Y-8822436D02*
X7380063Y-8812912D01*
X7437206Y-8841484D02*
X7561015Y-8841484D01*
X7561015Y-8841484D02*
X7494348Y-8917674D01*
X7494348Y-8917674D02*
X7522920Y-8917674D01*
X7522920Y-8917674D02*
X7541968Y-8927198D01*
X7541968Y-8927198D02*
X7551491Y-8936722D01*
X7551491Y-8936722D02*
X7561015Y-8955770D01*
X7561015Y-8955770D02*
X7561015Y-9003389D01*
X7561015Y-9003389D02*
X7551491Y-9022436D01*
X7551491Y-9022436D02*
X7541968Y-9031960D01*
X7541968Y-9031960D02*
X7522920Y-9041484D01*
X7522920Y-9041484D02*
X7465777Y-9041484D01*
X7465777Y-9041484D02*
X7446729Y-9031960D01*
X7446729Y-9031960D02*
X7437206Y-9022436D01*
X7799110Y-9041484D02*
X7799110Y-8841484D01*
X7884825Y-9041484D02*
X7884825Y-8936722D01*
X7884825Y-8936722D02*
X7875301Y-8917674D01*
X7875301Y-8917674D02*
X7856253Y-8908150D01*
X7856253Y-8908150D02*
X7827682Y-8908150D01*
X7827682Y-8908150D02*
X7808634Y-8917674D01*
X7808634Y-8917674D02*
X7799110Y-8927198D01*
X8008634Y-9041484D02*
X7989587Y-9031960D01*
X7989587Y-9031960D02*
X7980063Y-9022436D01*
X7980063Y-9022436D02*
X7970539Y-9003389D01*
X7970539Y-9003389D02*
X7970539Y-8946246D01*
X7970539Y-8946246D02*
X7980063Y-8927198D01*
X7980063Y-8927198D02*
X7989587Y-8917674D01*
X7989587Y-8917674D02*
X8008634Y-8908150D01*
X8008634Y-8908150D02*
X8037206Y-8908150D01*
X8037206Y-8908150D02*
X8056253Y-8917674D01*
X8056253Y-8917674D02*
X8065777Y-8927198D01*
X8065777Y-8927198D02*
X8075301Y-8946246D01*
X8075301Y-8946246D02*
X8075301Y-9003389D01*
X8075301Y-9003389D02*
X8065777Y-9022436D01*
X8065777Y-9022436D02*
X8056253Y-9031960D01*
X8056253Y-9031960D02*
X8037206Y-9041484D01*
X8037206Y-9041484D02*
X8008634Y-9041484D01*
X8189587Y-9041484D02*
X8170539Y-9031960D01*
X8170539Y-9031960D02*
X8161015Y-9012912D01*
X8161015Y-9012912D02*
X8161015Y-8841484D01*
X8341968Y-9031960D02*
X8322920Y-9041484D01*
X8322920Y-9041484D02*
X8284825Y-9041484D01*
X8284825Y-9041484D02*
X8265777Y-9031960D01*
X8265777Y-9031960D02*
X8256253Y-9012912D01*
X8256253Y-9012912D02*
X8256253Y-8936722D01*
X8256253Y-8936722D02*
X8265777Y-8917674D01*
X8265777Y-8917674D02*
X8284825Y-8908150D01*
X8284825Y-8908150D02*
X8322920Y-8908150D01*
X8322920Y-8908150D02*
X8341968Y-8917674D01*
X8341968Y-8917674D02*
X8351491Y-8936722D01*
X8351491Y-8936722D02*
X8351491Y-8955770D01*
X8351491Y-8955770D02*
X8256253Y-8974817D01*
X8427682Y-9031960D02*
X8446730Y-9041484D01*
X8446730Y-9041484D02*
X8484825Y-9041484D01*
X8484825Y-9041484D02*
X8503873Y-9031960D01*
X8503873Y-9031960D02*
X8513396Y-9012912D01*
X8513396Y-9012912D02*
X8513396Y-9003389D01*
X8513396Y-9003389D02*
X8503873Y-8984341D01*
X8503873Y-8984341D02*
X8484825Y-8974817D01*
X8484825Y-8974817D02*
X8456253Y-8974817D01*
X8456253Y-8974817D02*
X8437206Y-8965293D01*
X8437206Y-8965293D02*
X8427682Y-8946246D01*
X8427682Y-8946246D02*
X8427682Y-8936722D01*
X8427682Y-8936722D02*
X8437206Y-8917674D01*
X8437206Y-8917674D02*
X8456253Y-8908150D01*
X8456253Y-8908150D02*
X8484825Y-8908150D01*
X8484825Y-8908150D02*
X8503873Y-8917674D01*
X8580063Y-9117674D02*
X8589587Y-9108150D01*
X8589587Y-9108150D02*
X8608634Y-9079579D01*
X8608634Y-9079579D02*
X8618158Y-9060531D01*
X8618158Y-9060531D02*
X8627682Y-9031960D01*
X8627682Y-9031960D02*
X8637206Y-8984341D01*
X8637206Y-8984341D02*
X8637206Y-8946246D01*
X8637206Y-8946246D02*
X8627682Y-8898627D01*
X8627682Y-8898627D02*
X8618158Y-8870055D01*
X8618158Y-8870055D02*
X8608634Y-8851008D01*
X8608634Y-8851008D02*
X8589587Y-8822436D01*
X8589587Y-8822436D02*
X8580063Y-8812912D01*
D14*
X3637000Y-9130000D02*
X3805000Y-9298000D01*
X3805000Y-9130000D02*
X3637000Y-9298000D01*
X3721000Y-9130000D02*
X3721000Y-9298000D01*
X3637000Y-9214000D02*
X3805000Y-9214000D01*
D11*
X4170539Y-9305484D02*
X4056253Y-9305484D01*
X4113396Y-9305484D02*
X4113396Y-9105484D01*
X4113396Y-9105484D02*
X4094348Y-9134055D01*
X4094348Y-9134055D02*
X4075301Y-9153103D01*
X4075301Y-9153103D02*
X4056253Y-9162627D01*
X4256253Y-9286436D02*
X4265777Y-9295960D01*
X4265777Y-9295960D02*
X4256253Y-9305484D01*
X4256253Y-9305484D02*
X4246729Y-9295960D01*
X4246729Y-9295960D02*
X4256253Y-9286436D01*
X4256253Y-9286436D02*
X4256253Y-9305484D01*
X4437205Y-9105484D02*
X4399110Y-9105484D01*
X4399110Y-9105484D02*
X4380063Y-9115008D01*
X4380063Y-9115008D02*
X4370539Y-9124531D01*
X4370539Y-9124531D02*
X4351491Y-9153103D01*
X4351491Y-9153103D02*
X4341967Y-9191198D01*
X4341967Y-9191198D02*
X4341967Y-9267389D01*
X4341967Y-9267389D02*
X4351491Y-9286436D01*
X4351491Y-9286436D02*
X4361015Y-9295960D01*
X4361015Y-9295960D02*
X4380063Y-9305484D01*
X4380063Y-9305484D02*
X4418158Y-9305484D01*
X4418158Y-9305484D02*
X4437205Y-9295960D01*
X4437205Y-9295960D02*
X4446729Y-9286436D01*
X4446729Y-9286436D02*
X4456253Y-9267389D01*
X4456253Y-9267389D02*
X4456253Y-9219770D01*
X4456253Y-9219770D02*
X4446729Y-9200722D01*
X4446729Y-9200722D02*
X4437205Y-9191198D01*
X4437205Y-9191198D02*
X4418158Y-9181674D01*
X4418158Y-9181674D02*
X4380063Y-9181674D01*
X4380063Y-9181674D02*
X4361015Y-9191198D01*
X4361015Y-9191198D02*
X4351491Y-9200722D01*
X4351491Y-9200722D02*
X4341967Y-9219770D01*
X4570539Y-9191198D02*
X4551491Y-9181674D01*
X4551491Y-9181674D02*
X4541967Y-9172150D01*
X4541967Y-9172150D02*
X4532444Y-9153103D01*
X4532444Y-9153103D02*
X4532444Y-9143579D01*
X4532444Y-9143579D02*
X4541967Y-9124531D01*
X4541967Y-9124531D02*
X4551491Y-9115008D01*
X4551491Y-9115008D02*
X4570539Y-9105484D01*
X4570539Y-9105484D02*
X4608634Y-9105484D01*
X4608634Y-9105484D02*
X4627682Y-9115008D01*
X4627682Y-9115008D02*
X4637205Y-9124531D01*
X4637205Y-9124531D02*
X4646729Y-9143579D01*
X4646729Y-9143579D02*
X4646729Y-9153103D01*
X4646729Y-9153103D02*
X4637205Y-9172150D01*
X4637205Y-9172150D02*
X4627682Y-9181674D01*
X4627682Y-9181674D02*
X4608634Y-9191198D01*
X4608634Y-9191198D02*
X4570539Y-9191198D01*
X4570539Y-9191198D02*
X4551491Y-9200722D01*
X4551491Y-9200722D02*
X4541967Y-9210246D01*
X4541967Y-9210246D02*
X4532444Y-9229293D01*
X4532444Y-9229293D02*
X4532444Y-9267389D01*
X4532444Y-9267389D02*
X4541967Y-9286436D01*
X4541967Y-9286436D02*
X4551491Y-9295960D01*
X4551491Y-9295960D02*
X4570539Y-9305484D01*
X4570539Y-9305484D02*
X4608634Y-9305484D01*
X4608634Y-9305484D02*
X4627682Y-9295960D01*
X4627682Y-9295960D02*
X4637205Y-9286436D01*
X4637205Y-9286436D02*
X4646729Y-9267389D01*
X4646729Y-9267389D02*
X4646729Y-9229293D01*
X4646729Y-9229293D02*
X4637205Y-9210246D01*
X4637205Y-9210246D02*
X4627682Y-9200722D01*
X4627682Y-9200722D02*
X4608634Y-9191198D01*
X4770539Y-9105484D02*
X4789586Y-9105484D01*
X4789586Y-9105484D02*
X4808634Y-9115008D01*
X4808634Y-9115008D02*
X4818158Y-9124531D01*
X4818158Y-9124531D02*
X4827682Y-9143579D01*
X4827682Y-9143579D02*
X4837205Y-9181674D01*
X4837205Y-9181674D02*
X4837205Y-9229293D01*
X4837205Y-9229293D02*
X4827682Y-9267389D01*
X4827682Y-9267389D02*
X4818158Y-9286436D01*
X4818158Y-9286436D02*
X4808634Y-9295960D01*
X4808634Y-9295960D02*
X4789586Y-9305484D01*
X4789586Y-9305484D02*
X4770539Y-9305484D01*
X4770539Y-9305484D02*
X4751491Y-9295960D01*
X4751491Y-9295960D02*
X4741967Y-9286436D01*
X4741967Y-9286436D02*
X4732444Y-9267389D01*
X4732444Y-9267389D02*
X4722920Y-9229293D01*
X4722920Y-9229293D02*
X4722920Y-9181674D01*
X4722920Y-9181674D02*
X4732444Y-9143579D01*
X4732444Y-9143579D02*
X4741967Y-9124531D01*
X4741967Y-9124531D02*
X4751491Y-9115008D01*
X4751491Y-9115008D02*
X4770539Y-9105484D01*
X4922920Y-9305484D02*
X4922920Y-9172150D01*
X4922920Y-9191198D02*
X4932444Y-9181674D01*
X4932444Y-9181674D02*
X4951491Y-9172150D01*
X4951491Y-9172150D02*
X4980063Y-9172150D01*
X4980063Y-9172150D02*
X4999110Y-9181674D01*
X4999110Y-9181674D02*
X5008634Y-9200722D01*
X5008634Y-9200722D02*
X5008634Y-9305484D01*
X5008634Y-9200722D02*
X5018158Y-9181674D01*
X5018158Y-9181674D02*
X5037205Y-9172150D01*
X5037205Y-9172150D02*
X5065777Y-9172150D01*
X5065777Y-9172150D02*
X5084825Y-9181674D01*
X5084825Y-9181674D02*
X5094348Y-9200722D01*
X5094348Y-9200722D02*
X5094348Y-9305484D01*
X5189586Y-9305484D02*
X5189586Y-9172150D01*
X5189586Y-9191198D02*
X5199110Y-9181674D01*
X5199110Y-9181674D02*
X5218158Y-9172150D01*
X5218158Y-9172150D02*
X5246729Y-9172150D01*
X5246729Y-9172150D02*
X5265777Y-9181674D01*
X5265777Y-9181674D02*
X5275301Y-9200722D01*
X5275301Y-9200722D02*
X5275301Y-9305484D01*
X5275301Y-9200722D02*
X5284825Y-9181674D01*
X5284825Y-9181674D02*
X5303872Y-9172150D01*
X5303872Y-9172150D02*
X5332444Y-9172150D01*
X5332444Y-9172150D02*
X5351491Y-9181674D01*
X5351491Y-9181674D02*
X5361015Y-9200722D01*
X5361015Y-9200722D02*
X5361015Y-9305484D01*
X5751491Y-9095960D02*
X5580063Y-9353103D01*
X6008634Y-9105484D02*
X6027682Y-9105484D01*
X6027682Y-9105484D02*
X6046729Y-9115008D01*
X6046729Y-9115008D02*
X6056253Y-9124531D01*
X6056253Y-9124531D02*
X6065777Y-9143579D01*
X6065777Y-9143579D02*
X6075301Y-9181674D01*
X6075301Y-9181674D02*
X6075301Y-9229293D01*
X6075301Y-9229293D02*
X6065777Y-9267389D01*
X6065777Y-9267389D02*
X6056253Y-9286436D01*
X6056253Y-9286436D02*
X6046729Y-9295960D01*
X6046729Y-9295960D02*
X6027682Y-9305484D01*
X6027682Y-9305484D02*
X6008634Y-9305484D01*
X6008634Y-9305484D02*
X5989586Y-9295960D01*
X5989586Y-9295960D02*
X5980063Y-9286436D01*
X5980063Y-9286436D02*
X5970539Y-9267389D01*
X5970539Y-9267389D02*
X5961015Y-9229293D01*
X5961015Y-9229293D02*
X5961015Y-9181674D01*
X5961015Y-9181674D02*
X5970539Y-9143579D01*
X5970539Y-9143579D02*
X5980063Y-9124531D01*
X5980063Y-9124531D02*
X5989586Y-9115008D01*
X5989586Y-9115008D02*
X6008634Y-9105484D01*
X6161015Y-9286436D02*
X6170539Y-9295960D01*
X6170539Y-9295960D02*
X6161015Y-9305484D01*
X6161015Y-9305484D02*
X6151491Y-9295960D01*
X6151491Y-9295960D02*
X6161015Y-9286436D01*
X6161015Y-9286436D02*
X6161015Y-9305484D01*
X6294348Y-9105484D02*
X6313396Y-9105484D01*
X6313396Y-9105484D02*
X6332444Y-9115008D01*
X6332444Y-9115008D02*
X6341967Y-9124531D01*
X6341967Y-9124531D02*
X6351491Y-9143579D01*
X6351491Y-9143579D02*
X6361015Y-9181674D01*
X6361015Y-9181674D02*
X6361015Y-9229293D01*
X6361015Y-9229293D02*
X6351491Y-9267389D01*
X6351491Y-9267389D02*
X6341967Y-9286436D01*
X6341967Y-9286436D02*
X6332444Y-9295960D01*
X6332444Y-9295960D02*
X6313396Y-9305484D01*
X6313396Y-9305484D02*
X6294348Y-9305484D01*
X6294348Y-9305484D02*
X6275301Y-9295960D01*
X6275301Y-9295960D02*
X6265777Y-9286436D01*
X6265777Y-9286436D02*
X6256253Y-9267389D01*
X6256253Y-9267389D02*
X6246729Y-9229293D01*
X6246729Y-9229293D02*
X6246729Y-9181674D01*
X6246729Y-9181674D02*
X6256253Y-9143579D01*
X6256253Y-9143579D02*
X6265777Y-9124531D01*
X6265777Y-9124531D02*
X6275301Y-9115008D01*
X6275301Y-9115008D02*
X6294348Y-9105484D01*
X6532444Y-9105484D02*
X6494348Y-9105484D01*
X6494348Y-9105484D02*
X6475301Y-9115008D01*
X6475301Y-9115008D02*
X6465777Y-9124531D01*
X6465777Y-9124531D02*
X6446729Y-9153103D01*
X6446729Y-9153103D02*
X6437206Y-9191198D01*
X6437206Y-9191198D02*
X6437206Y-9267389D01*
X6437206Y-9267389D02*
X6446729Y-9286436D01*
X6446729Y-9286436D02*
X6456253Y-9295960D01*
X6456253Y-9295960D02*
X6475301Y-9305484D01*
X6475301Y-9305484D02*
X6513396Y-9305484D01*
X6513396Y-9305484D02*
X6532444Y-9295960D01*
X6532444Y-9295960D02*
X6541967Y-9286436D01*
X6541967Y-9286436D02*
X6551491Y-9267389D01*
X6551491Y-9267389D02*
X6551491Y-9219770D01*
X6551491Y-9219770D02*
X6541967Y-9200722D01*
X6541967Y-9200722D02*
X6532444Y-9191198D01*
X6532444Y-9191198D02*
X6513396Y-9181674D01*
X6513396Y-9181674D02*
X6475301Y-9181674D01*
X6475301Y-9181674D02*
X6456253Y-9191198D01*
X6456253Y-9191198D02*
X6446729Y-9200722D01*
X6446729Y-9200722D02*
X6437206Y-9219770D01*
X6722920Y-9105484D02*
X6684825Y-9105484D01*
X6684825Y-9105484D02*
X6665777Y-9115008D01*
X6665777Y-9115008D02*
X6656253Y-9124531D01*
X6656253Y-9124531D02*
X6637206Y-9153103D01*
X6637206Y-9153103D02*
X6627682Y-9191198D01*
X6627682Y-9191198D02*
X6627682Y-9267389D01*
X6627682Y-9267389D02*
X6637206Y-9286436D01*
X6637206Y-9286436D02*
X6646729Y-9295960D01*
X6646729Y-9295960D02*
X6665777Y-9305484D01*
X6665777Y-9305484D02*
X6703872Y-9305484D01*
X6703872Y-9305484D02*
X6722920Y-9295960D01*
X6722920Y-9295960D02*
X6732444Y-9286436D01*
X6732444Y-9286436D02*
X6741967Y-9267389D01*
X6741967Y-9267389D02*
X6741967Y-9219770D01*
X6741967Y-9219770D02*
X6732444Y-9200722D01*
X6732444Y-9200722D02*
X6722920Y-9191198D01*
X6722920Y-9191198D02*
X6703872Y-9181674D01*
X6703872Y-9181674D02*
X6665777Y-9181674D01*
X6665777Y-9181674D02*
X6646729Y-9191198D01*
X6646729Y-9191198D02*
X6637206Y-9200722D01*
X6637206Y-9200722D02*
X6627682Y-9219770D01*
X6932444Y-9305484D02*
X6818158Y-9305484D01*
X6875301Y-9305484D02*
X6875301Y-9105484D01*
X6875301Y-9105484D02*
X6856253Y-9134055D01*
X6856253Y-9134055D02*
X6837206Y-9153103D01*
X6837206Y-9153103D02*
X6818158Y-9162627D01*
X7008634Y-9105484D02*
X7008634Y-9143579D01*
X7084825Y-9105484D02*
X7084825Y-9143579D01*
X7380063Y-9381674D02*
X7370539Y-9372150D01*
X7370539Y-9372150D02*
X7351491Y-9343579D01*
X7351491Y-9343579D02*
X7341968Y-9324531D01*
X7341968Y-9324531D02*
X7332444Y-9295960D01*
X7332444Y-9295960D02*
X7322920Y-9248341D01*
X7322920Y-9248341D02*
X7322920Y-9210246D01*
X7322920Y-9210246D02*
X7332444Y-9162627D01*
X7332444Y-9162627D02*
X7341968Y-9134055D01*
X7341968Y-9134055D02*
X7351491Y-9115008D01*
X7351491Y-9115008D02*
X7370539Y-9086436D01*
X7370539Y-9086436D02*
X7380063Y-9076912D01*
X7437206Y-9105484D02*
X7561015Y-9105484D01*
X7561015Y-9105484D02*
X7494348Y-9181674D01*
X7494348Y-9181674D02*
X7522920Y-9181674D01*
X7522920Y-9181674D02*
X7541968Y-9191198D01*
X7541968Y-9191198D02*
X7551491Y-9200722D01*
X7551491Y-9200722D02*
X7561015Y-9219770D01*
X7561015Y-9219770D02*
X7561015Y-9267389D01*
X7561015Y-9267389D02*
X7551491Y-9286436D01*
X7551491Y-9286436D02*
X7541968Y-9295960D01*
X7541968Y-9295960D02*
X7522920Y-9305484D01*
X7522920Y-9305484D02*
X7465777Y-9305484D01*
X7465777Y-9305484D02*
X7446729Y-9295960D01*
X7446729Y-9295960D02*
X7437206Y-9286436D01*
X7799110Y-9305484D02*
X7799110Y-9105484D01*
X7884825Y-9305484D02*
X7884825Y-9200722D01*
X7884825Y-9200722D02*
X7875301Y-9181674D01*
X7875301Y-9181674D02*
X7856253Y-9172150D01*
X7856253Y-9172150D02*
X7827682Y-9172150D01*
X7827682Y-9172150D02*
X7808634Y-9181674D01*
X7808634Y-9181674D02*
X7799110Y-9191198D01*
X8008634Y-9305484D02*
X7989587Y-9295960D01*
X7989587Y-9295960D02*
X7980063Y-9286436D01*
X7980063Y-9286436D02*
X7970539Y-9267389D01*
X7970539Y-9267389D02*
X7970539Y-9210246D01*
X7970539Y-9210246D02*
X7980063Y-9191198D01*
X7980063Y-9191198D02*
X7989587Y-9181674D01*
X7989587Y-9181674D02*
X8008634Y-9172150D01*
X8008634Y-9172150D02*
X8037206Y-9172150D01*
X8037206Y-9172150D02*
X8056253Y-9181674D01*
X8056253Y-9181674D02*
X8065777Y-9191198D01*
X8065777Y-9191198D02*
X8075301Y-9210246D01*
X8075301Y-9210246D02*
X8075301Y-9267389D01*
X8075301Y-9267389D02*
X8065777Y-9286436D01*
X8065777Y-9286436D02*
X8056253Y-9295960D01*
X8056253Y-9295960D02*
X8037206Y-9305484D01*
X8037206Y-9305484D02*
X8008634Y-9305484D01*
X8189587Y-9305484D02*
X8170539Y-9295960D01*
X8170539Y-9295960D02*
X8161015Y-9276912D01*
X8161015Y-9276912D02*
X8161015Y-9105484D01*
X8341968Y-9295960D02*
X8322920Y-9305484D01*
X8322920Y-9305484D02*
X8284825Y-9305484D01*
X8284825Y-9305484D02*
X8265777Y-9295960D01*
X8265777Y-9295960D02*
X8256253Y-9276912D01*
X8256253Y-9276912D02*
X8256253Y-9200722D01*
X8256253Y-9200722D02*
X8265777Y-9181674D01*
X8265777Y-9181674D02*
X8284825Y-9172150D01*
X8284825Y-9172150D02*
X8322920Y-9172150D01*
X8322920Y-9172150D02*
X8341968Y-9181674D01*
X8341968Y-9181674D02*
X8351491Y-9200722D01*
X8351491Y-9200722D02*
X8351491Y-9219770D01*
X8351491Y-9219770D02*
X8256253Y-9238817D01*
X8427682Y-9295960D02*
X8446730Y-9305484D01*
X8446730Y-9305484D02*
X8484825Y-9305484D01*
X8484825Y-9305484D02*
X8503873Y-9295960D01*
X8503873Y-9295960D02*
X8513396Y-9276912D01*
X8513396Y-9276912D02*
X8513396Y-9267389D01*
X8513396Y-9267389D02*
X8503873Y-9248341D01*
X8503873Y-9248341D02*
X8484825Y-9238817D01*
X8484825Y-9238817D02*
X8456253Y-9238817D01*
X8456253Y-9238817D02*
X8437206Y-9229293D01*
X8437206Y-9229293D02*
X8427682Y-9210246D01*
X8427682Y-9210246D02*
X8427682Y-9200722D01*
X8427682Y-9200722D02*
X8437206Y-9181674D01*
X8437206Y-9181674D02*
X8456253Y-9172150D01*
X8456253Y-9172150D02*
X8484825Y-9172150D01*
X8484825Y-9172150D02*
X8503873Y-9181674D01*
X8580063Y-9381674D02*
X8589587Y-9372150D01*
X8589587Y-9372150D02*
X8608634Y-9343579D01*
X8608634Y-9343579D02*
X8618158Y-9324531D01*
X8618158Y-9324531D02*
X8627682Y-9295960D01*
X8627682Y-9295960D02*
X8637206Y-9248341D01*
X8637206Y-9248341D02*
X8637206Y-9210246D01*
X8637206Y-9210246D02*
X8627682Y-9162627D01*
X8627682Y-9162627D02*
X8618158Y-9134055D01*
X8618158Y-9134055D02*
X8608634Y-9115008D01*
X8608634Y-9115008D02*
X8589587Y-9086436D01*
X8589587Y-9086436D02*
X8580063Y-9076912D01*
M02*
